<svg version="1.1" id="svg" xmlns="http://www.w3.org/2000/svg" x="0" y="0" viewBox="0 0 2293 2053" xml:space="preserve"><style>.st0{fill:#fff}</style><path class="st0" d="M661.7 1861.3c-2.4-1.1-2.5-1.1-3.1 5.6-.3 3.7-.6 8.2-.6 10.2.1 3.3.2 3 2.6-3 1.4-3.6 2.7-7.6 3-9 .5-2.2.1-2.9-1.9-3.8zM819.5 1913c-.9 0-1.5.5-1.3 1.1.2.6.8 1.1 1.3 1.1s1.1-.5 1.3-1.1c.2-.6-.4-1.1-1.3-1.1zM583.2 1302.2c-2.4-2.6-5.2-6.3-6.2-8.2-3.5-6.8-17.5-18.4-33.5-27.8-3.8-2.3-8.7-4.8-10.8-5.7-3.7-1.5-3.8-1.5-2.7.4.6 1.1 10.9 11.9 22.9 24l21.9 22h12.8l-4.4-4.7zM860.4 1920.6c-2.6-.3-5.2-.6-5.8-.6-1.2 0-1.1.9 1.1 18l.6 4.5 4.4-9.4c2.4-5.2 4.4-9.9 4.4-10.6-.1-.7-2.1-1.5-4.7-1.9zM635.2 1401.6l2.3 8.1 1.8-18.4c1-10.1 2.7-24.1 3.7-31 1.1-6.9 1.9-13.5 1.9-14.7 0-1.7-2.5-3.5-11.7-8.6-6.4-3.6-17.3-10.2-24.2-14.8l-12.6-8.2h-15.8l2 2.2c25.1 27.7 45.6 61.1 52.6 85.4zM1093.8 1146.9l-5.7 1.9-5.7 1.9-.3 4.8c-.5 8.1 4.1 12.2 16.6 14.6 9.4 1.8 28.3.8 35.4-1.9 11.6-4.5 19.1-12.8 22.4-24.9 1.4-5 2.1-6.2 3.7-6.2 1.1 0 1.8-.2 1.6-.4-2-1.8-28.2-.9-29.8 1.1-.4.5-1.3 2.6-2 4.8-3.1 9.2-8.9 14.5-15.9 14.5-5.3 0-9.3-1.7-15.5-6.4l-4.8-3.8z"/><path class="st0" d="M604.1 1528.3c8.5-38.1 16.5-70.6 21.8-88.2 4.6-15.4 5-20.7 2.1-32.6-6.5-27.1-28-60.4-64.3-99.6-7.4-8-16.5-17.3-20.2-20.5-8.5-7.5-21.1-21.7-23.7-26.7-2.4-4.8-2.1-7.4 1.3-9.9 2.5-1.9 2.8-1.9 8.5-.3 17.4 5 48 27.2 55.3 40.1 3.5 6.1 11.6 13.3 26.1 23 9.9 6.6 35.3 21.5 35.8 21 .2-.2 1.9-8.1 3.8-17.7 8.9-44.3 23.3-94.8 37.3-131.3l2.9-7.6-5.5-2.4c-10.4-4.6-35-13.3-50.4-17.9-26.6-7.8-47-12.2-70.2-15.1-15.3-1.9-41.6-2.6-53.6-1.5-41.1 4-73.6 20-93.3 46-27.4 36.2-23.4 93.4 9.8 137.5 7.5 9.9 18.1 19.8 31.9 29.6 38.9 27.6 70.8 64.3 80 91.9 6.7 20.4 3.6 36.4-9.8 49.5-10.9 10.7-25.8 17-54.9 23.1-37.2 7.8-54.3 15.3-52.3 22.9.8 3 6.5 7.4 15.6 12 32.3 16.3 102.7 24.9 135.7 16.5 7.8-2 18.1-6.4 21.7-9.4 1.3-1.3 3.4-9 8.6-32.4zM1210.6 1144c-.2 0-8.9-1.3-19.2-3-10.3-1.6-20.2-3.2-21.8-3.5-3-.5-3-.4-4.1 5.3-2.4 12.9-11.6 25.2-22.6 30.6-20.1 9.8-52.3 8-63.9-3.6l-3.9-3.9 2.2 4.2c5 9.8 20 20.5 40 28.5 42.9 17.2 68.6 10.8 84.4-21.1 5.2-10.8 11.3-33.5 8.9-33.5zM1115.2 1148.7c2.4-.6 6.8-6.1 6.8-8.5 0-1.4.5-1.4-9.8 1.2-4.5 1.1-8.2 2.4-8.2 2.8 0 1.5 8.7 5.1 11.2 4.5zM1228.6 1936.8c-.3.4 1.9 8 4.8 16.8l5.2 16 2.1-8c1.9-7.1 3.3-14.2 4.6-22.8l.4-2.8h-8.3c-4.5 0-8.5.4-8.8.8zM1356.5 1925.9c-4.3.5-5 .9-4.7 2.6.5 3.3 9.3 29.9 10.1 30.8.4.4 1.1-.7 1.4-2.5.6-2.9 2.5-25.1 2.6-30.1.1-1.8-.4-1.9-9.4-.8zM771.5 1097.5c8.2-2.6 18.5-5.6 22.8-6.8 4.3-1.2 7.7-2.4 7.7-2.7 0-.8-38.5-19-45.8-21.7-9.9-3.7-17.4-3-31.8 2.8-14 5.6-24.7 9-30.7 9.6l-5.8.6 2.6 2.7c1.4 1.5 5.1 4 8.2 5.5 5.9 2.9 45.7 13.5 53.3 14.2 3.4.3 8.2-.7 19.5-4.2zM287.3 1378.8c-.9.6-.7 1.5.7 3.7l2 3v-3.8c0-3.7-.5-4.3-2.7-2.9zM1886.5 1013.9c0 24.4.9 25.9 6 10.9 3.9-11.5 5.7-24.9 4.1-31.3-.4-1.4-1-2.5-1.4-2.4-.4.1-1.9.3-3.4.6-5 .8-5.3 2.1-5.3 22.2zM1587 837c-7 2-24.2 10.3-26 12.5-1.2 1.5 5.5 4.4 27 11.7 26.9 9.2 44.9 12.1 71 11.6l16.5-.3-37.1-18.8c-40.9-20.6-39.5-20.1-51.4-16.7zM1871.5 1012.5c2.8 5.4 3.5 6.2 3.9 4.3.8-3.7 2.6-17.7 2.6-19.8 0-1.8-1.1-2.3-3.5-1.4-.6.2-3.6.9-6.8 1.5l-5.8 1.1 3.1 3.9c1.7 2.1 4.6 6.8 6.5 10.4zM1508.1 1350.5c1.2 9.5 5.7 30.5 11.4 52 13.5 51.6 25.5 60.7 53.1 40.2 6.9-5.1 8.1-7.1 21.7-34.3 11.3-22.7 16.8-35.7 23.2-54.9 7-20.9 9.4-32.9 10.1-49.6.7-16.8-.5-25.6-6.2-45.4-7.2-25-7.9-31.8-4.5-45.1 3.7-14.6 12.1-29.4 28-49.4 26.7-33.6 46.2-44.1 64-34.4 7.2 3.9 18.6 16.4 31.5 34.5 6.1 8.5 15.3 20.8 20.6 27.5 10.2 12.7 47.3 49.8 63.2 63.2 37.2 31.2 70.9 39 124.1 28.6 51.5-10 139.7-46.9 162.5-68 12.6-11.6 11.4-15.8-5.7-20-5.1-1.3-11.3-1.7-24.8-1.7-19.3 0-26 .7-57 5.9-28.7 4.8-41 5.8-61.3 5.3-21.3-.6-32-3-46.3-10.4-22.4-11.6-35.7-26.3-59.1-65.2-24.5-40.7-47.2-71.1-72.9-97.3l-10.4-10.6-13-5.1c-22.1-8.7-37.7-12.9-56.5-15.2-9.8-1.2-25.5-1.2-35.4.1-44 5.6-81.3 33.5-107.9 80.4-10.2 18-15.8 34.8-27.7 82.6-20.1 81.4-29.2 149.3-24.7 186.3z"/><path class="st0" d="M692.6 1070.6c2.7-.4 8.7-2.1 13.4-3.7 31.9-11.4 31.2-11.2 39-11.1 9.5.1 12.7 1.3 41.5 15 41.7 19.9 63.6 27.6 86 30.3 21.8 2.6 42.9-2.4 56.8-13.3 2.9-2.3 9.7-6.3 15.1-9 12.9-6.3 21.6-14.4 21.6-19.9 0-8-7-12.5-40.5-26.1-34.2-13.8-56-20.5-80.1-24.7-13.8-2.4-34-3.2-44.4-1.9-16.7 2.1-31.5 7.1-45.5 15.3-4.4 2.6-8.5 5-9.2 5.4-.7.4-10.7 7.2-22.2 15.1-22.4 15.3-33.3 23.8-35.1 27.2-1.2 2-1.1 2 3.6 1.4zM592.7 340l11.2 3 15.8-1.5c58.2-5.4 170.7-5.8 313.3-1 23.9.8 50.7 1.7 59.5 2l16 .5-5-2.5c-4.6-2.3-13.6-4.7-22.7-6.1-3.5-.5-3.9-1-7.6-8.8-11.8-25.1-30.7-47.9-50.8-61.3-10.4-6.9-19.5-11-31.4-14.2-12.1-3.2-32.9-3.6-45.5-.8-26.8 5.8-56.8 21-84 42.4-5 3.9-9.3 7.1-9.6 7.1-.3 0-1.1-2.9-1.8-6.5-1.7-9.1-6.6-23.5-11.4-33-13.7-27.3-33.4-43.7-59-48.9-13.5-2.8-32.4-1.7-49.8 2.9-16.3 4.3-42.5 16.1-62 28l-9.5 5.8-11.5-3.6c-24.3-7.6-40.3-10.1-59-9.3-19.9.9-31.8 5.1-42.9 15.2-6.6 6-12 14-14.6 21.8l-1.9 5.7h-13.9c-23.1 0-41.2 4.8-57.2 15.2l-8 5.2 18.5 1.8c65.7 6.3 156.8 22.8 224.8 40.9z"/><path class="st0" d="M753 285.8c.6 2.3 1.7 4.2 2.4 4.2s4.3-2.3 8-5.1c18.6-14.1 44.8-28.6 62-34.4 47.5-16 90-5.4 123.2 30.9l7.8 8.6h181l-5-4.5c-11.8-10.6-30.8-21.5-46-26.5-5.9-1.9-9.4-2.3-21.8-2.4l-14.8-.2-1.8-2.9c-6.1-9.9-19.3-20.1-32.8-25.2-13.2-5.1-23.3-6.5-42.3-5.8-17.3.6-30.1 2.8-46.2 8L919 233l-5.7-7.1c-8.7-10.9-25.9-27.4-35.9-34.5C867 184 855 178 846.3 175.8c-9.6-2.4-23.4-2-31.7.9-11.6 4.1-22.1 12.1-31.6 24-4.6 5.8-5.2 6.2-13.7 8.9-8 2.6-46.3 17.3-47.2 18.2-.2.2 1.7 2.7 4.2 5.5 11.8 12.8 21.4 31.7 26.7 52.5zM1419.7 292.1l7.8 3.4 383.8.3 383.7.2v-2c0-5.9-6.1-11.1-17-14.5-6.7-2.1-38.4-3.1-50-1.7-4.1.5-7.6.9-7.8.7s.9-2.9 2.4-6.1c3.5-7.8 4.3-17.7 2-23.8-7.7-20.3-48.1-33.3-109-35.3-18.7-.6-20.2-.8-23.4-3-8.8-6-26.6-8.9-49.2-8-22.2.8-32.5 2.3-71.5 10.3-1.6.3-2.6-1-5.7-7.4-8-16.9-28-31.4-61.1-44.3-30-11.7-77.3-22.6-120-27.5-9-1.1-16.7-2.6-21.2-4.2-5.8-2.1-9.2-2.6-19.5-2.9-17.6-.5-27.9 2.2-48.5 12.3-23.8 11.8-46.3 29-74.7 57.3l-19.7 19.6-21.3 5.3c-43.9 10.9-70.8 21.9-82.5 33.6-6 6-6.3 6.5-6.3 11.2 0 3.9.6 5.8 3 9.1 3.7 5.2 15 12.8 25.7 17.4zM2161.3 1566.5c-13.6-2-12.6-2.2-11.8 2.8.9 5.9 4.4 29.6 4.8 33.2.4 3 .4 2.9 2.6-1.9 3.9-8.3 8.9-16.3 15.1-24.1l5.9-7.5-3.2-.6c-1.7-.2-7.8-1.1-13.4-1.9zM2110.4 1566.7c-1.4 13.1 4 33.8 14.3 55.3l5.5 11.5 1.3-7c2.5-13.7 3.5-33.6 2.4-48.7-.6-7.9-1.4-14.6-1.8-14.9-.4-.4-4.2-1.2-8.5-1.8-13-1.9-12.3-2.1-13.2 5.6zM1930.3 1535.8c-3.7-.3-4.2-.1-4.2 1.6 0 2.4 3.5 17.4 4.2 18.1.3.3 1.7-3.7 3.1-8.8 1.4-5.1 2.3-9.5 1.9-9.9-.5-.3-2.7-.8-5-1zM840.5 1147c0 3.2.4 3.7 5.5 6.3 7.3 3.7 15.6 3.5 21.8-.6 4.9-3.2 12.9-13.4 11.6-14.7-.5-.5-3.8-1.2-7.4-1.6-5.8-.6-6.7-.4-8.4 1.4-3.7 4.1-10.1 6.3-16.9 6l-6.2-.3v3.5z"/><path class="st0" d="M842.1 1161.3c-2.1-.8-.9 6.3 2.1 12.9 5.1 11.2 14.5 16.9 28.9 17.6l8.6.4 2.8-4.9c5.7-10.1 18-30.1 22.7-37.2 2.7-4 4.8-7.5 4.6-7.7-.2-.2-4.2-.8-8.8-1.4s-9.6-1.3-11-1.6c-2.1-.4-2.9.3-5.5 4.7-4.1 7-12 15-17.6 17.7-8.3 4-16.2 3.8-26.8-.5zM852.7 1134.9l2.8-1.1-5-1.4c-5.7-1.5-6.9-1.7-7.8-.7-1.2 1.2-.7 2 1.9 3.2 3.1 1.4 4.5 1.4 8.1 0zM1776.4 301.7c3.7 9.6 32.7 40.3 48.6 51.5 24.6 17.3 54.1 28.5 83.9 31.8 15.3 1.7 39.4.8 53.6-2 30.5-6 58.2-19.4 82.6-39.9 12.3-10.3 26.5-26.4 34.3-38.9l2.7-4.2H1929c-143.9 0-153.2.1-152.6 1.7zM686.8 982l4.2-8.1c9.2-17.7 5.8-28.8-10.7-33.8-3.6-1.1-7.8-2-9.2-2-5.5 0-7.1-1.1-10.4-7.4-1.9-3.7-6.4-9.4-11.4-14.4-6.7-6.8-9.6-8.9-16.5-12.1-11.3-5.2-17.4-6.5-30.6-6.6H591l-2-5.5c-4.3-11.8-11.9-19.8-22.9-24.1-4.4-1.7-8.4-2.3-17.9-2.6-14.1-.5-23.2 1-38.7 6.2l-9.9 3.3-9.2-5.8c-16.3-10.3-32.1-17.5-46-21-9.5-2.4-25.4-2.6-33.5-.4-21.7 5.8-39 28.3-45.7 59.1l-1.7 8.1-10.1-8.2c-19.3-15.6-36.1-24.8-53.4-29.3-8.3-2.1-11.3-2.4-20.7-2.1-17.8.7-30.3 6.1-44.4 19.2-10.2 9.5-18.2 20.7-25 34.6l-5.7 11.7-4.5.6c-12.9 1.6-22.7 7.7-27.4 17-2.5 4.8-3 7.3-3.4 14.7l-.4 8.9h518.3zM1298.8 1117.5c-9.2-2.1-59.9-7.9-83.2-9.4-21.4-1.4-38-1.7-53.5-1-22.1 1.1-32.9 3.8-40 10.3-4.8 4.4-11.8 7.9-19 9.7-8.5 2.1-27.5 1.7-40.7-.9-10.6-2.1-28.5-7.7-34.5-10.8-3.7-1.9-3.7-.2.1 5.7 6.4 10 19.3 18.5 35.2 23l7.5 2.2 12.7-4.6c23.2-8.4 51.4-14.6 66.4-14.6 6.1 0 27.7 3 54.2 7.5 13.1 2.2 18.3 2.6 36 2.6 33 0 50.7-3.5 58.8-11.6 2.9-3.2 3-7.4 0-8.1zM1776.1 147.1c27.8 7.9 51.3 17.8 67.5 28.5 10.1 6.7 22 19.1 25.8 26.8 2.4 5 3.1 5.8 5 5.3 6.3-1.6 28.7-5.7 39.2-7.3 8.7-1.3 18.3-1.8 35-1.8 21.1 0 23.7.1 31 2.3 4.4 1.3 10.5 3.6 13.5 5.2 5.4 2.8 6 2.9 25 3.4 32.3.9 62 5.8 81 13.4l7.5 3 .8-2.1c1.3-3.3 0-38.1-1.7-47.5-5.1-27.1-15.3-51.7-30.4-73.1-8.3-11.8-29.8-33.5-41.2-41.7-23-16.4-48-26.8-76.5-31.8-8.7-1.5-36.4-2.7-43.5-1.9-46.5 5.5-80.6 21.3-111.1 51.4-12.5 12.4-20.9 23.1-29.4 37.5-5.4 9.1-13 25.4-12.3 26.1.2 0 6.8 2 14.8 4.3zM1373.3 1252.8c-.9-1-6.5-3.4-12.5-5.3-12.5-4.1-13.3-4.1-17.5-1.6-5.9 3.6-8.2 9-16.4 38.1-8.9 31.7-10.4 38.6-10.4 49.5-.1 9.9 0 10.1 4.4 18.9 5.8 11.7 6.1 17.1 2.7 44.6-1.4 11.3-2.6 22.7-2.6 25.3 0 7.3 1.9 13.4 4.9 15.8 2.3 1.8 3.5 2 9.6 1.5 3.8-.3 8.7-1.1 10.8-1.7 5.4-1.6 11.1-7.6 12.5-13.3 2.3-9.2 1.1-33.9-3.1-61.7-5.3-35.3-2.1-55.9 13.3-87.6 6.5-13 7.6-18.9 4.3-22.5zM726.8 1389.7c3.3 6.5 5.9 7.7 14.5 6.9 9.6-.8 14-2.2 17.8-5.4 5.7-4.8 6.9-9.3 7.8-29.1.7-14.6 1.3-19.2 3.5-26.7 6.6-22.2 21.2-45.2 33-52 2.2-1.3 6.6-3.1 9.7-4 11.7-3.3 19.6-11.2 26.8-26.7 6.4-13.7 8.4-23.6 5.6-27.4-1.3-1.8-2.8-2-17.8-2.1-9-.1-17.5.1-18.8.3-3.7.6-15.5 9.6-19 14.5-2.2 3-3 5.3-3 8.3-.1 12.8-18.3 36.7-34.8 45.4-4.8 2.6-6.8 4.4-9.6 8.9-4 6.5-9.3 19.6-12.9 32.3-6.1 21.5-7.4 47.9-2.8 56.8z"/><path class="st0" d="M1208.7 1024.1c-14.9-1.2-48.4-1.2-60.7.1-20.7 2.1-41 7.5-49.7 13.3-4.8 3.2-5.4 3.3-18.9 4-45.8 2.3-78 11.8-84.4 25-2.9 6.1-2.1 10.8 3 18 9.7 13.6 36.2 27.3 64.2 33.4 5.9 1.3 12.6 1.8 23.8 1.8 14.8 0 15.8-.1 21.4-2.8 3.2-1.5 7.7-4.4 9.8-6.3 7.1-6.4 17.7-9.6 38.9-11.5 35.1-3.3 130.7 5.5 170.9 15.6 23.3 5.9 38 6.5 43.2 1.8 2.4-2.2 2.4-7.9-.1-14.3-2.7-7-12-20.7-18.7-27.4-26.5-26.7-79.9-45.6-142.7-50.7zM679.5 1349c5.7 0 10.9-9 19.9-34.6 10.4-29.4 15.5-40.5 23.5-51.4 10.3-13.9 14-27.3 14-51 0-15.9-1.6-31.5-3.4-33-1.9-1.6-8.9-2.2-10.9-1-3.9 2.4-4.9 7.5-5.7 28.9-.6 17.2-1.2 22.1-3.3 30.3-4 15.2-10.5 30.6-27.3 64.2-15.3 30.6-17.4 36.1-15.9 41.9.7 3 5.2 5.7 9.1 5.7zM870.9 1435.3c-2.3 5-5.7 12.5-7.5 16.7-1.9 4.1-3.4 8.7-3.4 10.2 0 2.3.6 2.9 4.2 3.9 2.3.6 9 2.6 14.8 4.3 6.8 2 12.7 3.1 16.7 3.1 5.4 0 6.6-.4 10-3.1 8-6.4 14.1-21.5 24.3-59.9 6.1-22.9 11.4-34.7 19.2-42.7 4.9-5 5.3-5.7 5.9-11.8.8-8-.4-17.1-2.8-21.3-1.4-2.5-3-3.5-6.7-4.4-5.8-1.4-17.3-2.4-20.1-1.6-5.1 1.4-7.6 5.6-9.5 16.3-1.6 8.9-5.4 15.5-17.1 29.5-12 14.5-16.8 23.5-20.9 39.8-1.6 6.6-4.8 16-7.1 21zM1174 1424c1.1 24 4.5 34.4 14.4 44.8 7.9 8.3 13.4 9.2 22.5 3.8 3.1-1.9 8.6-4.6 12.1-6.1 9.1-3.8 11-5.1 11-8.1 0-3.1-3.2-9.5-7.5-15.2l-3.2-4.2-.5-24.3c-.9-40.5-5.1-56.8-18.5-72-12.3-13.9-19.2-33-19.2-53.2 0-9.4-1.3-15.2-4.3-18.3-2.7-3-7.7-2.9-14.3.1-14.2 6.6-21.2 23.3-20.1 48.1l.5 11.1 6.6 14.2c7.9 17 14.8 37 17.7 51.3 1.1 6.4 2.3 17.3 2.8 28zM1063.4 1353.1c4.8-13.8 5.7-32.1 2-39.3l-1.5-2.8h-21.2l-3.8 3.8c-4.8 4.8-5.8 8.5-6.5 24.2-1.2 25.7-3 34.6-9.6 49.1-7.4 16.1-7.1 29 1 52.8 4.6 13.3 5.8 18.8 8.9 40.3 1.8 12.6 4.2 14.8 16.2 14.8 13.8 0 19.7-5.4 20.7-18.9.6-8.9-1.6-19.9-7.8-38.1-6.5-19.1-7.4-25.1-6.7-43 .8-15.3 3.3-28.3 8.3-42.9z"/><path d="M1398.2 284.9c3 2.2 10.3 6.4 16.3 9.3l11 5.3 172.2.3 172.2.3 4.2 6.2c8 11.9 16.7 22.3 27 32.3 25.8 25.1 54.9 40.5 90.8 48.2 11.7 2.5 14.2 2.7 37.1 2.7 21.8 0 25.7-.3 35-2.3 49.3-10.8 88.8-37 116.8-77.4l6.3-9.2 56.2-.5 56.2-.5.3-2.2c1-7-4.6-15.1-13.2-19.2-9.9-4.7-31.6-7-49.9-5.4-5.4.5-9.7.8-9.7.8 6.1-19.4 2.8-32.2-10.8-41.6l-4.7-3.2v-23.1c0-21.2-.3-24.2-2.7-35.7-6.3-29.5-19.3-56.9-37.8-79.4-8.4-10.3-25.3-26.1-36-33.7-17.8-12.6-42.4-23.8-63.8-28.9-18.7-4.5-44.7-6-63.8-3.8-64.2 7.5-121 49.5-146.9 108.6-2.1 4.8-3.9 8.9-3.9 9 0 .1-4.8-.9-10.6-2.2-14.1-3.2-42-8-61-10.4-8.5-1.1-18.1-2.9-21.2-4-38-13.4-91.3 11.9-149 70.7l-15.7 16-20.8 5.2c-26.8 6.7-50.8 14.7-65.1 21.7-18.6 9.1-28.8 20.7-26.7 30.3 1.1 4.7 6.1 11.5 11.7 15.8zm681.2 19.3c-7.8 12.6-22 28.6-34.3 38.9-24.5 20.5-52.2 33.8-82.6 39.9-14.2 2.8-38.3 3.7-53.6 2-29.7-3.3-59.3-14.5-83.9-31.8-15.9-11.2-44.9-41.9-48.6-51.5-.6-1.6 8.7-1.7 152.5-1.7H2082l-2.6 4.2zm-305.9-187.7c8.5-14.4 16.9-25.1 29.4-37.5 30.5-30.1 64.6-45.9 111.1-51.4 7.1-.8 34.8.4 43.5 1.9 28.5 5 53.5 15.4 76.5 31.8 11.4 8.2 33 29.9 41.2 41.7 15.1 21.4 25.3 46.1 30.4 73.1 1.8 9.4 3 44.2 1.7 47.5l-.8 2.1-7.5-3c-19-7.6-48.7-12.5-81-13.4-19-.5-19.6-.6-25-3.4-3-1.6-9.1-3.9-13.5-5.2-7.3-2.1-9.9-2.3-31-2.3-16.7 0-26.3.5-35 1.8-10.5 1.6-32.9 5.7-39.2 7.3-1.9.5-2.6-.3-5-5.3-3.7-7.7-15.6-20.1-25.8-26.8-16.2-10.7-39.7-20.6-67.5-28.5-7.9-2.2-14.6-4.3-14.8-4.5-.7-.6 6.9-16.8 12.3-25.9zm-376.2 138c11.7-11.7 38.6-22.7 82.5-33.6l21.3-5.3 19.7-19.6c28.4-28.3 50.9-45.5 74.7-57.3 20.6-10.2 30.9-12.8 48.5-12.3 10.3.3 13.7.8 19.5 2.9 4.5 1.6 12.1 3.1 21.2 4.2 42.7 5 90 15.8 120 27.5 33.1 12.9 53.2 27.4 61.1 44.3 3 6.4 4 7.7 5.7 7.4 39-8 49.3-9.5 71.5-10.3 22.6-.8 40.4 2.1 49.2 8 3.2 2.2 4.7 2.4 23.4 3 60.9 2 101.3 15 109 35.3 2.3 6.1 1.5 16.1-2 23.8-1.5 3.2-2.5 6-2.4 6.1s3.6-.2 7.8-.7c11.6-1.5 43.3-.4 50 1.7 10.9 3.4 17 8.6 17 14.5v2.1l-383.7-.3-383.8-.3-7.8-3.4c-10.7-4.6-22-12.2-25.7-17.2-2.4-3.3-3-5.2-3-9.1 0-4.9.3-5.4 6.3-11.4zM377.2 1386.6c-.4-8.4-1.1-15-1.7-15.2-.5-.2-1.8.2-2.8.7-5 2.9-7.7 15.9-8.6 41.9l-.7 19.5-2.7-5.9c-1.5-3.2-4.4-8.5-6.3-11.8-2.8-4.6-3.9-5.7-4.9-4.8-1.1.9-1 1.7.3 4.3 2.1 4.2 2.7 15.9 1.2 24.4-.6 3.7-2.7 11.4-4.6 17.1-3.2 9.6-3.5 12.2-1.5 12.2.8 0 6-14.7 8.2-23 .6-2.5 1.5-8.3 1.8-13l.7-8.5 2.7 5.9c3.3 7.1 5.7 16.1 5.7 21 0 2.4.5 3.6 1.4 3.6 1.1 0 1.5-5.4 1.9-29.8.6-29.7 1.8-42 4.8-47.4 1.2-2.1 1.5.7 2.5 21.5.7 13.2 1.7 27.6 2.3 32.1 1.4 10.6 3.8 18.7 5.4 18.1 1.4-.5 1.4-.9-.7-10.2-1.6-6.9-3.1-25.2-4.4-52.7z"/><path d="M2243 1572.3c-8-1.2-20.9-3.2-28.7-4.4l-14.2-2.2.6-2.6c1.5-6.2 5.6-13.5 10.3-18.5 3.4-3.6 4.9-5.9 4.4-7-.3-.9-.9-1.6-1.3-1.6-1 0-17.5 14.2-24.8 21.3l-6.2 6-15.3-2.2c-8.4-1.2-16.5-2.4-17.9-2.7-2.4-.5-2.8-1.3-4.9-10.2-5.2-22.6-12.9-41.3-19.5-47.1-3-2.7-10-5-11.3-3.7-.3.3.7 3.3 2.2 6.6 4.1 9 8.3 22 11.6 35.4 3.8 15.4 3.8 16.6.2 16-6.9-1.2-97.3-13.4-138.4-18.6l-17.7-2.2-.6-7.6c-4-46.8-10.2-79.6-18.5-96.7-5.6-11.5-11.2-15.8-17.5-13.3l-3 1.1 4.7 2.4c5.9 3 9.3 8.5 11.4 18.6 3.4 16-.8 54-9.6 86.7l-1.2 4.4-6.1-.6c-3.4-.4-6.6-1.1-7.1-1.6s-.9-8.2-.9-17.2c0-17.7 1.5-27.4 5.9-38.2 1.8-4.5 2.1-6.2 1.2-6.7-2-1.3-2.6-1-5.8 3.4-7.5 10.3-15.2 30.1-18.5 47.5-1.4 7.3-2.1 9.2-3.4 9.2-.9 0-23.9-2.5-51.1-5.5s-53.2-5.8-57.9-6.3c-7.7-.7-8.5-1-8.3-2.8.1-1.1 1-6.9 1.9-13 2.9-18.9.7-49.7-4.6-67.4-2.9-9.4-5.3-15.1-6.5-15.1-2.3 0-2.5 1.6-1 8.2 3.9 17.5 2.7 36-4.1 61.7-2 7.5-2.5 6.9-4.9-5.4-1.2-6.4-1.8-14.3-1.8-27.7 0-10.3-.4-18.7-.9-18.8-2.3 0-5.1 2.6-6.7 6.3-2.9 6.5-4.1 15.7-4.8 35.3l-.7 18.2-9.1-5.7c-18.8-11.8-31.1-11.7-33.1.5l-.6 3.9 4.2-3.8c2.3-2.1 4.7-3.7 5.4-3.7 4.3 0 11.9 8.6 17.7 19.8l2.2 4.3-3.8-.6c-8.5-1.3-101.8-8.6-130-10.2-12.1-.7-12.2-.7-12.7-3.3-.3-1.4-1.5-13.9-2.8-27.8l-2.3-25.2 11.6-22.8c23.9-47.1 34.8-78.8 37.9-110.2 1.7-17.4-.3-32.6-7.2-55.2-5.1-16.6-6.3-30.7-3.4-40.5 3.7-12.9 13.8-29.2 30.4-49.4 10.5-12.7 20.5-21.9 28.5-26.2 14.5-7.7 24.8-2.3 42.8 22.4 30.3 41.5 33.9 45.8 59.5 70.8 44.5 43.4 63.2 55.7 95.7 62.7 11.4 2.5 41.9 2.4 57-.1 33.7-5.7 78.2-20.3 123.4-40.7 43.1-19.4 65.1-36.2 65.2-49.5.1-7-8.4-13.7-20.8-16.4-8.7-1.9-33.5-2.4-47.8-1.1-7.1.7-20.5 2.5-29.8 4.1-33.3 5.6-40.2 6.4-60.5 6.4-14.8 0-21.3-.3-27.1-1.6-30.9-6.9-51-24.5-75.9-66.6-24-40.4-44.4-68.2-73.4-99.6-4.9-5.3-8.7-9.9-8.4-10.1.7-.7 45.4-12.8 57.2-15.4 8.2-1.9 10-2 10.8-.9 1.1 1.7.2 13.4-1.8 21.6-1.4 5.9-1.3 8.3.6 8.3 1.1 0 3.8-12 4.6-20.6.3-3.8.2-9.3-.3-12.1-.5-2.9-.8-5.2-.7-5.2.2 0 3 3.6 6.3 8 6.8 9 11.7 18.6 12.7 24.8.7 4.6 3.1 5.7 3.8 1.9.2-1.2 1-7.2 1.6-13.2 2.3-21.2 7.5-44.6 11.1-49.5.9-1.2 1-1.1.4.5-2.3 6.8-5.5 21.6-6.6 30.6-1.4 11.7-.7 32.6 1.4 42.9l1.3 6.5 3.1-6c3.6-7 7.8-18.9 9.4-26.6 1.1-4.9 1.2-5.2 2.1-2.9 1.8 4.9 3.8 17.3 3.8 24.1 0 5.5.3 6.9 1.5 6.9s1.5-1.6 1.5-8.2c0-9.8-2.6-22.3-7-33.7-1.8-4.6-2.8-8.6-2.3-9 2-1.7 63.6-11.6 102.9-16.6 27.9-3.5 76.9-8.5 83.2-8.5 3.2 0 3.3.1 3.3 4.4 0 2.4-.5 5.8-1.1 7.6-.8 2.3-.8 3.5 0 4.3 1.9 1.9 4.1-5.4 4.1-13.6 0-8.3-2.5-17.7-7.2-27-1.6-3.2-2.8-6-2.5-6.3 1-1 8.8 9.2 12.5 16.4 4 7.7 6 13 8.2 21 .7 2.7 1.7 4.2 2.7 4.2 1.2 0 1.4-.6.9-2.8-.4-1.5-.9-5.9-1.2-9.8l-.6-7 2.6 5c4.1 7.8 6.2 10.2 7.6 8.8.9-.9.7-1.9-.9-4.1l-2.1-3 9.7-.6c5.4-.3 15-.9 21.5-1.2 10.7-.6 11.8-.8 11.8-2.5 0-2.3-3.1-2.4-28-.9-15.1.9-16.6.9-17.8-.7-1.7-2.3-1.6-8.8.2-12.3 1.3-2.4 1.3-3 .1-4-1.7-1.4-3.3 1.3-6.1 10.2l-1.8 5.8-3.4-6.8c-5.6-11.2-10.8-17.2-17.7-20.4-5.8-2.7-7-2.4-4.7.9 4.7 6.6 12.2 24.1 12.2 28.3 0 1.4-1.5 1.8-10.2 2.4-48.2 3.2-135.2 15.1-184.6 25.2l-3.4.7.7-4.9c.6-4 5-18.7 7.2-24.3.7-1.8-4.4-.7-6.8 1.5-2.5 2.3-6.5 12-8.5 20.9-1 4.4-2.2 8.3-2.7 8.6-.5.3-5 1.4-10.2 2.4l-9.3 1.8-6.7-6.8c-7.9-8-10.6-7.8-5.1.4 1.9 2.9 3.5 6 3.5 6.9 0 1.3-3.8 2.6-18.2 6-10 2.4-26.1 6.6-35.6 9.3l-17.4 4.9-10.6-4.5c-21.6-9.2-39.3-14.4-58.7-17.3-13.6-2-41.9-1.5-53.4 1.1-44.5 9.9-81.4 40.4-106.1 87.8-3.3 6.4-6 10.6-6.3 9.7-.3-.8-5.1-31.2-10.7-67.5-8.1-52.1-10.3-68.9-10.7-79.7-1.1-34.9 7.6-64.8 24.1-82.4l5.2-5.6 15.5 6c17.9 6.9 34.8 12.2 48.7 15.2 7.9 1.7 15.3 2.3 39.3 3 16.2.5 31.9 1.3 34.8 1.9 8 1.6 12.9 4.1 29 14.9 24.8 16.6 45.7 26.8 72.8 35.5 27.2 8.8 52.7 12.8 81.3 12.8 40.6 0 75.1-7.6 114.9-25.6 26-11.7 59.2-33.1 83-53.5 3.6-3.1 11.5-8.2 17.4-11.4 38.3-20.2 77.4-50.7 100.9-78.7 43.6-51.9 51.6-104.3 24.2-158-15.5-30.4-40-51.1-73.4-62-28-9.2-63.1-11.3-125.1-7.5-29.4 1.8-49.2 1.6-59-.5-3-.7-12.9-4.3-22-8.2-126-53.3-251.4-84.1-321.4-79l-14.9 1.1-9.1-6.3c-37.2-25.7-89-50.2-146.1-69.1-69.7-23.1-141.5-36.4-230.5-42.6-22.3-1.6-103.1-1.5-125 0-12.5.9-23 .9-43.5 0l-27-1.1-4.3-3c-6-4.2-14.4-7.4-24.1-9.2-4.6-.9-8.5-1.6-8.7-1.6-.2 0-2.5-4.2-5-9.2-2.5-5.1-7-13-10-17.5-3-4.6-5.4-8.5-5.4-8.8 0-.3 42.2-.5 93.8-.5h93.8l-8-7.7c-13.6-13-32.9-25-48.5-30-10.8-3.5-16-4.3-27.5-4.3h-11l-4.2-5.4c-10.1-13.1-29.5-23.7-50.3-27.6-9.5-1.8-32.6-1.5-44.5.6-5.5 1-15.3 3.2-21.7 5l-11.7 3.2-2.3-3.1c-1.2-1.7-5.8-7-10.2-11.9-28.5-31.7-62.1-47.9-87.6-42.2-13.7 3.1-27.4 12-38.3 25l-5.9 7-15.7 5.6c-16 5.7-34.6 13-39.1 15.4-2.3 1.2-2.9 1-7.6-2.4-7.9-5.9-13.3-8.6-23.6-12.1-8.5-2.9-11-3.3-24-3.7-12-.4-16.4-.1-25.7 1.7-21 4-48.5 15.3-72.7 29.8l-9.9 6-11.6-3.8c-18.4-6-29.5-8-48.1-8.6-20.5-.7-29.2.8-42.5 7.2-11.8 5.7-20.9 14.9-26.5 26.8l-3.7 8-12.9.3c-25.3.6-46.3 7.3-63.7 20.4l-5.4 4.1-24-1c-62-2.5-112.8 4.7-144.7 20.7-24 12-40.1 30.3-45.5 51.5-3.7 14.7-3.6 18.6.9 36.3 12.7 49.9 23 111.3 26.5 158.2 3.7 49.7 4.7 57.3 9.5 71 4.1 11.9 8 17.7 22.6 33.6 19 20.8 27.1 33.4 38.4 60.1 7.9 18.5 16.2 28 31.1 35.5 23 11.6 63.1 13.2 112 4.4 37.8-6.8 90.7-22.4 133.9-39.4l13-5.1 14.3 8.9c67 41.9 140.2 70.3 224.9 87.2l5.6 1.1 2.6 16.7c10.1 64.2 12.2 108.2 6 127-2.5 7.7-12.8 28.4-20.9 42.1-4.1 7-7.5 13.3-7.5 14s-.5 1.2-1.1 1.2c-.6 0-10.1 6.1-21.1 13.6-35 23.8-40.9 29.5-40.9 40.1 0 3 .7 6.6 1.4 8.2 3.7 7.2 16.3 14.3 32.1 18.1 5 1.2 9.6 2.4 10.3 2.6.9.3-.7 4.4-5.1 13.2-6 12-17 36.5-21.5 47.8-1.2 3-2.5 4.9-3.3 4.7-.7-.2-7.4-2.7-14.8-5.6-70.1-27.6-140.2-37.8-189.8-27.5-41.6 8.6-75.1 33.5-88.8 66-16.2 38.3-7.9 88.9 20.6 126.6 3.1 4.1 4.5 6.7 3.7 6.9-.7.2-6.9 1.6-13.7 3-17.6 3.7-60.4 14.6-80 20.4-9.1 2.7-16.6 4.5-16.8 4.2-.1-.4.9-5.1 2.2-10.5 2.8-11.1 7.7-21.6 13.6-29.4 2.6-3.5 3.8-5.9 3.4-7-.5-1.3-1.7-.5-5.9 4-11.1 12.1-21.8 29.1-26.1 41.3l-2.2 6.4-1.7-5.7c-3.4-11.1-9.4-17.2-16.9-17.2h-3.9l3 2.8c1.6 1.5 3.9 4.7 5.1 7 2.1 4.1 5.6 16.1 4.9 16.7-.2.2-1.5.6-3 1-3.1.8-3.6-.2-4.6-9.7l-.7-6.3-3.2 7.6c-1.8 4.2-3.5 8.7-3.8 10.2-.4 1.5-1.7 3-3.3 3.6-1.5.6-12 4.4-23.3 8.6-11.4 4.2-22.8 8.5-25.4 9.6-2.6 1.1-4.9 1.8-5.2 1.6-.2-.2.3-1.9 1.2-3.6 1.9-3.7 1.3-6.9-1-5-.8.7-2.2 3.3-3.2 5.9-1.6 4.2-2.9 6.1-4.4 6.2-.3 0-1.8-2.5-3.4-5.6-5.2-9.9-15.4-19.3-21.2-19.4-.6 0 1.6 5.3 4.8 11.7 3.2 6.5 6.1 13.3 6.4 15.3l.5 3.5-11.3 4.9c-42.9 18.4-98.9 49.5-135.1 75-18.1 12.8-16.4 11.1-14.4 14.1l1.7 2.6 5.7-4.1c19.4-14 46.4-31.3 69.7-44.5 20-11.4 81.7-41.5 85-41.5 1 0 .5 5.8-1 10.6-1.1 3.8-1.2 5-.3 5.6 2.5 1.6 4.2-4.2 4.1-14.2-.1-9.7-2.3-17.9-7.5-28.2-2.9-5.8-.4-4.4 4.8 2.5 5.3 7.2 9.6 16.1 12.7 26.6 1.9 6.6 3.8 9.4 5.3 7.9.3-.3-.2-2.9-1-5.8-1.7-5.7-2.1-11.9-.7-11.9.5 0 1.6 1.7 2.6 3.8.9 2.1 2.8 5.1 4.1 6.8 1.9 2.4 2.5 2.6 3 1.3.4-1-.6-3.6-2.4-6.4-1.7-2.7-3.1-5.4-3.1-6.1 0-.7 4.8-3.1 10.8-5.4 17.8-6.9 40.2-15 41.7-15 .8 0 1.5 1 1.7 2.2.6 4.5 2.3 2.1 3-4.2.4-3.6 1.3-8 2-9.9l1.4-3.4 2.2 6.2c1.5 4.1 3.9 8 7.2 11.4l4.9 5.3v-8.2c0-10.1-2.1-21.8-5.4-28.9-3-6.5-1.7-7.2 1.9-1 3.5 6 5.5 12.2 6.3 19.7.5 4.7 1.1 6.4 2.2 6.4 1 0 1.7-1.5 2.2-4.9.4-2.7 1.4-7.2 2.3-10 1.9-5.9 8.7-20 11.5-23.6 1.7-2.2 1.6-1.5-.6 5.5-4.5 14.2-5.8 40.3-1.9 38.9 1-.4 1.3-2.5 1.2-8.1l-.2-7.5 18-5.4c20.3-6.1 66.2-17.7 86.3-21.9l13.3-2.8 5.2 5.1c2.9 2.8 10.4 8.8 16.8 13.4 17.2 12.3 30.1 23.3 42.9 36.6 18.9 19.5 30.4 36.4 36.2 53 2.7 7.7 2.9 9.6 2.6 17.7-.3 7.7-.8 9.9-3.3 14.4-5.3 9.8-17.1 18-33.5 23.5-4.1 1.4-15.1 4.1-24.5 6.1-42.6 8.9-58.5 17.1-58.5 30 0 15 29 28.8 78.1 37 40.6 6.8 74.6 5.7 95.8-3.2 4-1.7 7.1-2.5 6.8-1.8-.3.7-4.8 23.3-10.1 50.2-6.4 32.3-10.3 50.2-11.7 52.5-13.1 23.1-19.9 42.1-19.9 55.7 0 13.6 5.4 33.4 13.3 48.7 10.9 21.1 34.2 45.2 59 61l7.8 5-.6 8.4c-.7 9.5-2.8 18.7-5.6 24.1-1.8 3.5-1.8 3.6.1 4.8 1 .7 2.4 1.2 3 1.2 1.8 0 6.1-10.6 7.5-18.8 2.8-15.9 1.3-47.7-3.5-74.6-1-5.6-1.7-10.3-1.5-10.5.2-.2 1.8 1.1 3.5 2.9 6.2 6.7 10.5 18.2 13.6 36.5 3.2 18.9 2.5 74.8-1.2 97.9l-.5 3 1.7-3c3.8-6.8 14-32.2 19.9-50 9.9-29.7 13.8-46.9 17.4-77.8 1.2-10.5 4.2-17.7 10.1-24 4.1-4.5 13.7-11.3 14.5-10.4.3.3-.9 2.9-2.5 5.9-9.5 17.6-13.7 49.4-12.7 95.9.5 23.3 2.8 58.9 4.1 62.6.2.6 1.7.9 3.5.6 2.9-.4 3.1-.7 2.6-3.6-.8-4.3-3.4-36-3.1-36.4.3-.3 46.5 14.8 47.5 15.5 1.2.8-8.5 33.9-11.8 40-1.1 2-.9 2.4 1.8 3.8l3 1.6 1.5-3.6c5.3-12.6 11-32.9 14.2-50.4 2.5-13.5 2.5-43.4.1-54.7-1-4.5-2-9-2.4-10-1-3 6 7.7 12.7 19.2 16.9 29.3 26.4 58.9 27.7 86.2l.6 12.2h5.4l.6-12.8c1.8-36 4.7-64.5 7.5-72.8l1-3-.5 3.5c-.3 1.9-1 11.2-1.6 20.5-1.5 23.6-.1 40.3 4.2 48.8 1 2.1 2.2 3.8 2.5 3.8 2.5 0 18-23.9 21.4-33.1l1.3-3.4 1.4 5c7.4 27 9.5 53.6 5 64.6-.4 1.1.2 1.9 1.9 2.8 1.4.6 2.8 1.2 3.1 1.2 1 0 20.2-40.8 25.2-53.6 5.5-14.1 11.5-33.9 12.7-41.8.9-6.3 1.4-5.4 6.4 12.9 5.8 21.1 8.1 36.1 8.1 51.6 0 15.7-1.8 24.5-6.6 32.4l-3.5 5.8 2.1 2.1 2.1 2.1 2-2.5c6-7.4 9.5-18.8 10.5-34.5l.7-10.7 5.1.6c2.8.3 14.5 1.7 26.1 3.1 51.2 6.1 63.8 6.8 129 7.2 33.6.2 73.8 0 89.5-.5 15.7-.5 28.6-.9 28.7-.7.1.1-.2 4.9-.7 10.6s-1.2 14.8-1.6 20.2l-.7 9.8h3c3.5 0 3.6-.5 4.7-18 2-32.5 7.8-72.2 13.3-90.5l1.8-6 .6 12.5c1.1 21.1 6.7 47 17.2 78.8 8.1 24.7 11.2 32.2 12.1 29.7.4-1.1 1.6-4.1 2.6-6.8 2.8-7.2 7.6-26.3 8.9-35.2 1.3-9 1.6-26.2.6-34.5-.7-5.4-.7-5.4.9-2.7 2.8 4.9 8.3 23.2 10.4 34.4 3 15.8 4.1 29.3 4.1 49.4v17.9h5.8l.6-10.2c.7-13.2-.8-38.8-3.2-52.5-1-5.9-1.8-10.8-1.7-10.9.3-.4 40-3.3 40.3-3 .2.2-.3 4.1-1.1 8.6-2.6 13.5-1.5 29.5 2 30.7.6.2 1.8-.2 2.8-1 1.6-1.2 1.6-1.8.6-6.1-2.5-9.8.7-28 8.7-49.3 4.9-13.1 13.6-31.5 14.4-30.6.4.4 1.2 5.1 1.8 10.3 2.1 17.4 14 59.6 22.2 78.5l2.2 5 2.3-4.6c10.5-20.6 9.3-68.6-3.6-146.1-2.2-13-5.5-31.4-7.4-40.9-1.9-9.5-3.2-17.5-3-17.8.9-.9 7.6 6.2 11.6 12.2 14.7 22.4 27.1 83.7 32.2 158.7l1.2 17.5h6l.7-10c2.1-27.7 11.5-58.5 26.3-86.1 8.8-16.3 23.9-38.5 34.7-50.9l3.4-3.9-3.2 12.9c-5.8 23.4-8.4 47.9-8.4 79.7v20.8h3c2.9 0 3-.1 3-4.9v-4.9l13.6-3.2c7.5-1.8 21.5-5.6 31.2-8.5 9.7-2.9 17.8-5.2 18-5 .6.6-5.8 22.4-9.5 32.2-3.4 9.1-3.5 9.7-1.8 10.9 1 .7 2.3 1.3 3 1.3 1.4 0 8.1-18.2 11.8-32.1 3.5-13.2 5.5-24.5 6.3-36.1l.7-10 2 3.9c6.1 11.8 11.7 32.3 11.7 42.6v6.8h6.4v-45.2c0-47.4.8-61.3 4.6-80.2 1.1-5.5 3-12 4.1-14.5l2.1-4.5.7 23.5c1.8 56 4.9 88.9 10 104.7 2.5 7.6 3.9 9.1 6.3 6.4 1.7-1.9 1.7-2.2-.3-8.1-1.1-3.4-2.8-11.1-3.8-17.2-1.6-10.3-1.6-11.1 0-12 4.2-2.3 14.2-11.6 20.2-18.6 18.3-21.4 33.3-50.2 40.9-78.5 8.3-30.8 8.8-71 1.3-107.2-4.7-22.6-15.1-51-24.1-65.8-8.7-14.3-9.6-16-12.2-25.2-4.6-15.7-12.9-63.5-11.3-65 .7-.7 51 2.7 96.3 6.5 50.1 4.2 49.9 4.2 51.1 5.1.6.5 1.7 2.7 2.4 4.9 1.6 4.8 4.6 5.2 4.3.6-.3-4-10.7-25.1-15.5-31.5l-4.1-5.4 6.9 3.6c3.8 2 10.2 6.1 14.2 9.1s7.6 5.5 7.8 5.5c.3 0 .2-5.3-.1-11.8-.7-11.7.7-38 2.3-43.8.6-2.1 1 1.6 1.5 12.5.4 8.5 1.3 18.9 2.2 23 1.7 8.6 5.3 19.8 6.5 20.5 1.1.7 7.2-18.2 9.3-28.5 1.2-6 2.7-15.8 3.8-25.5.4-3.6 1.9 9.2 2.5 21 .8 16.2-1 33-5 46.6-1.8 6.2-2.1 8.6-1.3 9.1 1.9 1.2 3.1.3 4.1-3.1.7-2.4 1.5-3.2 3.3-3.2 6.1 0 117 12.3 117.7 13.1.2.2 0 3.4-.4 6.9-1.3 10.4-2.3 41-1.5 47.3.6 4.6 1.1 5.7 2.6 5.7 1.7 0 1.8-1.3 1.9-21.2.1-31.9 4-58.9 11.3-78.2 3.4-9 5.1-11.7 3.7-5.9-1.9 8.2-2.2 28.5-.5 41.1 1.6 12 7.9 38.9 9.5 40.5.9.9 8.3-22.8 13.1-41.8 7.3-29 11-52.7 11.1-70.8.1-13 .7-12.3 4.3 5 4.9 23 8.7 56.4 10.2 88 .7 13.8.7 14.2 2.9 14.2s2.2-.1 1.7-11.6l-.5-11.6 3.4.6c1.9.3 19.4 2.6 38.9 5.1 19.5 2.5 48.5 6.3 64.4 8.5 15.9 2.2 29 3.9 29.2 3.9.2 0-1.4 4-3.6 8.9-8.8 20.3-14 42-14 58.4 0 10.7.6 13.6 2.9 13.6 1.4 0 1.6-1.7 1.6-13.2 0-14.5 1.5-23.6 6.7-39.7 3.2-10.1 4-10.3 5.3-1.6.4 2.8 2.5 10.4 4.7 17 4.8 14.5 18.7 43.5 19.9 41.4.4-.8 1.7-6.3 2.9-12.2 8-41.6 3.8-81.8-13.5-127.2-.7-1.8-.5-1.8 1.8.3 10.2 9.3 20.6 47.6 26.8 98.7 1.2 9.9 2.3 18.2 2.5 18.4 1.2 1.2 3.4-1.3 4-4.6 1.9-11.3 7.3-22.6 16.9-35.3 6-8 24.5-28.4 25.2-27.7.2.2-.6 3.4-1.7 7.3-3.9 13.5-1.1 43.9 5.3 57.9 1.3 2.8 1.7 3 3.6 1.8 1-.6.8-2.1-.8-6.7-3.3-9.7-6-24.7-6-33.8 0-4.7.1-8.6.2-8.6s13.1 2 28.7 4.4c29.7 4.6 30.3 4.6 29.8.1.1-2.3-1.5-2.7-14.4-4.7zm-351.2-580.6c1.5-.2 3-.5 3.4-.6.4-.1 1 1 1.4 2.4 1.6 6.4-.2 19.8-4.1 31.3-5.1 15-6 13.5-6-10.9 0-20.1.3-21.4 5.3-22.2zm-24.1 5.3c3.2-.6 6.2-1.3 6.8-1.5 2.4-.8 3.5-.4 3.5 1.4 0 2.1-1.8 16.1-2.6 19.8-.4 1.9-1 1.2-3.9-4.3-1.9-3.6-4.8-8.3-6.5-10.4l-3.1-3.9 5.8-1.1zM290 1381.8v3.8l-2-3c-1.5-2.2-1.6-3.2-.7-3.7 2.2-1.5 2.7-.9 2.7 2.9zm1270.7-300.2c26.6-46.9 63.9-74.8 107.9-80.4 9.9-1.3 25.6-1.3 35.4-.1 18.7 2.3 34.3 6.5 56.5 15.2l13 5.1 10.4 10.6c25.7 26.2 48.4 56.5 72.9 97.3 23.4 38.9 36.7 53.6 59.1 65.2 14.3 7.4 25 9.8 46.3 10.4 20.4.6 32.7-.5 61.3-5.3 31-5.2 37.7-5.9 57-5.9 13.5 0 19.7.4 24.8 1.7 17.1 4.2 18.3 8.4 5.7 20-22.8 21.1-111 58-162.5 68-53.3 10.3-86.9 2.6-124.1-28.6-15.9-13.3-53.1-50.5-63.2-63.2-5.3-6.6-14.6-19-20.6-27.5-12.9-18.1-24.3-30.5-31.5-34.5-17.8-9.7-37.3.8-64 34.4-15.9 20-24.2 34.8-28 49.4-3.4 13.3-2.7 20.1 4.5 45.1 5.7 19.8 6.9 28.6 6.2 45.4-.7 16.7-3.1 28.7-10.1 49.6-6.4 19.3-11.9 32.3-23.2 54.9-13.6 27.2-14.9 29.2-21.7 34.3-27.6 20.5-39.6 11.4-53.1-40.2-5.6-21.5-10.2-42.5-11.4-52-4.5-37 4.6-104.9 24.9-186.3 11.7-47.9 17.3-64.6 27.5-82.6zm98.3-208.8c-26.1.5-44.1-2.5-71-11.6-21.5-7.3-28.2-10.2-27-11.7 1.8-2.2 19-10.4 26-12.5 11.9-3.5 10.5-3.9 51.4 16.7l37.1 18.8-16.5.3zM769.4 209.4c8.5-2.7 9.1-3.1 13.7-8.9 9.5-11.9 20-19.9 31.6-24 8.4-3 22.2-3.3 31.7-.9 8.7 2.2 20.7 8.2 31.1 15.6 10 7.1 27.2 23.6 35.9 34.5l5.7 7.1 7.7-2.5c16.1-5.2 28.9-7.4 46.2-8 19-.7 29.1.7 42.3 5.8 13.5 5.2 26.7 15.4 32.8 25.2l1.8 2.9 14.8.2c12.5.1 15.9.5 21.8 2.4 15.2 5 34.2 16 46 26.5l5 4.5h-181l-7.8-8.6c-33.2-36.3-75.7-46.9-123.2-30.9-17.2 5.8-43.3 20.3-62 34.4-3.7 2.8-7.3 5.1-8 5.1-.7 0-1.8-1.9-2.4-4.2-5.3-20.7-14.9-39.6-26.6-52.7-2.5-2.8-4.4-5.3-4.2-5.5.7-.7 39-15.5 47.1-18zm-411.9 82.8c16-10.4 34.1-15.2 57.2-15.2h13.9l1.9-5.7c2.6-7.8 8-15.8 14.6-21.8 11.1-10.1 23-14.3 42.9-15.2 18.7-.8 34.7 1.7 59 9.3l11.5 3.6 9.5-5.8c19.5-11.9 45.7-23.7 62-28 17.4-4.6 36.3-5.7 49.8-2.9 25.5 5.2 45.3 21.6 59 48.9 4.7 9.5 9.7 23.8 11.4 33 .7 3.6 1.5 6.5 1.8 6.5.3 0 4.6-3.2 9.6-7.1 27.2-21.5 57.2-36.7 84-42.4 12.6-2.7 33.4-2.3 45.5.8 11.9 3.1 21 7.2 31.4 14.2 20.1 13.3 39 36.2 50.8 61.3 3.7 7.8 4 8.2 7.6 8.8 9.1 1.4 18.1 3.8 22.7 6.1l5 2.5-16-.5c-8.8-.3-35.6-1.2-59.5-2-142.6-4.7-255.1-4.4-313.3 1l-15.8 1.5-11.2-3c-68-18.1-159.1-34.7-224.7-40.9l-18.5-1.8 7.9-5.2zm31.8 305.2c-30.4-35.6-62.6-81.5-96.8-137.9-42.2-69.7-48.7-78.1-68-88.2-14.4-7.5-22.5-9.7-33.3-9.1-12.6.6-20.4 5.2-27.2 15.8-3.5 5.5-8 18.4-8 23 0 2.8.3 3 3.8 3h3.8l1.2-5.8c6-27.5 24.6-35 52.6-21.1 19.6 9.7 25.4 16.9 61.4 76.2 32.9 54.2 49.4 79.2 72.9 110.6 42.8 57.1 95.3 109.5 145.5 145 5.8 4.1 10.6 7.7 10.6 8.1.1 1.6-53.8 20.2-82.5 28.4-77.2 22.1-132.1 25.3-164.3 9.4-14.5-7.1-18.5-12.3-30.6-39.6-9.7-22-17.3-33.3-37.2-55-6.8-7.4-13.5-15.8-15.2-19.1-6.8-12.7-10.2-30.6-12.2-64.3-3.3-53.5-13-115.1-27.1-171.2-4.4-17.8-4.8-23.2-2-34.2 9.8-38.5 50.6-60.6 122.5-66.6 16-1.3 75.9-.5 97 1.4 66.4 5.8 142.4 19 217.5 37.7 15.7 3.9 29.2 7.1 30 7.1.8 0 9.8-.7 20-1.6 30.9-2.7 64.4-3.6 134-3.7 84.7 0 164.7 1.9 271.5 6.6 31.8 1.4 41.9 1.5 62 .5 29.5-1.4 89.6-1.5 114.5-.1 108.8 6 205.6 27.1 292.5 64.1 30.6 13 68.7 33.6 89 48.1l9 6.4 7-.8c10.1-1.1 43.1-1.1 56 .1 74.2 6.8 167.3 33.8 281.9 81.5 4.9 2 12.3 4.3 16.5 5.1 10 1.8 36.4 1.8 66.6-.1 28.6-1.7 58-1.9 73.1-.4 55.1 5.4 89.8 26.6 110.3 67.5 28 55.9 14.1 111.6-41.2 165.1-21.3 20.6-49.5 41.1-79.2 57.4-8.6 4.8-18 10.8-22 14.2-41 35.1-92.4 61.5-138.2 71-21.2 4.4-28.8 5.1-52.8 5.1-24 0-31.6-.7-52.7-5.1-32.9-6.8-66.3-20.8-93.6-39.2-16.6-11.2-17-11.4-48.9-28-110.4-57.4-174.1-84.5-222-94.5-18.1-3.8-29.3-4.9-47.2-4.9-25.6.1-44.3 3.1-97.5 15.9-64.6 15.5-104 23-157.5 29.8-91.3 11.7-214.2 17-290 12.5-198.1-11.4-356.3-86.7-475.5-226.1zm299.6 471.7c1.9-3.5 12.7-11.9 35.1-27.2 11.6-7.9 21.6-14.7 22.2-15.1.7-.4 4.8-2.8 9.2-5.4 14.1-8.3 28.8-13.2 45.5-15.3 10.4-1.3 30.6-.4 44.4 1.9 24.1 4.1 45.9 10.8 80.1 24.7 33.5 13.6 40.5 18.1 40.5 26.1 0 5.5-8.7 13.6-21.6 19.9-5.4 2.7-12.2 6.7-15.1 9-13.8 11-35 15.9-56.8 13.3-22.4-2.7-44.3-10.4-86-30.3-28.8-13.7-32-14.9-41.5-15-7.8-.1-7.1-.3-39 11.1-4.7 1.7-10.7 3.3-13.4 3.7-4.6.7-4.7.7-3.6-1.4zm9.8 18.4c-3.1-1.5-6.8-4-8.2-5.5l-2.6-2.7 5.8-.6c5.9-.6 16.7-4 30.7-9.6 14.4-5.8 21.9-6.4 31.8-2.8 7.2 2.7 45.8 20.9 45.8 21.7 0 .3-3.5 1.5-7.7 2.7-4.3 1.2-14.5 4.2-22.8 6.8-11.3 3.5-16.1 4.5-19.5 4.2-7.6-.7-47.4-11.3-53.3-14.2zm-125 482.5c-32.9 8.4-103.4-.1-135.7-16.5-9.1-4.6-14.8-9-15.6-12-1.9-7.6 15.2-15.1 52.3-22.9 29-6.1 44-12.4 54.9-23.1 13.4-13.1 16.5-29.1 9.8-49.5-9.1-27.6-41.1-64.3-80-91.9-13.8-9.8-24.4-19.6-31.9-29.6-33.2-44.1-37.2-101.3-9.8-137.5 19.7-26 52.2-42 93.3-46 12-1.2 38.3-.4 53.6 1.5 23.2 2.9 43.6 7.3 70.2 15.1 15.4 4.5 40 13.3 50.4 17.9l5.5 2.4-2.9 7.6c-14.1 36.5-28.4 87.1-37.3 131.3-1.9 9.6-3.6 17.5-3.8 17.7-.5.5-25.9-14.4-35.8-21-14.5-9.7-22.6-16.8-26.1-23-7.3-12.9-37.9-35.1-55.3-40.1-5.7-1.6-6-1.6-8.5.3-3.4 2.5-3.7 5.2-1.3 9.9 2.5 5 15.2 19.2 23.7 26.7 3.7 3.2 12.8 12.5 20.2 20.5 36.3 39.2 57.8 72.5 64.3 99.6 2.9 11.9 2.5 17.2-2.1 32.6-5.3 17.6-13.3 50.1-21.8 88.2-5.2 23.4-7.3 31.2-8.7 32.3-3.5 3-13.9 7.5-21.6 9.5zm14.9-256h7.9l12.6 8.2c6.9 4.5 17.8 11.2 24.2 14.8 9.1 5.1 11.7 7 11.7 8.6 0 1.2-.9 7.8-1.9 14.7-1.1 6.9-2.7 20.9-3.7 31l-1.8 18.4-2.3-8.1c-7-24.3-27.5-57.7-52.5-85.4l-2-2.2h7.8zm-13.8-7l-21.9-22c-12-12.1-22.3-22.9-22.9-24-1-2-1-2 2.7-.4 2.1.9 7 3.4 10.8 5.7 16 9.4 30 21 33.5 27.8 1 1.9 3.8 5.6 6.2 8.2l4.4 4.8h-12.8zm88.9 558c-.3 1.4-1.6 5.5-3 9-2.3 6-2.5 6.2-2.6 3 0-1.9.2-6.5.6-10.2.6-6.6.6-6.7 3.1-5.6 1.9 1 2.3 1.7 1.9 3.8zm157.1 49.1c-.2.6-.8 1.1-1.3 1.1s-1.1-.5-1.3-1.1c-.2-.6.4-1.1 1.3-1.1s1.5.5 1.3 1.1zm39.8 19l-4.4 9.4-.6-4.5c-2.2-17.1-2.3-18-1.1-18 .7 0 3.3.3 5.8.6 2.7.4 4.6 1.2 4.6 1.9.1.7-1.9 5.5-4.3 10.6zm384.7 5.7c-1.3 8.6-2.7 15.6-4.6 22.8l-2.1 8-5.2-16c-2.9-8.8-5-16.3-4.8-16.8.3-.4 4.2-.8 8.8-.8h8.3l-.4 2.8zm120.7-12c-.1 5-2 27.2-2.6 30.1-.4 1.8-1 2.9-1.4 2.5-.8-.9-9.6-27.6-10.1-30.8-.3-1.7.4-2.1 4.7-2.6 8.9-1.2 9.4-1.1 9.4.8zm229-360.2c3.3 13 6.2 19.8 11.7 28 5.4 8 10.2 17.8 15.1 30.9 11.8 31.7 16.9 61.6 15.8 93.5-.6 19.3-2.2 30.8-6.7 47.8-8.3 31.3-27.4 64.5-48.2 83.8l-6.2 5.8-.7-3.4c-.9-4.6-2.7-39.1-3.5-68.7l-.7-24.2h-3.5c-4.6 0-9.3 4.7-12 12-4.6 12.4-8.2 44.3-8.3 74.5 0 8.8-.4 17.7-.8 19.8l-.7 3.9-3.3-7.9c-3.6-8.4-15.6-29.9-17.3-31-.6-.4-1.9.3-3 1.3-2 2-2 2 0 5.9 2.2 4.4 3.8 11.2 4.6 19.4.7 7.4-1 23.1-2.6 24.2-3.9 2.6-57.4 17.8-62.5 17.8-1.5 0-1.6-1.6-1-16.8 1.5-37.9 7.2-68.4 16.2-86.3 3.6-7.2 9.8-13.7 25.5-26.4 5.2-4.3 10.2-8.4 11-9.3 1.4-1.4-15 6.9-24.5 12.4-3.8 2.2-18.6 17.3-30.6 31.4-23.4 27.3-42.9 61.3-52.6 91.5-4.6 14.5-5.1 15.5-6.6 15.5-.9 0-1.9-5.6-3.6-19.8-7.6-65.7-19.8-108-35.6-123.8-4.1-4.1-7.4-6.4-10.2-7.2-4.2-1.2-8.4-1.6-8.4-.7 0 .3 1.4 6.9 3 14.7 9.2 43.1 17.8 100.3 19.6 130.5l.7 11.1-7.7.7c-4.3.4-8.1.3-8.6-.1-1.2-1.3-4.9-20.1-6-30.9-1-9.8-.6-14.6 2.5-29.6.8-3.8 1.5-7.3 1.4-7.6 0-1.1-9.7 16.5-16.7 30.3-3.6 7.2-9.1 19.5-12.3 27.4-3.9 9.7-6.4 14.7-7.6 15.1-1 .4-9.5 1.2-18.8 1.8s-18.8 1.4-21 1.7l-4 .5-2.3-7.3c-4.6-14.9-17.7-37.6-22.7-39.5-.8-.3-2.3.2-3.3 1.1-1.7 1.6-1.7 1.8.5 6.4 3.8 7.9 6.5 19.1 7.1 29.8l.6 10.1-4.8.7c-2.6.4-7.4.7-10.5.7-5.4 0-5.8-.1-6.3-2.8-7.9-36.1-9.7-51.7-7.8-65.1 1.2-8.8 4-16.2 7.3-19.7 1.9-2 5.4-3.8 12.4-6.5l3-1.1-3.5-1.3c-7.8-2.9-13.1-1.4-19.5 5.6-10 11-18.1 37.6-23.7 76.9l-2.2 15.8-21.6.8c-11.9.4-50.6.8-86.1.8-66.8 0-71.1-.2-119-5-16.9-1.7-53.1-6.2-53.5-6.7-.2-.2-1-4.8-2-10.3-3.2-18.7-13.2-54.5-20.3-72.3-1.5-3.7-15.1-20.7-15.9-19.9-.2.2 2.7 7.2 6.3 15.7l6.6 15.4-.6 8c-.3 4.4-1.3 11.6-2.2 16-1.6 7.6-8.6 29.8-11.9 37.6l-1.5 3.6-8.7-1.6-8.7-1.6-2.7-10.5c-5.1-20-7.2-26.1-8.7-25.5-.8.3-2.1.5-2.8.5-1 0-1.4 1.2-1.4 3.8 0 4.9-2.5 13.2-6.1 20.4-3 6-3.7 6.3-9.9 5.1l-3.3-.7.6-20.1c.5-17.7 2.7-42.8 4.2-49.4.5-2.1.3-2.2-2.2-1.6-4.7 1.1-7 3.1-9.7 8.7-3.3 6.8-6.1 19.9-8.2 39.4l-1.7 15.3-2.6-8.8c-9.2-30.6-28.6-65-53.4-94.7l-2.4-2.9-2.6 2c-2.6 2-2.6 2.1-.7 4.4 6.5 8.3 12.9 24.1 15.7 38.8 2.5 13.3 2.2 46.5-.6 51-.9 1.5-7.9-.5-33.7-9.6l-16.1-5.7-.6-6c-.9-8.8-.7-29.2.4-45.7 3-43.1 12.8-67.6 27.8-69.5 11.3-1.4 11.1-1.4 11.1-4.5 0-2.9-.1-3-5.7-3-7.9 0-26.3 5.9-33.9 10.8-12.2 8-19.5 19.2-21.4 33.2-.6 4.1-1.7 13.1-2.6 19.9-.9 6.8-3.4 19.4-5.6 28-2.2 8.6-4.2 16.6-4.5 17.8-.7 2.8-1.3 2.8-6.3.2l-4-2v-7.4c0-4.1-.7-12.5-1.5-18.8-4.2-32.3-13.8-49.3-29.8-53.1-3.3-.8-3.3-1-.8 11.4 3.8 18.2 7.9 53 6.3 53-2 0-23.4-16.9-32.1-25.3-21.3-20.6-33.3-42.1-37.8-67.7-2-11.5-1.4-18.2 2.5-30.2 2.5-7.6 9.7-22.9 15.9-33.8 1.3-2.3 5.4-21 12-54 5.5-27.8 13-64.2 16.6-81 11.9-54.6 25.5-108 27.6-108 .5 0 .9 3.2.9 7 0 16.6 5.3 52 11 73.5 20.5 77.2 63.7 123.4 127.9 136.5 13.6 2.8 16.1 2.7 16.1-.4 0-1.3.2-3 .5-3.8.4-1-2.1-1.8-10.2-3.2-12.5-2.1-30.9-7.9-41.4-13.2-50.9-25.4-82.7-81.2-93.4-163.7-2.2-17.1-3-51.2-1.5-67.8 2-22.9 9-71.4 10.7-74.2.6-.9 9-6.8 9.8-6.8.3 0-.7 2.6-2.1 5.7-5.4 11.8-4 25.1 3.1 29.4 15.9 9.8 26 .7 38-34.2 2.6-7.4 5-14.1 5.5-14.8.6-.9 3.4-1.2 9.8-1l9 .3-3.4 8.8c-9 23.2-13.8 52.1-11.4 67.7 1.5 9.8 4.9 16.9 9.6 20.6 3.6 2.8 4.2 2.9 14.4 2.9 12.7 0 18.9-1.8 25.4-7.5 7.4-6.5 8.9-11.3 9.7-32.5.7-16.4 1-18.9 4-28 3.6-11 8.5-21.5 10-21.5.6 0 6.3 2.1 12.7 4.6 14 5.5 37.5 17.1 51 25.2 11.6 7 35 21.5 37.5 23.4 1.6 1.2 1.3 1.9-3.7 8.3-8 10.2-12.2 18.9-15.6 32.2-3.1 12.1-6.1 20.1-14.4 38-6 13-6.5 18.6-2.1 23.2 1.6 1.7 4.8 3.5 7 4.1 2.2.6 9.5 2.6 16.1 4.5 15.8 4.5 22.9 4.6 30.1.5 11-6.3 19.4-23.3 27.4-55.3 1.7-6.7 4.5-16.8 6.2-22.5 2.6-8.4 3.4-10.2 4.8-9.7 13.2 4.2 39.3 9.1 53.5 10.1l9.5.7v7.1c0 10.2 1.6 18.7 5.6 30.1 5.4 15.5 7.2 22.8 8.9 36.4 2.6 20.5 7.1 27 20.1 28.7 2.8.4 8.3.1 12.2-.5 9.2-1.6 14.8-5.3 18.7-12.3 2.5-4.5 2.9-6.6 3.3-14.9.5-12-1.3-21.4-7.9-40.9-4.8-14.2-6.9-23.8-7-31.2v-3.7l5.2-.7c21.7-2.7 54.3-10 77.5-17.4l12.2-3.9 1 3.1c3.7 11.5 5.2 21.2 6.1 38.6 1.3 28.6 5.7 41.7 18 54.1 11 11.1 19.5 12.4 32 4.9 3.6-2.1 9.4-5.1 13-6.6 8.6-3.5 12.6-6.7 14-11 1.8-5.6-.5-12.7-7.3-22.3l-3-4.3-.2-19.7c-.3-22-2.2-38.7-5.9-51.5-1.4-4.7-2.6-9.1-2.8-9.8-.4-1.8 15.3-7.6 26.7-10 10.9-2.2 24.1-3.6 43.6-4.5l14.6-.7.7 4.3c.4 2.4 2.5 7.7 4.8 11.9 3.9 7.2 4 8 4 16.6 0 4.9-1 16.2-2.2 25-3.9 28.2-2.2 41.7 6.2 47.7 7.4 5.3 28.4 2.9 37.1-4.2 11.6-9.6 12.8-25.7 6-78.2-1.5-11.4-2.4-21-2-21.4 1.3-1.3 65.1 2.7 89.1 5.7 14.5 1.8 23.7 8.2 31.3 21.7 9.3 16.6 14.2 39.7 15.9 74l.7 14.2h7.8v-9.6c0-23.2-4.2-50.5-10.4-68-6.5-18.2-16.1-30.6-28-36.5-5-2.4-8.6-3.3-18.6-4.5-15.7-1.8-47.5-4.3-64.4-5-7.2-.3-15.4-.8-18.2-1.1l-5.2-.5v-4.9c0-11.3 5.1-28.3 14.1-46.9 7.4-15.4 8.8-21.3 6.4-27.6-2.4-6.4-6-8.8-18.5-12.9-12.4-4-17.6-4.4-23.7-1.7-8.1 3.7-12.5 12.3-20.4 39.9-8.1 28.4-9 32.2-11 43.7l-1.7 10-7.9.2c-30.5.9-54.5 4.4-70.5 10.4l-11.1 4.1-1.7-2.4c-.9-1.3-3.8-4.7-6.4-7.6-9.8-10.8-15.5-26.6-16.4-45.8-.7-14.8-1.9-19.5-6-24.3-4.6-5.4-9.9-6.8-18.1-4.6-7.7 2-12.9 5.1-18.5 11.1-9.2 9.8-13.1 23-13.1 44.5v13.7l5.7 12.3c7.8 16.9 11.8 27 10.8 27.9-1.4 1.3-22.9 7.9-39 12-15.2 3.9-42.8 9-48.4 9-2.6 0-2.9-.3-2.9-3.1 0-5 3.8-22.2 7-31.7 5.7-17.1 6.7-37.1 2.2-46.3-3.4-7-7.6-8.9-19.6-8.9-11.2 0-15.3 1.3-20.8 6.8-6.2 6.1-7.9 12-8.8 32.3-1 21.2-2.8 30.7-8 42-2.2 4.7-3.9 9.2-3.9 9.9 0 2.6-27.7-.8-50.2-6.1-7-1.7-12.8-3.5-12.8-4.1 0-2.1 4-7.5 8.9-11.9l4.9-4.5.7-8.8c.9-11.1 0-18.7-2.9-25.2-3-6.6-6.8-9.2-16.1-11-15.5-3-25-1.3-30.7 5.4-2.7 3.2-5.7 11.5-5.7 15.8 0 4.4-7.8 19.3-10.2 19.3-1.2 0-12.5-6.7-31.2-18.5-17.1-10.8-44-24.7-60.1-31-6.6-2.6-12.4-5.1-12.8-5.5-1.1-1 6.9-10.7 12.1-14.7 2.3-1.8 7-4 10.3-4.9 12.9-3.6 23.3-13.7 30.9-29.9 5.3-11.4 7.1-17.1 7.7-24.7 1-12.6-2.5-16.3-17.2-18-6.7-.8-12.8-.8-21.4-.1-11.7 1-12.1 1.1-18.2 5.3-13.6 9.2-17.6 14.4-19.1 24.6-.6 4.1-2.2 9-4.2 12.8-4.2 7.9-19.4 23.4-26.4 26.9-2.8 1.4-6.8 4.4-9 6.6l-3.8 4.1h-9.8c-6.4 0-9.8-.4-9.8-1.1 0-2.5 9.3-20 14.1-26.4 9.6-13 14.1-26.5 15.5-47 .7-10.6-.8-33-2.9-42.5-1.2-5.4-1.3-5.5-6.2-7.2-6.2-2.1-13.7-2.3-17.5-.3-7.3 3.8-10.2 12.9-10.2 32.7 0 17.1-1.7 27.4-6.8 42.8-4.3 12.9-15.7 38.2-22.8 50.8-4.5 7.9-5.1 8.5-12.1 12.3l-7.3 4 .7-3.3c2.1-10.5 12.2-50.5 16-63.3 13.2-44.7 30.8-90.2 48.9-126.3 6-11.9 6.4-13.2 4.8-14.2-1.6-1-1.6-1.1.1-.5 1 .3 2.2.6 2.7.6s1.8 2 2.9 4.5c1.4 3.2 3.3 5.3 6.8 7.5 8.3 5.2 13.1 6.3 31.3 6.5 9.1.1 19.9.6 24 .9 16.5 1.4 34.5 3.7 35.3 4.5.5.4.3 3.6-.3 6.9-1.6 8.8-1.4 25.6.4 32.4 4.7 17.9 16.4 28.1 35 30.8 4.4.6 8.1 1.2 8.2 1.4.1.1-1.1 3.9-2.8 8.4-1.7 4.7-3 10.2-3 12.8 0 5.5 7.7 29 12.3 37.8 3.9 7.3 15.1 18.7 23 23.4 19.9 11.7 53.9 18 90.9 16.8 18.2-.6 29.6-2.5 40.9-6.9 19.7-7.6 32.2-20.7 36.3-38 1.9-8 1.9-12.5 0-21.4-3.4-16.4-14.4-31.1-28.1-37.7-4.2-2-7.4-4.3-8.1-5.8-1.8-3.5-1.6-9.5.6-17.3l1.9-6.8-3.4-1.4c-1.8-.8-3.6-1.4-3.9-1.4-1.4 0-4.6 14-4.6 20.4 0 10.4 2.3 14 12.5 19.4 9.9 5.3 16.6 12.2 21.4 22.2 3.1 6.5 3.6 8.7 3.9 16.6.5 10.8-1.1 16.9-6.6 25.2-11.4 17.3-40.4 26.5-78.2 24.8-41.4-1.9-66.9-9.5-81.8-24.4-8-7.9-11.3-14.1-17.2-31.5-4.1-12.2-4.2-13-3.1-18 1.5-6.5 9.7-23.6 18.6-38.7 8.7-14.8 30.7-47.8 42.9-64.5l9.5-13-2.7-2.2c-1.5-1.2-3.1-2.2-3.6-2.2-1.1 0-.7-.4-15.2 19.7-9.3 12.9-12.1 16.2-13.9 16.2-7.4 0-56.2-8-67.5-11.1-4.1-1.1-10.7-2.2-14.5-2.4-3.8-.2-13.3-1.1-21-2-7.7-.9-22.5-1.9-33-2.1-18.8-.5-25.6-1.5-31.5-4.8-2.3-1.3-2-1.4 4.5-1.4 6.9 0 14.5-2 41-10.7 5.1-1.7 11.3-2.8 17.1-3.2 8.8-.5 9.5-.4 23 4.1 20 6.7 29.7 8.6 45.9 9.3 11.7.5 15.6.2 23.7-1.5 11.5-2.4 22-7 30.3-13.3 3.3-2.5 9-6 12.7-7.7 9.1-4.2 17.7-10.3 22.5-15.7 11.4-12.9 6-25.8-14.9-35.9-14.1-6.8-45-19-63.8-25-31.5-10.2-54.4-14.1-78.6-13.3-20 .7-35.1 4-48.8 10.9-3.2 1.6-5.8 2.7-5.8 2.4 0-.2 2.9-5.8 6.5-12.3 7.8-14.3 13.8-27.6 16.2-36.4 1.5-5.4 1.8-10.6 1.8-33 0-28.4-1.1-41.6-6.6-78.5-1.6-11-3.2-21.9-3.6-24.2-.4-2.8-.2-4.2.5-4.2.6 0 6.6.9 13.4 2 64.6 10.5 147.6 12.6 252.3 6.5 105.4-6.2 174.7-16.3 274-40 36.8-8.8 56.2-12.8 69-14.4 4.9-.6 10.1-1.3 11.5-1.5 6-1 42.9.3 51.5 1.9 24.2 4.4 49.4 11.9 78.8 23.5 16.2 6.4 50.9 21.6 59.9 26.1l4.1 2.1-8.6 3.2c-11.9 4.5-21.7 10.6-30.5 18.9-9.4 8.9-15 16.8-20.8 29-8.2 17.3-11.5 34.7-11.5 60.6 0 16.1.3 18.4 11.9 93.1l11.9 76.6-6.3 22.9c-13.7 50-24.9 103.3-29.9 142.4-3 23.4-3.8 38.2-3.3 59.8.6 23.5.6 23.4 9.8 61.1 7.5 30.6 13.8 46.8 21.9 56.2 10 11.6 24.9 11.9 41.5.8l6-4 .7 6.2c.4 3.4 1.4 13.9 2.3 23.2 4.5 38.3 9.1 68.2 14.5 89.5zm-908.7-265.1c16.8-33.6 23.4-49 27.3-64.2 2.1-8.2 2.7-13.1 3.3-30.3.8-21.4 1.8-26.5 5.7-28.9 2-1.2 9-.6 10.9 1 1.8 1.5 3.4 17.1 3.4 33 0 23.7-3.7 37-14 51-8.1 10.9-13.2 22-23.5 51.4-9 25.5-14.2 34.6-19.9 34.6-4 0-8.4-2.7-9.2-5.6-1.4-5.9.8-11.4 16-42zm56.2-.7c2.9-4.6 4.8-6.4 9.6-8.9 16.5-8.8 34.7-32.6 34.8-45.4 0-3 .9-5.3 3-8.3 3.5-4.8 15.3-13.8 19-14.5 1.4-.2 9.9-.4 18.8-.3 14.9.1 16.5.3 17.8 2.1 2.8 3.8.8 13.7-5.6 27.4-7.3 15.5-15.1 23.3-26.8 26.7-3.1.9-7.5 2.7-9.7 4-11.8 6.9-26.4 29.9-33 52-2.2 7.4-2.8 12-3.5 26.7-.9 19.7-2.1 24.3-7.8 29.1-3.8 3.2-8.3 4.6-17.8 5.4-8.6.8-11.1-.5-14.5-6.9-4.6-8.9-3.3-35.3 2.8-56.7 3.6-12.8 8.9-26 12.9-32.4zm156.4 73.7c11.7-14 15.4-20.6 17.1-29.5 1.9-10.7 4.4-15 9.5-16.3 2.8-.7 14.3.2 20.1 1.6 3.7.9 5.2 1.9 6.7 4.4 2.5 4.2 3.7 13.3 2.8 21.3-.6 6.1-1 6.8-5.9 11.8-7.8 7.9-13.1 19.7-19.2 42.7-10.3 38.4-16.4 53.5-24.3 59.9-3.4 2.7-4.6 3.1-10 3.1-4 0-9.9-1.1-16.7-3.1-5.8-1.7-12.4-3.7-14.8-4.3-3.7-1-4.2-1.5-4.2-3.9 0-1.5 1.5-6.1 3.4-10.2s5.2-11.6 7.5-16.7c2.3-5 5.5-14.5 7.1-21 4.2-16.3 8.9-25.3 20.9-39.8zM1062 1439c6.2 18.2 8.4 29.2 7.8 38.1-1 13.5-6.9 18.9-20.7 18.9-12 0-14.4-2.2-16.2-14.8-3.1-21.5-4.4-27-8.9-40.3-8.2-23.8-8.4-36.6-1-52.8 6.6-14.5 8.4-23.4 9.6-49.1.7-15.7 1.7-19.5 6.5-24.2l3.8-3.8h21.2l1.5 2.8c3.7 7.2 2.8 25.5-2 39.3-5 14.5-7.5 27.6-8.1 42.9-.9 17.9 0 23.9 6.5 43zm91.3-94.3l-6.6-14.2-.5-11.1c-1-24.8 5.9-41.4 20.1-48.1 6.6-3.1 11.6-3.1 14.3-.1 2.9 3.2 4.3 8.9 4.3 18.3 0 20.1 6.9 39.3 19.2 53.2 13.5 15.2 17.6 31.5 18.5 72l.5 24.3 3.2 4.2c4.3 5.7 7.5 12.1 7.5 15.2 0 2.9-1.9 4.3-11 8.1-3.6 1.5-9 4.2-12.1 6.1-9.1 5.5-14.6 4.5-22.5-3.8-9.9-10.4-13.3-20.9-14.4-44.8-.5-10.7-1.6-21.6-2.9-28-2.8-14.3-9.7-34.3-17.6-51.3zm202.5 18.3c4.2 27.8 5.4 52.5 3.1 61.7-1.4 5.6-7.1 11.7-12.5 13.3-2.1.6-7 1.4-10.8 1.7-6.1.5-7.3.3-9.6-1.5-3-2.4-4.9-8.5-4.9-15.8 0-2.6 1.2-14 2.6-25.3 3.5-27.5 3.2-32.9-2.7-44.6-4.4-8.8-4.4-9-4.4-18.9.1-10.9 1.5-17.8 10.4-49.5 8.2-29.1 10.5-34.5 16.4-38.1 4.1-2.5 4.9-2.5 17.5 1.6 6 1.9 11.6 4.3 12.5 5.3 3.2 3.6 2.1 9.5-4.2 22.6-15.6 31.6-18.7 52.2-13.4 87.5zm-509.1-219.2c6.8.4 13.2-1.9 16.9-6 1.7-1.9 2.6-2 8.4-1.4 3.6.4 6.9 1.1 7.4 1.6 1.3 1.3-6.7 11.5-11.6 14.7-6.2 4.1-14.6 4.3-21.8.6-5.1-2.6-5.5-3.1-5.5-6.3v-3.5l6.2.3zm-4-12.1c.9-.9 2.1-.8 7.8.7l5 1.4-2.8 1.1c-3.5 1.4-5 1.4-8.1 0-2.6-1.2-3.1-2-1.9-3.2zm43.8 12.5c2.6-4.4 3.4-5.1 5.5-4.7 1.4.3 6.3 1 11 1.6s8.7 1.3 8.8 1.4c.2.2-1.9 3.6-4.6 7.7-4.7 7.1-17 27.1-22.7 37.2l-2.8 4.9-8.6-.4c-14.4-.7-23.8-6.4-28.9-17.6-3-6.6-4.2-13.7-2.1-12.9 10.6 4.3 18.5 4.5 26.8.5 5.6-2.8 13.5-10.7 17.6-17.7zm1046.8 402.6c-1.4 5.1-2.8 9-3.1 8.8-.7-.7-4.2-15.7-4.2-18.1 0-1.8.5-2 4.2-1.6 2.3.2 4.6.7 5 1.1.4.3-.4 4.7-1.9 9.8zm200.7 31c1.1 15 .1 35-2.4 48.7l-1.3 7-5.5-11.5c-10.3-21.4-15.7-42.2-14.3-55.3.8-7.8.2-7.5 13.3-5.6 4.3.6 8.1 1.4 8.5 1.8.3.4 1.1 7.1 1.7 14.9zm38-1.2c-6.2 7.8-11.2 15.8-15.1 24.1-2.2 4.8-2.3 4.8-2.6 1.9-.4-3.6-3.9-27.3-4.8-33.2-.8-5-1.7-4.7 11.8-2.8 5.6.8 11.7 1.7 13.5 2l3.2.6-6 7.4z"/><path d="M2057.5 998.6c2.9-.4 4.5-1.2 4.5-2.1 0-2.2-6.4-1.7-13.6.9-12.9 4.8-17.5 11.4-19.4 27.8-1.1 10.2-4.4 23.9-8.5 35.4l-2.5 7-.1-11.7c-.1-21.3-3.2-34.8-9.5-41.4-3.7-4-9.2-5.8-8.3-2.8 4.1 13.5 5.6 45.7 2.4 52.6-1.8 4.1-.5 6.5 1.8 3.3 3.8-5.1 4.3-29.3 1-45.8-.7-3.7-1-6.8-.5-6.8 1.6 0 5.8 8.6 7.4 15 2.2 8.8 3 32.1 1.6 45.4-.6 6-.9 11.1-.7 11.3.6.6 10.1-24 13-33.7 3.2-10.5 5.2-20.4 6.2-29.5 1-9.4 2.9-13.9 7.8-18 2.2-1.9 4.4-3.5 4.8-3.5.4 0-.4 2.7-1.7 5.9-4.3 10.6-5.6 23.8-5 48.6.7 25.7 1.3 31.5 3.3 31.5 1.2 0 1.3-1.7.6-10.8-1.4-18.9-.9-47.8 1-56.9 3.4-15 7-20.6 14.4-21.7zM427 986h261.8l3.2-5.1c5.3-8.3 8.3-16.7 8.3-23.4 0-7.2-1.8-11-7.3-15.8-3.9-3.4-14.7-7.7-19.3-7.7-5 0-6.7-1.3-11.1-8.3-13.1-21-34.5-32.6-59.9-32.6h-8.2l-3.3-7c-11.8-25.4-41.3-32.2-81.9-19l-9.2 3-6.8-4.4c-28-18.1-57.4-27.1-76.7-23.6-13.6 2.4-23.2 7.7-32.9 17.9-9.4 10-16.9 24.1-21.2 40.3l-1.8 6.7-6.6-5.3C335.2 886.4 315 876 296.6 872c-7.2-1.6-24.1-1.3-31.1.5-3.3.8-10.3 3.6-15.5 6.2-8.2 4-10.9 6.1-19.6 14.7-10.9 10.8-19.8 23.4-25.5 36.1l-3.3 7.2-5.9 1.1c-7.4 1.4-15.3 5-20 9.1-7.5 6.6-12.4 21.4-11.1 33.3l.6 5.8H427zm-257.8-12.9c.4-7.4.9-9.9 3.4-14.7 4.8-9.3 14.6-15.4 27.4-17l4.5-.6 5.7-11.7c6.7-13.9 14.8-25 25-34.6 14.1-13.2 26.5-18.6 44.4-19.2 9.4-.4 12.4 0 20.7 2.1 17.2 4.5 34.1 13.7 53.4 29.3l10.1 8.2 1.7-8.1c6.6-30.8 24-53.3 45.7-59.1 8.1-2.2 24-2 33.5.4 13.9 3.5 29.7 10.7 46 21l9.2 5.8 9.9-3.3c15.5-5.3 24.6-6.7 38.7-6.2 9.5.3 13.4.9 17.9 2.6 11.1 4.3 18.6 12.2 22.9 24.1l2 5.5h11.2c13.2 0 19.3 1.3 30.6 6.6 6.9 3.2 9.8 5.3 16.5 12.1 4.9 5 9.4 10.7 11.4 14.4 3.3 6.2 4.8 7.3 10.4 7.4 1.5 0 5.6.9 9.2 2 16.4 5.1 19.9 16.1 10.7 33.8l-4.2 8.1h-518l.1-8.9zM1804 1784c-.4 0-4 3.5-8.1 7.8-46 48.4-86.6 116.4-96.9 162.6-.7 3.1-1.4 5.5-1.5 5.3-.2-.2-1.3-5-2.4-10.8-7.1-34.4-20.6-57.8-38.6-66.7-6.9-3.4-8.4-3.8-17.2-4-9.5-.3-9.6-.3-7.1 1.5 20.5 14.5 34.3 47.8 39.5 95 .8 7.7 1.4 18.6 1.2 24.3l-.3 10.4-5.7-7.5c-10.8-14.2-18.5-30.1-22.5-46.9-.8-3.6-1.8-13-2.2-21l-.6-14.5-5.9 13c-12.9 28.6-19.5 50-20.3 66.3-.4 8.2-.2 11.2 1.2 14.7 2.3 6.1 3.9 7.2 5.9 4.2 1.4-2.2 1.4-2.8.1-6-3.7-8.9-.1-29.2 9.8-54.6l4.1-10.5 1.3 6.9c4.3 23.2 18.7 49.5 35.6 65.2l6.3 5.8.3-9.4c.6-19.3-2.4-50.7-6.8-71.3-4.1-18.9-12.3-39.7-20.4-51.5-2-3-3.5-5.6-3.2-5.8 1.2-1.2 11.4 5.8 16.5 11.3 14.4 15.7 23.8 44.9 27.7 85.7.6 6.6.7 6.8 3.5 6.8s2.9-.1 3.5-6.8c3.7-40 22.4-84.3 56.3-133 4.7-6.8 8.9-12.5 9.4-12.8.5-.3-1 3.2-3.3 7.7-12.6 25-22 57.1-26.6 90.9-1.9 13.8-2.5 54.2-1 66.3.8 6.8.9 6.8 3.5 6.2 1.5-.4 2.8-.8 3-1 .2-.2-.2-7.8-.8-16.9-2.6-38.5 3.8-81.9 17.6-119.5 9-24.5 28.1-57.8 43.4-76 6-7.1 6.1-7.4 4.5-9.2-1.3-1.3-2.4-2.2-2.8-2.2zM1355.1 1066.7c-30-28.7-87.1-47.5-156.6-51.6-18.8-1.1-23.2-1.1-41.9.1-25.6 1.6-45.3 6.1-60.5 13.8-7.5 3.8-8 3.9-21.3 4.5-30.5 1.3-59.9 7.7-74.2 16.1-23.2 13.6-20 37.4 7.5 55.3 5.7 3.7 6.7 4.8 7.3 8 2.3 12.2 14 25.8 28.5 32.9 4.7 2.3 11.5 5 15.2 5.9l6.7 1.7v6.4c0 11.7 8.3 24.1 22.5 33.5 18.6 12.3 51.5 23.7 68.5 23.6 14-.1 28-5.9 38.1-15.9 12.3-12.2 19.7-28.4 24.6-53.6.4-1.9 1.2-2 21.7-2 23.1 0 34.9-1.3 46.8-5.1 12.7-4 19.7-9.9 21.4-18.1.8-3.7 1.1-3.7 15.5.4 10.7 3 24.7 5.3 32.6 5.3 14.6 0 23.5-6.6 23.4-17.3 0-10.1-12.3-31-25.8-43.9zm-153.6 110.8c-15.8 31.9-41.5 38.3-84.4 21.1-20-8-35-18.7-40-28.5l-2.2-4.2 3.9 3.9c11.6 11.6 43.8 13.4 63.9 3.6 11.1-5.4 20.2-17.8 22.6-30.6 1.1-5.7 1.1-5.8 4.1-5.3 1.7.3 11.5 1.9 21.8 3.5 10.4 1.6 19 3 19.2 3 2.6 0-3.5 22.7-8.9 33.5zm-87.3-20.5c7 0 12.8-5.2 15.9-14.5.7-2.2 1.7-4.4 2-4.8 1.6-2 27.8-2.9 29.8-1.1.2.2-.5.4-1.6.4-1.6 0-2.3 1.2-3.7 6.2-3.3 12-10.9 20.4-22.4 24.9-7.1 2.7-26 3.8-35.4 1.9-12.5-2.5-17.1-6.5-16.6-14.6l.3-4.8 5.7-1.9 5.7-1.9 4.8 3.7c6.2 4.8 10.2 6.5 15.5 6.5zm-10.2-12.9c0-.4 3.7-1.6 8.2-2.8 10.2-2.6 9.8-2.5 9.8-1.2 0 2.5-4.3 7.9-6.8 8.5-2.5.7-11.2-2.9-11.2-4.5zm194.6-18.6c-8.1 8.1-25.8 11.6-58.8 11.6-17.7 0-22.9-.4-36-2.6-26.6-4.5-48.1-7.5-54.2-7.5-15 0-43.2 6.2-66.4 14.6l-12.7 4.6-7.5-2.2c-15.9-4.6-28.8-13-35.2-23-3.7-5.9-3.8-7.6-.1-5.7 6 3.1 23.9 8.7 34.5 10.8 13.3 2.6 32.2 3 40.7.9 7.2-1.8 14.2-5.3 19-9.7 7.1-6.4 17.9-9.2 40-10.3 15.5-.8 32.1-.4 53.5 1 23.3 1.6 74 7.3 83.2 9.4 3.2.8 3.1 5 0 8.1zm71.6-9.2c-5.2 4.7-19.8 4-43.2-1.8-40.2-10.1-135.8-18.9-170.9-15.6-21.1 2-31.8 5.1-38.9 11.5-2.2 2-6.6 4.8-9.8 6.3-5.6 2.6-6.6 2.8-21.4 2.8-11.1 0-17.8-.5-23.8-1.8-28-6-54.5-19.8-64.2-33.4-5.2-7.2-6-11.9-3-18 6.4-13.2 38.6-22.7 84.4-25 13.5-.7 14-.8 18.9-4 8.7-5.7 29-11.1 49.7-13.3 12.3-1.3 45.8-1.3 60.7-.1 62.8 5.2 116.2 24.1 142.7 50.6 6.7 6.7 16 20.4 18.7 27.4 2.4 6.5 2.5 12.3.1 14.4zM1428.6 1567.1c-.6 0-5.2 3.2-10.4 6.9-51.3 37.8-130.1 66.5-217.2 79-31.6 4.5-51 6.1-81.2 6.7l-27.8.5v9l23.2-.6c125.7-3.5 238.1-36.1 311.5-90.3l7.3-5.4-2.2-3c-1.2-1.6-2.7-2.9-3.2-2.8z"/><path class="st0" d="M166 577c2.1 33.7 5.5 51.6 12.2 64.3 1.7 3.2 8.5 11.7 15.2 19.1 19.8 21.7 27.5 33 37.2 55 12 27.3 16.1 32.5 30.6 39.6 32.2 15.8 87.1 12.7 164.3-9.4 28.6-8.2 82.6-26.8 82.5-28.4 0-.3-4.8-3.9-10.6-8.1-50.1-35.5-102.7-87.9-145.5-145-23.5-31.4-40-56.4-72.9-110.6-36-59.4-41.8-66.5-61.4-76.2-28-13.9-46.6-6.4-52.6 21.1l-1.2 5.8H160c-1.7 0-2.6 0-3.1-.4-1.2 6.4-5.8 32.4-6.2 54.7 7.6 40.3 13 81.3 15.3 118.5z"/><path class="st0" d="M2207.9 624.6c-20.5-40.9-55.2-62.2-110.3-67.5-15-1.5-44.5-1.3-73.1.4-30.2 1.8-56.6 1.9-66.6.1-4.2-.7-11.6-3-16.5-5.1-114.5-47.7-207.7-74.7-281.9-81.5-12.9-1.2-45.9-1.3-56-.1l-7 .8-9-6.4c-20.3-14.5-58.4-35.1-89-48.1-86.9-36.9-183.7-58.1-292.5-64.1-24.9-1.4-85-1.3-114.5.1-20.1 1-30.2.9-62-.5C922.7 348 842.7 346 758 346c-69.6 0-103.1.9-134 3.7-10.2.9-19.2 1.6-20 1.6-.8 0-14.3-3.2-30-7.1-75.1-18.7-151.1-31.9-217.5-37.7-21.1-1.9-81-2.7-97-1.4-71.9 5.9-112.7 28.1-122.5 66.6-2.8 11-2.5 16.4 2 34.2 4.3 17.1 8.2 34.8 11.6 52.5.4-22.3 5-48.3 6.2-54.7-.6-.4-.7-1.1-.7-2.6 0-4.7 4.5-17.5 8-23 6.8-10.7 14.6-15.2 27.2-15.8 10.8-.5 18.9 1.7 33.3 9.1 19.3 10 25.8 18.4 68 88.2 34.2 56.5 66.4 102.4 96.8 137.9C508.5 736.8 666.7 812.1 865 823.9c75.8 4.5 198.7-.8 290-12.5 53.5-6.9 92.9-14.3 157.5-29.8 53.2-12.8 71.9-15.8 97.5-15.9 17.9 0 29.1 1.1 47.2 4.9 47.9 10 111.7 37.1 222 94.5 32 16.6 32.4 16.9 48.9 28 27.3 18.4 60.7 32.4 93.6 39.2 21.1 4.4 28.8 5.1 52.7 5.1 24 0 31.6-.7 52.8-5.1 45.8-9.5 97.2-35.9 138.2-71 4-3.4 13.4-9.5 22-14.2 29.6-16.3 57.8-36.8 79.2-57.4 55.4-53.5 69.3-109.2 41.3-165.1z"/><path class="st0" d="M1621.8 1625.5c-4.9-13.2-9.6-22.9-15.1-30.9-5.5-8.2-8.4-15-11.7-28-5.5-21.3-10-51.2-13.5-88.1-.9-9.3-1.9-19.8-2.3-23.2l-.7-6.2-6 4c-16.6 11.1-31.5 10.8-41.5-.8-8.1-9.4-14.4-25.6-21.9-56.2-9.2-37.7-9.2-37.7-9.8-61.1-.5-21.7.3-36.5 3.3-59.8 5-39.1 16.2-92.4 29.9-142.4l6.3-22.9-11.9-76.6c-11.6-74.7-11.9-77-11.9-93.1 0-25.9 3.3-43.3 11.5-60.6 5.8-12.2 11.4-20.1 20.8-29 8.8-8.4 18.6-14.5 30.5-18.9l8.6-3.2-4.1-2.1c-9-4.6-43.7-19.7-59.9-26.1-29.4-11.7-54.6-19.2-78.8-23.5-8.6-1.5-45.5-2.9-51.5-1.9-1.4.2-6.5.9-11.5 1.5-12.8 1.6-32.2 5.6-69 14.4-99.3 23.7-168.6 33.8-274 40-104.7 6.1-187.7 4-252.3-6.5-6.7-1.1-12.8-2-13.4-2-.7 0-.9 1.4-.5 4.2.3 2.3 1.9 13.2 3.6 24.2 5.4 36.9 6.5 50.1 6.6 78.5 0 22.4-.3 27.5-1.8 33-2.4 8.7-8.4 22.1-16.2 36.4-3.6 6.5-6.5 12-6.5 12.3 0 .2 2.6-.8 5.8-2.4 13.7-6.8 28.8-10.2 48.8-10.9 24.2-.8 47.1 3.1 78.6 13.3 18.7 6.1 49.7 18.2 63.8 25 20.9 10.1 26.2 23 14.9 35.9-4.8 5.4-13.4 11.5-22.5 15.7-3.6 1.7-9.3 5.2-12.7 7.7-8.4 6.3-18.8 10.9-30.3 13.3-8.2 1.7-12 1.9-23.7 1.5-16.2-.7-25.9-2.6-45.9-9.3-13.5-4.5-14.2-4.6-23-4.1-5.8.4-12 1.5-17.1 3.2-26.4 8.7-34.1 10.7-41 10.7-6.5 0-6.8.1-4.5 1.4 5.8 3.3 12.7 4.3 31.5 4.8 10.5.3 25.3 1.2 33 2.1 7.7.9 17.1 1.8 21 2 3.9.2 10.4 1.3 14.5 2.4 11.3 3.1 60.1 11.1 67.5 11.1 1.8 0 4.7-3.3 13.9-16.2 14.4-20.2 14.1-19.8 15.2-19.7.5 0 2.1 1 3.6 2.2l2.7 2.2-9.5 13c-12.2 16.7-34.2 49.7-42.9 64.5-8.9 15.1-17.2 32.2-18.6 38.7-1.1 5-1 5.8 3.1 18 5.8 17.4 9.2 23.5 17.2 31.5 14.9 14.9 40.5 22.5 81.8 24.4 37.8 1.7 66.8-7.4 78.2-24.8 5.5-8.3 7.1-14.5 6.6-25.2-.3-8-.9-10.2-3.9-16.6-4.8-10-11.4-17-21.4-22.2-10.2-5.4-12.5-8.9-12.5-19.4 0-6.4 3.1-20.4 4.6-20.4.3 0 2 .6 3.9 1.4l3.4 1.4-1.9 6.8c-2.2 7.9-2.4 13.8-.6 17.3.8 1.5 3.9 3.8 8.1 5.8 13.7 6.6 24.6 21.3 28.1 37.7 1.9 8.9 1.9 13.4 0 21.4-4.1 17.3-16.6 30.4-36.3 38-11.3 4.4-22.7 6.3-40.9 6.9-37 1.2-71-5.1-90.9-16.8-7.9-4.7-19.2-16.1-23-23.4-4.7-8.8-12.3-32.4-12.3-37.8 0-2.6 1.3-8.1 3-12.8 1.6-4.5 2.9-8.3 2.8-8.4-.1-.1-3.8-.7-8.2-1.4-18.7-2.7-30.3-13-35-30.8-1.8-6.8-2-23.7-.4-32.4.6-3.4.7-6.5.3-6.9-.8-.8-18.8-3-35.3-4.5-4.1-.4-14.9-.8-24-.9-18.2-.3-23.1-1.3-31.3-6.5-3.5-2.2-5.4-4.3-6.8-7.5-1.1-2.5-2.4-4.5-2.9-4.5s-1.7-.3-2.7-.6c-1.7-.5-1.7-.5-.1.5 1.6 1 1.2 2.3-4.8 14.2-18.1 36.1-35.7 81.7-48.9 126.3-3.8 12.8-13.9 52.9-16 63.3l-.7 3.3 7.3-4c7-3.8 7.6-4.5 12.1-12.3 7.1-12.6 18.5-37.9 22.8-50.8 5.1-15.3 6.8-25.6 6.8-42.8 0-19.8 2.9-29 10.2-32.7 3.8-1.9 11.2-1.8 17.5.3 4.9 1.7 5 1.8 6.2 7.2 2.1 9.4 3.6 31.9 2.9 42.5-1.4 20.5-5.9 34.1-15.5 47-4.8 6.4-14.1 23.9-14.1 26.4 0 .7 3.4 1.1 9.8 1.1h9.8l3.8-4.1c2.1-2.2 6.1-5.2 9-6.6 7-3.5 22.2-19.1 26.4-26.9 2-3.8 3.6-8.7 4.2-12.8 1.4-10.2 5.5-15.4 19.1-24.6 6.2-4.2 6.5-4.3 18.2-5.3 8.5-.7 14.7-.7 21.4.1 14.6 1.7 18.1 5.4 17.2 18-.6 7.7-2.4 13.3-7.7 24.7-7.6 16.2-18 26.3-30.9 29.9-3.4.9-8 3.2-10.3 4.9-5.2 4-13.2 13.7-12.1 14.7.5.4 6.2 2.9 12.8 5.5 16 6.3 42.9 20.2 60.1 31 18.7 11.8 30 18.5 31.2 18.5 2.4 0 10.2-14.8 10.2-19.3 0-4.3 3-12.6 5.7-15.8 5.7-6.7 15.2-8.4 30.7-5.4 9.4 1.8 13.1 4.3 16.1 11 3 6.5 3.9 14.1 2.9 25.2l-.7 8.8-4.9 4.5c-4.8 4.4-8.9 9.8-8.9 11.9 0 .6 5.7 2.4 12.8 4.1 22.6 5.4 50.2 8.8 50.2 6.1 0-.7 1.8-5.2 3.9-9.9 5.2-11.3 7-20.8 8-42 1-20.3 2.6-26.3 8.8-32.3 5.6-5.4 9.7-6.8 20.8-6.8 12 0 16.2 1.9 19.6 8.9 4.5 9.2 3.5 29.2-2.2 46.3-3.2 9.5-7 26.7-7 31.7 0 2.7.3 3.1 2.9 3.1 5.6 0 33.2-5.1 48.4-9 16.1-4.1 37.6-10.7 39-12 1-.9-3-11-10.8-27.9l-5.7-12.3v-13.7c0-21.5 3.9-34.7 13.1-44.5 5.6-6 10.8-9.1 18.5-11.1 8.1-2.1 13.5-.7 18.1 4.6 4.1 4.8 5.2 9.5 6 24.3.9 19.1 6.6 35 16.4 45.8 2.6 2.9 5.5 6.3 6.4 7.6l1.7 2.4 11.1-4.1c16-6 40-9.5 70.5-10.4l7.9-.2 1.7-10c2-11.4 2.9-15.2 11-43.7 7.8-27.6 12.2-36.2 20.4-39.9 6-2.7 11.3-2.4 23.7 1.7 12.5 4.1 16.1 6.6 18.5 12.9 2.4 6.3 1 12.2-6.4 27.6-9 18.6-14.1 35.6-14.1 46.9v4.9l5.2.5c2.9.3 11.1.8 18.2 1.1 16.9.7 48.7 3.2 64.4 5 10 1.1 13.6 2 18.6 4.5 12 5.9 21.6 18.4 28 36.5 6.2 17.5 10.4 44.8 10.4 68v9.6h-6.5c-2.9 13.2-16.9 62.8-70.3 111.1.5.5 1.1 1.1 1.6 1.8l2.2 3-7.3 5.4c-73.3 54.2-185.7 86.8-311.5 90.3l-23.2.6v-7c-114.3-3-273.3-12.6-298.6-14.1-.2.9-.4 2.3-.4 3.4 0 3.1-2.6 3.2-16.1.4-64.2-13.1-107.4-59.2-127.9-136.5-5.7-21.4-11-56.9-11-73.5 0-3.9-.4-7-.9-7-2.1 0-15.8 53.4-27.6 108-3.6 16.8-11.1 53.2-16.6 81-6.5 33-10.7 51.7-12 54-6.2 10.9-13.4 26.2-15.9 33.8-4 12-4.6 18.7-2.5 30.2 4.5 25.6 16.4 47 37.8 67.7 8.7 8.4 30.1 25.3 32.1 25.3 1.6 0-2.5-34.8-6.3-53-2.6-12.3-2.6-12.2.8-11.4 16 3.8 25.5 20.9 29.8 53.1.8 6.2 1.5 14.7 1.5 18.8v7.4l4 2c5 2.6 5.7 2.5 6.3-.2.3-1.2 2.3-9.3 4.5-17.8 2.2-8.6 4.7-21.2 5.6-28 .9-6.8 2.1-15.8 2.6-19.9 1.9-13.9 9.2-25.2 21.4-33.2 7.6-4.9 26-10.8 33.9-10.8 5.6 0 5.7 0 5.7 3 0 3.2.2 3.1-11.1 4.5-15 1.9-24.8 26.4-27.8 69.5-1.2 16.5-1.3 36.8-.4 45.7l.6 6 16.1 5.7c25.8 9.1 32.8 11.1 33.7 9.6 2.7-4.4 3.1-37.7.6-51-2.8-14.7-9.2-30.5-15.7-38.8-1.9-2.4-1.9-2.4.7-4.4l2.6-2 2.4 2.9c24.8 29.6 44.2 64 53.4 94.7l2.6 8.8 1.7-15.3c2.2-19.5 4.9-32.6 8.2-39.4 2.7-5.6 5-7.6 9.7-8.7 2.5-.6 2.7-.4 2.2 1.6-1.6 6.6-3.7 31.7-4.2 49.4l-.6 20.1 3.3.7c6.2 1.2 6.8.9 9.9-5.1 3.7-7.2 6.1-15.5 6.1-20.4 0-2.6.4-3.8 1.4-3.8.8 0 2.1-.2 2.8-.5 1.5-.6 3.6 5.5 8.7 25.5l2.7 10.5 8.7 1.6 8.7 1.6 1.5-3.6c3.3-7.8 10.3-30 11.9-37.6.9-4.4 1.9-11.6 2.2-16l.6-8-6.6-15.4c-3.6-8.5-6.5-15.5-6.3-15.7.8-.8 14.4 16.2 15.9 19.9 7 17.7 17.1 53.6 20.3 72.3.9 5.5 1.8 10.1 2 10.3.5.5 36.6 5 53.5 6.7 47.9 4.8 52.2 5 119 5 35.5 0 74.2-.4 86.1-.8l21.6-.8 2.2-15.8c5.5-39.3 13.7-65.9 23.7-76.9 6.4-7 11.6-8.6 19.5-5.6l3.5 1.3-3 1.1c-7 2.6-10.5 4.5-12.4 6.5-3.3 3.5-6.1 11-7.3 19.7-1.9 13.5 0 29.1 7.8 65.1.6 2.6.9 2.8 6.3 2.8 3.2 0 7.9-.3 10.5-.7l4.8-.7-.6-10.1c-.6-10.7-3.3-21.9-7.1-29.8-2.2-4.6-2.2-4.8-.5-6.4 1-.9 2.5-1.4 3.3-1.1 5 1.9 18.1 24.6 22.7 39.5l2.3 7.3 4-.5c2.2-.3 11.7-1.1 21-1.7s17.8-1.5 18.8-1.8c1.2-.4 3.7-5.4 7.6-15.1 3.2-7.9 8.7-20.3 12.3-27.4 7-13.8 16.7-31.5 16.7-30.3 0 .4-.6 3.8-1.4 7.6-3.2 15-3.6 19.8-2.5 29.6 1.1 10.8 4.8 29.6 6 30.9.4.5 4.3.5 8.6.1l7.7-.7-.7-11.1c-1.8-30.2-10.4-87.4-19.6-130.5-1.7-7.8-3-14.4-3-14.7 0-.9 4.2-.5 8.4.7 2.8.8 6.1 3.2 10.2 7.2 15.9 15.8 28 58.1 35.6 123.8 1.6 14.2 2.7 19.8 3.6 19.8 1.5 0 1.9-1 6.6-15.5 9.7-30.2 29.2-64.2 52.6-91.5 12-14.1 26.8-29.2 30.6-31.4 9.5-5.5 25.9-13.8 24.5-12.4-.8.8-5.8 5-11 9.3-15.6 12.8-21.8 19.2-25.5 26.4-9 17.9-14.8 48.5-16.2 86.3-.6 15.2-.5 16.8 1 16.8 5 0 58.5-15.3 62.5-17.8 1.6-1.1 3.3-16.8 2.6-24.2-.8-8.2-2.4-15-4.6-19.4-1.9-3.9-1.9-3.9 0-5.9 1.1-1.1 2.5-1.7 3-1.3 1.7 1.1 13.8 22.6 17.3 31l3.3 7.9.7-3.9c.4-2.1.7-11 .8-19.8.1-30.1 3.7-62.1 8.3-74.5 2.7-7.4 7.4-12 12-12h3.5l.7 24.2c.8 29.6 2.6 64 3.5 68.7l.7 3.4 6.2-5.8c20.7-19.2 39.8-52.4 48.2-83.8 4.5-16.9 6.1-28.5 6.7-47.8 0-32.7-5.1-62.6-16.9-94.3zM1357.6 1128c-7.9 0-21.9-2.3-32.6-5.3-14.4-4.1-14.7-4.1-15.5-.4-1.7 8.2-8.7 14.1-21.4 18.1-12 3.7-23.7 5-46.8 5.1-20.5 0-21.3.1-21.7 2-4.8 25.2-12.3 41.5-24.6 53.6-10.1 10-24.1 15.8-38.1 15.9-17 .1-49.9-11.3-68.5-23.6-14.2-9.4-22.5-21.8-22.5-33.5v-6.4l-6.7-1.7c-3.7-1-10.5-3.6-15.2-5.9-14.5-7.2-26.2-20.7-28.5-32.9-.6-3.2-1.6-4.3-7.3-8-27.5-17.9-30.8-41.7-7.5-55.3 14.3-8.4 43.7-14.8 74.2-16.1 13.3-.6 13.8-.7 21.3-4.5 15.2-7.7 34.9-12.2 60.5-13.8 18.7-1.2 23-1.2 41.9-.1 69.5 4.1 126.5 22.9 156.6 51.6 13.5 12.9 25.9 33.9 25.9 44 0 10.6-8.9 17.2-23.5 17.2z"/><path class="st0" d="M1092 1660.3l27.8-.5c30.2-.6 49.7-2.2 81.2-6.7 87.1-12.5 165.9-41.1 217.2-79 5.1-3.8 9.8-6.9 10.4-6.9.3 0 1 .4 1.6 1 53.4-48.4 67.4-97.9 70.3-111.1h-1.2l-.7-14.2c-1.7-34.3-6.6-57.4-15.9-74-7.6-13.6-16.8-20-31.3-21.7-24-2.9-87.8-7-89.1-5.7-.4.4.5 10 2 21.4 6.8 52.5 5.6 68.5-6 78.2-8.6 7.1-29.6 9.5-37.1 4.2-8.4-6-10.1-19.4-6.2-47.7 1.2-8.8 2.2-20.1 2.2-25 0-8.6-.2-9.3-4-16.6-2.2-4.2-4.4-9.5-4.8-11.9l-.7-4.3-14.6.7c-19.5.9-32.8 2.3-43.6 4.5-11.4 2.3-27.1 8.2-26.7 10 .2.7 1.4 5.1 2.8 9.8 3.7 12.8 5.6 29.5 5.9 51.5l.2 19.7 3 4.3c6.8 9.5 9.1 16.7 7.3 22.3-1.4 4.3-5.4 7.4-14 11-3.6 1.5-9.4 4.4-13 6.6-12.6 7.5-21 6.2-32-4.9-12.3-12.4-16.6-25.5-18-54.1-.8-17.4-2.3-27.1-6.1-38.6l-1-3.1-12.2 3.9c-23.1 7.4-55.7 14.7-77.5 17.4l-5.2.7v3.7c0 7.3 2.2 17 7 31.2 6.6 19.5 8.4 28.8 7.9 40.9-.3 8.3-.8 10.4-3.3 14.9-3.8 7-9.5 10.7-18.7 12.3-3.9.7-9.4.9-12.2.5-13-1.6-17.5-8.2-20.1-28.7-1.7-13.6-3.5-20.9-8.9-36.4-4-11.4-5.6-19.9-5.6-30.1v-7.1l-9.5-.7c-14.2-1-40.3-5.9-53.5-10.1-1.4-.4-2.2 1.3-4.8 9.7-1.7 5.6-4.5 15.8-6.2 22.5-8 32.1-16.4 49-27.4 55.3-7.2 4.1-14.3 4-30.1-.5-6.6-1.9-13.9-3.9-16.1-4.5-2.2-.6-5.4-2.4-7-4.1-4.4-4.6-3.9-10.1 2.1-23.2 8.3-18 11.3-26 14.4-38 3.4-13.4 7.6-22.1 15.6-32.2 5-6.4 5.3-7.1 3.7-8.3-2.5-1.8-25.9-16.4-37.5-23.4-13.5-8.1-37-19.7-51-25.2-6.4-2.5-12.2-4.6-12.7-4.6-1.6 0-6.5 10.5-10 21.5-3 9.1-3.3 11.6-4 28-.9 21.1-2.3 25.9-9.7 32.5-6.5 5.7-12.6 7.5-25.4 7.5-10.1 0-10.7-.1-14.4-2.9-4.8-3.6-8.1-10.8-9.6-20.6-2.4-15.6 2.4-44.5 11.4-67.7l3.4-8.8-9-.3c-6.4-.2-9.3.1-9.8 1-.4.7-2.9 7.3-5.5 14.8-12 34.9-22.1 43.9-38 34.2-7.1-4.4-8.5-17.7-3.1-29.4 1.4-3.1 2.4-5.7 2.1-5.7-.8 0-9.2 5.9-9.8 6.8-1.7 2.7-8.7 51.3-10.7 74.2-1.5 16.6-.7 50.7 1.5 67.8 10.7 82.5 42.6 138.3 93.4 163.7 10.5 5.3 28.9 11.1 41.4 13.2 8.2 1.4 10.6 2.1 10.2 3.2 0 .1-.1.2-.1.4 25.2 1.5 184.3 11.1 298.6 14.1v-2.6z"/><path class="st0" d="M2257.8 1578.5c-.6 2.4-5.4 1.7-29.8-2-15.7-2.4-28.6-4.4-28.7-4.4-.1 0-.2 3.9-.2 8.6 0 9.2 2.6 24.2 6 33.8 1.6 4.6 1.8 6.1.8 6.7-1.9 1.2-2.3 1-3.6-1.8-6.3-13.9-9.1-44.4-5.3-57.9 1.1-3.8 1.9-7.1 1.7-7.3-.7-.7-19.1 19.7-25.2 27.7-9.6 12.8-15 24.1-16.9 35.3-.5 3.2-2.8 5.8-4 4.6-.2-.2-1.3-8.5-2.5-18.4-6.2-51.1-16.6-89.4-26.8-98.7-2.3-2.1-2.5-2.1-1.8-.3 17.2 45.4 21.5 85.6 13.5 127.2-1.1 5.9-2.4 11.4-2.9 12.2-1.2 2.1-15.1-26.8-19.9-41.4-2.2-6.6-4.3-14.2-4.7-17-1.2-8.8-2-8.5-5.3 1.6-5.1 16.1-6.7 25.1-6.7 39.7 0 11.6-.2 13.2-1.6 13.2-2.2 0-2.8-2.9-2.9-13.6 0-16.4 5.2-38.2 14-58.4 2.1-4.9 3.7-8.9 3.6-8.9-.2 0-13.3-1.8-29.2-3.9-15.9-2.2-44.8-6-64.4-8.5-19.5-2.5-37-4.8-38.9-5.1l-3.4-.6.5 11.6c.5 11.4.5 11.6-1.7 11.6-2.1 0-2.2-.4-2.9-14.2-1.5-31.6-5.4-65-10.2-88-3.7-17.3-4.3-18-4.3-5-.1 18.1-3.8 41.8-11.1 70.8-4.8 19-12.2 42.7-13.1 41.8-1.6-1.6-7.9-28.5-9.5-40.5-1.7-12.7-1.4-32.9.5-41.1 1.4-5.8-.3-3.2-3.7 5.9-7.3 19.4-11.2 46.4-11.3 78.2-.1 20-.2 21.2-1.9 21.2-1.5 0-2-1.1-2.6-5.7-.8-6.2.2-36.8 1.5-47.3.4-3.6.6-6.7.4-6.9-.7-.8-111.6-13.1-117.7-13.1-1.8 0-2.6.8-3.3 3.2-1 3.4-2.1 4.3-4 3.1-.9-.5-.5-2.9 1.3-9.1 3.9-13.6 5.7-30.4 5-46.6-.5-11.7-2.1-24.6-2.5-21-1.1 9.7-2.5 19.5-3.8 25.5-2.1 10.3-8.3 29.2-9.3 28.5-1.3-.8-4.8-11.9-6.5-20.5-.8-4.1-1.8-14.4-2.2-23-.5-10.9-.9-14.6-1.5-12.5-1.6 5.7-3 32.1-2.3 43.8.4 6.5.4 11.8.1 11.8-.3 0-3.8-2.5-7.8-5.5s-10.4-7.1-14.2-9.1l-6.9-3.6 4.1 5.4c4.8 6.4 15.2 27.5 15.5 31.5.3 4.6-2.7 4.2-4.3-.6-.7-2.2-1.8-4.4-2.4-4.9-1.2-.9-1-.9-51.1-5.1-45.3-3.8-95.6-7.2-96.3-6.5-1.5 1.5 6.8 49.3 11.3 65 2.7 9.2 3.5 10.9 12.2 25.2 9.1 14.9 19.5 43.2 24.1 65.8 7.5 36.2 7 76.4-1.3 107.2-7.6 28.3-22.6 57.1-40.9 78.5-6 7-16.1 16.3-20.2 18.6-1.6.9-1.6 1.6 0 12 .9 6.1 2.6 13.8 3.8 17.2 2 5.9 2 6.2.3 8.1-2.4 2.7-3.9 1.2-6.3-6.4-5.1-15.8-8.2-48.7-10-104.7l-.7-23.5-2.1 4.5c-1.2 2.5-3 9-4.1 14.5-3.8 18.9-4.6 32.9-4.6 80.2v45.2h-6.4v-6.8c0-10.4-5.6-30.9-11.7-42.6l-2-3.9-.7 10c-.8 11.6-2.7 22.9-6.3 36.1-3.7 13.9-10.4 32.1-11.8 32.1-.7 0-2-.6-3-1.3-1.7-1.2-1.6-1.8 1.8-10.9 3.7-9.9 10.1-31.6 9.5-32.2-.2-.2-8.3 2.1-18 5s-23.8 6.8-31.2 8.5l-13.6 3.2v4.9c0 4.8-.1 4.9-3 4.9h-3v-20.8c0-31.8 2.6-56.3 8.4-79.7l3.2-12.9-3.4 3.9c-10.9 12.4-26 34.6-34.7 50.9-14.8 27.6-24.2 58.4-26.3 86.1l-.7 10h-6l-1.2-17.5c-5.1-74.9-17.5-136.3-32.2-158.7-3.9-6-10.7-13.1-11.6-12.2-.3.3 1.1 8.3 3 17.8s5.3 27.9 7.4 40.9c12.9 77.5 14.1 125.6 3.6 146.1l-2.3 4.6-2.2-5c-8.2-18.9-20.1-61.1-22.2-78.5-.6-5.2-1.4-9.9-1.8-10.3-.8-1-9.5 17.5-14.4 30.6-7.9 21.3-11.1 39.5-8.7 49.3 1.1 4.3 1 4.9-.6 6.1-1 .7-2.2 1.1-2.8 1-3.5-1.1-4.5-17.2-2-30.7.9-4.5 1.4-8.4 1.1-8.6-.4-.4-40 2.6-40.3 3-.1.1.7 5 1.7 10.9 2.3 13.7 3.9 39.3 3.2 52.5l-.6 10.2h-5.8v-17.9c0-20.2-1.1-33.6-4.1-49.4-2.1-11.2-7.6-29.5-10.4-34.4-1.6-2.7-1.6-2.7-.9 2.7 1 8.3.7 25.5-.6 34.5-1.3 9-6.1 28-8.9 35.2-1 2.6-2.2 5.7-2.6 6.8-.9 2.5-4-5-12.1-29.7-10.5-31.8-16.1-57.7-17.2-78.8l-.6-12.5-1.8 6c-5.5 18.3-11.3 58-13.3 90.5-1.1 17.5-1.2 18-4.7 18h-3l.7-9.8c.4-5.4 1.1-14.4 1.6-20.2s.8-10.5.7-10.6c-.1-.1-13.1.2-28.7.7-15.7.5-55.9.8-89.5.5-65.2-.4-77.8-1.2-129-7.2-11.5-1.4-23.3-2.8-26.1-3.1l-5.1-.6-.7 10.7c-1 15.7-4.4 27.2-10.5 34.5l-2 2.5-2.1-2.1-2.1-2.1 3.5-5.8c4.8-8 6.6-16.8 6.6-32.4 0-15.6-2.3-30.5-8.1-51.6-5-18.3-5.4-19.2-6.4-12.9-1.2 7.9-7.2 27.7-12.7 41.8-5 12.8-24.2 53.6-25.2 53.6-.3 0-1.7-.5-3.1-1.2-1.8-.8-2.4-1.7-1.9-2.8 4.5-11 2.5-37.6-5-64.6l-1.4-5-1.3 3.4c-3.4 9.2-18.8 33.1-21.4 33.1-.3 0-1.4-1.7-2.5-3.8-4.3-8.5-5.7-25.1-4.2-48.8.6-9.3 1.3-18.6 1.6-20.5l.5-3.5-1 3c-2.8 8.2-5.8 36.8-7.5 72.8l-.6 12.8h-5.4l-.6-12.2c-1.3-27.4-10.8-56.9-27.7-86.2-6.7-11.6-13.7-22.2-12.7-19.2.3 1 1.4 5.5 2.4 10 2.4 11.3 2.4 41.2-.1 54.7-3.2 17.6-8.9 37.8-14.2 50.4l-1.5 3.6-3-1.6c-2.7-1.4-2.9-1.8-1.8-3.8 3.3-6.1 13-39.2 11.8-40-1.1-.7-47.3-15.8-47.5-15.5-.4.4 2.3 32.1 3.1 36.4.5 2.9.3 3.2-2.6 3.6-1.8.3-3.3 0-3.5-.6-1.3-3.7-3.6-39.3-4.1-62.6-1-46.6 3.2-78.4 12.7-95.9 1.6-3 2.7-5.6 2.5-5.9-.9-.9-10.4 6-14.5 10.4-5.8 6.3-8.9 13.5-10.1 24-3.6 30.9-7.4 48.1-17.4 77.8-6 17.8-16.1 43.2-19.9 50l-1.7 3 .5-3c3.7-23.1 4.4-79.1 1.2-97.9-3.1-18.3-7.4-29.8-13.6-36.5-1.7-1.8-3.3-3.2-3.5-2.9-.2.2.5 5 1.5 10.5 4.8 26.9 6.3 58.7 3.5 74.6-1.5 8.1-5.7 18.8-7.5 18.8-.6 0-1.9-.5-3-1.2-1.9-1.2-1.9-1.3-.1-4.8 2.8-5.4 4.9-14.6 5.6-24.1l.6-8.4-7.8-5c-24.8-15.9-48.1-39.9-59-61-7.9-15.3-13.3-35.2-13.3-48.7 0-13.6 6.8-32.6 19.9-55.7 1.3-2.3 5.3-20.2 11.7-52.5 5.3-26.9 9.9-49.5 10.1-50.2.3-.7-2.8.2-6.8 1.8-21.2 8.9-55.3 10.1-95.8 3.2-49.1-8.3-78.1-22-78.1-37 0-12.9 15.9-21 58.5-30 9.4-2 20.4-4.7 24.5-6.1 16.4-5.5 28.2-13.7 33.5-23.5 2.5-4.5 3-6.7 3.3-14.4.4-8.1.1-10-2.6-17.7-5.7-16.6-17.2-33.5-36.2-53-12.8-13.2-25.8-24.2-42.9-36.6-6.4-4.6-14-10.6-16.8-13.4l-5.2-5.1-13.3 2.8c-20.1 4.2-66 15.9-86.3 21.9l-18 5.4.2 7.5c.1 5.6-.2 7.7-1.2 8.1-3.9 1.5-2.6-24.7 1.9-38.9 2.2-7 2.3-7.7.6-5.5-2.8 3.6-9.6 17.6-11.5 23.6-.9 2.8-1.9 7.3-2.3 10-.5 3.4-1.2 4.9-2.2 4.9-1.1 0-1.7-1.7-2.2-6.4-.8-7.6-2.8-13.8-6.3-19.7-3.6-6.1-4.9-5.4-1.9 1 3.3 7.1 5.4 18.8 5.4 28.9v8.2l-4.9-5.3c-3.3-3.5-5.7-7.4-7.2-11.4l-2.2-6.2-1.4 3.4c-.8 1.9-1.7 6.4-2 9.9-.6 6.3-2.3 8.8-3 4.2-.2-1.2-.9-2.2-1.7-2.2-1.5 0-23.9 8-41.7 15-5.9 2.3-10.8 4.7-10.8 5.4 0 .7 1.4 3.4 3.1 6.1 1.8 2.9 2.8 5.5 2.4 6.4-.5 1.3-1 1.1-3-1.3-1.3-1.6-3.1-4.6-4.1-6.8s-2.1-3.8-2.6-3.8c-1.4 0-1 6.2.7 11.9.9 2.9 1.3 5.5 1 5.8-1.5 1.5-3.4-1.2-5.3-7.9-3.1-10.5-7.3-19.4-12.7-26.6-5.1-6.9-7.7-8.3-4.8-2.5 5.2 10.4 7.4 18.6 7.5 28.2.1 9.9-1.6 15.7-4.1 14.2-.9-.6-.9-1.9.3-5.6 1.4-4.8 2-10.6 1-10.6-3.3 0-65 30.1-85 41.5-23.3 13.2-50.3 30.5-69.7 44.5l-3.2 2.3-2.5 1.8-.1-.1c-5.9 3.9-21.3 14.5-37 29.5V2053h2293v-467.8c-14.2-3.1-29.5-5.8-35.5-6.7zM382.3 1449.7c-1.6.5-3.9-7.6-5.4-18.1-.6-4.5-1.6-19-2.3-32.1-1.1-20.8-1.4-23.6-2.5-21.5-3 5.4-4.3 17.6-4.8 47.4-.5 24.3-.8 29.8-1.9 29.8-.9 0-1.4-1.2-1.4-3.6 0-4.9-2.4-13.9-5.7-21l-2.7-5.9-.7 8.5c-.4 4.7-1.2 10.5-1.8 13-2.2 8.3-7.4 23-8.2 23-2 0-1.7-2.6 1.5-12.2 1.9-5.7 4-13.4 4.6-17.1 1.5-8.6.9-20.3-1.2-24.4-1.3-2.6-1.4-3.4-.3-4.3 1-.8 2.1.3 4.9 4.8 2 3.3 4.8 8.6 6.3 11.8l2.7 5.9.7-19.5c.9-26 3.5-39 8.6-41.9 1-.6 2.2-.9 2.8-.7.6.2 1.3 6.8 1.7 15.2 1.3 27.5 2.8 45.9 4.4 52.9 2.1 9.1 2.1 9.5.7 10zM1802 1795.2c-15.3 18.1-34.3 51.5-43.4 76-13.9 37.6-20.3 81-17.6 119.5.6 9.1 1 16.7.8 16.9-.2.2-1.5.6-3 1-2.6.7-2.7.6-3.5-6.2-1.5-12.1-.9-52.6 1-66.3 4.6-33.8 14-65.9 26.6-90.9 2.3-4.6 3.8-8 3.3-7.7-.5.3-4.7 6.1-9.4 12.8-33.9 48.8-52.6 93-56.3 133-.6 6.6-.7 6.8-3.5 6.8s-2.9-.2-3.5-6.8c-3.8-40.8-13.3-69.9-27.7-85.7-5-5.5-15.3-12.5-16.5-11.3-.3.3 1.2 2.9 3.2 5.8 8 11.8 16.3 32.6 20.4 51.5 4.5 20.6 7.5 52 6.8 71.3l-.3 9.4-6.3-5.8c-16.9-15.6-31.3-42-35.6-65.2l-1.3-6.9-4.1 10.5c-9.9 25.4-13.5 45.7-9.8 54.6 1.3 3.2 1.3 3.8-.1 6-2 3.1-3.6 2-5.9-4.2-1.3-3.5-1.6-6.5-1.2-14.7.8-16.3 7.4-37.7 20.3-66.3l5.9-13 .6 14.5c.4 8 1.3 17.4 2.2 21 4 16.8 11.6 32.7 22.5 46.9l5.7 7.5.3-10.4c.2-5.7-.4-16.6-1.2-24.3-5.2-47.1-19-80.4-39.5-95-2.5-1.7-2.3-1.8 7.1-1.5 8.8.3 10.3.6 17.2 4 18 8.9 31.5 32.2 38.6 66.7 1.2 5.8 2.3 10.6 2.4 10.8.2.2.8-2.2 1.5-5.3 10.3-46.2 50.9-114.3 96.9-162.6 4.1-4.3 7.7-7.8 8.1-7.8.4 0 1.5.9 2.4 1.9 2 2.1 1.8 2.4-4.1 9.5z"/><path class="st0" d="M2154 959.9c0 1.7-1.1 1.9-11.7 2.5-6.5.3-16.1.9-21.5 1.2l-9.7.6 2.1 3c1.6 2.3 1.8 3.2.9 4.1-1.4 1.4-3.5-1-7.6-8.8l-2.6-5 .6 7c.3 3.8.9 8.2 1.2 9.8.5 2.1.3 2.8-.9 2.8-1 0-2-1.5-2.7-4.2-2.1-7.9-4.2-13.2-8.2-21-3.7-7.2-11.5-17.4-12.5-16.4-.2.2.9 3.1 2.5 6.3 4.7 9.3 7.2 18.7 7.2 27 0 8.2-2.2 15.5-4.1 13.6-.8-.8-.8-2 0-4.3.6-1.8 1.1-5.2 1.1-7.6 0-4.3-.1-4.4-3.3-4.4-6.3 0-55.3 5-83.2 8.5-39.3 4.9-100.9 14.8-102.9 16.6-.5.4.6 4.5 2.3 9 4.4 11.4 7 23.8 7 33.7 0 6.7-.3 8.2-1.5 8.2s-1.5-1.4-1.5-6.9c0-6.8-1.9-19.2-3.8-24.1-.9-2.3-1-2-2.1 2.9-1.7 7.7-5.9 19.7-9.4 26.6l-3.1 6-1.3-6.5c-2.1-10.3-2.7-31.2-1.4-42.9 1-8.9 4.2-23.8 6.6-30.6.6-1.6.5-1.7-.4-.5-3.6 4.9-8.8 28.3-11.1 49.5-.6 6.1-1.4 12-1.6 13.2-.8 3.8-3.1 2.6-3.8-1.9-1-6.2-5.9-15.8-12.7-24.8-3.3-4.4-6.1-8-6.3-8s.1 2.4.7 5.2c.5 2.9.7 8.4.3 12.1-.8 8.6-3.5 20.6-4.6 20.6-1.9 0-2.1-2.3-.6-8.3 2-8.1 2.9-19.9 1.8-21.6-.8-1.1-2.6-1-10.8.9-11.8 2.7-56.5 14.8-57.2 15.4-.3.3 3.5 4.8 8.4 10.1 29 31.5 49.4 59.2 73.4 99.6 24.9 42.1 45 59.7 75.9 66.6 5.8 1.3 12.2 1.7 27.1 1.6 20.3-.1 27.2-.8 60.5-6.4 9.4-1.6 22.8-3.4 29.8-4.1 14.4-1.3 39.1-.8 47.8 1.1 12.4 2.6 20.9 9.3 20.8 16.4-.1 13.4-22.1 30.1-65.2 49.5-45.2 20.4-89.7 35.1-123.4 40.7-15 2.5-45.5 2.6-57 .1-32.5-7-51.2-19.3-95.7-62.7-25.6-25-29.2-29.2-59.5-70.8-18.1-24.8-28.4-30.2-42.8-22.4-7.9 4.2-18 13.5-28.5 26.2-16.7 20.2-26.7 36.4-30.4 49.4-2.8 9.8-1.6 23.9 3.4 40.5 6.9 22.6 8.9 37.8 7.2 55.2-3 31.4-14 63.1-37.9 110.2l-11.6 22.8 2.3 25.2c1.2 13.8 2.5 26.3 2.8 27.8.5 2.6.6 2.6 12.7 3.3 28.2 1.6 121.5 8.9 130 10.2l3.8.6-2.2-4.3c-5.7-11.3-13.4-19.8-17.7-19.8-.7 0-3.1 1.7-5.4 3.7l-4.2 3.8.6-3.9c1.9-12.1 14.2-12.3 33.1-.5l9.1 5.7.7-18.2c.7-19.6 2-28.8 4.8-35.3 1.6-3.7 4.4-6.3 6.7-6.3.4 0 .9 8.4.9 18.8.1 13.4.6 21.3 1.8 27.7 2.4 12.3 2.9 12.9 4.9 5.4 6.8-25.7 8-44.2 4.1-61.7-1.5-6.5-1.3-8.2 1-8.2 1.2 0 3.7 5.7 6.5 15.1 5.4 17.7 7.5 48.5 4.6 67.4-.9 6.1-1.8 11.9-1.9 13-.2 1.8.6 2.1 8.3 2.8 4.7.4 30.7 3.3 57.9 6.3s50.1 5.5 51.1 5.5c1.3 0 2.1-1.9 3.4-9.2 3.3-17.4 11-37.2 18.5-47.5 3.2-4.4 3.8-4.7 5.8-3.4.9.6.6 2.2-1.2 6.7-4.3 10.8-5.8 20.6-5.9 38.2 0 9 .4 16.7.9 17.2s3.7 1.2 7.1 1.6l6.1.6 1.2-4.4c8.8-32.7 13-70.7 9.6-86.7-2.1-10-5.5-15.5-11.4-18.6l-4.7-2.4 3-1.1c6.4-2.5 11.9 1.8 17.5 13.3 8.3 17.1 14.6 49.9 18.5 96.7l.6 7.6 17.7 2.2c41.1 5.2 131.5 17.3 138.4 18.6 3.6.6 3.6-.6-.2-16-3.3-13.5-7.6-26.4-11.6-35.4-1.5-3.3-2.5-6.3-2.2-6.6 1.2-1.2 8.2 1.1 11.3 3.7 6.6 5.8 14.3 24.5 19.5 47.1 2 8.9 2.4 9.7 4.9 10.2 1.5.3 9.5 1.5 17.9 2.7l15.3 2.2 6.2-6c7.3-7.1 23.8-21.3 24.8-21.3.4 0 1 .7 1.3 1.6.4 1.1-1 3.4-4.4 7-4.7 5-8.8 12.3-10.3 18.5l-.6 2.6 14.2 2.2c7.8 1.2 20.8 3.2 28.7 4.4 12.9 1.9 14.5 2.4 14.8 4.2 0 .2 0 .4.1.5v.1c.1.5.1 1 0 1.4 6 1 21.3 3.6 35.2 6.8V957.6c-72-3.6-126.1 1.1-138.8 2.3zm-96.5 38.7c-7.3 1.1-11 6.7-14.2 21.8-1.9 9.1-2.4 38-1 56.9.7 9.1.6 10.8-.6 10.8-2 0-2.6-5.8-3.3-31.5-.7-24.7.7-38 5-48.6 1.3-3.3 2.1-5.9 1.7-5.9-.4 0-2.5 1.6-4.8 3.5-4.9 4.2-6.8 8.7-7.8 18-.9 9.1-3 19-6.2 29.5-2.9 9.7-12.4 34.3-13 33.7-.2-.2.1-5.3.7-11.3 1.4-13.4.5-36.6-1.6-45.4-1.6-6.4-5.8-15-7.4-15-.4 0-.2 3 .5 6.8 3.3 16.5 2.7 40.6-1 45.8-2.3 3.2-3.7.8-1.8-3.3 3.1-6.9 1.6-39.1-2.4-52.6-.9-3 4.5-1.2 8.3 2.8 6.2 6.6 9.3 20.2 9.5 41.4l.1 11.7 2.5-7c4.1-11.5 7.3-25.2 8.5-35.4 1.8-16.4 6.4-23 19.4-27.8 7.1-2.6 13.6-3.1 13.6-.9-.2.8-1.8 1.5-4.7 2z"/><path class="st0" d="M49.8 1486.4c36.1-25.5 92.1-56.6 135.1-75l11.3-4.9-.5-3.5c-.3-1.9-3.2-8.8-6.4-15.3s-5.4-11.7-4.8-11.7c5.7.1 16 9.5 21.2 19.4 1.6 3.1 3.1 5.6 3.4 5.6 1.4 0 2.8-1.9 4.4-6.2 1-2.6 2.4-5.2 3.2-5.9 2.3-1.9 2.9 1.3 1 5-.9 1.8-1.5 3.4-1.2 3.6.2.2 2.6-.5 5.2-1.6s14-5.4 25.4-9.6c11.4-4.2 21.9-8 23.3-8.6 1.6-.6 2.9-2.1 3.3-3.6.4-1.4 2.1-6 3.8-10.2l3.2-7.6.7 6.3c1.1 9.5 1.5 10.5 4.6 9.7 1.5-.4 2.8-.8 3-1 .7-.7-2.9-12.6-4.9-16.7-1.2-2.3-3.5-5.5-5.1-7l-3-2.8h3.9c7.6 0 13.5 6 16.9 17.2l1.7 5.7 2.2-6.4c4.3-12.2 15-29.2 26.1-41.3 4.1-4.5 5.3-5.3 5.9-4 .4 1.1-.8 3.5-3.4 7-6 7.9-10.8 18.3-13.6 29.4-1.4 5.4-2.4 10.1-2.2 10.5.1.4 7.7-1.5 16.8-4.2 19.6-5.7 62.4-16.7 80-20.4 6.9-1.5 13.1-2.8 13.7-3 .8-.2-.6-2.8-3.7-6.9-28.5-37.7-36.8-88.3-20.6-126.6 13.7-32.4 47.2-57.3 88.8-66 49.5-10.2 119.7-.1 189.8 27.5 7.4 2.9 14.1 5.5 14.8 5.6.8.2 2.1-1.6 3.3-4.7 4.5-11.2 15.5-35.8 21.5-47.8 4.4-8.8 6-12.9 5.1-13.2-.7-.2-5.3-1.4-10.3-2.6-15.8-3.8-28.3-10.9-32.1-18.1-.8-1.5-1.4-5.2-1.4-8.2 0-10.5 5.9-16.3 40.9-40.1 11-7.5 20.5-13.6 21.1-13.6.6 0 1.1-.5 1.1-1.2s3.4-6.9 7.5-14c8.1-13.7 18.3-34.4 20.9-42.1 6.2-18.8 4.1-62.8-6-127l-2.6-16.7-5.6-1.1c-84.7-16.8-158-45.2-224.9-87.2l-14.3-8.9-13 5.1c-43.2 17-96.1 32.6-133.9 39.4-48.8 8.8-89 7.2-112-4.4-14.9-7.5-23.2-17-31.1-35.5-11.3-26.7-19.4-39.3-38.4-60.1-14.6-16-18.5-21.7-22.6-33.6-4.7-13.7-5.7-21.3-9.5-71-3.5-46.9-13.8-108.4-26.5-158.2-4.5-17.7-4.6-21.6-.9-36.3 5.4-21.3 21.5-39.5 45.5-51.5 31.9-16 82.7-23.2 144.7-20.7l24 1 5.4-4.1c17.4-13.1 38.3-19.8 63.7-20.4l12.9-.3 3.7-8c5.6-11.9 14.7-21.1 26.5-26.8 13.3-6.4 22-7.9 42.5-7.2 18.7.6 29.8 2.6 48.1 8.6l11.6 3.8 9.9-6c24.2-14.5 51.7-25.8 72.7-29.8 9.2-1.8 13.7-2.1 25.7-1.7 13.1.4 15.5.8 24 3.7 10.2 3.5 15.6 6.3 23.6 12.1 4.6 3.4 5.3 3.6 7.6 2.4 4.5-2.3 23.1-9.7 39.1-15.4l15.7-5.6 5.9-7c10.9-13 24.6-21.9 38.3-25 25.6-5.8 59.2 10.4 87.6 42.2 4.4 4.9 9 10.2 10.2 11.9l2.3 3.1 11.7-3.2c6.4-1.8 16.2-4 21.7-5 11.9-2.1 35-2.4 44.5-.6 20.8 3.9 40.2 14.6 50.3 27.6l4.2 5.4h11c11.5 0 16.7.8 27.5 4.3 15.5 5 34.9 17 48.5 30l8 7.7h-93.8c-51.6 0-93.8.2-93.8.5s2.4 4.2 5.4 8.8c3 4.6 7.5 12.4 10 17.5s4.8 9.2 5 9.2c.2 0 4.1.7 8.7 1.6 9.7 1.8 18.1 5.1 24.1 9.2l4.3 3 27 1.1c20.5.9 31 .9 43.5 0 21.9-1.6 102.7-1.6 125 0 89 6.2 160.8 19.5 230.5 42.6 57.1 18.9 109 43.5 146.1 69.1l9.1 6.3 14.9-1.1c70-5.1 195.3 25.7 321.4 79 9.1 3.8 19 7.5 22 8.2 9.8 2.1 29.6 2.3 59 .5 61.9-3.8 97-1.6 125.1 7.5 33.4 10.9 57.8 31.6 73.4 62 27.5 53.8 19.4 106.2-24.2 158-23.5 28-62.7 58.5-100.9 78.7-5.9 3.1-13.8 8.2-17.4 11.4-23.8 20.4-57 41.8-83 53.5-39.8 17.9-74.3 25.6-114.9 25.6-28.6 0-54.1-4-81.3-12.8-27.2-8.8-48.1-18.9-72.8-35.5-16.1-10.8-21-13.3-29-14.9-2.9-.6-18.6-1.4-34.8-1.9-23.9-.7-31.3-1.2-39.3-3-13.9-3-30.8-8.3-48.7-15.2l-15.5-6-5.2 5.6c-16.5 17.6-25.2 47.5-24.1 82.4.4 10.8 2.6 27.6 10.7 79.7 5.6 36.3 10.5 66.7 10.7 67.5.3.8 3-3.3 6.3-9.7 24.7-47.4 61.5-77.9 106.1-87.8 11.5-2.5 39.8-3.1 53.4-1.1 19.4 2.9 37.1 8.1 58.7 17.3l10.6 4.5 17.4-4.9c9.6-2.7 25.6-6.9 35.6-9.3 14.5-3.5 18.2-4.7 18.2-6 0-.9-1.6-4-3.5-6.9-5.5-8.2-2.8-8.4 5.1-.4l6.7 6.8 9.3-1.8c5.1-1 9.7-2.1 10.2-2.4.5-.3 1.7-4.2 2.6-8.6 2-8.9 6-18.6 8.5-20.9 2.4-2.2 7.6-3.3 6.8-1.5-2.3 5.6-6.6 20.3-7.2 24.3l-.7 4.9 3.4-.7c49.5-10.1 136.4-22 184.6-25.2 8.7-.6 10.2-.9 10.2-2.4 0-4.2-7.5-21.6-12.2-28.3-2.3-3.3-1.1-3.5 4.7-.9 6.9 3.2 12.1 9.2 17.7 20.4l3.4 6.8 1.8-5.8c2.8-8.9 4.4-11.7 6.1-10.2 1.2 1 1.2 1.6-.1 4-1.8 3.5-1.9 10-.2 12.3 1.1 1.6 2.7 1.6 17.8.7 24.9-1.5 28-1.4 28 .9 12.7-1.3 66.8-5.9 139-2.3V0H0v1532.5c15.7-15 31.1-25.6 37-29.5l-1.6-2.5c-2-3-3.7-1.3 14.4-14.1zm125.9-539.5c4.7-4.2 12.6-7.8 20-9.1l5.9-1.1 3.3-7.2c5.7-12.7 14.6-25.2 25.5-36.1 8.7-8.7 11.5-10.7 19.6-14.7 5.2-2.6 12.2-5.3 15.5-6.2 7-1.8 23.9-2.1 31.1-.5 18.4 4 38.7 14.4 57.5 29.6l6.6 5.3 1.8-6.7c4.3-16.2 11.8-30.3 21.2-40.3 9.6-10.2 19.3-15.5 32.9-17.9 19.4-3.5 48.7 5.6 76.7 23.6l6.8 4.4 9.2-3c40.5-13.3 70.1-6.4 81.9 19l3.3 7h8.2c25.4 0 46.8 11.7 59.9 32.6 4.4 7 6.1 8.3 11.1 8.3 4.5 0 15.3 4.4 19.3 7.7 5.6 4.8 7.3 8.6 7.3 15.8 0 6.8-3 15.2-8.3 23.4l-3.2 5.1H165.3l-.6-5.8c-1.4-11.8 3.6-26.6 11-33.2zm1237.5-708.2c14.3-7 38.3-15 65.1-21.7l20.8-5.2 15.7-16c57.7-58.9 111-84.2 149-70.7 3.1 1.1 12.7 2.9 21.2 4 19 2.4 46.9 7.2 61 10.4 5.8 1.3 10.5 2.3 10.6 2.2 0-.1 1.8-4.1 3.9-9 25.9-59.1 82.7-101.1 146.9-108.6 19.1-2.2 45.1-.7 63.8 3.8 21.4 5.1 46 16.3 63.8 28.9 10.8 7.6 27.6 23.4 36 33.7 18.5 22.6 31.5 49.9 37.8 79.4 2.5 11.5 2.7 14.5 2.7 35.7v23.1l4.7 3.2c13.6 9.4 16.9 22.2 10.8 41.6 0 0 4.4-.3 9.7-.8 18.3-1.6 39.9.8 49.9 5.4 8.6 4 14.2 12.2 13.2 19.2l-.3 2.2-56.2.5-56.2.5-6.3 9.2c-27.9 40.5-67.4 66.7-116.8 77.4-9.3 2-13.2 2.3-35 2.3-22.8 0-25.4-.2-37.1-2.7-35.9-7.7-65-23.1-90.8-48.2-10.3-10-19-20.4-27-32.3l-4.2-6.2-172.2-.3-172.2-.3-11-5.3c-6-2.9-13.4-7.1-16.3-9.3-5.6-4.2-10.7-11.1-11.7-15.9-2.1-9.5 8.1-21.1 26.7-30.2zM2257.8 1576.5c0 .2 0 .4.1.5-.1-.1-.1-.3-.1-.5zM2257.8 1578.5c.1-.4.1-.8 0-1.4.1.5.1 1 0 1.4z"/></svg>