<svg version="1.1" id="svg" xmlns="http://www.w3.org/2000/svg" x="0" y="0" viewBox="0 0 2550 3300" xml:space="preserve"><style>.st0{fill:#fff}</style><path class="st0" d="M693.4 2471.8l1.3-5.7-22.3-27.6-22.3-27.6v-445.6l19.2-5.3 19.3-5.3 16-19.4c8.8-10.7 16.6-20.3 17.4-21.4 1.2-1.7 1.2-1.9-.5-1.8-1 .1-26.4 4.3-56.4 9.5s-77 13.2-104.5 17.9c-27.5 4.7-71.1 12.1-97 16.5s-58.4 9.9-72.3 12.2c-28.9 4.8-26.3 3-23.8 16.4.8 4.3 4.6 26.5 8.5 49.4 3.8 22.8 8.3 49.4 10 59s5.3 30.8 8 47c7.8 46.3 12.7 74.9 18.7 110 3.1 17.9 8.2 48 11.4 67s8.8 52.1 12.5 73.5c15.3 89.7 31.9 187.5 40.5 238.5 5.1 30 9.5 54.9 9.9 55.3.7.7 11.6-1 74-11.8 14-2.4 38.8-6.7 55-9.5 16.2-2.8 30.5-5.3 31.8-5.6 1.9-.4 2.2-1.2 2.2-4.8 0-2.4 9.5-42.8 21-89.7 11.6-47 21.6-88 22.4-91.1zM629.1 2699.1c-6.1.4-31.1 5.5-31.1 6.4 0 2.3 5.9 34.7 6.3 35.2.5.4 31.9-4.4 32.2-5 .1-.1-1.3-8.4-2.9-18.4-2.4-14.8-3.3-18.3-4.5-18.2zM587.6 2996.5c-10.7-62.4-20.9-122.5-21.3-125.8-.5-3.4-.8-3.7-3.7-3.7-3.2.1-60.9 9.9-61.5 10.4-.3.3 3.2 21.3 16.6 100l5.8 34 39.3 69c21.6 37.9 39.4 69.1 39.6 69.3.2.2 2.2-2.9 4.5-6.8l4.2-7.1-1-6.2c-5.3-31.9-19.8-117.3-22.5-133.1zM646.5 2992c-5.6-32.5-20.6-120.8-21.7-128.2-1-6.4-1.2-6.7-3.7-6.6-4.2.2-44.9 7.3-45.5 8-.3.3.3 6 1.4 12.5 3.3 19.9 27.8 163.7 33.7 198.4 3.1 17.9 6.1 35.9 6.7 40l1.2 7.5 2.1-3c1.1-1.6 8.2-13.1 15.7-25.6l13.7-22.6v-29.9c-.1-29.7-.1-30.2-3.6-50.5zM999 2104.7c4.4-9 6.6-20 5.6-27.5-2.7-19.7-24-34.9-55.8-39.7-5.4-.8-12-1.5-14.7-1.5h-4.9l-.3 7.2c-.2 4-.5 27.4-.7 52l-.3 44.8h3.3c5.8 0 22.1-2.8 29.3-5 17.7-5.5 31.7-16.5 38.5-30.3zM909.4 2051.7l.8-26.8h-15.7c-13.1 0-15.6.2-15.1 1.4 2.9 7.4 2.8 242.7 0 250.2-.4 1.1 2.3 1.4 15.4 1.4h16l-.3-2.8c-1.9-16.3-2.6-170.4-1.1-223.4z"/><path class="st0" d="M1021.3 2065.4c2.8 8.8 2.9 23.7.4 33.6-2.5 9.9-9.1 22.1-16 29.7l-6.1 6.7 5-2.9c20.2-11.5 36.8-28.5 45.2-46.1 3.6-7.5 3.8-8.6 3.8-17.5 0-8.7-.3-10-3-14.9-6.8-12.3-22.4-20.7-45.6-24.5-5.2-.9-12.1-1.8-15.4-2.2l-6-.6 6.6 3.6c15.2 8.6 26.8 21.5 31.1 35.1zM330.4 1561.5c12.1-6.2 20.6-12.4 30.7-22.5 20.2-20.3 32-45.6 35-74.7s-5.3-57.6-25.5-87.9c-20.2-30.2-47.3-52.5-70.8-58-11.3-2.7-21.1-1.4-30 3.8-11.6 6.8-71.8 78.8-96.2 115.2-9.1 13.5-17.1 28.5-18.1 33.9-1.8 9.7 11.7 41.9 24 57.2 36.6 45.8 99.1 59.5 150.9 33zm-64.5-135c14.2-4.6 30.9 3.6 35.5 17.3 8.2 24-16.2 45.9-38.7 34.8-10.3-5-15.7-14.1-15.7-26.1 0-11.3 8.2-22.6 18.9-26z"/><path class="st0" d="M275 1462c8.5 0 12.1-9 6.1-15.1-2-2-3.9-2.9-6.1-2.9-4.5 0-9 4.7-9 9.5 0 5.1 3.6 8.5 9 8.5zM859 1477c27.5-7 60.3-27.5 79.8-49.9 23.1-26.5 30.7-52.4 21.1-72-2.6-5.2-6.4-9.8-17.8-21.5-8-8.2-17.2-17.1-20.4-19.9l-5.8-5 3.1 6c8.6 17 11.5 30.5 10.8 50.8-.4 11.2-1 15.7-3.1 22.8-6.5 21.7-20.7 41.7-38.1 53.7-7.4 5.1-22.4 11.8-31.5 14-9.8 2.4-25.6 3.3-35 1.9-8.5-1.2-22-5.4-29.5-9.2-36.5-18.4-58.1-57.3-54.4-97.9 2.2-23.5 11.3-43.2 27.8-60.2 12.2-12.5 24.9-20.1 42.6-25.2 10.7-3.1 28.7-4.3 37.9-2.6 3.3.6 6.1 1 6.2.8.6-.6-28.8-15.6-43.5-22.2-13.7-6.1-16.2-6.9-22.5-7.1-8.1-.3-10.1 0-16.9 2.7-27.6 10.9-52.4 52.1-60.2 100.4-2 12.5-1.4 37.1 1.3 48.5 15.4 66.6 82.6 107.8 148.1 91.1z"/><path class="st0" d="M825.2 1335.8c-7.1 2.5-11.8 6.6-15.6 13.2-2.7 4.8-3.1 6.4-3.1 13 0 12.2 5.9 21.6 16.4 26.3 5.8 2.6 16.8 2.7 22.4.3 8.9-3.9 15.7-13.3 17.1-23.5 1.4-10.4-5.8-23.2-15.7-28-6.4-3.1-15-3.6-21.5-1.3zm11 35.5c-5.2 1.3-11.3-3.6-11.1-9 .1-2.7 2.4-6.4 5.1-7.9 3-1.7 7.6-.9 10.6 1.8 4.8 4.6 2.1 13.5-4.6 15.1zM1320.3 2035.7l.8-10.8h-32.2l.5 3.2c2 12.9 3 119.7 1.7 189.2-.6 31.4-1.3 57.8-1.7 58.8-.6 1.6.5 1.8 15.5 1.8h16.1l-.8-13.2c-.9-17.2-.9-214.9.1-229zM440.1 3036c-3.3-19.5-7.8-46.1-10-59s-6.4-37.3-9.2-54.2c-4.2-24.9-5.5-30.7-6.8-30.7-.8.1-8.7 1.4-17.5 2.9-8.8 1.6-19.5 3.4-23.8 4.1-4.7.8-7.8 1.7-7.8 2.5 0 .7.7 4.8 1.5 9.1s5.1 29.2 9.5 55.4c19.9 118.1 18.8 112.1 21.4 114.7 6.3 6.4 59.2 56 59.5 55.8.2-.1-2.2-14.8-5.2-32.6-3.1-17.9-8.3-48.5-11.6-68zM509.6 2984.5c-7.4-43-14.4-84.1-16.2-95.2-1.3-8.2-2-10.2-3.2-10.1-2.9.2-64.5 10.9-64.9 11.3-.3.3 5.2 33.7 24.7 148.1 5.5 32.4 11.9 70.2 14.3 84l4.2 25 4.2 4.5c2.3 2.5 4.5 4.2 4.8 3.9.3-.3 9-30.9 19.2-68 15.1-54.7 18.5-68.2 18.1-71.9-.4-2.6-2.7-16.8-5.2-31.6zM995.8 2143.4c-.7-1.9-1.5-3.4-1.8-3.3-.3 0-3.9 2.1-8 4.5s-10.5 5.5-14.3 6.7c-3.7 1.2-6.6 2.5-6.5 3 .7 2.2 39.7 43.7 65.8 70.2 27.9 28.3 44.7 44.4 57 54.6 6.5 5.4 6 4.5-4.5-8.5-28-34.5-83-114.4-87.7-127.2zM1856.5 959.5c-17.1-1.4-37.7-7.2-55.5-15.6-22.9-10.9-48.6-31.4-61.7-49.4l-2.2-3-.6 3.5c-.3 1.9-.8 8-1.1 13.5-1.1 19.1-2.6 31.1-5 41.2-12.3 51.4-53.1 90.7-105.3 101.3-12 2.4-28.1 3.4-38.6 2.3l-7.9-.8-9.9-26.5c-5.4-14.6-10.3-27.6-10.9-28.9-1-2.3-1.4-1.8-5.6 7.5-2.5 5.5-4.9 10.3-5.4 10.8s-5.9-1.1-12.3-3.6l-11.5-4.5-11.4 4.4c-6.2 2.4-11.8 4.2-12.4 4-.6-.2-3-4.9-5.5-10.5-2.5-5.5-4.7-9.8-5-9.6-.3.3-5.3 13.2-11.1 28.7l-10.5 28.2-8 .8c-22.6 2.3-51.6-3.3-72.9-14-38.6-19.4-65.9-56.6-72.9-99.3-.9-5.2-2.1-17.8-2.7-28-.6-10.2-1.5-18.8-1.8-19.1-.3-.3-3.3 2.7-6.6 6.9-3.3 4.1-10.5 11.5-16 16.4-28.9 25.9-63.3 40.7-102.1 43.8-6.4.5-11.9 1.1-12.1 1.3-.2.2 2.7 1.7 6.4 3.2 10.8 4.5 17.6 9 24.6 16.5 7.3 7.8 10.4 13.3 19.1 34.7 3.2 7.8 6.2 14.2 6.7 14.2s5-1.8 10.1-3.9c26.9-11.5 54.6-8.5 78.2 8.5 7.4 5.3 12.1 10.2 22 23 8.9 11.5 14.8 22.5 17.8 33.4 1.7 6.2 2.1 10.4 2.1 22.2 0 8-.3 18.4-.7 23l-.7 8.5 8.3-8.7c12.8-13.4 22.9-19.9 38.3-24.8 9.5-3 26.3-3.8 36.2-1.7 27.5 5.9 45.9 22.8 67.9 62.7 5.3 9.6 10.7 19.4 12.1 21.8l2.5 4.3 11.9-21.7c20.5-37.3 35.4-54 56-62.6 18.4-7.7 38.3-7.8 58.1-.1 10.9 4.2 18.1 9.4 29.2 20.7l9.8 10.1-.8-11.5c-1.9-28.6-.6-40.2 6.5-55.5 6.4-13.7 23.7-35.3 34.4-42.9 15.3-10.8 28.3-15 46.6-15 14 0 20.5 1.4 33.3 7 4.3 1.9 8.2 3.4 8.6 3.4.5 0 4.1-7.9 8.1-17.6 4-9.7 8.9-20.1 10.9-23.2 6-9.3 14.8-16.5 27.3-22.6l11.1-5.4-5.4-.6c-2.6-.4-8.1-.9-12-1.2zM1952.2 680.2c14.2 7.4 22.9 15 27.1 23.8 1.4 3 4.8 12.2 7.3 20.5s4.8 15.1 4.9 15.3c.1.2 4.2-1.1 9.1-2.9 7.1-2.6 10.9-3.3 19.4-3.7 13-.6 19.3.6 30 5.8 10.4 5 20.1 14.5 28.4 27.8 7.4 11.8 10.3 19 11.8 29.1 1 7.1.9 10.1-1.4 27.3-1.4 10.6-2.4 19.4-2.3 19.6.2.2 5.2-4 11.1-9.3 7.1-6.3 13.2-10.8 17.8-13.1 22.2-10.9 47.8-7.4 65.4 9.1 9.3 8.7 17.8 22.5 28.3 45.9 5 11.1 9.2 20.3 9.4 20.5.2.2 6.1-8.4 13.1-19 10.4-15.8 14.7-21.3 23.3-30 8.1-8.1 12.1-11.3 17-13.7 17.4-8.3 35.9-8.3 52.8.2 8.7 4.4 15.6 10.6 25.4 22.9l7.8 9.8.1-6.8c0-3.7.4-13.3.9-21.3 1.3-22.9 5.8-32.9 22.9-50.6 13.7-14.3 25.3-20.1 42.1-21.1 13.4-.8 21.2.9 33.7 7.2l10.4 5.3 8.3-16.1c12.6-24.4 18-29.1 43-37.3 6.4-2.1 11.6-3.9 11.5-4.1-.1-.1-6.1-1-13.2-1.8-15.2-1.9-27.2-4.6-37.3-8.6-27.7-10.9-48.5-27.8-65-52.6-3-4.6-5.6-8.2-5.8-8-.1.1-1.7 9.4-3.4 20.6-3.6 22.8-4.7 27.9-9 39-6.1 15.9-19.6 33.6-34.1 44.8-21.1 16.3-47.9 23.9-74.9 21.4-5.8-.6-11.1-1.5-11.7-2.2s-4.2-12-7.9-25.2-7-24.6-7.4-25.3c-.5-.9-2.7 2-6.4 8.7l-5.7 10.1-8.4-4.2-8.4-4.2-8.8 2.6c-4.8 1.5-9.1 2.3-9.4 1.9-.3-.4-2.3-5.3-4.4-11-2.1-5.7-3.9-10.1-4.1-9.9-.2.2-5.5 11.3-11.8 24.8l-11.5 24.4-9.8-.3c-52.3-1.7-95.2-41.9-101.4-95.1-.7-6-1-18.3-.8-29.6.2-10.7.4-19.4.4-19.3 0 0-4.8 4.9-10.5 10.8-19.6 20.1-42 32.2-70.3 38.3-8.6 1.8-13.3 2.2-29.9 2.1-10.9 0-19.8.1-19.8.2-.1 0 5.4 3 12.1 6.5z"/><path class="st0" d="M2509.7 697.7c-5.4 4.7-9.4 9-8.9 9.4.6.6 45.4 6.8 48.9 6.8.1 0 .3 2.4.3 5.4V658l-7.1 7.7c-8.7 9.5-20.2 20.6-33.2 32z"/><path class="st0" d="M2546.8 726c-1.8.6-10.9 3.8-20.3 7s-18.9 6.7-21.1 7.9c-7.9 4-12.2 9.9-23.2 31.1l-10.3 20.1-7.2-4.1c-21.7-12.4-32-15-46.9-11.9-10.5 2.2-17.6 6.5-27.9 16.8-19.2 19.2-20.8 23.4-22 59.1-.5 14-1 28.8-1.1 32.8l-.3 7.3-15.7-19.9c-18-22.8-21.3-26.1-30.9-30.7-9.7-4.7-18.9-6.2-28.5-4.7-19.3 3-30.8 13.4-54.5 49.3-14.4 21.9-15.2 22.8-17.1 21.4-1.5-1.1-2.6-1.2-4-.4-1.1.6-2.1.9-2.2.7-.2-.2-5.1-11.1-11-24.3-14.9-33.4-23.7-46.3-36.6-53.8-14.5-8.4-35.9-7.9-50.2 1.2-2.6 1.7-12.3 9.8-21.5 18.2-9.2 8.4-17.7 16-18.8 17-2 1.8-1.9.9 1.8-25.9 5.9-42.3 5.3-49.1-5.4-66.3l-5.3-8.4-12.5-6.3c-6.9-3.5-17-8.8-22.5-11.9l-10-5.6-6 1c-3.3.6-11.3 2.9-17.8 5.3s-11.9 4.1-12.1 3.9c-.2-.2-3.2-9.4-6.6-20.4-3.5-11-7.2-21.6-8.4-23.6-4.5-7.6-16.4-16-40.8-28.9-12.8-6.7-25-13.3-27.3-14.7l-4.1-2.4 13.2.4 13.2.4-5.8-6.6c-8.2-9.3-20-24.6-28.9-37.4-6.8-9.8-8.1-11.2-13.1-13.5-5.1-2.4-6.7-2.6-17.6-2.6-11.9 0-12.1 0-19.6 3.7-15.8 7.8-23.6 20.2-36.6 57.8l-7.8 22.5-3 .1c-1.7 0-3.7.4-4.5.7-1.1.5-5.9-4.9-17.2-19.2-23.1-29.3-35.4-39.1-51-40.9-13.3-1.5-24.6 1.6-35.6 9.9-4.3 3.3-8 8-19.4 25.5-7.8 11.8-14.4 21.4-14.7 21.4-.4 0-1.9-11.4-3.5-25.2-3.4-30.1-4.6-36.8-8.2-43.9-3.9-7.7-6.7-11.1-16.4-19.6-13-11.4-22-15.3-35.6-15.3-11.8 0-19.6 2.9-33.9 13-4.7 3.3-9 6-9.5 6s-5.7-7.7-11.7-17.2c-11.7-18.7-15.6-23.3-22.5-26.6-3.9-1.9-32.1-9.3-60.1-15.7-4.3-1-7.4-2.1-7-2.5s14.3-3.5 30.8-6.9c32.9-6.8 40.5-9 52.8-15.2 11.9-6 19-11.1 29.6-21.3 15-14.5 23-28 33.7-56.5l2.8-7.5 9.1 36c7.2 28.6 9.9 37.8 13.2 44.5 13.6 28.1 41 47.4 72.6 51 9.2 1.1 16.7.7 26.3-1.1l5.1-1 6.3-33.2c3.4-18.3 6.4-33.3 6.5-33.4s4.7 6.3 10.1 14.2c5.4 8 10.1 14.5 10.3 14.5.3 0 2.5-1.2 4.9-2.6 4.2-2.5 4.5-2.5 5.8-.8 1.3 1.8 1.4 1.8 1.4 0 0-1.6.8-1.8 5.8-1.5l5.7.3 4.2-15.8c2.3-8.7 4.4-16.3 4.6-16.9.2-.6 7.6 11.5 16.5 26.8 8.9 15.4 16.8 28.7 17.5 29.7 1.2 1.7 1.7 1.7 8.9.2 12.2-2.5 18.4-5 18.2-7.2-.1-1-2.5-8.6-5.3-16.8-11.2-32.3-19-70.6-21.6-106.6-.4-5.2-.7-19.2-.6-31 .4-145.6 76.8-280 202.7-356.5 4.4-2.7 15.6-8.8 25-13.6l17-8.8h173.8L2409 0H0v1178.1c0-10.5.3-19.1.8-19.1.4 0 4.8-.7 9.8-1.5 9.1-1.5 69.7-10.5 88-13.1 5.5-.8 14.7-2.1 20.5-3 8.7-1.3 49.4-14.2 243-77.1 228.3-74.2 233.5-75.8 286.5-90 29.7-8 64.1-17.2 76.5-20.5 12.4-3.3 23.2-6.2 24.1-6.5 1.1-.3 9.1 6 23.3 18.1 11.9 10.2 22.2 18.4 22.9 18.1 1.2-.5 54-35.2 127.1-83.8 18.7-12.4 34.1-22.1 34.3-21.5s-7.6 32.8-17.1 71.6c-15 60.6-17.2 70.6-15.9 71.5 10.9 7.3 24.7 17.3 31.1 22.7l8 6.7 8.8-3.8c13-5.6 40.2-17.5 53.1-23.3 6.2-2.8 11.5-4.9 11.7-4.7.2.2 1.5 5.5 2.9 11.9 1.4 6.3 5.9 25.9 9.9 43.4l7.3 31.9 45.9 28.4c25.3 15.6 46.4 28.7 47.1 29.1s4.3 15.8 8.2 34.2c3.9 18.4 16.3 77.4 27.7 131 23.4 111 28.2 133 28.6 133.4.2.1 7.5 0 16.3-.4 15.5-.7 55.3-.4 66.5.5 3 .2 9.8.7 15 1 12.8.8 40.7 4 56 6.5 113.1 18.1 216.2 61.7 306.8 129.7 22.5 16.9 39.5 31.8 58.7 51.4 36.5 37.4 62.7 74.1 85.5 119.9 23 46.2 39.4 100.3 44.5 147 .3 3 1.1 8.9 1.7 13 .8 5.4 1.3 170.5 1.7 582.8l.6 575.3 49.3-41.1c27.1-22.6 49.5-41 49.7-40.8.2.2-1.2 11.8-3 25.8-4.1 31-5.6 41.9-9.4 71-1.6 12.4-4.6 34.6-6.5 49.4-2 14.8-3.4 27.1-3.1 27.3.2.2 21.1-13.3 46.3-30.1l45.8-30.6.6 3.8c.3 2.1.9 9.8 1.2 17.3 1.8 38.3 7.8 90 12.6 107.7 1.3 4.9 1.6 4.9 13.8-.8 19.6-9 57.3-33.8 99.9-65.6 8.3-6.2 15.4-11.3 15.8-11.3.3 0 1 1 1.5 2.2.8 2.1 6.3 14.4 41.7 93.2 7.9 17.6 14.4 32.3 14.4 32.8s-450.9.8-1002.1.8H2550V719.4c0 5.2-.1 5.5-3.2 6.6zm-635.1 240l-47.2 20.4-7 7.1-7 7.1-11.3 27.5c-6.2 15.1-11.5 27.7-11.7 27.9-.2.2-7.8-3.1-16.9-7.3-17.1-7.9-25.8-10.6-35.5-10.6-13.2 0-29.1 5.9-38.7 14.5-5.1 4.5-18.7 21.4-23.1 28.6-3 4.9-6 13.9-7.1 21.3-.7 4.4-.3 17.7 1.4 49.1 1.3 23.6 2.2 43.1 2.1 43.3-.1.2-11.4-11.7-25-26.3s-26.9-28.1-29.5-30c-18.1-13.3-41.6-15.1-61.3-4.7-14.5 7.6-25.6 22-46.7 60.5-8.4 15.3-15.7 27.8-16.2 27.8s-2.5-.9-4.3-2l-3.3-2-3.3 2c-1.8 1.1-3.8 2-4.4 2-.6 0-8-12.6-16.4-27.9-21.2-38.5-32.1-52.7-46.6-60.3-15.4-8.1-31.2-9-47.7-2.8-10.7 4-16.4 8.9-42.6 37-13.9 14.9-25.4 27-25.6 26.8-.1-.2.8-18.8 2.1-41.3 1.3-22.6 2.1-44.1 1.8-47.9-1.2-13.8-5.2-22.6-17.7-38.8-12.5-16.1-24-24.2-39.2-27.4-15.7-3.3-25.4-1.4-48 9.1-9.1 4.2-16.7 7.5-16.9 7.3-.2-.2-5.2-12.1-11-26.4-5.9-14.3-12.3-28.4-14.3-31.3-2-2.9-6-7-8.9-9.1-3.2-2.3-23.2-11.5-51.3-23.6-25.3-10.9-45.9-20-45.7-20.2.2-.2 22.8-1.2 50.2-2.3 32-1.2 53.1-2.5 58.8-3.5 27.4-4.7 52-16.1 73.7-34.1 15.4-12.8 24.1-24.1 41.3-53.1 6.6-11.1 12.1-20.1 12.3-19.9.2.2 1.9 21.7 3.8 47.7 4 55.9 4.6 60.2 9.1 73.9 15.6 47.1 56.2 77.8 106.4 80.7l10.5.6 16.8-45.2c9.3-24.9 16.9-45.1 17.1-44.9.1.2 4.8 10.4 10.5 22.8 5.6 12.4 10.6 22.9 11 23.3.4.4 3.1-.1 5.9-1.2l5.1-2 1.2 3.9c.6 2.1 1.5 3.9 1.8 3.9.4 0 1.2-1.6 1.9-3.5 1.4-3.9 2.3-4.2 7.6-2 2 .8 4 1.3 4.4 1.1.4-.3 5.4-10.6 11.1-23 5.7-12.4 10.6-22.3 11-22.1.4.2 8.1 20.2 17.1 44.5l16.4 44.1h5.5c14.5 0 32.5-3.8 47.5-10.1 15.8-6.6 35.5-22.1 46.6-36.9 6.1-8.1 14-23.2 17.3-33.1 4.2-12.6 5.5-22.7 9.2-73.4 2-26.9 3.7-49.1 3.9-49.3.2-.2 6 9.3 13 21 15.1 25.3 20.2 32.3 32.2 44.3 16.3 16.2 37.9 29.4 59.5 36.4 19.6 6.3 24.8 6.9 81.7 9.1 27.2 1 49.6 2.1 49.8 2.3-.1 0-21.2 9.4-47.2 20.6z"/><path class="st0" d="M2530 204.5c-53.1-86.4-137.2-144.2-235-161.5-22.3-3.9-36-4.9-65-4.6-34.7.4-55.7 3.3-87.7 12.1-27 7.4-64 23.8-88.6 39.1-74.9 46.8-129.4 121.3-151.2 206.3-3.6 14.2-7.8 37.4-8.9 50-.4 4.1-.8 8.9-1 10.5-.5 4-.5 47.5-.1 50 .2 1.1.7 5.6 1.1 10 .8 9 5.3 37.6 6.1 38.4 1.2 1.2.2-16.7-2.5-44.6-1.7-16.8-2.8-30.8-2.6-31 .2-.2 5.2 5.1 11 11.9 14.9 17.3 25 25.5 41.1 33.5 25 12.5 45.9 14.8 85.7 9.4 11.4-1.5 21.1-3.1 21.4-3.5.4-.4-.6-2.4-2.2-4.4-2.3-3-6.6-5.6-21.2-12.7-10-4.9-18.2-9.2-18.3-9.5s7.5-.4 16.7-.2c19.7.4 30.7-.9 41.4-4.8 15.5-5.7 28-15.9 38-31.2l5.4-8.2 1.1 23.9c1.2 26.5 2.3 31.5 9 42.6 9.3 15.3 30.6 27.7 46 26.7l4.6-.3 7.6-18.2c4.2-10 7.9-18.2 8.2-18.2.3 0 2.3 4.2 4.3 9.4 3.6 9 3.8 9.4 6.1 8.5 2.5-.9 7.3-.7 11.2.5 2 .6 2.7-.3 6.9-8.7l4.7-9.4 6.5 19.8 6.5 19.7h7.1c23.6 0 46.1-16.1 53.5-38.4 1.6-4.9 6.9-41 7-48.6 0-.8 2.3 2.5 5.1 7.4 9.2 16.3 20.2 27.2 34.2 34 10.6 5 17.9 6.6 40.2 8.4l20 1.7-18 6.9c-9.9 3.8-19.7 8-21.9 9.5-3.2 2.1-5 4.8-10.3 15.8l-6.4 13.2-8.7-4.2c-7.7-3.7-9.5-4.2-15.7-4.2-9.8.1-15.8 2.9-23.6 11.3-3.4 3.6-7.3 9.1-8.7 12.1-2.6 5.5-2.6 5.9-2.4 25.3.1 10.9 0 19.8-.2 19.8s-4-4.4-8.6-9.8c-4.5-5.4-9.8-11.2-11.8-13-7.2-6.4-19.6-9-28.4-5.8-9.2 3.3-15.8 10.5-27.7 30.2-9.8 16.3-9.5 16.3-19.4-3.1-13-25.6-20-32-35.2-32-10.8 0-14.4 1.9-28.3 15.1-8.1 7.7-11.2 10.1-11.2 8.6 0-1.1.7-8.9 1.6-17.3.9-8.5 1.3-17.3 1-19.7-1.2-9.5-11.8-24.2-20.9-28.9-4.3-2.3-6.4-2.7-13.1-2.7-6.8 0-9.1.5-15.3 3.1-8.2 3.6-7.7 3.9-10.7-5.4-.9-2.9-2.2-5.2-2.8-5.2-2.6 0-40.1 25.6-44.2 30.2-5.3 5.9-7 10.7-12.1 34.3-2 9.4-3.8 17.1-3.9 17.3-.1.2-6.5-1.3-14.1-3.3-11.9-3.1-14.9-3.5-21-3.1-12.1 1-24.5 6.7-32.2 14.9l-2.3 2.5 3.7 7.4c13.8 27.5 36.4 58.5 60.3 82.8 11.8 11.9 28.9 27.1 30.7 27.1.6 0 5.8-3.1 11.5-6.9 13.6-9 25.3-20.8 37-37.3l9.4-13.3.5 42c.5 36.9.7 42.8 2.4 48.8 1.8 6.7 1.9 6.8 7.5 9.6 7.4 3.7 31.5 13.2 41.8 16.4 17.4 5.4 50.5 12.6 58.3 12.6 2.4 0 3.2-1.3 9.5-14.5 3.8-8 7.1-14.2 7.4-13.9.3.3 3.1 7.4 6.1 15.8l5.5 15.2 14.6.3 14.6.3 7.9-14.1 7.9-14.1 2.2 7.4c1.2 4.1 2.9 10 3.9 13.2l1.7 5.9 6.1-.6c22.3-2.3 54-9.9 77-18.6 23.3-8.8 39.3-16.5 39.9-19.3.3-1.2 2.7-16.2 5.3-33.4 2.6-17.2 5-31.2 5.3-31.2.3 0 3.6 6.2 7.4 13.7 3.8 7.6 8.8 16.7 11.2 20.2 7.9 11.7 6 11.3 17.1 3 29.6-22.2 57.8-51.5 78.2-81.5 10.3-15.1 14.7-22.5 23.2-39.4l7.8-15.4V242.3l-7.8-15.4c-4.1-8.5-9.6-18.6-12-22.4zM2409 0l12.2 6.1c45.2 22.6 88.3 54.9 121.6 91.1l7.1 7.7V0H2409z"/><path class="st0" d="M2057.6 426.7l1.9 3.5 6.5-.6 6.5-.6-5.2 3.6c-2.9 2-5.2 3.9-5.2 4.4 0 1.2 3.1 10.2 3.6 10.2.2 0 3.9-1.2 8.2-2.6 9.6-3.2 17.2-2.9 25.9 1 6.6 3 9.9 5.9 15.3 13.1 8.9 12 10.7 18.7 9 34.5-.6 6.1-.9 11.3-.6 11.7s3.9-2.6 8.1-6.5c6.5-6.2 8.4-7.4 14.6-9.3 9.4-2.9 16.8-2.3 25.6 2.1 8.5 4.2 14.3 11.5 23.2 29l6.8 13.5 7.9-12.8c12.8-20.8 22-28.4 35.9-29.5 11.9-1 22.2 3.9 31.1 14.7 2.7 3.3 5.4 6.1 5.9 6.1s.6-3.8.2-8.5c-1.4-16.5 2-26.5 12.9-38.2 12.4-13.3 28.4-16.5 43.8-8.7 2.6 1.3 5 2.4 5.2 2.4.2 0 2.7-4.6 5.4-10.3 6.1-12.8 10.4-16.9 22.1-21.2 4.5-1.6 8.1-3.3 8.1-3.8 0-.4-2-.8-4.6-.8-13.6 0-31-5.3-42.7-12.9-7.6-5-20.5-17.8-23.2-23.1-.9-1.7-1.8-3-2-2.8-.2.2-1.1 6.6-2 14.3-2.7 22.6-6.8 32-19.6 44.6-8.8 8.7-18.3 14-29.7 16.4-7.2 1.5-21 2-23 .7-.6-.4-3.2-7.2-5.8-15.2-2.6-7.9-4.8-14.6-5-14.8-.2-.2-1.8 2.3-3.6 5.6l-3.2 6-4.9-2.1c-4.9-2.1-7.1-1.9-14.3.9-.8.3-2.1-1.7-3.5-5.6-1.2-3.3-2.6-6.1-2.9-6.1-.4 0-3.4 6.4-6.7 14.2l-6.1 14.2-8.4-.1c-15.6-.2-28.7-6-40.9-18.3-12.6-12.7-17.9-26.7-18.1-47.8-.1-16.1-.2-16.2-7.4-8.5-15.5 16.6-32.4 24.3-57.1 25.8l-11.6.7 8.2 4.3c8.9 4.8 12.7 7.9 15.4 13.2zM1821 550.8c-4.1.5-7.8.8-8.1.6-.3-.2-6.2-10-13-21.9-6.8-11.8-12.7-21.5-13-21.6-.3 0-1.6 4.1-2.9 9.2-1.3 5.1-2.7 9.7-3.1 10.1-.5.5-4.3.2-9.3-.8l-8.5-1.7-7.7 4.7c-4.5 2.7-8 4.3-8.3 3.7-6.2-9.6-11.5-17.3-11.7-17.1-.1.2-2.4 11.6-5 25.4l-4.7 25.1-8.1 1.9c-11.7 2.7-35.1 2.5-45.8-.4-32.6-8.9-57.4-30.5-69.5-60.5-1.4-3.4-4.8-15.3-7.6-26.4l-5.1-20.2-3 5.7c-8.8 16.8-23.3 34.1-38 45-14.9 11-35.2 19.6-56.2 23.8-5.1 1-9.1 2-8.9 2.2.2.2 6.3 1.9 13.6 3.8 21.1 5.5 25.7 9 39 30 5 7.9 9.3 14.4 9.5 14.4.2 0 3.8-2.2 8-4.9 13.3-8.7 26.5-12 40.1-10.1 12.2 1.7 20.4 5.4 30.6 13.8 14.2 11.5 23.5 24.1 26.7 35.8.6 2.2 2 11.3 3.1 20.4 1.1 9 2.1 16.5 2.3 16.7.2.2 3.5-4.4 7.3-10.3 13.7-20.8 28.7-29.8 50-29.8 22.6 0 37.6 10.1 63 42.4 6.5 8.3 12.1 15.1 12.5 15.1.3 0 3.6-8.8 7.4-19.6 13.5-39.2 24.6-53.3 47.7-61 3.8-1.3 8.5-1.8 15-1.8 15.4 0 25 3.7 40.4 15.5 4.9 3.8 9 6.7 9.2 6.6.1-.1-1.3-7-3.2-15.2-4.5-19.4-5.1-26.9-3-36.4 3-14 13.9-33.5 23.7-42.3 14.7-13.3 33-17.5 54.1-12.6 4.9 1.2 9.1 1.9 9.2 1.8.2-.2 1.9-7.5 3.9-16.3 5.5-24.4 8.9-29.6 27.1-41.8l12-8-5.5.6c-3 .3-9.8 1.1-15 1.7-28.7 3.3-62.1-5.5-86.5-22.9-3.9-2.7-9.9-7.6-13.3-10.8l-6.3-5.8.6 4.4c3.8 28.4 4.1 46.7 1.1 60.7-9.2 42.1-44.2 74-86.8 79.1zM1602.4 2040.5c.2-1.7.5-6.1.6-9.9.3-8.1 2.4-7.2-17.9-6.8-13.2.3-13.3.3-12.8 2.5 2.8 11.5 2.8 240.6 0 250-.5 1.6.7 1.8 15.6 1.8h16.1l-.7-2.2c-1.7-5.7-2.6-222.4-.9-235.4z"/><path class="st0" d="M1845.7 1929c-8.2-67.5-27.3-124.6-60.1-179.5-33.5-56.1-76.3-101.7-134.7-143.5-98.6-70.7-209.4-111.4-335-123-17-1.6-64.9-2.6-85-1.7-69.2 2.8-133.7 15.2-200 38.3-46.4 16.2-98 41.7-139.9 69.2-12.1 7.9-14.2 9.6-13 10.8.8.7 37.2 31.6 80.9 68.5 43.7 37 79.9 67.7 80.5 68.2.9.9-13.6.6-36-.7-3.9-.2-13.3-.7-21-1-7.7-.3-17.6-.8-22-1-4.4-.2-13.2-.7-19.5-1-6.3-.3-16.3-.8-22.3-1.1l-10.8-.6v3c0 3.4-1.7 35.2-2.5 45.2-.3 3.6-.7 13.5-1.1 22-.3 8.5-.8 16.4-1 17.5-.2 1.1-.5 6-.6 10.8-.1 6.2-.6 9-1.5 9.3-.7.3-5.5 0-10.6-.6s-11.1-1.3-13.3-1.6c-26.3-3.1-110.9-12.4-111-12.2-.1.1 3.8 9.7 8.7 21.3s8.8 21.7 8.5 22.6c-.2.9-19.3 24.5-42.4 52.5l-42 51-11.9 3.3c-6.5 1.8-13.3 3.7-15.1 4.3l-3.2 1v423.6l23 28.5c12.6 15.7 23 29.1 23 29.9 0 1.3-4 18-25 103.2-4.5 18.1-11 44.8-14.6 59.3L669 2651v632l322.1-.3 322.1-.3 18.2-31.5c10-17.3 27.2-47 38.1-66 10.9-19 26.4-45.8 34.3-59.5 7.9-13.8 16.7-29 19.5-33.9 4.5-8 5.2-8.6 5.8-6.5.4 1.3 4.7 26.1 9.5 55.2s9.1 52.7 9.4 52.7 27.8-23.2 61-51.6l60.4-51.6.3 73.7c.2 65.6.4 73.6 1.8 73.1.8-.3 9.7-5.8 19.7-12.3 104.3-66.9 135-86.4 135.4-86 .7.7 2.6 9.6 27.1 130.6l2.7 13.5 45.7.3 45.7.3-.3-669.8c0-631-.1-670.4-1.8-684.1zm-707.3 375c-.5 0-9.2 1.3-19.4 2.9-16 2.5-18.9 2.7-21.7 1.6-5-2-14.6-8.9-26.2-18.7-13.8-11.7-81.1-79.3-101.6-102.1l-16-17.8-12.5.6c-6.9.3-12.6.8-12.8 1-1.2 1.2.4 94.3 1.7 95.7.3.4 9.6 1.6 20.6 2.8 11 1.1 20 2.2 20.2 2.3.6.6 5.6 25.9 5.2 26.3-.2.2-14.8-.1-32.4-.7-31.1-1.1-103.8-.5-122.2 1-8 .6-8.3.6-7.8-1.3.3-1.1 1.5-7.3 2.8-13.7l2.3-11.7 4-.5c2.2-.3 11.5-1.2 20.6-2.1 9.1-.9 16.9-2.1 17.5-2.6 1-1 1.5-229.2.5-230.2-.3-.3-9.7-1.3-21-2.2-11.3-1-21-2.2-21.6-2.8-.9-.9-4.4-20.2-4.4-24.3 0-1 9.6-1.3 42.8-1.6 74.1-.6 116.4.3 136.3 2.9 23.9 3.1 36.4 6.5 48.9 12.9 20.3 10.5 31 26.6 31.3 47 .1 10.1-2.1 18.5-7.4 28.9-8.3 16-24 33.5-39.8 44.2l-6.8 4.6 3.6 5.6c35.8 56.6 77 111.4 106.1 141.4 5.4 5.8 9.7 10.6 9.2 10.6zm201.9-37.7c.9 1.1 5.6 2 16.7 3.1 8.5.9 17.5 1.9 20.1 2.2l4.6.6 3.3 13.5c1.8 7.4 3.1 13.6 2.9 13.8-.2.2-4-.1-8.4-.5-16.4-1.5-91.9-2.2-123.9-1-17.5.6-32 1-32.1.9-.1-.1.9-6.2 2.4-13.5l2.6-13.2 3-.4c1.7-.2 10.3-1.1 19.1-2 21.6-2.2 20.2-1.6 20.7-8.4.6-7.6.6-212.1 0-219.3-.5-6.7 1.3-5.9-19.3-8.3-3-.3-6.6-.8-8-1-1.4-.2-5.2-.6-8.5-1s-6.1-.7-6.2-.8c-.1-.1-1.8-6.4-3.7-14l-3.5-13.8 3.2.7c14.8 3 138.2 3.1 158.4.1 2.8-.4 4.2-.3 4.2.4 0 .9-6.1 26.1-6.4 26.7-.1.1-9.3 1.3-20.5 2.7-11.2 1.4-20.8 3-21.3 3.5s-1 36.5-1.1 83.3c-.2 111.4.2 143.8 1.7 145.7zm408.3-154.9c-5.3 11.2-11 18.8-21.8 29.1-21.7 20.8-56.2 36.2-93.8 41.8-5.2.8-9.7 1.2-9.9 1-.4-.4 2.7-27.6 3.2-27.9.1-.1 4.5-1.4 9.7-2.8 36-10.1 54.9-33.8 53.5-67.1-1.2-28.8-19.9-45.6-54.5-49-12.9-1.3-13-1.3-13.1 1-.1 1.1-.2 3.6-.4 5.6-.6 7.4-.5 198 .1 210.6l.7 13.3 4.6.6c5.8.7 15.7 1.7 30.6 3.1 3.3.3 8.1.8 10.6 1.1l4.6.5 3.1 12.4c1.7 6.8 3.1 12.9 3.1 13.6 0 .9-2.7 1-10.2.5-16.1-1.1-121.2-1.4-142.6-.4-10.7.5-19.5.8-19.6.6-.2-.2.9-6.2 2.3-13.4l2.6-13.1 9.6-1.2c5.3-.6 14.7-1.8 20.9-2.5 6.2-.7 11.5-1.5 11.6-1.7 1-1.1 1.6-40.6 1.6-118.9 0-84.1-.4-110.6-1.9-112.2-.5-.6-25.9-3.3-38.4-4.1-2.9-.2-3.9-.7-4.2-2.2-.9-4.3-3.5-21.7-3.5-23.1 0-1.2 5.7-1.5 36.2-1.8 37.2-.4 98.5.1 104.8.8 1.9.2 7.8.7 13 1.1 13.1.9 30.8 3.9 41.3 7 28.3 8.2 46.9 24.3 53.3 46 3.9 13.5 1 34.8-7.1 51.7z"/><path class="st0" d="M956.9 1713.2c.9 1 26.1 2.5 26.7 1.6.2-.4-6.5-6.6-15-13.8-8.5-7.2-15.7-13.1-16.1-13.1-.4 0-.4.6-.1 1.4.3.8 1.3 6.3 2.2 12.2.8 6.1 1.9 11.3 2.3 11.7zM1720.9 2043c-9.6-6.8-21.1-11.3-34.9-13.8-3-.6-7.1-1.3-9-1.6l-3.5-.6 4.7 3c6.8 4.3 13.3 10.6 18.4 17.7 8.9 12.5 13 28 11.9 44.9-1.2 19.6-6.8 34.4-18.7 49.8l-2.2 2.9 3.4-1.8c12.1-6.2 28.1-20.5 35.5-31.6 10.9-16.4 14.8-38.7 9-51.4-3.3-7.4-7.6-12.6-14.6-17.5z"/><path d="M703.3 1421.6c6.7 13.2 15.7 25.5 27.1 36.9 20.1 20 43.3 32.5 71.9 38.6 14.7 3.2 39.8 3.1 54.7-.1 51.5-11.2 103.1-52.1 120.5-95.6 6.5-16.4 7.2-35.8 1.8-49.7-4.5-11.4-10-18.3-31.4-39.3-10.6-10.4-18.7-18.7-17.9-18.4.8.3 16.1 7 34 14.8 17.9 7.8 32.9 14.3 33.3 14.4 1.3.3 8.1-16.3 7.1-17.3-.5-.5-39.1-17.5-85.9-37.8s-90-39.3-96-42.2c-6.1-2.9-13.5-6.1-16.5-7.2-3-1.1-15.7-6.5-28.3-11.9-12.5-5.4-23-9.9-23.3-9.9-.3 0-.9 1-1.4 2.2-.5 1.2-2.1 4.9-3.5 8-2.8 6.2-3.1 7.7-1.7 7.7.5 0 3.4 1.2 6.6 2.6l5.7 2.6-4.8 2.5c-29.5 15.6-55.1 58.5-64 107.3-2.2 12.1-2.5 44.1-.4 54.5 2 10.2 8.3 29.1 12.4 37.3zm159.1-56.5c-1.4 10.3-8.2 19.6-17.1 23.5-5.6 2.5-16.6 2.3-22.4-.3-10.5-4.7-16.4-14.2-16.4-26.3 0-6.6.4-8.2 3.1-13 3.8-6.6 8.5-10.7 15.6-13.2 6.5-2.3 15.1-1.8 21.5 1.3 9.9 4.8 17.1 17.6 15.7 28zm-152.9-27.6c7.8-48.2 32.5-89.5 60.2-100.4 6.8-2.7 8.8-3 16.9-2.7 6.3.2 8.8 1 22.5 7.1 14.7 6.5 44.2 21.5 43.5 22.2-.2.2-3-.2-6.2-.8-9.2-1.7-27.2-.5-37.9 2.6-17.7 5.1-30.4 12.6-42.6 25.2-16.5 17-25.6 36.7-27.8 60.2-3.8 40.6 17.9 79.6 54.4 97.9 7.5 3.8 21 8 29.5 9.2 9.4 1.3 25.2.5 35-1.9 9.1-2.2 24.1-8.9 31.5-14 17.4-12 31.6-32 38.1-53.7 2.1-7 2.7-11.6 3.1-22.8.7-20.3-2.2-33.8-10.8-50.8l-3.1-6 5.8 5c3.2 2.8 12.4 11.7 20.4 19.9 11.5 11.7 15.3 16.3 17.8 21.5 9.6 19.5 2 45.4-21.1 72-19.5 22.4-52.2 42.8-79.8 49.9-65.5 16.8-132.7-24.5-148.2-91-2.5-11.5-3.2-36.1-1.2-48.6zM2421.3 6.1L2409 0h-347.6l-17 8.8c-9.4 4.8-20.6 11-25 13.6-125.8 76.6-202.2 211-202.6 356.6 0 11.8.2 25.8.6 31 2.6 36 10.4 74.3 21.6 106.6 2.8 8.2 5.2 15.7 5.3 16.8.2 2.2-6 4.6-18.2 7.2-7.1 1.5-7.6 1.5-8.9-.2-.7-1-8.6-14.4-17.5-29.7-8.9-15.4-16.3-27.4-16.5-26.8-.2.6-2.3 8.2-4.6 16.9l-4.2 15.8-5.7-.3c-5-.3-5.7-.1-5.8 1.5 0 1.7-.1 1.7-1.4 0-1.3-1.8-1.6-1.7-5.8.8-2.4 1.4-4.6 2.6-4.9 2.6-.3 0-4.9-6.5-10.3-14.5s-9.9-14.4-10.1-14.2-3.1 15.2-6.5 33.4l-6.3 33.2-5.1 1c-9.7 1.9-17.1 2.2-26.3 1.1-31.6-3.6-59-22.9-72.6-51-3.3-6.7-6-15.9-13.2-44.5l-9.1-36-2.8 7.5c-10.7 28.5-18.7 42-33.7 56.5-10.6 10.2-17.7 15.3-29.6 21.3-12.3 6.2-19.9 8.4-52.8 15.2-16.5 3.4-30.3 6.5-30.8 6.9s2.7 1.5 7 2.5c28 6.5 56.2 13.9 60.1 15.7 6.9 3.4 10.9 8 22.5 26.6 5.9 9.5 11.2 17.2 11.7 17.2s4.7-2.7 9.5-6c14.4-10.1 22.1-13 33.9-13 13.6 0 22.7 3.9 35.6 15.3 9.6 8.5 12.5 11.8 16.4 19.6 3.6 7.1 4.8 13.7 8.2 43.9 1.5 13.9 3.1 25.2 3.5 25.2.4 0 7-9.6 14.7-21.4 11.5-17.4 15.1-22.2 19.4-25.5 11-8.3 22.3-11.4 35.6-9.9 15.6 1.8 27.8 11.6 51 40.9 11.3 14.3 16.1 19.7 17.2 19.2.8-.3 2.8-.7 4.5-.7l3-.1 7.8-22.5c12.9-37.6 20.8-50 36.6-57.8 7.5-3.7 7.7-3.7 19.6-3.7 10.9 0 12.6.2 17.6 2.6 5 2.4 6.3 3.7 13.1 13.5 8.8 12.8 20.7 28.1 28.9 37.4l5.8 6.6-13.2-.4-13.2-.4 4.1 2.4c2.2 1.3 14.5 7.9 27.3 14.7 24.4 12.9 36.3 21.3 40.8 28.9 1.2 2 5 12.6 8.4 23.6 3.5 11 6.4 20.2 6.6 20.4.2.2 5.6-1.5 12.1-3.9s14.5-4.7 17.8-5.3l6-1 10 5.6c5.5 3.1 15.6 8.4 22.5 11.9l12.5 6.3 5.3 8.4c10.7 17.2 11.3 24 5.4 66.3-3.7 26.8-3.8 27.7-1.8 25.9 1.1-1 9.6-8.7 18.8-17 9.2-8.4 18.9-16.6 21.5-18.2 14.3-9.1 35.7-9.6 50.2-1.2 12.8 7.4 21.6 20.4 36.6 53.8 5.9 13.2 10.8 24.1 11 24.3.2.2 1.2-.1 2.2-.7 1.4-.8 2.5-.7 4 .4 2 1.4 2.7.5 17.1-21.4 23.6-35.9 35.1-46.3 54.5-49.3 9.6-1.5 18.8 0 28.5 4.7 9.6 4.6 13 7.9 30.9 30.7l15.7 19.9.3-7.3c.1-4 .7-18.8 1.1-32.8 1.2-35.7 2.8-39.9 22-59.1 10.3-10.3 17.4-14.6 27.9-16.8 14.9-3.1 25.2-.5 46.9 11.9l7.2 4.1 10.3-20.1c10.9-21.2 15.3-27.1 23.2-31.1 2.2-1.1 11.7-4.7 21.1-7.9 9.4-3.2 18.5-6.3 20.3-7 3.1-1.1 3.2-1.4 3.2-6.6 0-3-.1-5.4-.3-5.4-3.6 0-48.4-6.2-48.9-6.8-.5-.5 3.6-4.7 8.9-9.4 13-11.4 24.5-22.5 33.2-31.9l7.1-7.7V520.8l-7.8 15.4c-8.6 16.9-12.9 24.3-23.2 39.4-20.4 30-48.6 59.3-78.2 81.5-11.2 8.3-9.3 8.7-17.1-3-2.4-3.6-7.5-12.7-11.2-20.2-3.8-7.6-7.1-13.7-7.4-13.7-.3 0-2.7 14.1-5.3 31.2-2.6 17.2-5 32.2-5.3 33.4-.7 2.8-16.7 10.5-39.9 19.3-23 8.7-54.8 16.4-77 18.6l-6.1.6-1.7-5.9c-.9-3.2-2.6-9.2-3.9-13.2l-2.2-7.4-7.9 14.1-7.9 14.1-14.6-.3-14.6-.3-5.5-15.2c-3-8.3-5.8-15.4-6.1-15.8-.3-.3-3.7 5.9-7.4 13.9-6.2 13.2-7.1 14.5-9.5 14.5-7.7 0-40.9-7.2-58.3-12.6-10.3-3.2-34.4-12.7-41.8-16.4-5.5-2.8-5.6-2.9-7.5-9.6-1.6-6-1.9-11.9-2.4-48.8l-.5-42-9.4 13.3c-11.7 16.5-23.4 28.3-37 37.3-5.7 3.8-10.9 6.9-11.5 6.9-1.8 0-18.9-15.1-30.7-27.1-23.9-24.3-46.5-55.3-60.3-82.8l-3.7-7.4 2.3-2.5c7.7-8.2 20.1-13.9 32.2-14.9 6.1-.5 9.1-.1 21 3.1 7.6 2 14 3.5 14.1 3.3.1-.2 1.9-7.9 3.9-17.3 5.1-23.6 6.9-28.5 12.1-34.3 4.1-4.6 41.6-30.2 44.2-30.2.6 0 1.8 2.4 2.8 5.2 3 9.3 2.4 9 10.7 5.4 6.1-2.6 8.5-3.1 15.3-3.1 6.7 0 8.8.4 13.1 2.7 9.1 4.8 19.7 19.4 20.9 28.9.3 2.4-.1 11.3-1 19.7-.9 8.5-1.6 16.3-1.6 17.3 0 1.4 3.1-1 11.2-8.6 13.9-13.1 17.5-15.1 28.3-15.1 15.2 0 22.2 6.4 35.2 32 9.8 19.4 9.6 19.4 19.4 3.1 11.9-19.7 18.5-26.9 27.7-30.2 8.8-3.1 21.2-.6 28.4 5.8 2 1.8 7.3 7.6 11.8 13 4.5 5.4 8.4 9.8 8.6 9.8.2 0 .3-8.9.2-19.8-.2-19.4-.1-19.9 2.4-25.3 1.4-3.1 5.4-8.5 8.7-12.1 7.8-8.4 13.8-11.2 23.6-11.3 6.2 0 8 .4 15.7 4.2l8.7 4.2 6.4-13.2c5.3-11 7.1-13.7 10.3-15.8 2.1-1.4 12-5.7 21.9-9.5l18-6.9-20-1.7c-22.3-1.9-29.6-3.4-40.2-8.4-14.1-6.7-25.1-17.6-34.2-34-2.8-4.9-5-8.3-5.1-7.4-.2 7.6-5.4 43.7-7 48.6-7.4 22.2-29.9 38.4-53.5 38.4h-7.1l-6.5-19.7-6.5-19.8-4.7 9.4c-4.2 8.4-5 9.3-6.9 8.7-3.9-1.2-8.7-1.5-11.2-.5-2.3.9-2.6.5-6.1-8.5-2.1-5.2-4-9.4-4.3-9.4-.3 0-4 8.2-8.2 18.2l-7.6 18.2-4.6.3c-15.4 1-36.7-11.3-46-26.7-6.7-11.1-7.8-16.1-9-42.6l-1.1-23.9-5.4 8.2c-10 15.3-22.5 25.5-38 31.2-10.6 3.9-21.6 5.2-41.4 4.8-9.2-.2-16.7-.1-16.7.2s8.2 4.6 18.3 9.5c14.5 7.2 18.8 9.8 21.2 12.7 1.6 2.1 2.6 4 2.2 4.4-.4.4-10 1.9-21.4 3.5-39.8 5.4-60.7 3.1-85.7-9.4-16.2-8.1-26.2-16.3-41.1-33.5-5.8-6.8-10.8-12.1-11-11.9-.2.2 1 14.2 2.6 31 2.7 27.8 3.8 45.8 2.5 44.6-.7-.7-5.3-29.4-6.1-38.4-.4-4.4-.9-8.9-1.1-10-.5-2.5-.4-46 .1-50 .2-1.6.7-6.4 1-10.5 1.1-12.6 5.3-35.8 8.9-50 21.8-85 76.4-159.4 151.2-206.3 24.6-15.4 61.6-31.7 88.6-39.1 32.1-8.8 53.1-11.7 87.7-12.1 29-.3 42.7.6 65 4.6 97.8 17.3 181.9 75 235 161.5 2.4 3.9 7.8 13.9 12.1 22.4l7.8 15.4V104.8l-7.1-7.7c-33.3-36.1-76.5-68.4-121.6-91zm-461.5 667.2c16.7.1 21.3-.3 29.9-2.1 28.4-6.1 50.7-18.2 70.3-38.3 5.8-5.9 10.5-10.8 10.5-10.8s-.1 8.7-.4 19.3c-.2 11.4.1 23.6.8 29.6 6.2 53.3 49 93.5 101.4 95.1l9.8.3 11.5-24.4c6.3-13.4 11.6-24.6 11.8-24.8.2-.2 2 4.3 4.1 9.9 2.1 5.7 4 10.6 4.4 11 .3.4 4.6-.5 9.4-1.9l8.8-2.6 8.4 4.2 8.4 4.2 5.7-10.1c3.8-6.7 5.9-9.6 6.4-8.7.4.7 3.8 12.1 7.4 25.3 3.7 13.2 7.2 24.5 7.9 25.2s5.9 1.7 11.7 2.2c26.9 2.5 53.8-5.1 74.9-21.4 14.5-11.1 28-28.9 34.1-44.8 4.3-11.1 5.4-16.1 9-39 1.7-11.2 3.3-20.4 3.4-20.6.1-.1 2.7 3.5 5.8 8 16.5 24.8 37.3 41.7 65 52.6 10.1 4 22.1 6.8 37.3 8.6 7.1.9 13.1 1.7 13.2 1.8.1.1-5 2-11.5 4.1-25 8.2-30.4 12.9-43 37.3l-8.3 16.1-10.4-5.3c-12.5-6.4-20.2-8-33.7-7.2-16.8 1-28.3 6.8-42.1 21.1-17.1 17.8-21.6 27.8-22.9 50.6-.4 8-.8 17.6-.9 21.3l-.1 6.8-7.8-9.8c-9.8-12.3-16.7-18.5-25.4-22.9-16.9-8.5-35.4-8.6-52.8-.2-5 2.4-9 5.6-17 13.7-8.6 8.6-12.9 14.2-23.3 30-7 10.6-12.9 19.2-13.1 19-.2-.2-4.4-9.4-9.4-20.5-10.5-23.4-19-37.2-28.3-45.9-17.7-16.5-43.2-20-65.4-9.1-4.6 2.3-10.7 6.8-17.8 13.1-5.9 5.3-10.9 9.5-11.1 9.3-.2-.2.9-9 2.3-19.6 2.3-17.1 2.4-20.1 1.4-27.3-1.5-10.1-4.4-17.3-11.8-29.1-8.3-13.3-18-22.8-28.4-27.8-10.8-5.2-17.1-6.4-30-5.8-8.5.4-12.2 1.1-19.4 3.7-4.9 1.8-9 3-9.1 2.9-.1-.2-2.3-7.1-4.9-15.3s-5.9-17.5-7.3-20.5c-4.2-8.8-12.9-16.4-27.1-23.8-6.7-3.5-12.2-6.5-12.2-6.6.1 0 9-.1 19.9-.1zm82.2-259.7l-8.2-4.3 11.6-.7c24.7-1.5 41.6-9.1 57.1-25.8 7.2-7.7 7.3-7.6 7.4 8.5.2 21.1 5.5 35.1 18.1 47.8 12.2 12.3 25.3 18.2 40.9 18.3l8.4.1 6.1-14.2c3.3-7.8 6.4-14.2 6.7-14.2.4 0 1.7 2.7 2.9 6.1 1.4 3.8 2.7 5.9 3.5 5.6 7.3-2.8 9.4-2.9 14.3-.9l4.9 2.1 3.2-6c1.8-3.3 3.4-5.8 3.6-5.6.2.2 2.5 6.9 5 14.8 2.6 7.9 5.2 14.8 5.8 15.2 1.9 1.2 15.8.8 23-.7 11.4-2.4 20.9-7.7 29.7-16.4 12.7-12.6 16.8-22.1 19.6-44.6.9-7.7 1.8-14.2 2-14.3.2-.2 1.1 1.1 2 2.8 2.7 5.3 15.6 18.1 23.2 23.1 11.7 7.7 29.1 12.9 42.7 12.9 2.5 0 4.6.3 4.6.8 0 .4-3.7 2.1-8.1 3.8-11.7 4.3-16 8.5-22.1 21.2-2.7 5.6-5.1 10.3-5.4 10.3-.3 0-2.6-1.1-5.2-2.4-15.4-7.8-31.4-4.6-43.8 8.7-10.9 11.7-14.2 21.7-12.9 38.2.4 4.7.3 8.5-.2 8.5s-3.1-2.7-5.9-6.1c-8.9-10.8-19.2-15.6-31.1-14.7-13.8 1.1-23.1 8.7-35.9 29.5l-7.9 12.8-6.8-13.5c-8.9-17.6-14.7-24.8-23.2-29-8.8-4.3-16.2-4.9-25.6-2.1-6.2 1.9-8.1 3.1-14.6 9.3-4.1 3.9-7.7 6.9-8.1 6.5s0-5.6.6-11.7c1.7-15.8-.1-22.6-9-34.5-5.4-7.2-8.7-10.1-15.3-13.1-8.7-4-16.3-4.3-25.9-1-4.3 1.4-7.9 2.6-8.2 2.6-.4 0-3.6-8.9-3.6-10.2 0-.4 2.4-2.4 5.2-4.4l5.2-3.6-6.5.6-6.5.6-1.9-3.5c-2.5-5.4-6.3-8.5-15.4-13.2zm-134.5 58.2c3-14 2.6-32.3-1.1-60.7l-.6-4.4 6.3 5.8c3.5 3.2 9.5 8 13.3 10.8 24.4 17.4 57.8 26.2 86.5 22.9 5.2-.6 12-1.4 15-1.7l5.5-.6-12 8c-18.2 12.2-21.6 17.4-27.1 41.8-2 8.8-3.8 16.2-3.9 16.3-.2.2-4.3-.6-9.2-1.8-21.1-5-39.5-.7-54.1 12.6-9.8 8.9-20.7 28.4-23.7 42.3-2 9.6-1.4 17.1 3 36.4 1.9 8.2 3.3 15.1 3.2 15.2-.1.1-4.3-2.8-9.2-6.6-15.4-11.8-25-15.5-40.4-15.5-6.5 0-11.2.6-15 1.8-23.1 7.7-34.1 21.8-47.7 61-3.7 10.8-7 19.6-7.4 19.6-.3 0-5.9-6.8-12.5-15.1-25.4-32.3-40.4-42.4-63-42.4-21.2 0-36.2 8.9-50 29.8-3.8 5.8-7.1 10.4-7.3 10.3-.2-.2-1.2-7.7-2.3-16.7-1.1-9-2.5-18.2-3.1-20.4-3.2-11.8-12.5-24.3-26.7-35.8-10.3-8.4-18.5-12-30.6-13.8-13.5-1.9-26.7 1.4-40.1 10.1-4.2 2.7-7.8 4.9-8 4.9-.2 0-4.5-6.5-9.5-14.4-13.3-21.1-17.8-24.5-39-30-7.3-1.9-13.4-3.6-13.6-3.8-.2-.2 3.8-1.2 8.9-2.2 21-4.2 41.4-12.8 56.2-23.8 14.7-10.9 29.3-28.1 38-45l3-5.7 5.1 20.2c2.8 11.1 6.3 23 7.6 26.4 12.1 30 36.9 51.6 69.5 60.5 10.7 2.9 34.1 3.1 45.8.4l8.1-1.9 4.7-25.1c2.6-13.8 4.9-25.3 5-25.4.2-.2 5.5 7.4 11.7 17.1.4.6 3.9-1 8.3-3.7l7.7-4.7 8.5 1.7c4.9 1 8.8 1.3 9.3.8.4-.5 1.9-5.1 3.1-10.1 1.3-5.1 2.6-9.2 2.9-9.2.3 0 6.2 9.7 13 21.6 6.8 11.8 12.7 21.7 13 21.9.3.2 3.9-.1 8.1-.6 42.9-5.2 77.9-37.1 86.8-79.1zM1339.7 2036.9c.5-.5 10.1-2 21.3-3.5 11.2-1.4 20.5-2.6 20.5-2.7.3-.6 6.4-25.8 6.4-26.7 0-.7-1.5-.9-4.2-.4-20.2 3-143.6 2.9-158.4-.1l-3.2-.7 3.5 13.8c1.9 7.6 3.6 13.9 3.7 14 .1.1 2.9.5 6.2.8 3.3.4 7.1.8 8.5 1 1.4.2 5 .6 8 1 20.5 2.4 18.7 1.6 19.3 8.3.6 7.2.6 211.8 0 219.3-.5 6.8.9 6.2-20.7 8.4-8.8.9-17.4 1.8-19.1 2l-3 .4-2.6 13.2c-1.4 7.3-2.5 13.4-2.4 13.5.1.1 14.6-.2 32.1-.9 32-1.1 107.5-.5 123.9 1 4.4.4 8.2.6 8.4.5.2-.2-1.1-6.4-2.9-13.8l-3.3-13.5-4.6-.6c-2.5-.3-11.5-1.3-20.1-2.2-11.1-1.2-15.8-2-16.7-3.1-1.5-1.9-1.9-34.3-1.6-146.1.1-46.4.5-82.4 1-82.9zm-34.8 241.1c-15 0-16.1-.1-15.5-1.8.4-1 1.1-27.4 1.7-58.8 1.2-69.6.3-176.4-1.7-189.2l-.5-3.2h32.2l-.8 10.8c-1 14-1 211.8 0 229l.8 13.2h-16.2zM1827 933.9c-21.6-7-43.1-20.1-59.5-36.4-12-11.9-17.1-18.9-32.2-44.3-7-11.7-12.8-21.1-13-21-.2.2-1.9 22.3-3.9 49.3-3.7 50.7-4.9 60.8-9.2 73.4-3.3 9.9-11.2 25-17.3 33.1-11.1 14.8-30.8 30.3-46.6 36.9-15 6.2-33 10-47.5 10.1h-5.5l-16.4-44.1c-9-24.2-16.7-44.2-17.1-44.5-.4-.2-5.3 9.7-11 22.1-5.7 12.4-10.7 22.7-11.1 23-.4.3-2.4-.2-4.4-1.1-5.2-2.2-6.1-2-7.6 2-.7 1.9-1.6 3.5-1.9 3.5-.4 0-1.2-1.8-1.8-3.9l-1.2-3.9-5.1 2c-2.8 1.1-5.5 1.6-5.9 1.2-.4-.4-5.4-10.9-11-23.3s-10.3-22.6-10.5-22.8c-.1-.2-7.8 20-17.1 44.9l-16.8 45.2-10.5-.6c-50.2-2.9-90.8-33.6-106.4-80.7-4.6-13.7-5.1-17.9-9.1-73.9-1.9-26.1-3.6-47.5-3.8-47.7-.2-.2-5.7 8.8-12.3 19.9-17.1 29-25.9 40.3-41.3 53.1-21.6 18-46.2 29.4-73.7 34.1-5.8 1-26.8 2.2-58.8 3.5-27.4 1-50 2.1-50.2 2.3-.2.2 20.3 9.3 45.7 20.2 28.1 12.1 48.1 21.3 51.3 23.6 2.9 2.1 6.9 6.2 8.9 9.1 2 2.9 8.4 17 14.3 31.3s10.8 26.2 11 26.4c.2.2 7.8-3.1 16.9-7.3 22.6-10.5 32.3-12.4 48-9.1 15.2 3.2 26.7 11.2 39.2 27.4 12.5 16.2 16.6 25 17.7 38.8.3 3.8-.5 25.3-1.8 47.9-1.3 22.6-2.2 41.1-2.1 41.3.1.2 11.6-11.9 25.6-26.8 26.2-28.1 31.9-33 42.6-37 16.6-6.2 32.3-5.3 47.7 2.8 14.5 7.6 25.4 21.7 46.6 60.3 8.4 15.3 15.8 27.9 16.4 27.9.6 0 2.6-.9 4.4-2l3.3-2 3.3 2c1.8 1.1 3.7 2 4.3 2s7.9-12.5 16.2-27.8c21.1-38.5 32.2-52.9 46.7-60.5 19.7-10.4 43.2-8.5 61.3 4.7 2.6 1.9 15.9 15.4 29.5 30s24.9 26.4 25 26.3c.1-.2-.8-19.6-2.1-43.3-1.7-31.3-2.1-44.6-1.4-49.1 1.2-7.4 4.2-16.4 7.1-21.3 4.4-7.3 18-24.1 23.1-28.6 9.7-8.5 25.6-14.5 38.7-14.5 9.7 0 18.4 2.6 35.5 10.6 9.1 4.2 16.7 7.5 16.9 7.3.2-.2 5.5-12.8 11.7-27.9l11.3-27.5 7-7.1 7-7.1 47.2-20.4c26-11.2 47.1-20.6 46.8-20.8-.2-.2-22.6-1.2-49.8-2.3-56.5-2-61.7-2.6-81.3-8.9zm36.3 32.6c-12.5 6.1-21.2 13.3-27.3 22.6-2 3.1-6.9 13.6-10.9 23.2-4 9.7-7.7 17.6-8.1 17.6-.5 0-4.3-1.5-8.6-3.4-12.8-5.6-19.3-7-33.3-7-18.4 0-31.3 4.1-46.6 15-10.7 7.6-28.1 29.2-34.4 42.9-7.1 15.3-8.5 26.9-6.5 55.5l.8 11.5-9.8-10.1c-11.1-11.3-18.3-16.4-29.2-20.7-19.7-7.7-39.7-7.6-58.1.1-20.5 8.6-35.4 25.3-56 62.6l-11.9 21.7-2.5-4.3c-1.4-2.4-6.8-12.2-12.1-21.8-22-39.9-40.4-56.8-67.9-62.7-9.8-2.1-26.7-1.3-36.2 1.7-15.4 4.9-25.5 11.4-38.3 24.8l-8.3 8.7.7-8.5c.4-4.6.7-15 .7-23 0-11.7-.4-16-2.1-22.2-3-10.9-8.8-21.9-17.8-33.4-9.9-12.8-14.6-17.6-22-23-23.7-16.9-51.3-19.9-78.2-8.5-5.1 2.2-9.6 3.9-10.1 3.9s-3.5-6.4-6.7-14.2c-8.7-21.4-11.8-27-19.1-34.7-7.1-7.5-13.8-12-24.6-16.5-3.7-1.5-6.6-3-6.4-3.2.2-.2 5.6-.8 12.1-1.3 38.8-3.2 73.2-17.9 102.1-43.8 5.5-4.9 12.7-12.3 16-16.4 3.3-4.1 6.3-7.2 6.6-6.9.3.3 1.1 8.9 1.8 19.1.6 10.2 1.9 22.8 2.7 28 7 42.7 34.3 79.9 72.9 99.3 21.3 10.7 50.3 16.3 72.9 14l8-.8 10.5-28.2c5.8-15.5 10.8-28.4 11.1-28.7.3-.3 2.5 4 5 9.6 2.5 5.5 4.9 10.2 5.5 10.5.5.2 6.1-1.6 12.4-4l11.4-4.4 11.5 4.5c6.5 2.5 11.8 4.1 12.3 3.6.5-.5 2.9-5.3 5.4-10.8 4.2-9.3 4.6-9.8 5.6-7.5.6 1.3 5.5 14.4 10.9 28.9l9.9 26.5 7.9.8c10.4 1.1 26.6.1 38.6-2.3 52.2-10.6 93.1-49.9 105.3-101.3 2.4-10.1 3.9-22 5-41.2.3-5.5.8-11.6 1.1-13.5l.6-3.5 2.2 3c13 17.9 38.7 38.5 61.7 49.4 17.8 8.4 38.4 14.2 55.5 15.6 3.8.3 9.4.8 12.4 1.1l5.4.6-11.5 5.5zM399.2 1556c-21.1 32.6-50.8 52.8-87.6 59.7-14.2 2.7-43.9 2.4-57.7-.6-21.2-4.5-39.8-12.4-56.9-24.1-10.4-7.1-24.8-19.4-27.4-23.3-1-1.5-2.3-2.6-3-2.6-1.3 0-6.7 4.5-6.7 5.5 0 1.2 10.7 11.9 18 17.9 21.1 17.5 46.6 30 72.8 35.6 14 3 41.8 3.7 56.9 1.5 41.6-6.1 74.8-27.4 98.5-63.1 10-15.1 19.2-35.4 17.1-37.6-.5-.5-2.5-1.2-4.4-1.5-3.4-.5-3.4-.5-5.8 5.8-3.4 9.2-7.5 17.2-13.8 26.8z"/><path d="M830.1 1354.4c-2.7 1.5-5 5.2-5.1 7.9-.1 5.4 5.9 10.3 11.1 9 6.7-1.6 9.4-10.5 4.5-15.1-2.9-2.8-7.4-3.6-10.5-1.8zM965.8 1437.8c-11.6 24.4-32.5 48.3-55.2 63-27.7 17.9-63.4 27.2-93.1 24.2-30.5-3.1-56.7-15.6-81.5-38.8-4.1-3.8-8.8-8.8-10.5-11.1-1.7-2.2-3.5-4.1-4.1-4.1-.6 0-2.5 1.1-4.3 2.4l-3.2 2.4 4.9 5.9c12.7 15.2 31.9 30.2 50.8 39.7 7.3 3.7 23.7 9.2 33.5 11.3 12.8 2.8 40.9 2.6 54.6-.4 15.8-3.4 27.6-7.6 42.8-15.2 20.3-10.1 37-23.2 50.9-39.9 11.2-13.5 20.9-29 25.6-40.9l2.1-5.3-2.2-.8c-6.6-2.5-6.1-2.9-11.1 7.6zM1702.3 2013.5c-10.5-3-28.2-6-41.3-7-5.2-.4-11.1-.8-13-1.1-6.2-.7-67.6-1.1-104.8-.8-30.5.3-36.2.6-36.2 1.8 0 1.3 2.7 18.8 3.5 23.1.3 1.5 1.3 2.1 4.2 2.2 12.5.8 37.9 3.5 38.4 4.1 1.5 1.5 1.9 28.1 1.9 112.2 0 78.3-.5 117.7-1.6 118.9-.2.2-5.4 1-11.6 1.7-6.2.7-15.6 1.9-20.9 2.5l-9.6 1.2-2.6 13.1c-1.4 7.2-2.5 13.2-2.3 13.4.2.2 9-.1 19.6-.6 21.5-1 126.5-.7 142.6.4 7.5.5 10.2.4 10.2-.5 0-.6-1.4-6.7-3.1-13.6l-3.1-12.4-4.6-.5c-2.6-.3-7.3-.8-10.6-1.1-14.9-1.4-24.8-2.4-30.6-3.1l-4.6-.6-.7-13.3c-.6-12.6-.8-203.2-.1-210.6.2-1.9.3-4.4.4-5.6.1-2.2.2-2.3 13.1-1 34.6 3.5 53.2 20.3 54.5 49 1.4 33.3-17.5 57-53.5 67.1-5.2 1.5-9.6 2.7-9.7 2.8-.5.4-3.6 27.6-3.2 27.9.2.2 4.7-.2 9.9-1 37.6-5.6 72.1-21 93.8-41.8 10.8-10.3 16.5-17.9 21.8-29.1 8.1-17 10.9-38.2 6.9-51.9-6.2-21.5-24.8-37.6-53.1-45.8zM1588 2278c-14.9 0-16.1-.1-15.6-1.8 2.8-9.4 2.7-238.5 0-250-.5-2.2-.4-2.2 12.8-2.5 20.3-.4 18.2-1.2 17.9 6.8-.1 3.8-.4 8.2-.6 9.9-1.7 13-.8 229.7 1 235.2l.7 2.2H1588zm138.6-166.1c-7.4 11.1-23.4 25.4-35.5 31.6l-3.4 1.8 2.2-2.9c11.9-15.4 17.5-30.2 18.7-49.8 1.1-16.9-3.1-32.4-11.9-44.9-5.1-7.1-11.6-13.4-18.4-17.7l-4.7-3 3.5.6c1.9.3 6 1.1 9 1.6 13.7 2.5 25.2 7.1 34.9 13.8 7 4.9 11.3 10.1 14.7 17.4 5.7 12.7 1.8 35.1-9.1 51.5z"/><path d="M2223.6 3266.4c-35.4-78.8-40.9-91.1-41.7-93.2-.5-1.2-1.1-2.2-1.5-2.2-.3 0-7.4 5.1-15.8 11.3-42.6 31.8-80.3 56.6-99.9 65.6-12.2 5.7-12.5 5.7-13.8.8-4.8-17.7-10.8-69.4-12.6-107.7-.3-7.4-.9-15.2-1.2-17.3l-.6-3.8-45.8 30.6c-25.2 16.8-46 30.4-46.3 30.1-.2-.2 1.2-12.5 3.1-27.3 2-14.8 4.9-37 6.5-49.4 3.8-29 5.3-40 9.4-71 1.9-14 3.2-25.6 3-25.8-.2-.2-22.6 18.1-49.7 40.8l-49.3 41.1-.6-575.3c-.4-412.3-.9-577.4-1.7-582.8-.6-4.1-1.4-10-1.7-13-5.1-46.7-21.4-100.8-44.5-147-22.8-45.8-49-82.5-85.5-119.9-19.2-19.6-36.2-34.5-58.7-51.4-90.6-68-193.7-111.6-306.8-129.7-15.3-2.4-43.2-5.7-56-6.5-5.2-.3-12-.8-15-1-11.2-.9-51-1.2-66.5-.5-8.8.4-16.2.6-16.3.4-.5-.4-5.2-22.4-28.6-133.4-11.3-53.6-23.8-112.6-27.7-131-3.9-18.4-7.6-33.8-8.2-34.2s-21.8-13.5-47.1-29.1l-45.9-28.4-7.3-31.9c-4-17.6-8.5-37.1-9.9-43.4-1.4-6.3-2.8-11.7-2.9-11.9-.2-.2-5.4 1.9-11.7 4.7-13 5.7-40.2 17.7-53.1 23.3l-8.8 3.8-8-6.7c-6.4-5.4-20.2-15.4-31.1-22.7-1.3-.9.9-10.9 15.9-71.5 9.6-38.8 17.3-71 17.1-71.6s-15.6 9.1-34.3 21.5c-73.1 48.5-125.9 83.3-127.1 83.8-.7.3-11-7.9-22.9-18.1-14.2-12.2-22.2-18.5-23.3-18.1-.9.3-11.8 3.2-24.1 6.5-12.4 3.3-46.8 12.5-76.5 20.5-53 14.2-58.2 15.8-286.5 90-193.6 62.9-234.3 75.8-243 77.1-5.8.9-15 2.2-20.5 3-18.3 2.6-78.9 11.6-88 13.1-5 .8-9.3 1.5-9.8 1.5-.4 0-.8 8.6-.8 19.1v19.1l3.3-.6c1.8-.3 14-2.2 27.3-4.1 13.2-1.9 28.3-4.2 33.5-5 5.2-.8 20.8-3.1 34.5-5.1 13.8-2 28.6-4.2 33.1-5 4.9-.8 101.1-31.6 240.7-76.9L605 1025l66.9-18c36.8-9.9 67.7-18 68.6-18 .9 0 12.6 9.5 26.1 21.1 13.6 11.8 25 20.9 25.8 20.6.7-.3 16.8-10.7 35.7-23.3 59.2-39.1 69.1-45.6 69.4-45.3.3.3-3 14.1-19 79.3-5.3 21.4-12.8 52-16.7 67.8-3.9 15.8-6.9 29-6.6 29.3.5.5 7.6-2.6 96.2-41.6 30.2-13.3 55.9-24.3 56.9-24.3 1.7-.1 2.6 3.1 8.5 28.7l6.6 28.8 45.8 28.3c25.2 15.6 46.4 28.9 47.1 29.7.7.8 2.7 8.1 4.4 16.4 1.7 8.2 6 28.9 9.6 46 3.6 17 11.1 52.1 16.5 78 5.5 25.8 12 56.7 14.5 68.5 2.5 11.8 5 23.5 5.5 26s2.7 13 4.9 23.4c2.2 10.4 3.8 19.1 3.6 19.4s-7.8 1.5-16.7 2.8c-97.2 13.8-191.3 48.5-272.5 100.4-16.9 10.8-40.3 27.3-40 28.1.1.4 14.8 12.9 32.5 27.9 17.7 15 32.1 27.4 32 27.5-.5.5-101 26.5-101.2 26.2-.1-.2-3.7-6.8-8-14.8s-8.1-14.9-8.6-15.5c-.8-.8-13.4 5-16.2 7.5-.5.4 2.4 6.7 6.3 14s6.8 13.6 6.3 14c-.8.8-62.5 17.1-62.9 16.6-.1-.1-4.5-25.1-9.7-55.5-5.2-30.4-9.7-55.5-10-55.8-.3-.3-4.6.2-9.6 1.1l-9.1 1.7.6 3.1c.3 1.7 4.7 27.2 9.8 56.7 8 47 9 53.6 7.6 54.2-2.5 1.1-52.2 14-52.5 13.6-.2-.2-2-10-4-21.8s-3.9-21.6-4.1-21.9c-.6-.6-17.5 1.9-18 2.8-.2.4 1.3 10.8 3.4 23.1 2.1 12.3 3.6 22.7 3.2 23-.4.3-15.3 4.5-33.1 9.2-17.9 4.7-33.9 9-35.6 9.5l-3.1.9-16.7-43.6c-9.2-24-17.1-44-17.5-44.5-.5-.5-4.6.6-9.4 2.4-7.8 2.9-8.5 3.4-7.7 5.4 21.4 55.8 32 83.8 32 84.6 0 .5-1.9 1.5-4.2 2.1-11.1 3-85.4 23.1-86.3 23.4-.6.2-7.2-13.6-14.9-31.3-7.6-17.4-13.9-31.8-14-31.9-.2-.3-16.5 6.7-17.3 7.3-.2.2 5.6 13.8 12.8 30.3 7.2 16.5 12.9 30.5 12.5 31.1-.4.6-1.2 1-1.8 1-.6 0-16 4.1-34 9.1-18.1 5-33 8.9-33.1 8.8-.1-.2-2.8-15.6-6-34.3-11.2-66.4-12.7-75-13-75.3-.5-.5-16.3 2-17.5 2.8-.8.5-.3 4.9 1.4 15.1 4.8 27.3 16.5 97.3 16.3 97.4-.7.4-72.7 20.5-73.5 20.5-.5 0-6.5-10.2-13.2-22.8-6.7-12.5-12.4-22.9-12.5-23.1-.5-.6-16.5 8-16.5 8.8 0 .4 5 10.1 11.1 21.5 8.3 15.4 10.8 20.9 9.8 21.5-.7.4-7.2 2.5-14.4 4.5s-13.4 4-13.8 4.3c-.6.6 3.5 16.8 4.5 17.8.3.3 23.3-6.1 32.3-9 2.2-.7 2.3-.5 20.2 33.4 2.5 4.7 4.9 8.9 5.3 9.4.7.8 13.8-5.2 16.2-7.4.5-.4-4-9.8-9.9-20.9-5.9-11.1-10.5-20.3-10.3-20.4 1.9-1.4 67.1-18.8 67.8-18.1.4.5 4.1 20.5 8.1 44.4s7.6 43.8 7.9 44.2c.7.7 16.9-1.7 17.9-2.7.3-.3-.4-6-1.6-12.8-10-59-13.3-79-12.9-79.4.6-.6 71.7-20.3 73.2-20.3.6 0 2.6 3.5 4.4 7.7 13.3 30.7 23.3 52.9 24 53.6.7.8 14.4-4.5 16.4-6.3.8-.7-6.8-19-20.5-49.4-2.7-6-4.8-11-4.6-11.1.4-.4 89.6-24.5 90.6-24.5.5 0 7.1 16.3 14.7 36.2 7.6 19.9 13.9 36.4 14 36.5.4.6 17.5-6.1 17.5-6.9 0-.5-5.8-16.1-13-34.8-7.1-18.7-13.1-34.5-13.2-35.2-.2-.9 10.4-4.1 33.7-10.4 18.7-5 34.1-9 34.3-8.9.2.1 1.9 9.4 3.8 20.6 1.9 11.2 3.6 21.3 3.9 22.5.5 2.1.6 2.1 9.1.7 4.8-.8 8.9-1.6 9.3-1.8.4-.2-1.1-10.8-3.2-23.5s-3.7-23.3-3.5-23.5c.6-.6 53.1-14.6 53.4-14.2.3.3 5.8 31 7.5 42.3.6 3.9 1.4 7.7 1.8 8.3.7 1.2 4.3.8 16.1-1.5l2.5-.5-4.5-26.5c-2.7-16.2-4.1-26.8-3.5-27.3 1.8-1.6 68.5-18.5 69.4-17.5.5.5 7.7 13.7 16.1 29.4 8.4 15.7 15.3 28.7 15.5 28.8.6.7 16.5-8.1 16.5-9.1 0-.6-1.3-3.3-2.9-6.1-6-10.6-26.2-48.9-25.9-49.1.2-.2 9.3-2.6 20.3-5.5 43.4-11.2 80.6-21.2 84.6-22.6 2.3-.8 4.4-1.2 4.7-1 .7.7 8.2 44.8 7.7 45.3-.2.2-10.6-.1-23.1-.7-12.5-.6-22.8-1-23-.8-.5.5-4.8 76.9-5.6 99-.1 3.1-.5 6.2-.8 6.7-.6 1-6.6.4-70-6.9-9.6-1.1-29.7-3.4-44.5-5-14.9-1.7-28.5-3.2-30.3-3.4-2.8-.3-3.2-.1-2.7 1.4.3 1 5.5 13.4 11.6 27.6 14.3 33.4 14.5 34.1 13.3 35.4-.6.6-10.2 2.6-21.5 4.6-67 11.6-297.7 51-397.9 67.9-8.5 1.4-17.3 3.3-19.5 4-2.2.8-9.4 2.4-16 3.5s-25.1 4.3-41 7.1c-28.3 4.9-89.5 15.5-106.5 18.6-16.1 2.9-18.5 3.2-19.1 2.5-.3-.4-4.3-21.6-8.8-47.2-4.5-25.6-9.7-55.1-11.6-65.5-4.1-23.1-8-45.1-18.5-104.5-4.4-25-9.4-52.9-11-62-3-16.6-17.1-95.9-21.4-121-2.4-13.8-2.9-16.5-11.6-65.5-2.7-15.4-5.6-31.6-6.4-36-.8-4.4-3.9-22.3-7-39.7l-5.6-31.7-18.3-53.3c-10.1-29.3-18.6-54-18.9-54.8-.3-.8-.5 24.8-.4 57 .2 55.8.3 59 2.4 69.5 1.8 9 19.9 110.4 29.7 166.5 1.3 7.4 3.3 18.9 4.5 25.5s5.7 32.2 10.1 57c4.4 24.8 8.9 49.9 10 56 1.9 10.7 27.1 152.9 31 175 11.4 64.8 20.9 117.8 21.4 118.2.3.3 6.1-.4 12.8-1.6 12.4-2.2 107-18.6 127.3-22.1 6-1.1 25.6-4.4 43.5-7.5 17.9-3.1 33.2-5.8 34-6 1.3-.4 2.4 4.6 6.8 30.3 6.2 36.5 12.1 71.1 24.3 142.8 5 29.1 11.3 66.3 14 82.5 4.3 25.6 15.1 88.9 25 147 1.6 9.6 5 29.2 7.4 43.5 6.2 36.6 11.7 68.8 18.1 106.5 3 17.9 10.7 62.9 17 100 6.3 37.1 12.4 72.9 13.5 79.5 2.9 18 2.1 16.4 7.7 15.4 6.5-1.2 98.8-16.9 99.5-16.9.3 0 .9 2.1 1.3 4.8.4 2.6 2.6 16 5 29.8s4.8 28.2 5.5 32.1l1.2 7.1 4.7-.8c2.6-.4 18.1-3.1 34.6-5.9 16.4-2.8 30-5 30.2-4.8.2.2 1 3.7 1.8 7.8s2.4 10.4 3.5 13.9c1.1 3.6 2.1 9.2 2.1 12.6v6.1l-3.2.6c-11.3 2-113.9 19.4-174.3 29.7-16.5 2.8-45.8 7.8-65 11.1-19.3 3.3-46.4 7.9-60.3 10.2-22.3 3.7-25.3 4.4-25.3 6 0 1 2.2 15 5 31 2.7 16 7 41.3 9.5 56.2 6.1 36.3 17.3 101.7 26.5 156 2.2 12.6 5.7 33.6 7.9 46.5 2.2 12.9 4.7 27.5 5.6 32.4.9 4.9 1.4 9 1.2 9.2-.2.2-21.2-21-46.8-47.1-25.5-26.1-46.7-47.5-46.9-47.5-.3 0-3.8 12.9-7.9 28.8-15.4 60.1-41.2 159.8-41.7 161.5-.5 1.6 46.5 1.7 968.4 1.8h33.1c551.1 0 1002.1-.4 1002.1-.8s-6.6-15.1-14.5-32.7zM456.8 3136.5c-.3.2-53.2-49.4-59.5-55.8-2.6-2.6-1.5 3.4-21.4-114.7-4.4-26.1-8.7-51-9.5-55.4-.8-4.3-1.5-8.4-1.5-9.1 0-.7 3-1.7 7.8-2.5 4.3-.7 14.9-2.5 23.8-4.1 8.8-1.6 16.7-2.9 17.5-2.9 1.2-.1 2.5 5.7 6.8 30.7 2.9 16.9 7 41.3 9.2 54.2s6.7 39.5 10 59 8.5 50.1 11.5 67.9c3.1 17.9 5.5 32.6 5.3 32.7zm39.8-48.6c-10.2 37.1-18.8 67.7-19.2 68-.3.3-2.5-1.4-4.8-3.9l-4.2-4.5-4.2-25c-2.3-13.8-8.7-51.6-14.3-84-19.5-114.4-25-147.8-24.7-148.1.3-.3 62-11.1 64.9-11.3 1.3-.1 1.9 1.9 3.2 10.1 1.8 11.1 8.8 52.2 16.2 95.2 2.6 14.9 4.9 29 5.1 31.5.5 3.8-2.9 17.2-18 72zm110.5 55.1c-2.3 3.9-4.4 7-4.5 6.8-.2-.2-18-31.4-39.6-69.3l-39.3-69-5.8-34c-13.5-78.7-17-99.7-16.6-100 .6-.6 58.2-10.3 61.5-10.4 2.9-.1 3.2.2 3.7 3.7.5 3.3 10.7 63.4 21.3 125.8 2.7 15.9 17.2 101.2 22.6 133.2l1 6.2-4.3 7zm29.2-48.1c-7.5 12.4-14.6 23.9-15.7 25.6l-2.1 3-1.2-7.5c-.7-4.1-3.7-22.1-6.7-40-5.9-34.6-30.4-178.5-33.7-198.4-1.1-6.5-1.7-12.2-1.4-12.5.7-.7 41.3-7.8 45.5-8 2.4-.1 2.6.3 3.7 6.6 1.2 7.4 16.2 95.8 21.7 128.2 3.5 20.3 3.5 20.8 3.5 50.4v29.9l-13.6 22.7zm-32-354.2c-.5-.5-6.3-32.9-6.3-35.2 0-.8 24.9-5.9 31.1-6.4 1.3-.1 2.1 3.4 4.6 18.1 1.7 10 3 18.3 2.9 18.4-.4.7-31.8 5.5-32.3 5.1zm43.5-83.2c-1.2.3-15.5 2.8-31.8 5.6-16.2 2.8-41 7-55 9.5-62.5 10.8-73.4 12.5-74 11.8-.4-.4-4.9-25.3-9.9-55.3-8.6-51-25.2-148.8-40.5-238.5-3.7-21.4-9.3-54.5-12.5-73.5s-8.3-49.1-11.4-67c-6-35.1-10.9-63.7-18.7-110-2.7-16.2-6.3-37.4-8-47s-6.1-36.2-10-59c-3.8-22.8-7.7-45-8.5-49.4-2.5-13.4-5.1-11.6 23.8-16.4 13.9-2.3 46.4-7.8 72.3-12.2s69.5-11.8 97-16.5c27.5-4.7 74.5-12.7 104.5-17.9 30-5.2 55.3-9.4 56.4-9.5 1.7-.1 1.7.1.5 1.8-.8 1.1-8.6 10.7-17.4 21.4l-16 19.4-19.3 5.3-19.2 5.3V2411l22.3 27.6 22.3 27.6-1.3 5.7c-.7 3.1-10.8 44.1-22.3 91.1-11.6 47-21 87.3-21 89.7-.1 3.6-.4 4.3-2.3 4.8zm1154.5 625.3l-45.7-.3-2.7-13.5c-24.6-121-26.4-129.9-27.1-130.6-.4-.4-31.1 19.1-135.4 86-10 6.4-18.9 11.9-19.7 12.3-1.4.5-1.6-7.4-1.8-73.1l-.3-73.7-60.4 51.6c-33.2 28.4-60.7 51.6-61 51.6s-4.6-23.7-9.4-52.7-9.1-53.8-9.5-55.2c-.7-2.1-1.3-1.5-5.8 6.5-2.8 4.9-11.6 20.2-19.5 33.9-7.9 13.8-23.4 40.5-34.3 59.5-10.9 19-28.1 48.7-38.1 66l-18.2 31.5-322.1.3-322.3.1v-632l6.4-26.3c3.5-14.4 10.1-41.1 14.6-59.3 21-85.2 25-101.8 25-103.2 0-.8-10.4-14.3-23-29.9l-23-28.5V1980.1l3.2-1c1.8-.6 8.6-2.5 15.1-4.3l11.9-3.3 42-51c23.1-28 42.2-51.7 42.4-52.5.2-.9-3.6-11-8.5-22.6s-8.8-21.1-8.7-21.3c.2-.2 84.7 9.1 111 12.2 2.2.3 8.2 1 13.3 1.6 5.1.6 9.9.9 10.6.6.9-.3 1.4-3.2 1.5-9.3.1-4.9.4-9.7.6-10.8.2-1.1.7-9 1-17.5.3-8.5.8-18.4 1.1-22 .7-10 2.5-41.9 2.5-45.2v-3l10.8.6c5.9.3 15.9.9 22.3 1.1 6.3.3 15.1.7 19.5 1 4.4.2 14.3.7 22 1 7.7.3 17.1.8 21 1 22.4 1.4 36.9 1.7 36 .7-.6-.6-36.8-31.3-80.5-68.2-43.7-37-80.1-67.8-80.9-68.5-1.2-1.1.9-2.8 13-10.8 41.9-27.5 93.5-53 139.9-69.2 66.3-23.1 130.8-35.5 200-38.3 20.1-.8 68 .2 85 1.7 125.6 11.7 236.4 52.4 335 123 58.3 41.8 101.1 87.4 134.7 143.5 32.8 54.9 51.9 112 60.1 179.5 1.7 13.7 1.8 53.1 2 684.3l.3 669.8-45.9-.1zM952.5 1688c.4 0 7.6 5.9 16.1 13.1 8.5 7.2 15.2 13.4 15 13.8-.5.9-25.8-.7-26.7-1.6-.4-.4-1.5-5.6-2.4-11.6-.9-6-1.9-11.5-2.2-12.2-.3-.9-.2-1.5.2-1.5z"/><path d="M1022.7 2151.9l-3.6-5.6 6.8-4.6c15.8-10.8 31.5-28.2 39.8-44.2 5.4-10.4 7.6-18.7 7.4-28.9-.2-20.3-10.9-36.5-31.3-47-12.5-6.5-25.1-9.8-48.9-12.9-19.9-2.6-62.1-3.5-136.3-2.9-33.1.3-42.8.6-42.8 1.6 0 4.1 3.5 23.4 4.4 24.3.6.6 10.3 1.9 21.6 2.8 11.3 1 20.7 2 21 2.2 1 1 .5 229.2-.5 230.2-.6.5-8.4 1.7-17.5 2.6-9.1.9-18.3 1.8-20.6 2.1l-4 .5-2.3 11.7c-1.2 6.4-2.5 12.6-2.8 13.7-.5 1.9-.2 2 7.8 1.3 18.4-1.5 91.1-2.1 122.2-1 17.5.6 32.1.9 32.4.7.4-.4-4.6-25.7-5.2-26.3-.1-.1-9.2-1.2-20.2-2.3-11-1.1-20.2-2.4-20.6-2.8-1.3-1.4-2.9-94.5-1.7-95.7.2-.2 6-.6 12.8-1l12.5-.6 16 17.8c20.6 22.9 87.8 90.4 101.6 102.1 11.6 9.8 21.2 16.6 26.2 18.7 2.8 1.1 5.7.9 21.7-1.6 10.2-1.6 18.9-2.9 19.4-2.9s-3.8-4.9-9.5-10.8c-28.8-29.8-69.9-84.6-105.8-141.2zM894.8 2278c-13.2 0-15.9-.2-15.4-1.4 2.9-7.5 2.9-242.8 0-250.2-.5-1.2 2-1.4 15.1-1.4h15.7l-.8 26.8c-1.5 52.9-.8 207.1 1 223.5l.3 2.8h-15.9zm94.7-250.5c3.3.3 10.2 1.3 15.4 2.2 23.2 3.8 38.8 12.2 45.6 24.5 2.7 4.9 3 6.2 3 14.9 0 8.9-.2 10-3.8 17.5-8.4 17.6-25 34.5-45.2 46.1l-5 2.9 6.1-6.7c6.9-7.6 13.5-19.8 16-29.7 2.5-10 2.4-24.9-.4-33.6-4.3-13.5-15.8-26.5-31.1-34.9l-6.6-3.6 6 .4zM931.2 2140h-3.3l.3-44.8c.2-24.6.5-48 .7-52l.3-7.2h4.9c2.7 0 9.3.7 14.7 1.5 31.8 4.8 53.1 19.9 55.8 39.7 1 7.5-1.2 18.5-5.6 27.5-6.8 13.8-20.8 24.9-38.5 30.3-7.3 2.2-23.5 5-29.3 5zm156.8 139c-12.3-10.3-29.2-26.4-57-54.6-26.1-26.4-65-68-65.8-70.2-.1-.4 2.8-1.8 6.5-3s10.1-4.2 14.3-6.7 7.7-4.5 8-4.5c.3 0 1.1 1.5 1.8 3.3 4.6 12.8 59.7 92.7 87.6 127.1 10.6 13.1 11.1 14 4.6 8.6zM262.7 1478.6c22.6 11 46.9-10.9 38.7-34.8-4.7-13.7-21.4-21.9-35.5-17.3-10.7 3.4-18.9 14.8-18.9 26.1 0 12 5.5 21 15.7 26zM275 1444c2.2 0 4.1.9 6.1 2.9 6.1 6.1 2.4 15.1-6.1 15.1-5.4 0-9-3.4-9-8.5 0-4.8 4.5-9.5 9-9.5z"/><path d="M119.9 1504.6c.6-.4 4.5-5.7 8.8-11.8 6.3-9.1 7.9-10.8 8.4-9.2.4 1.1 2.1 6.5 3.8 12.2 14.4 47.1 53.7 83.3 103.3 95 10.2 2.4 13.1 2.7 30.7 2.6 21 0 28.9-1.2 46-7.1 47-16.1 81.5-55.8 92.2-105.6 2.8-13.4 3.1-38.8.5-52-9.6-48.7-48.4-100.9-90.7-121.9-4.5-2.2-12.5-5.1-17.8-6.5-12.5-3.2-25.1-2.9-35.4.9-3.7 1.4-6.4 2-6.1 1.4.4-.6 9.4-13.4 20-28.3 10.6-15 19.3-27.6 19.3-28.1s-3.4-3.2-7.4-6.1l-7.4-5.1-12.2 17.3c-6.7 9.5-14.3 20.2-16.9 23.8-2.6 3.6-36.1 50.8-74.5 105s-72.2 101.8-75.1 105.9c-2.9 4.1-5.1 7.7-4.9 8 1.1 1.8 14.5 10.1 15.4 9.6zm35.6-33.2c1-5.4 9-20.4 18.1-33.9 24.4-36.4 84.6-108.3 96.2-115.2 8.9-5.2 18.7-6.5 30-3.8 23.5 5.5 50.6 27.8 70.8 58 20.2 30.2 28.5 58.8 25.5 87.9-3 29.1-14.8 54.4-35 74.7-10 10.1-18.5 16.3-30.7 22.5-51.8 26.4-114.3 12.8-150.9-32.9-12.4-15.4-25.9-47.6-24-57.3z"/><path class="st0" d="M234.4 3298.2c.5-1.7 26.3-101.4 41.7-161.5 4.1-15.8 7.6-28.7 7.9-28.8.3 0 21.4 21.4 46.9 47.5s46.6 47.3 46.8 47.1c.2-.2-.4-4.3-1.2-9.2-.9-4.9-3.4-19.5-5.6-32.4-2.2-12.9-5.8-33.9-7.9-46.5-9.2-54.3-20.4-119.7-26.5-156-2.5-14.9-6.8-40.1-9.5-56.2-2.7-16-5-30-5-31 0-1.6 2.9-2.3 25.3-6 13.9-2.3 41-6.9 60.3-10.2 19.2-3.3 48.5-8.3 65-11.1 60.3-10.2 162.9-27.7 174.3-29.7l3.2-.6v-6.1c0-3.4-.9-9-2.1-12.6-1.1-3.6-2.7-9.8-3.5-13.9-.8-4.1-1.6-7.6-1.8-7.8-.2-.2-13.8 2-30.2 4.8s-32 5.4-34.6 5.9l-4.7.8-1.2-7.1c-.6-3.9-3.1-18.3-5.5-32.1s-4.6-27.1-5-29.8c-.4-2.6-1-4.8-1.3-4.8-.7 0-93 15.6-99.5 16.9-5.5 1-4.7 2.7-7.7-15.4-1.1-6.6-7.1-42.4-13.5-79.5-6.3-37.1-14-82.1-17-100-6.4-37.7-11.8-69.9-18.1-106.5-2.4-14.3-5.8-33.9-7.4-43.5-9.9-58.1-20.7-121.4-25-147-2.7-16.2-9.1-53.4-14-82.5-12.2-71.6-18.1-106.2-24.3-142.8-4.4-25.7-5.5-30.7-6.8-30.3-.8.2-16.2 3-34 6-17.9 3.1-37.5 6.5-43.5 7.5-20.2 3.5-114.8 20-127.3 22.1-6.8 1.2-12.5 1.9-12.8 1.6-.4-.4-10-53.4-21.4-118.2-3.9-22.1-29.1-164.3-31-175-1.1-6.1-5.6-31.2-10-56s-8.9-50.4-10.1-57-3.2-18.1-4.5-25.5c-9.8-56.1-27.9-157.5-29.7-166.5-2.1-10.5-2.2-13.7-2.4-69.5-.1-29.1 0-52.9.3-56.5l-.6-1.8V3300H1192c-911.4 0-958.1-.1-957.6-1.8z"/><path class="st0" d="M.7 1293c.3.8 8.8 25.5 18.9 54.8l2.3 6.8 16 46.5 5.6 31.7c3.1 17.4 6.2 35.3 7 39.7.8 4.4 3.6 20.6 6.4 36 8.7 49 9.2 51.7 11.6 65.5 4.4 25.1 18.4 104.4 21.4 121 1.6 9.1 6.6 37 11 62 10.5 59.4 14.4 81.4 18.5 104.5 1.9 10.4 7.1 39.9 11.6 65.5s8.5 46.8 8.8 47.2c.6.7 3 .3 19.1-2.5 17-3 78.2-13.7 106.5-18.6 15.9-2.7 34.4-5.9 41-7.1 6.6-1.1 13.8-2.7 16-3.5 2.2-.8 11-2.6 19.5-4 100.3-16.9 330.9-56.3 397.9-67.9 11.2-1.9 20.9-4 21.5-4.6 1.3-1.3 1-2-13.3-35.4-6.1-14.2-11.3-26.7-11.6-27.6-.5-1.5 0-1.7 2.7-1.4 1.8.2 15.4 1.7 30.3 3.4 14.8 1.7 34.9 3.9 44.5 5 63.4 7.3 69.4 7.8 70 6.9.3-.6.7-3.6.8-6.7.8-22.1 5.1-98.5 5.6-99 .2-.2 10.5.2 23 .8 12.5.6 22.9.9 23.1.7.5-.5-7-44.5-7.7-45.3-.3-.3-2.4.1-4.7 1-4 1.4-41.2 11.3-84.6 22.6-11 2.8-20.1 5.3-20.3 5.5-.3.3 19.9 38.5 25.9 49.1 1.6 2.8 2.9 5.6 2.9 6.1 0 1-15.9 9.8-16.5 9.1-.2-.2-7.1-13.2-15.5-28.8-8.4-15.7-15.6-28.9-16.1-29.4-.9-.9-67.6 15.9-69.4 17.5-.6.5.8 11.1 3.5 27.3l4.5 26.5-2.5.5c-11.8 2.3-15.4 2.7-16.1 1.5-.4-.7-1.2-4.4-1.8-8.3-1.7-11.3-7.2-42-7.5-42.3-.4-.4-52.8 13.6-53.4 14.2-.2.2 1.3 10.8 3.5 23.5 2.1 12.7 3.6 23.3 3.2 23.5-.4.2-4.6 1-9.3 1.8-8.5 1.4-8.6 1.4-9.1-.7-.3-1.2-2-11.3-3.9-22.5s-3.6-20.5-3.8-20.6c-.2-.2-15.6 3.8-34.3 8.9-23.3 6.3-33.9 9.6-33.7 10.4.1.7 6.1 16.5 13.2 35.2 7.1 18.7 13 34.3 13 34.8 0 .8-17.1 7.5-17.5 6.9-.1-.1-6.4-16.6-14-36.5s-14.2-36.2-14.7-36.2c-1 0-90.2 24.1-90.6 24.5-.2.1 1.9 5.1 4.6 11.1 13.6 30.3 21.3 48.7 20.5 49.4-2 1.8-15.6 7.1-16.4 6.3-.7-.7-10.6-22.9-24-53.6-1.9-4.3-3.9-7.7-4.4-7.7-1.5 0-72.7 19.8-73.2 20.3-.4.4 2.9 20.4 12.9 79.4 1.1 6.7 1.9 12.5 1.6 12.8-1 1-17.2 3.4-17.9 2.7-.4-.4-3.9-20.3-7.9-44.2-4-23.9-7.6-43.9-8.1-44.4-.6-.7-65.8 16.7-67.8 18.1-.2.1 4.4 9.3 10.3 20.4 5.9 11.1 10.3 20.5 9.9 20.9-2.5 2.2-15.5 8.2-16.2 7.4-.4-.5-2.8-4.7-5.3-9.4-17.9-33.8-18-34.1-20.2-33.4-9 2.9-32 9.3-32.3 9-1-1-5.1-17.2-4.5-17.8.4-.4 6.6-2.3 13.8-4.3 7.2-2 13.7-4.1 14.4-4.5 1-.6-1.6-6.1-9.8-21.5-6.1-11.4-11.1-21.1-11.1-21.5 0-.8 15.9-9.4 16.5-8.8.2.2 5.8 10.6 12.5 23.1 6.7 12.5 12.7 22.8 13.2 22.8.8 0 72.9-20.1 73.5-20.5.2-.1-11.5-70.1-16.3-97.4-1.8-10.1-2.2-14.6-1.4-15.1 1.3-.8 17-3.3 17.5-2.8.3.3 1.8 8.9 13 75.3 3.2 18.7 5.9 34.1 6 34.3.1.2 15-3.8 33.1-8.8 18.1-5 33.4-9.1 34-9.1.6 0 1.5-.5 1.8-1 .4-.6-5.3-14.6-12.5-31.1s-13-30.2-12.8-30.3c.7-.6 17.1-7.6 17.3-7.3.1.2 6.4 14.5 14 31.9 7.8 17.7 14.3 31.5 14.9 31.3 1-.3 75.2-20.4 86.3-23.4 2.3-.6 4.2-1.6 4.2-2.1 0-.8-10.6-28.8-32-84.6-.8-2-.1-2.4 7.7-5.4 4.7-1.8 8.9-2.8 9.4-2.4.5.5 8.3 20.5 17.5 44.5l16.7 43.6 3.1-.9c1.7-.5 17.8-4.8 35.6-9.5 17.9-4.7 32.8-8.9 33.1-9.2.4-.3-1.1-10.7-3.2-23s-3.6-22.7-3.4-23.1c.5-.8 17.3-3.4 18-2.8.2.2 2.1 10.1 4.1 21.9 2 11.8 3.8 21.6 4 21.8.3.4 50-12.5 52.5-13.6 1.4-.6.5-7.2-7.6-54.2-5-29.4-9.4-54.9-9.8-56.7l-.6-3.1 9.1-1.7c5-.9 9.3-1.4 9.6-1.1.3.3 4.8 25.4 10 55.8s9.5 55.4 9.7 55.5c.4.4 62.1-15.9 62.9-16.6.4-.4-2.4-6.7-6.3-14s-6.8-13.6-6.3-14c2.8-2.5 15.5-8.3 16.2-7.5.5.5 4.4 7.5 8.6 15.5 4.3 8 7.9 14.6 8 14.8.2.3 100.7-25.8 101.2-26.2.1-.1-14.3-12.5-32-27.5s-32.4-27.6-32.5-27.9c-.3-.8 23.1-17.3 40-28.1 81.2-52 175.3-86.6 272.5-100.4 9-1.3 16.5-2.5 16.7-2.8s-1.4-9-3.6-19.4c-2.2-10.4-4.4-21-4.9-23.4-.5-2.5-3-14.2-5.5-26s-9.1-42.7-14.5-68.5c-5.5-25.8-12.9-60.9-16.5-78-3.6-17.1-8-37.8-9.6-46-1.7-8.2-3.6-15.6-4.4-16.4-.7-.8-21.9-14.1-47.1-29.7l-45.8-28.3-6.6-28.8c-5.9-25.6-6.8-28.8-8.5-28.7-1 .1-26.7 11-56.9 24.3-88.6 39-95.8 42.1-96.2 41.6-.3-.3 2.7-13.4 6.6-29.3 3.9-15.8 11.4-46.4 16.7-67.8 16-65.2 19.3-79 19-79.3-.3-.3-10.2 6.1-69.4 45.3-18.9 12.5-35 23-35.7 23.3-.7.3-12.1-8.8-25.8-20.6-13.5-11.6-25.2-21.1-26.1-21.1-.9 0-31.7 8.1-68.6 18l-66.9 18-232.7 75.6c-139.7 45.4-235.9 76.1-240.7 76.9-4.4.8-19.3 3-33.1 5s-29.3 4.3-34.5 5.1c-5.2.8-20.3 3.1-33.5 5S5 1196.7 3.2 1197l-3.3.6v94.4l.6 1.8c.2-.7.2-.9.2-.8zm976.2 143.2c-4.6 11.9-14.3 27.4-25.6 40.9-13.9 16.7-30.6 29.8-50.9 39.9-15.2 7.6-27 11.8-42.8 15.2-13.7 3-41.8 3.2-54.6.4-9.8-2.1-26.2-7.6-33.5-11.3-18.9-9.4-38-24.4-50.8-39.7l-4.9-5.9 3.2-2.4c1.8-1.3 3.7-2.4 4.3-2.4.6 0 2.4 1.9 4.1 4.1 1.6 2.2 6.4 7.2 10.5 11.1 24.8 23.2 51 35.7 81.5 38.8 29.7 3 65.4-6.3 93.1-24.2 22.7-14.7 43.6-38.5 55.2-63 5-10.5 4.5-10.2 10.9-7.7l2.2.8-1.9 5.4zM691.3 1330c8.9-48.7 34.5-91.6 64-107.3l4.8-2.5-5.7-2.6c-3.1-1.4-6.1-2.6-6.6-2.6-1.4 0-1.1-1.6 1.7-7.7 1.4-3.2 3-6.8 3.5-8 .5-1.2 1.1-2.2 1.4-2.2.3 0 10.8 4.4 23.3 9.9 12.5 5.4 25.2 10.8 28.3 11.9 3 1.1 10.4 4.4 16.5 7.2 6 2.9 49.2 21.8 96 42.2s85.4 37.4 85.9 37.8c1 .9-5.8 17.5-7.1 17.3-.4-.1-15.4-6.6-33.3-14.4-17.9-7.8-33.2-14.5-34-14.8-.8-.3 7.2 7.9 17.9 18.4 21.4 20.9 26.9 27.8 31.4 39.3 5.4 13.9 4.7 33.3-1.8 49.7-17.4 43.5-69 84.4-120.5 95.6-14.9 3.2-40 3.3-54.7.1-28.6-6.2-51.8-18.6-71.9-38.6-11.4-11.4-20.5-23.7-27.1-36.9-4.1-8.2-10.4-27.1-12.4-37.1-2.1-10.6-1.8-42.6.4-54.7zm-272.4 193.4c1.9.3 3.9 1 4.4 1.5 2.2 2.2-7.1 22.5-17.1 37.6-23.7 35.7-56.8 57-98.5 63.1-15.1 2.2-43 1.5-56.9-1.5-26.2-5.6-51.7-18.1-72.8-35.6-7.3-6.1-18-16.7-18-17.9 0-1 5.4-5.4 6.7-5.5.7 0 2 1.2 3 2.6 2.6 3.9 17 16.2 27.4 23.3 17.1 11.7 35.7 19.6 56.9 24.1 13.8 2.9 43.4 3.2 57.7.6 36.8-6.9 66.5-27.1 87.6-59.7 6.2-9.6 10.4-17.6 13.9-26.8 2.3-6.3 2.3-6.4 5.7-5.8zm-309.5-36.5c2.9-4.1 36.7-51.7 75.1-105.9 38.4-54.2 71.9-101.4 74.5-105 2.6-3.6 10.2-14.3 16.9-23.8l12.2-17.3 7.4 5.1c4.1 2.8 7.4 5.6 7.4 6.1s-8.7 13.2-19.3 28.1c-10.6 15-19.6 27.7-20 28.3-.4.6 2.4 0 6.1-1.4 10.3-3.8 22.9-4.1 35.4-.9 5.3 1.4 13.3 4.3 17.8 6.5 42.2 20.9 81.1 73.2 90.7 121.9 2.6 13.2 2.4 38.6-.5 52-10.6 49.9-45.2 89.5-92.2 105.6-17.1 5.9-25 7.1-46 7.1-17.7 0-20.6-.2-30.7-2.6-49.6-11.7-88.9-47.9-103.3-95-1.7-5.6-3.4-11.1-3.8-12.2-.6-1.6-2.1.1-8.4 9.2-4.2 6.1-8.2 11.4-8.8 11.8-.9.5-14.3-7.8-15.4-9.6-.2-.3 2-3.9 4.9-8z"/></svg>