<svg width="2550" height="3300" xmlns="http://www.w3.org/2000/svg"><path d="M2044.5 8.829c-9.35 4.828-20.6 10.967-25 13.642-125.868 76.514-202.28 210.91-202.708 356.529-.034 11.825.248 25.775.628 31 2.618 36.005 10.377 74.297 21.607 106.637 2.838 8.175 5.231 15.712 5.317 16.75.182 2.204-6.011 4.637-18.221 7.159-7.144 1.476-7.643 1.463-8.877-.224-.719-.983-8.582-14.355-17.473-29.714-8.892-15.36-16.332-27.431-16.534-26.825-.202.606-2.263 8.216-4.58 16.91l-4.212 15.807-5.723-.306c-4.957-.266-5.728-.065-5.756 1.5-.03 1.728-.092 1.726-1.424-.031-1.336-1.763-1.568-1.733-5.806.75-2.427 1.423-4.645 2.587-4.928 2.587-.283 0-4.94-6.516-10.348-14.481-5.409-7.964-9.937-14.377-10.062-14.25-.125.127-3.05 15.179-6.499 33.448l-6.271 33.218-5.065.977c-9.692 1.87-17.122 2.189-26.344 1.129-31.584-3.631-58.969-22.869-72.614-51.012-3.255-6.714-5.988-15.939-13.177-44.491l-9.071-36.021-2.797 7.492c-10.654 28.532-18.711 42.049-33.702 56.538-10.565 10.211-17.663 15.325-29.586 21.317-12.303 6.183-19.892 8.367-52.774 15.184-16.5 3.421-30.344 6.526-30.764 6.9-.42.374 2.73 1.488 7 2.475 27.994 6.475 56.237 13.87 60.087 15.733 6.944 3.362 10.85 7.976 22.546 26.635 5.933 9.465 11.185 17.209 11.671 17.209.486 0 4.741-2.698 9.455-5.997 14.382-10.061 22.087-13.011 33.937-12.991 13.593.023 22.667 3.918 35.633 15.297 9.63 8.451 12.453 11.825 16.373 19.565 3.588 7.085 4.827 13.728 8.187 43.876 1.548 13.887 3.102 25.25 3.455 25.25.352 0 6.986-9.647 14.741-21.438 11.455-17.415 15.099-22.192 19.422-25.455 10.965-8.279 22.277-11.433 35.601-9.925 15.562 1.76 27.844 11.614 50.983 40.902 11.285 14.284 16.093 19.664 17.173 19.214.825-.344 2.85-.664 4.5-.712l3-.086 7.752-22.5c12.944-37.571 20.787-49.958 36.568-57.754 7.492-3.701 7.727-3.746 19.632-3.746 10.909 0 12.576.248 17.632 2.619 5.036 2.361 6.326 3.691 13.135 13.538 8.843 12.79 20.691 28.143 28.884 37.428l5.811 6.585-13.207-.403-13.207-.404 4.089 2.419c2.249 1.33 14.521 7.93 27.271 14.666 24.413 12.896 36.303 21.329 40.78 28.922 1.178 1.996 4.965 12.63 8.417 23.63 3.452 11 6.425 20.186 6.607 20.414.182.228 5.619-1.518 12.083-3.88 6.464-2.361 14.453-4.749 17.753-5.307l6-1.013 10 5.556c5.5 3.056 15.625 8.407 22.5 11.893l12.5 6.337 5.269 8.44c10.748 17.219 11.305 24.004 5.445 66.31-3.713 26.805-3.773 27.688-1.779 25.92 1.136-1.007 9.609-8.671 18.829-17.031s18.895-16.553 21.5-18.206c14.337-9.097 35.7-9.596 50.221-1.174 12.828 7.439 21.61 20.358 36.554 53.772 5.896 13.183 10.848 24.118 11.005 24.3.156.182 1.154-.134 2.216-.702 1.42-.761 2.471-.655 3.976.398 1.957 1.371 2.688.456 17.113-21.429 23.639-35.864 35.131-46.256 54.476-49.263 9.646-1.5 18.787-.007 28.525 4.661 9.608 4.604 12.966 7.938 30.941 30.724l15.709 19.912.262-7.316c.143-4.024.658-18.791 1.143-32.816 1.235-35.67 2.803-39.884 22.002-59.105 10.305-10.318 17.434-14.609 27.892-16.79 14.906-3.108 25.194-.504 46.86 11.861l7.159 4.086 10.341-20.102c10.928-21.242 15.288-27.097 23.177-31.122 2.211-1.127 11.702-4.668 21.092-7.867 9.389-3.2 18.535-6.344 20.322-6.987 3.121-1.123 3.25-1.384 3.25-6.572 0-2.971-.121-5.402-.269-5.402-3.57 0-48.369-6.238-48.947-6.816-.454-.454 3.572-4.7 8.945-9.435 12.973-11.432 24.512-22.543 33.178-31.947l7.093-7.698V520.705l-7.827 15.398c-8.569 16.857-12.948 24.278-23.249 39.397-20.439 30.001-48.584 59.322-78.207 81.477-11.159 8.345-9.253 8.677-17.118-2.977-2.413-3.575-7.465-12.687-11.226-20.25-3.761-7.562-7.091-13.75-7.4-13.75-.308 0-2.715 14.062-5.348 31.25-2.632 17.188-5.01 32.209-5.284 33.381-.652 2.792-16.653 10.539-39.938 19.337-23.036 8.704-54.77 16.379-77.049 18.635l-6.147.622-1.665-5.862c-.916-3.225-2.65-9.18-3.854-13.233l-2.188-7.371-7.87 14.132-7.869 14.131-14.608-.261-14.609-.261-5.522-15.168c-3.037-8.343-5.792-15.437-6.122-15.766-.329-.329-3.679 5.934-7.444 13.918-6.236 13.227-7.076 14.516-9.452 14.516-7.744 0-40.893-7.18-58.272-12.622-10.329-3.234-34.415-12.698-41.847-16.442-5.54-2.791-5.64-2.919-7.484-9.632-1.641-5.975-1.932-11.917-2.385-48.783l-.516-41.979-9.42 13.289c-11.705 16.512-23.391 28.294-36.984 37.286-5.723 3.786-10.915 6.883-11.539 6.883-1.754 0-18.884-15.109-30.671-27.052-23.95-24.266-46.543-55.276-60.336-82.81l-3.688-7.362 2.319-2.479c7.667-8.195 20.081-13.947 32.174-14.908 6.132-.487 9.113-.053 21.024 3.059 7.634 1.995 13.985 3.498 14.115 3.339.13-.158 1.899-7.937 3.932-17.287 5.132-23.601 6.855-28.484 12.119-34.339 4.139-4.604 41.607-30.161 44.217-30.161.593 0 1.848 2.363 2.791 5.25 3.032 9.287 2.444 8.988 10.683 5.431 6.131-2.648 8.512-3.137 15.264-3.14 6.748-.002 8.804.419 13.137 2.688 9.106 4.769 19.7 19.4 20.941 28.921.312 2.393-.141 11.276-1.006 19.74-.864 8.465-1.572 16.265-1.572 17.335 0 1.412 3.07-.959 11.198-8.647 13.898-13.145 17.525-15.078 28.302-15.078 15.199 0 22.194 6.363 35.176 32 9.848 19.447 9.571 19.402 19.364 3.136 11.869-19.714 18.467-26.913 27.678-30.199 8.83-3.15 21.218-.615 28.416 5.816 1.999 1.786 7.327 7.634 11.839 12.997 4.512 5.362 8.362 9.75 8.554 9.75.193 0 .265-8.888.162-19.75-.186-19.388-.141-19.852 2.42-25.313 1.435-3.059 5.372-8.516 8.749-12.126 7.822-8.362 13.818-11.221 23.642-11.274 6.207-.033 7.989.438 15.731 4.158l8.731 4.195 6.407-13.232c5.313-10.972 7.066-13.673 10.269-15.82 2.124-1.424 11.962-5.68 21.862-9.457l18-6.868-20-1.66c-22.279-1.85-29.649-3.397-40.2-8.439-14.073-6.726-25.081-17.645-34.242-33.967-2.762-4.921-5.038-8.272-5.057-7.447-.179 7.61-5.41 43.72-7.046 48.635-7.399 22.234-29.901 38.365-53.519 38.365h-7.143l-6.471-19.75-6.472-19.75-4.736 9.351c-4.242 8.376-4.963 9.279-6.925 8.66-3.893-1.229-8.706-1.455-11.156-.523-2.289.87-2.552.503-6.131-8.54-2.057-5.196-4.001-9.443-4.321-9.437-.319.006-4.021 8.219-8.225 18.25l-7.644 18.239-4.616.305c-15.404 1.019-36.711-11.331-46.002-26.664-6.725-11.099-7.78-16.091-8.996-42.585l-1.098-23.943-5.412 8.248c-10.016 15.265-22.528 25.52-38.049 31.184-10.645 3.885-21.626 5.153-41.358 4.775-9.176-.176-16.681-.095-16.677.18.004.275 8.217 4.55 18.251 9.5 14.516 7.161 18.842 9.765 21.166 12.745 1.607 2.06 2.619 4.049 2.249 4.418-.37.37-10.009 1.933-21.421 3.473-39.839 5.378-60.74 3.09-85.749-9.383-16.179-8.07-26.221-16.258-41.14-33.545-5.835-6.761-10.787-12.115-11.004-11.897-.218.217.963 14.162 2.624 30.989 2.746 27.816 3.774 45.787 2.549 44.562-.729-.728-5.257-29.397-6.06-38.362-.394-4.4-.885-8.9-1.093-10-.478-2.542-.429-45.992.057-50 .201-1.65.671-6.375 1.046-10.5 1.147-12.605 5.289-35.775 8.938-50 21.804-84.992 76.387-159.441 151.241-206.285 24.575-15.38 61.596-31.728 88.618-39.134 32.068-8.789 53.074-11.685 87.724-12.094 28.966-.342 42.672.619 65 4.561 97.793 17.262 181.904 75.039 235.042 161.452 2.367 3.85 7.826 13.929 12.131 22.397l7.827 15.398V104.896l-7.096-7.698c-33.322-36.15-76.481-68.464-121.639-91.073L2409.031 0l-173.766.025L2061.5.05l-17 8.779m65.4 382.474c.195 21.112 5.478 35.07 18.082 47.776 12.236 12.334 25.297 18.188 40.916 18.34l8.398.081 6.069-14.25c3.339-7.837 6.367-14.25 6.731-14.25.363 0 1.679 2.724 2.924 6.053 1.438 3.845 2.721 5.877 3.518 5.571 7.271-2.79 9.395-2.919 14.337-.865l4.945 2.055 3.186-5.977c1.753-3.288 3.353-5.811 3.556-5.608.204.204 2.462 6.873 5.018 14.821 2.556 7.947 5.159 14.781 5.784 15.185 1.919 1.241 15.756.811 22.951-.714 11.37-2.409 20.892-7.668 29.651-16.375 12.718-12.643 16.842-22.06 19.551-44.646.924-7.7 1.827-14.154 2.008-14.343.18-.189 1.06 1.073 1.954 2.803 2.74 5.299 15.618 18.099 23.234 23.094 11.707 7.678 29.095 12.946 42.729 12.946 2.507 0 4.556.337 4.554.75-.003.413-3.666 2.1-8.14 3.75-11.668 4.303-16.011 8.475-22.109 21.24-2.696 5.643-5.107 10.26-5.357 10.26-.251 0-2.594-1.083-5.207-2.407-15.439-7.824-31.438-4.645-43.795 8.701-10.863 11.733-14.231 21.74-12.86 38.204.391 4.686.319 8.499-.16 8.495-.477-.004-3.114-2.734-5.86-6.066-8.876-10.772-19.163-15.63-31.075-14.674-13.826 1.11-23.064 8.714-35.873 29.525l-7.854 12.76-6.843-13.519c-8.891-17.567-14.701-24.829-23.217-29.022-8.818-4.341-16.18-4.941-25.581-2.085-6.23 1.892-8.103 3.08-14.625 9.275-4.114 3.908-7.737 6.85-8.05 6.537-.313-.313-.042-5.557.602-11.652 1.673-15.827-.093-22.595-9.012-34.549-5.392-7.226-8.711-10.058-15.341-13.091-8.709-3.983-16.265-4.288-25.91-1.045-4.274 1.437-7.944 2.613-8.156 2.613-.434 0-3.573-8.92-3.573-10.152 0-.437 2.363-2.398 5.25-4.357l5.25-3.561-6.5.634-6.5.635-1.867-3.525c-2.773-5.233-6.492-8.356-15.606-13.102l-8.198-4.268 11.585-.693c24.67-1.475 41.629-9.128 57.086-25.762 7.174-7.721 7.252-7.632 7.4 8.454m-184.4 31.905c24.433 17.377 57.842 26.222 86.5 22.899 5.225-.605 11.975-1.386 15-1.734l5.5-.633-12 8.007c-18.215 12.154-21.602 17.366-27.128 41.753-1.994 8.8-3.763 16.157-3.931 16.349-.168.192-4.33-.595-9.247-1.75-21.114-4.957-39.465-.689-54.139 12.59-9.784 8.854-20.689 28.371-23.66 42.346-2.033 9.561-1.404 17.083 3.048 36.439 1.894 8.235 3.325 15.091 3.181 15.235-.144.145-4.281-2.819-9.193-6.585-15.399-11.808-25.029-15.504-40.431-15.521-6.545-.006-11.211.558-15 1.816-23.101 7.667-34.141 21.79-47.688 61.001-3.721 10.769-7.037 19.58-7.369 19.58-.333 0-5.939-6.778-12.459-15.063-25.419-32.298-40.425-42.4-62.984-42.4-21.223 0-36.228 8.945-49.968 29.789-3.833 5.814-7.111 10.428-7.285 10.254-.174-.174-1.217-7.688-2.317-16.698-1.099-9.01-2.477-18.168-3.062-20.35-3.152-11.769-12.461-24.281-26.654-35.825-10.277-8.358-18.478-12.043-30.644-13.768-13.523-1.918-26.734 1.419-40.058 10.117-4.166 2.719-7.755 4.944-7.977 4.944-.222 0-4.51-6.498-9.531-14.439-13.307-21.051-17.833-24.537-38.969-30.015-7.292-1.89-13.424-3.601-13.626-3.804-.203-.203 3.785-1.189 8.861-2.192 21.023-4.154 41.365-12.761 56.23-23.791 14.661-10.88 29.255-28.149 38.006-44.976l2.973-5.716 5.12 20.216c2.816 11.12 6.252 23.02 7.636 26.447 12.122 30.011 36.936 51.592 69.523 60.464 10.709 2.915 34.102 3.143 45.833.446l8.092-1.861 4.745-25.139c2.61-13.827 4.867-25.264 5.016-25.415.214-.216 5.464 7.437 11.701 17.058.375.579 3.86-.957 8.34-3.678l7.696-4.672 8.462 1.681c4.943.982 8.796 1.307 9.264.783.44-.493 1.851-5.06 3.134-10.147 1.284-5.087 2.587-9.243 2.896-9.235.31.008 6.159 9.708 12.999 21.556 6.84 11.847 12.69 21.683 13 21.858.31.174 3.939-.089 8.064-.584 42.633-5.119 77.586-37.041 86.52-79.019 2.98-14 2.645-32.344-1.108-60.737l-.583-4.411 6.336 5.775c3.484 3.177 9.485 8.017 13.335 10.755m144.666 218.197c-.234 11.388.093 23.635.791 29.642 6.192 53.259 49.039 93.476 101.367 95.142l9.775.311 11.476-24.442c6.312-13.444 11.633-24.6 11.825-24.791.191-.192 2.032 4.282 4.09 9.942 2.059 5.66 4.028 10.604 4.376 10.987.349.383 4.596-.493 9.438-1.946l8.804-2.642 8.405 4.168 8.405 4.169 5.699-10.066c3.784-6.682 5.948-9.614 6.439-8.722.407.739 3.758 12.143 7.448 25.343 3.689 13.2 7.223 24.544 7.852 25.209.629.665 5.901 1.658 11.716 2.208 26.937 2.545 53.753-5.109 74.859-21.368 14.464-11.143 27.964-28.875 34.103-44.792 4.271-11.076 5.442-16.149 8.993-38.965 1.738-11.161 3.272-20.409 3.409-20.552.138-.143 2.731 3.467 5.762 8.022 16.523 24.829 37.328 41.664 65.014 52.61 10.118 4 22.066 6.771 37.279 8.646 7.127.879 13.065 1.704 13.195 1.835.131.13-5.033 1.964-11.474 4.074-24.983 8.184-30.391 12.88-42.982 37.315l-8.271 16.05-10.419-5.295c-12.528-6.365-20.249-8.022-33.687-7.228-16.752.99-28.339 6.797-42.068 21.084-17.062 17.756-21.588 27.784-22.859 50.647-.444 7.975-.833 17.561-.866 21.301l-.06 6.802-7.815-9.802c-9.799-12.288-16.738-18.547-25.396-22.907-16.861-8.491-35.409-8.572-52.789-.231-4.973 2.386-8.976 5.612-17.036 13.728-8.588 8.648-12.897 14.188-23.305 29.971-7.023 10.649-12.928 19.199-13.122 19-.194-.199-4.406-9.429-9.36-20.51-10.454-23.387-18.957-37.176-28.274-45.852-17.676-16.462-43.215-19.999-65.44-9.064-4.622 2.275-10.738 6.77-17.826 13.103-5.935 5.303-10.923 9.488-11.086 9.301-.163-.187.863-9.003 2.28-19.592 2.292-17.13 2.447-20.133 1.409-27.258-1.476-10.122-4.384-17.312-11.778-29.122-8.302-13.259-18.01-22.754-28.402-27.779-10.786-5.217-17.089-6.441-30.041-5.834-8.489.397-12.227 1.108-19.371 3.683-4.869 1.755-8.955 3.049-9.08 2.876-.126-.173-2.346-7.064-4.935-15.314-2.589-8.25-5.893-17.475-7.343-20.5-4.224-8.815-12.909-16.447-27.113-23.825-6.697-3.479-12.177-6.465-12.177-6.636 0-.17 8.888-.283 19.75-.249 16.68.052 21.334-.277 29.938-2.12 28.352-6.073 50.68-18.237 70.312-38.304 5.775-5.903 10.515-10.763 10.532-10.8.018-.036-.147 8.666-.366 19.339m-758.723 210.867c-17.146 29.028-25.876 40.254-41.283 53.085-21.627 18.01-46.249 29.423-73.66 34.142-5.783.996-26.818 2.229-58.843 3.451-27.413 1.046-50.012 2.071-50.218 2.278-.207.207 20.339 9.314 45.659 20.238 28.062 12.108 48.092 21.335 51.303 23.635 2.897 2.074 6.905 6.163 8.905 9.086 2.001 2.922 8.427 17.013 14.28 31.313 5.854 14.3 10.811 26.182 11.016 26.404.204.221 7.819-3.068 16.922-7.31 22.602-10.534 32.323-12.376 47.976-9.09 15.188 3.189 26.736 11.245 39.217 27.359 12.543 16.193 16.557 24.974 17.713 38.754.318 3.786-.469 25.333-1.75 47.883-1.28 22.55-2.225 41.144-2.101 41.319.125.176 11.633-11.894 25.574-26.822 26.196-28.051 31.89-32.999 42.578-36.997 16.554-6.194 32.315-5.262 47.737 2.824 14.507 7.606 25.43 21.737 46.584 60.271 8.426 15.348 15.798 27.903 16.384 27.901.585-.002 2.562-.917 4.393-2.033l3.328-2.029 3.29 2.033c1.809 1.118 3.747 2.033 4.307 2.033.56 0 7.864-12.487 16.232-27.75 21.093-38.475 32.235-52.914 46.689-60.51 19.713-10.359 43.201-8.544 61.291 4.735 2.612 1.917 15.897 15.436 29.522 30.042 13.625 14.606 24.889 26.427 25.032 26.269.143-.157-.803-19.636-2.101-43.286-1.72-31.323-2.101-44.646-1.401-49.062 1.173-7.406 4.193-16.397 7.149-21.289 4.402-7.284 17.991-24.133 23.1-28.641 9.683-8.544 25.55-14.473 38.733-14.473 9.681 0 18.449 2.604 35.527 10.552 9.09 4.231 16.7 7.517 16.912 7.303.211-.215 5.464-12.765 11.673-27.89l11.29-27.5 7.049-7.054 7.049-7.054 47.229-20.384c25.976-11.211 47.055-20.558 46.842-20.77-.213-.213-22.634-1.234-49.824-2.269-56.919-2.166-62.106-2.743-81.747-9.092-21.594-6.98-43.12-20.15-59.461-36.377-12.003-11.92-17.108-18.939-32.189-44.26-6.965-11.694-12.798-21.125-12.964-20.959-.166.165-1.901 22.332-3.857 49.26-3.683 50.697-4.943 60.8-9.161 73.416-3.322 9.937-11.201 25.019-17.29 33.094-11.122 14.751-30.762 30.3-46.599 36.894-14.964 6.229-32.995 10.045-47.503 10.052l-5.524.003-16.403-44.05c-9.021-24.228-16.714-44.243-17.094-44.478-.381-.235-5.337 9.714-11.014 22.109-5.677 12.395-10.666 22.749-11.087 23.009-.421.261-2.416-.216-4.432-1.058-5.242-2.19-6.139-1.957-7.558 1.968-.696 1.925-1.554 3.5-1.907 3.5-.352 0-1.166-1.755-1.809-3.9l-1.168-3.9-5.138 1.952c-2.826 1.074-5.485 1.591-5.91 1.15-.424-.441-5.375-10.927-11-23.302-5.626-12.375-10.332-22.632-10.458-22.794-.126-.162-7.805 20.039-17.065 44.891l-16.837 45.184-10.543-.603c-50.229-2.874-90.786-33.625-106.407-80.678-4.554-13.717-5.075-17.933-9.123-73.881-1.886-26.06-3.583-47.536-3.771-47.724-.188-.189-5.717 8.756-12.285 19.877m-388.969 47.654c-73.144 48.526-125.927 83.311-127.108 83.764-.68.261-10.987-7.903-22.904-18.143-14.195-12.196-22.236-18.455-23.315-18.15-.906.256-11.772 3.179-24.147 6.495l-76.5 20.497c-53.022 14.206-58.21 15.835-286.5 89.986-193.571 62.873-234.258 75.782-243 77.095-5.775.868-15 2.216-20.5 2.996-18.274 2.592-78.862 11.59-88 13.069-4.95.801-9.337 1.459-9.75 1.461-.413.002-.75 8.604-.75 19.115v19.112l3.25-.583c1.788-.321 14.05-2.17 27.25-4.11 13.2-1.94 28.275-4.194 33.5-5.008 5.225-.815 20.75-3.095 34.5-5.066 13.75-1.972 28.639-4.208 33.086-4.969 4.854-.831 101.06-31.581 240.743-76.947l232.657-75.564 66.948-17.988C708.755 997.095 739.608 989 740.495 989c.887 0 12.62 9.495 26.075 21.101 13.64 11.766 25.041 20.879 25.769 20.599.719-.276 16.8-10.741 35.734-23.255 59.231-39.147 69.116-45.59 69.441-45.263.33.332-2.973 14.127-18.991 79.318-5.271 21.45-12.767 51.965-16.659 67.81-3.892 15.846-6.866 29.021-6.609 29.278.491.491 7.605-2.584 96.245-41.607 30.25-13.318 55.857-24.274 56.905-24.348 1.694-.118 2.637 3.068 8.5 28.704l6.595 28.838 45.827 28.275c25.206 15.552 46.418 28.9 47.139 29.663.722.763 2.686 8.137 4.366 16.387 1.68 8.25 6.019 28.95 9.641 46 3.623 17.05 11.056 52.15 16.519 78 5.464 25.85 11.996 56.675 14.516 68.5 2.521 11.825 4.992 23.525 5.492 26 .501 2.475 2.72 13.023 4.932 23.439 2.213 10.417 3.822 19.14 3.577 19.385-.245.245-7.772 1.486-16.727 2.758-97.237 13.806-191.302 48.477-272.52 100.447-16.882 10.802-40.314 27.275-40.002 28.12.132.358 14.752 12.921 32.488 27.919 17.737 14.998 32.137 27.371 32 27.495-.539.491-100.978 26.536-101.216 26.247-.14-.171-3.739-6.835-7.998-14.81-4.258-7.975-8.149-14.931-8.645-15.457-.782-.829-13.443 5.017-16.234 7.496-.464.413 2.369 6.717 6.296 14.01 3.928 7.292 6.783 13.6 6.345 14.017-.796.758-62.494 17.07-62.927 16.637-.126-.127-4.474-25.1-9.663-55.497-5.188-30.397-9.675-55.509-9.971-55.805-.296-.295-4.612.211-9.592 1.127l-9.055 1.664.629 3.144c.346 1.73 4.746 27.224 9.777 56.654 8.037 47.012 8.957 53.597 7.577 54.227-2.483 1.133-52.153 14.04-52.495 13.641-.169-.197-1.959-10.011-3.977-21.81-2.018-11.798-3.853-21.636-4.079-21.861-.641-.642-17.477 1.934-17.982 2.751-.248.402 1.28 10.818 3.396 23.146 2.116 12.329 3.559 22.698 3.207 23.042-.353.344-15.266 4.505-33.141 9.245-17.875 4.741-33.91 9.025-35.634 9.521l-3.135.902-16.695-43.647c-9.182-24.006-17.069-44.034-17.525-44.507-.458-.474-4.647.581-9.355 2.358-7.815 2.95-8.456 3.396-7.702 5.36C532.38 1720.153 543 1748.19 543 1748.957c0 .531-1.913 1.473-4.25 2.093-11.129 2.953-85.383 23.076-86.347 23.4-.615.207-7.184-13.555-14.936-31.29-7.611-17.413-13.921-31.789-14.022-31.946-.169-.263-16.529 6.671-17.271 7.32-.179.156 5.596 13.807 12.834 30.334 7.239 16.527 12.871 30.518 12.517 31.091-.353.572-1.173 1.041-1.822 1.041-.648 0-15.962 4.084-34.032 9.076-18.069 4.991-32.965 8.929-33.103 8.75-.138-.179-2.839-15.626-6.002-34.326-11.228-66.361-12.722-74.989-13.042-75.31-.493-.493-16.291 2.048-17.542 2.821-.771.477-.343 4.945 1.445 15.083 4.814 27.291 16.523 97.289 16.298 97.427-.68.417-72.725 20.479-73.544 20.479-.539 0-6.48-10.237-13.203-22.75-6.722-12.513-12.358-22.903-12.524-23.09-.504-.569-16.454 8.006-16.454 8.846 0 .43 5.006 10.106 11.125 21.502 8.26 15.386 10.794 20.924 9.842 21.512-.705.436-7.174 2.457-14.375 4.491-7.2 2.034-13.409 3.991-13.797 4.348-.601.555 3.531 16.8 4.525 17.795.278.277 23.269-6.149 32.264-9.019 2.185-.697 2.329-.459 20.212 33.365 2.471 4.675 4.856 8.905 5.299 9.4.696.778 13.778-5.2 16.244-7.422.461-.415-3.983-9.824-9.876-20.908-5.893-11.084-10.545-20.273-10.339-20.42 1.929-1.377 67.144-18.757 67.762-18.06.443.501 4.084 20.485 8.091 44.41 4.007 23.925 7.582 43.833 7.944 44.24.653.733 16.899-1.727 17.879-2.707.28-.28-.429-6.027-1.577-12.771-10.038-59.008-13.288-79.031-12.89-79.428.56-.561 71.717-20.306 73.236-20.323.588-.006 2.586 3.476 4.44 7.739 13.333 30.661 23.263 52.877 23.951 53.586.747.769 14.438-4.532 16.389-6.345.763-.709-6.846-19.042-20.496-49.384-2.696-5.991-4.778-11.001-4.627-11.134.434-.383 89.603-24.473 90.585-24.473.486 0 7.104 16.313 14.707 36.25 7.603 19.938 13.904 36.37 14.003 36.517.422.627 17.479-6.115 17.479-6.908 0-.48-5.841-16.145-12.981-34.809-7.14-18.665-13.102-34.504-13.25-35.199-.184-.866 10.431-4.147 33.731-10.424 18.7-5.038 34.145-9.037 34.323-8.887.178.15 1.867 9.427 3.754 20.616 1.886 11.189 3.647 21.295 3.912 22.458.474 2.085.598 2.095 9.124.73 4.754-.761 8.943-1.569 9.308-1.795.366-.227-1.091-10.818-3.238-23.537-2.147-12.719-3.718-23.311-3.491-23.537.621-.621 53.057-14.559 53.417-14.199.343.342 5.78 31.002 7.507 42.326.596 3.906 1.422 7.651 1.836 8.321.721 1.166 4.293.836 16.094-1.49l2.546-.502-4.481-26.481c-2.738-16.179-4.117-26.803-3.546-27.31 1.793-1.593 68.521-18.454 69.416-17.541.485.496 7.719 13.726 16.075 29.401 8.356 15.675 15.328 28.653 15.492 28.84.589.671 16.452-8.084 16.452-9.08 0-.559-1.306-3.321-2.902-6.138-6.008-10.601-26.175-48.877-25.893-49.141.162-.152 9.295-2.605 20.295-5.451 43.45-11.245 80.605-21.156 84.605-22.567 2.314-.816 4.444-1.247 4.735-.957.726.727 8.227 44.76 7.712 45.275-.228.228-10.629-.095-23.114-.718-12.486-.624-22.824-1.005-22.975-.848-.487.506-4.803 76.856-5.598 99.001-.112 3.143-.484 6.168-.826 6.721-.59.955-6.614.362-70.039-6.894-9.625-1.102-29.65-3.366-44.5-5.031a16495.12 16495.12 0 01-30.284-3.415c-2.77-.326-3.196-.11-2.723 1.381.309.972 5.537 13.412 11.618 27.645 14.268 33.393 14.543 34.123 13.292 35.374-.562.562-10.219 2.615-21.462 4.563-67.031 11.614-297.674 50.96-397.941 67.886-8.525 1.439-17.3 3.26-19.5 4.046-2.2.786-9.4 2.366-16 3.51-6.6 1.145-25.05 4.328-41 7.074-28.277 4.868-89.472 15.534-106.5 18.561-16.132 2.869-18.502 3.181-19.111 2.523-.337-.363-4.298-21.585-8.803-47.16-4.505-25.575-9.72-55.05-11.588-65.5-4.13-23.107-8.028-45.106-18.515-104.5-4.419-25.025-9.374-52.925-11.011-62-2.999-16.623-17.058-95.94-21.446-121-2.41-13.756-2.898-16.51-11.619-65.5-2.741-15.4-5.612-31.6-6.379-36-.767-4.4-3.923-22.26-7.012-39.689l-5.617-31.69-18.304-53.31C9.528 1318.49 1.033 1293.825.716 1293c-.316-.825-.481 24.825-.366 57 .199 55.755.312 59.016 2.403 69.5 1.795 8.997 19.902 110.434 29.721 166.5 1.301 7.425 3.326 18.9 4.5 25.5 1.174 6.6 5.72 32.25 10.102 57 4.383 24.75 8.864 49.95 9.959 56 1.935 10.69 27.126 152.931 30.993 175 11.357 64.813 20.927 117.788 21.356 118.217.291.291 6.061-.428 12.823-1.598 12.445-2.153 107.05-18.584 127.293-22.108 6.05-1.054 25.625-4.437 43.5-7.519 17.875-3.081 33.192-5.803 34.037-6.047 1.283-.371 2.398 4.632 6.754 30.305 6.195 36.506 12.083 71.128 24.278 142.75 4.963 29.15 11.271 66.275 14.017 82.5 4.326 25.561 15.099 88.906 24.999 147l7.413 43.5c6.236 36.59 11.706 68.803 18.084 106.5 3.025 17.875 10.68 62.875 17.013 100 6.333 37.125 12.396 72.9 13.473 79.5 2.942 18.032 2.123 16.394 7.669 15.353 6.506-1.22 98.78-16.853 99.478-16.853.307 0 .873 2.137 1.259 4.75.385 2.613 2.642 16 5.014 29.75 2.372 13.75 4.837 28.191 5.476 32.091l1.163 7.09 4.686-.753c2.578-.414 18.139-3.053 34.58-5.864 16.442-2.811 30.046-4.958 30.232-4.773.186.186.988 3.684 1.783 7.774.794 4.089 2.372 10.36 3.505 13.935 1.14 3.593 2.067 9.245 2.074 12.639l.013 6.138-3.25.564c-11.333 1.966-113.912 19.437-174.25 29.677-16.5 2.801-45.75 7.778-65 11.061-19.25 3.282-46.362 7.862-60.25 10.178-22.325 3.721-25.25 4.422-25.25 6.049 0 1.012 2.231 14.969 4.957 31.017 2.727 16.047 7.017 41.327 9.533 56.177 6.15 36.281 17.269 101.712 26.511 156l7.915 46.5c2.2 12.925 4.707 27.499 5.571 32.388.864 4.888 1.419 9.039 1.234 9.225-.186.185-21.226-21.027-46.756-47.138-25.53-26.111-46.654-47.474-46.942-47.473-.288.002-3.844 12.939-7.903 28.75-15.437 60.137-41.18 159.821-41.706 161.498-.522 1.666 47.626 1.75 1001.519 1.75 551.137 0 1002.067-.367 1002.067-.815 0-.448-6.461-15.185-14.359-32.75-35.432-78.804-40.925-91.07-41.733-93.185-.472-1.238-1.14-2.25-1.483-2.25-.344 0-7.443 5.092-15.775 11.315-42.552 31.782-80.306 56.581-99.892 65.617-12.25 5.651-12.52 5.666-13.842.758-4.757-17.668-10.79-69.425-12.553-107.69-.342-7.425-.901-15.19-1.242-17.255l-.621-3.754-45.848 30.573c-25.216 16.815-46.044 30.377-46.284 30.138-.239-.24 1.168-12.533 3.129-27.319 1.96-14.786 4.904-37.008 6.541-49.383 3.842-29.028 5.3-39.974 9.448-70.969 1.875-14.008 3.247-25.631 3.048-25.83-.198-.199-22.562 18.145-49.697 40.763l-49.337 41.124-.595-575.294c-.426-412.303-.907-577.419-1.7-582.794-.609-4.125-1.375-9.975-1.704-13-5.079-46.713-21.447-100.841-44.454-147-22.832-45.81-49.001-82.479-85.547-119.87-19.166-19.609-36.211-34.544-58.671-51.406-90.622-68.033-193.737-111.621-306.829-129.701-15.328-2.45-43.205-5.685-56-6.499-5.225-.332-11.975-.802-15-1.045-11.182-.898-50.994-1.206-66.5-.514-8.8.392-16.157.591-16.349.442-.492-.383-5.221-22.409-28.646-133.407a875365.071 875365.071 0 00-27.654-131c-3.892-18.425-7.589-33.814-8.214-34.197-.625-.383-21.808-13.473-47.072-29.088l-45.936-28.392-7.301-31.911c-4.015-17.552-8.47-37.087-9.899-43.412-1.429-6.325-2.755-11.658-2.948-11.851-.192-.193-5.442 1.906-11.665 4.665a9032.203 9032.203 0 01-53.12 23.269l-8.804 3.81-8.016-6.697c-6.421-5.364-20.218-15.426-31.121-22.696-1.29-.86.931-10.859 15.883-71.5 9.56-38.775 17.265-70.983 17.122-71.574-.143-.591-15.572 9.084-34.286 21.5M1310.896 912c.649 10.175 1.884 22.775 2.742 28 7.01 42.654 34.342 79.857 72.943 99.287 21.319 10.731 50.264 16.298 72.877 14.016l7.958-.803 10.542-28.191c5.798-15.505 10.781-28.419 11.074-28.698.292-.279 2.542 4.018 5 9.551 2.457 5.532 4.918 10.236 5.468 10.454.55.218 6.109-1.568 12.354-3.969l11.354-4.365 11.476 4.479c6.467 2.525 11.847 4.1 12.327 3.609.468-.478 2.876-5.346 5.351-10.818 4.197-9.275 4.574-9.782 5.58-7.5.593 1.347 5.516 14.373 10.939 28.948l9.86 26.5 7.879.803c10.435 1.064 26.606.079 38.568-2.349 52.214-10.598 93.052-49.874 105.316-101.287 2.41-10.104 3.853-22.029 4.982-41.167.325-5.5.838-11.569 1.142-13.487l.551-3.487 2.161 2.974c13.036 17.941 38.726 38.504 61.66 49.354 17.758 8.401 38.4 14.219 55.5 15.643 3.85.321 9.433.831 12.406 1.135l5.406.551-11.053 5.366c-12.515 6.076-21.242 13.311-27.271 22.609-2.017 3.111-6.945 13.574-10.95 23.25-4.005 9.675-7.655 17.592-8.111 17.592-.457 0-4.339-1.538-8.629-3.418-12.794-5.607-19.293-6.972-33.298-6.992-18.353-.027-31.333 4.145-46.618 14.984-10.717 7.6-28.08 29.239-34.442 42.926-7.127 15.33-8.485 26.86-6.538 55.5l.782 11.5-9.842-10.079c-11.071-11.337-18.292-16.45-29.221-20.694-19.729-7.661-39.65-7.623-58.058.111-20.518 8.621-35.436 25.32-55.96 62.641l-11.924 21.682-2.495-4.33c-1.372-2.382-6.826-12.189-12.118-21.793-21.965-39.856-40.353-56.84-67.888-62.704-9.829-2.094-26.705-1.307-36.178 1.685-15.406 4.868-25.495 11.408-38.269 24.807l-8.268 8.674.665-8.453c.366-4.649.676-14.999.688-23 .018-11.729-.384-16.025-2.075-22.177-2.987-10.864-8.846-21.879-17.762-33.391-9.901-12.783-14.555-17.644-21.979-22.953-23.666-16.923-51.332-19.914-78.241-8.46-5.082 2.164-9.631 3.934-10.109 3.934-.477 0-3.479-6.413-6.671-14.25-8.736-21.447-11.766-26.957-19.109-34.741-7.079-7.503-13.804-12.011-24.632-16.51-3.719-1.545-6.587-2.983-6.374-3.196.212-.213 5.649-.816 12.08-1.34 38.776-3.161 73.196-17.936 102.077-43.82 5.489-4.918 12.679-12.305 15.979-16.414 3.3-4.109 6.273-7.192 6.607-6.85.334.341 1.139 8.946 1.789 19.121m-557.832 287.25c-.488 1.237-2.052 4.85-3.476 8.029-2.764 6.17-3.107 7.721-1.709 7.721.484 0 3.434 1.17 6.556 2.599l5.677 2.599-4.806 2.548c-29.499 15.639-55.102 58.538-64.013 107.254-2.216 12.115-2.46 44.11-.416 54.5 1.973 10.027 8.291 28.898 12.42 37.098 6.666 13.235 15.708 25.545 27.135 36.938 20.088 20.029 43.256 32.485 71.88 38.643 14.659 3.154 39.786 3.098 54.658-.123 51.501-11.154 103.097-52.072 120.494-95.558 6.543-16.355 7.25-35.792 1.808-49.689-4.474-11.424-10.002-18.34-31.38-39.259-10.648-10.419-18.692-18.68-17.876-18.357.816.323 16.109 6.972 33.984 14.777 17.875 7.805 32.853 14.267 33.285 14.36 1.265.274 8.108-16.345 7.11-17.267-.492-.455-39.145-17.483-85.895-37.84-46.75-20.357-89.95-39.346-96-42.198-6.05-2.853-13.475-6.108-16.5-7.235-3.025-1.127-15.742-6.49-28.26-11.919-12.517-5.429-22.991-9.871-23.274-9.871-.284 0-.915 1.013-1.402 2.25m56.031 42.29c14.698 6.546 44.158 21.541 43.538 22.161-.162.161-2.958-.207-6.214-.82-9.194-1.73-27.193-.491-37.919 2.61-17.717 5.123-30.426 12.631-42.612 25.174-16.518 17.002-25.602 36.69-27.77 60.182-3.75 40.646 17.865 79.559 54.39 97.918 7.519 3.779 20.972 7.965 29.492 9.177 9.353 1.331 25.163.452 34.956-1.943 9.13-2.232 24.086-8.867 31.528-13.988 17.442-12.001 31.632-31.994 38.133-53.729 2.105-7.038 2.724-11.563 3.118-22.782.711-20.27-2.166-33.794-10.808-50.8l-3.052-6.006 5.812 5.045c3.197 2.775 12.368 11.734 20.38 19.909 11.451 11.683 15.262 16.275 17.816 21.463 9.624 19.549 2.03 45.433-21.114 71.969-19.513 22.374-52.247 42.843-79.769 49.881-65.51 16.752-132.652-24.466-148.168-90.961-2.663-11.413-3.32-36.009-1.296-48.5 7.818-48.244 32.546-89.496 60.176-100.386 6.78-2.673 8.791-2.994 16.883-2.696 6.321.233 8.774 1.009 22.5 7.122M275.9 1252.226c-6.713 9.501-14.325 20.199-16.917 23.774-2.591 3.575-36.132 50.825-74.535 105l-75.088 105.924c-2.894 4.084-5.092 7.7-4.884 8.037 1.108 1.793 14.521 10.159 15.408 9.611.574-.355 4.517-5.658 8.762-11.783 6.331-9.136 7.85-10.792 8.445-9.214.4 1.059 2.13 6.526 3.846 12.15 14.374 47.112 53.727 83.315 103.316 95.047 10.186 2.409 13.086 2.659 30.747 2.645 21.001-.016 28.892-1.235 46-7.107 46.953-16.115 81.538-55.754 92.157-105.622 2.843-13.354 3.084-38.751.492-51.958-9.555-48.688-48.432-100.939-90.668-121.859-4.465-2.212-12.475-5.147-17.799-6.524-12.493-3.229-25.121-2.909-35.409.899-3.7 1.369-6.43 1.986-6.066 1.372.364-.615 9.354-13.359 19.977-28.319 10.624-14.961 19.316-27.617 19.316-28.125 0-.509-3.351-3.241-7.448-6.073l-7.448-5.148-12.204 17.273m23.842 66.275c23.468 5.534 50.589 27.765 70.757 57.999 20.169 30.236 28.469 58.823 25.513 87.877-2.956 29.062-14.838 54.409-35.005 74.67-10.029 10.076-18.52 16.308-30.657 22.502-51.771 26.42-114.268 12.783-150.933-32.933-12.294-15.329-25.78-47.538-23.962-57.228 1.018-5.425 9.013-20.419 18.089-33.924 24.443-36.372 84.577-108.348 96.224-115.174 8.906-5.219 18.671-6.454 29.974-3.789m546.931 18.583c9.934 4.809 17.124 17.602 15.721 27.973-1.387 10.251-8.179 19.616-17.077 23.546-5.579 2.464-16.611 2.325-22.406-.283-10.478-4.715-16.357-14.156-16.39-26.32-.018-6.569.364-8.18 3.084-12.975 3.761-6.63 8.541-10.672 15.6-13.192 6.487-2.315 15.144-1.81 21.468 1.251m-16.563 17.271c-2.667 1.524-5.021 5.208-5.075 7.945-.106 5.408 5.908 10.257 11.147 8.986 6.708-1.627 9.375-10.535 4.52-15.096-2.955-2.776-7.551-3.572-10.592-1.835m-564.201 72.138c-10.673 3.428-18.881 14.755-18.899 26.079-.02 11.982 5.444 21.057 15.697 26.073 22.572 11.043 46.915-10.856 38.739-34.85-4.681-13.738-21.356-21.857-35.537-17.302m699.909 11.355c-11.599 24.445-32.487 48.273-55.194 62.964-27.703 17.922-63.446 27.21-93.124 24.201-30.536-3.096-56.743-15.565-81.53-38.791-4.109-3.849-8.82-8.838-10.47-11.087-1.65-2.248-3.475-4.098-4.056-4.111-.58-.013-2.514 1.052-4.297 2.367l-3.241 2.392 4.891 5.858c12.715 15.23 31.9 30.223 50.756 39.663 7.314 3.662 23.675 9.187 33.474 11.304 12.833 2.772 40.924 2.562 54.637-.409 15.83-3.429 27.638-7.619 42.836-15.2 20.284-10.117 36.981-23.218 50.878-39.92 11.235-13.501 20.905-28.964 25.552-40.855l2.062-5.277-2.246-.84c-6.445-2.411-5.943-2.766-10.928 7.741m-684.741 9.075c6.071 6.071 2.441 15.077-6.077 15.077-5.416 0-9-3.398-9-8.531 0-4.784 4.454-9.469 9-9.469 2.152 0 4.082.928 6.077 2.923M1316 1482.919c125.59 11.685 236.379 52.38 335 123.05 58.311 41.785 101.121 87.418 134.652 143.531 32.78 54.857 51.884 111.962 60.05 179.5 1.652 13.663 1.769 53.147 2.038 684.26l.285 669.76-45.729-.26-45.729-.26-2.738-13.5c-24.55-121.043-26.387-129.891-27.121-130.625-.4-.401-31.148 19.122-135.422 85.981-10.017 6.424-18.902 11.943-19.743 12.266-1.363.523-1.558-7.437-1.787-73.072l-.256-73.659-60.407 51.555c-33.224 28.355-60.676 51.554-61.004 51.554-.328 0-4.565-23.738-9.416-52.75s-9.147-53.831-9.547-55.152c-.651-2.148-1.266-1.461-5.814 6.5a15361.032 15361.032 0 01-19.498 33.902c-7.927 13.75-23.359 40.525-34.293 59.5a58002.577 58002.577 0 01-38.101 66l-18.219 31.5-322.101.252-322.1.251v-631.956l6.441-26.274c3.542-14.45 10.095-41.123 14.562-59.273C710.974 2480.289 715 2463.67 715 2462.32c0-.797-10.35-14.265-23-29.928l-23-28.478v-423.759l3.25-1.017c1.788-.559 8.592-2.487 15.121-4.284l11.872-3.269 42.015-50.957c23.109-28.027 42.202-51.671 42.43-52.543.227-.872-3.612-11.035-8.533-22.585-4.921-11.55-8.835-21.122-8.698-21.27.189-.204 84.738 9.114 111.043 12.238l13.316 1.585c5.123.611 9.899.887 10.612.613.906-.347 1.353-3.16 1.485-9.332.103-4.859.366-9.734.585-10.834.218-1.1.659-8.975.981-17.5.321-8.525.797-18.425 1.057-22 .73-10.021 2.464-41.857 2.464-45.234v-3.013l10.75.615c5.913.339 15.925.851 22.25 1.138 6.325.288 15.1.728 19.5.978s14.3.706 22 1.014c7.7.308 17.15.752 21 .988 22.41 1.37 36.926 1.669 36 .741-.55-.551-36.775-31.256-80.5-68.234-43.725-36.978-80.13-67.824-80.9-68.548-1.177-1.106.892-2.817 13-10.753 41.92-27.473 93.466-52.96 139.9-69.174 66.273-23.141 130.844-35.521 200-38.344 20.138-.823 67.959.159 85 1.745m-902.897 46.25c-3.484 9.204-7.61 17.196-13.854 26.831-21.105 32.57-50.794 52.803-87.57 59.679-14.246 2.664-43.883 2.374-57.679-.563-21.222-4.519-39.803-12.392-56.929-24.122-10.369-7.102-24.8-19.405-27.381-23.344-.955-1.458-2.288-2.636-2.963-2.618-1.302.033-6.727 4.452-6.727 5.48 0 1.223 10.701 11.889 18 17.942 21.118 17.511 46.614 29.979 72.841 35.62 13.957 3.001 41.775 3.74 56.924 1.51 41.645-6.128 74.797-27.365 98.477-63.084 10.01-15.1 19.24-35.418 17.073-37.585-.543-.543-2.524-1.233-4.401-1.532-3.4-.543-3.424-.52-5.811 5.786m555.449 171.939c8.488 7.209 15.249 13.404 15.026 13.767-.541.874-25.78-.663-26.68-1.626-.385-.412-1.457-5.647-2.382-11.633-.925-5.985-1.917-11.498-2.206-12.25-.288-.751-.224-1.366.143-1.366.366 0 7.611 5.899 16.099 13.108m-246.68 212.831c-.755 1.066-8.572 10.682-17.372 21.37l-16 19.432-19.25 5.283-19.25 5.283v445.55l22.349 27.645 22.349 27.644-1.337 5.677c-.736 3.122-10.793 44.104-22.349 91.069-11.557 46.966-21.012 87.345-21.012 89.731 0 3.684-.34 4.415-2.25 4.843-1.237.277-15.525 2.778-31.75 5.559a40796.906 40796.906 0 00-55 9.47c-62.478 10.814-73.353 12.548-74.028 11.8-.395-.437-4.867-25.32-9.938-55.295-8.636-51.04-25.24-148.78-40.517-238.5-3.653-21.45-9.274-54.525-12.492-73.5a67270.578 67270.578 0 00-11.403-67 73996.513 73996.513 0 01-18.704-110 29918.215 29918.215 0 00-8-47c-1.651-9.625-6.147-36.175-9.992-59-3.845-22.825-7.652-45.037-8.459-49.36-2.499-13.39-5.141-11.568 23.783-16.403 13.888-2.321 46.4-7.83 72.25-12.242 25.85-4.412 69.5-11.84 97-16.505 27.5-4.665 74.525-12.706 104.5-17.867 29.975-5.161 55.342-9.438 56.372-9.504 1.661-.106 1.717.1.5 1.82m503.787 102.694c1.919 7.617 3.571 13.931 3.671 14.031.1.1 2.88.476 6.176.836 3.297.359 7.119.808 8.494.997 1.375.19 4.975.632 8 .982 20.548 2.384 18.739 1.602 19.274 8.331.575 7.246.559 211.775-.018 219.346-.516 6.78.923 6.197-20.715 8.397-8.822.897-17.408 1.817-19.08 2.044l-3.038.414-2.609 13.245c-1.435 7.284-2.5 13.362-2.367 13.506.134.144 14.6-.246 32.148-.867 31.996-1.131 107.537-.504 123.905 1.03 4.4.412 8.164.621 8.365.464.201-.158-1.125-6.354-2.946-13.771l-3.311-13.484-4.554-.553c-2.505-.305-11.529-1.283-20.054-2.175-11.127-1.163-15.838-2.047-16.697-3.132-1.5-1.893-1.862-34.276-1.637-146.14.094-46.758.552-82.752 1.059-83.259.491-.491 10.085-2.045 21.321-3.454 11.235-1.409 20.478-2.642 20.54-2.741.349-.558 6.414-25.808 6.414-26.702 0-.698-1.491-.851-4.25-.437-20.183 3.026-143.636 2.945-158.416-.104l-3.165-.653 3.49 13.849m317.591-11.961c-30.51.297-36.25.578-36.25 1.775 0 1.345 2.657 18.761 3.517 23.053.304 1.52 1.31 2.059 4.192 2.245 12.498.806 37.891 3.497 38.434 4.073 1.452 1.54 1.896 28.127 1.872 112.182-.023 78.278-.545 117.727-1.574 118.859-.179.198-5.414.967-11.634 1.71-6.219.743-15.611 1.881-20.872 2.529l-9.564 1.178-2.583 13.112c-1.421 7.212-2.46 13.244-2.308 13.406.151.162 8.993-.117 19.647-.62 21.455-1.013 126.491-.726 142.623.389 7.525.52 10.25.399 10.25-.454 0-.639-1.397-6.739-3.104-13.556l-3.104-12.394-4.646-.547a504.328 504.328 0 00-10.646-1.099c-14.881-1.365-24.795-2.366-30.602-3.088l-4.601-.572-.667-13.285c-.632-12.598-.754-203.167-.135-210.568.161-1.925.341-4.426.399-5.557.116-2.245.234-2.253 13.106-.964 34.58 3.464 53.243 20.264 54.457 49.021 1.404 33.262-17.497 56.988-53.457 67.102-5.225 1.47-9.599 2.747-9.72 2.838-.475.36-3.591 27.58-3.199 27.947.231.215 4.694-.246 9.919-1.025 37.608-5.604 72.127-20.98 93.818-41.788 10.772-10.335 16.472-17.949 21.807-29.134 8.103-16.985 10.944-38.232 6.947-51.94-6.339-21.741-24.954-37.821-53.288-46.035-10.518-3.05-28.229-6.036-41.284-6.962-5.225-.37-11.075-.846-13-1.056-6.246-.683-67.563-1.137-104.75-.775m-686.5 1.009c-33.149.264-42.751.619-42.756 1.58-.019 4.141 3.455 23.427 4.385 24.341.617.606 10.346 1.888 21.621 2.848 11.275.961 20.725 1.965 21 2.232 1.015.984.519 229.2-.5 230.196-.55.538-8.425 1.715-17.5 2.616s-18.323 1.848-20.55 2.103l-4.05.466-2.264 11.718c-1.245 6.446-2.483 12.628-2.751 13.738-.467 1.943-.169 1.994 7.814 1.345 18.371-1.493 91.082-2.07 122.206-.969 17.548.621 32.107.927 32.353.68.399-.398-4.571-25.722-5.165-26.315-.132-.133-9.208-1.181-20.167-2.329-10.959-1.148-20.212-2.39-20.561-2.759-1.292-1.369-2.911-94.459-1.664-95.707.197-.196 5.97-.637 12.829-.979l12.47-.621 16 17.776c20.576 22.861 87.811 90.419 101.634 102.123 11.573 9.799 21.154 16.641 26.169 18.686 2.773 1.132 5.651.926 21.697-1.551 10.175-1.571 18.909-2.866 19.408-2.878.5-.011-3.792-4.859-9.538-10.771-29.133-29.98-70.278-84.794-106.127-141.383l-3.569-5.633 6.79-4.639c15.774-10.778 31.466-28.222 39.789-44.232 5.392-10.37 7.552-18.747 7.443-28.863-.219-20.346-10.949-36.47-31.258-46.972-12.488-6.458-25.07-9.779-48.938-12.916-19.866-2.611-62.132-3.52-136.25-2.931m746.33 24.921c-.137 3.794-.427 8.248-.645 9.898-1.712 12.979-.817 229.725.971 235.25l.729 2.25H1588c-14.895 0-16.095-.134-15.622-1.75 2.759-9.41 2.718-238.516-.044-249.97-.531-2.2-.411-2.223 12.815-2.5 20.34-.426 18.222-1.232 17.931 6.822m-693.688 21.148c-1.517 52.919-.809 207.069 1.026 223.5l.307 2.75h-15.97c-13.183 0-15.876-.241-15.438-1.383 2.859-7.451 2.871-242.752.012-250.201-.454-1.184 2.027-1.416 15.143-1.416h15.686l-.766 26.75m410.89-16c-1.021 14.043-1.017 211.794.005 229l.787 13.25h-16.144c-14.966 0-16.095-.128-15.469-1.75.371-.963 1.132-27.4 1.69-58.75 1.239-69.568.258-176.353-1.738-189.25l-.504-3.25h32.154l-.781 10.75m-315.339-6.095c23.173 3.815 38.784 12.2 45.589 24.486 2.706 4.887 2.968 6.196 2.968 14.859 0 8.94-.225 9.972-3.812 17.5-8.37 17.564-25.021 34.542-45.188 46.074l-5 2.859 6.132-6.732c6.945-7.625 13.506-19.785 16.025-29.701 2.53-9.956 2.353-24.879-.399-33.629-4.258-13.541-15.846-26.517-31.124-34.855l-6.634-3.621 6 .603c3.3.331 10.25 1.302 15.443 2.157m681.057-.492c13.746 2.515 25.249 7.078 34.888 13.839 6.967 4.888 11.34 10.069 14.712 17.435 5.808 12.687 1.891 35.04-9.012 51.424-7.413 11.14-23.432 25.4-35.502 31.605l-3.414 1.755 2.215-2.861c11.914-15.383 17.49-30.212 18.728-49.804 1.069-16.906-3.063-32.423-11.95-44.878-5.094-7.138-11.621-13.426-18.398-17.724l-4.724-2.995 3.479.598c1.913.33 5.953 1.052 8.978 1.606m-737.192 8.308c31.763 4.771 53.092 19.931 55.796 39.659 1.034 7.544-1.205 18.521-5.616 27.53-6.764 13.815-20.787 24.853-38.488 30.295-7.268 2.235-23.534 5.029-29.334 5.039l-3.334.006.325-44.75c.179-24.613.479-48.013.666-52l.341-7.25h4.925c2.708 0 9.332.662 14.719 1.471m47.01 105.902c4.636 12.82 59.722 92.718 87.649 127.127 10.53 12.975 11.025 13.902 4.535 8.5-12.349-10.278-29.151-26.383-57.002-54.637-26.059-26.435-65.033-68.024-65.766-70.177-.146-.43 2.779-1.764 6.5-2.965 3.721-1.201 10.141-4.194 14.266-6.652s7.747-4.491 8.049-4.519c.302-.027 1.098 1.468 1.769 3.323M633.629 2717.25c1.659 10.037 2.969 18.34 2.911 18.449-.3.566-31.745 5.429-32.195 4.979-.493-.493-6.34-32.945-6.344-35.208-.001-.826 24.913-5.929 31.055-6.361 1.255-.088 2.141 3.427 4.573 18.141m-8.9 146.5c1.193 7.428 16.173 95.772 21.746 128.25 3.487 20.322 3.518 20.759 3.521 50.399l.004 29.899-13.662 22.601c-7.514 12.431-14.585 23.931-15.714 25.556l-2.053 2.956-1.185-7.456c-.652-4.1-3.688-22.08-6.747-39.955-5.925-34.624-30.394-178.503-33.736-198.369-1.099-6.529-1.717-12.154-1.375-12.5.673-.683 41.317-7.841 45.544-8.021 2.42-.103 2.637.29 3.657 6.64m-58.453 7c.469 3.265 10.672 63.379 21.343 125.75 2.711 15.85 17.206 101.236 22.613 133.205l1.049 6.206-4.231 7.121c-2.326 3.917-4.362 6.974-4.522 6.795-.161-.18-17.98-31.363-39.599-69.297l-39.308-68.97-5.821-34.03c-13.461-78.699-16.956-99.706-16.637-100.004.591-.553 58.208-10.332 61.455-10.431 2.864-.087 3.163.212 3.658 3.655m-72.933 18.5c1.764 11.101 8.763 52.237 16.207 95.25 2.57 14.85 4.884 29.025 5.142 31.5.381 3.655-3.013 17.152-18.076 71.881-10.2 37.06-18.82 67.656-19.155 67.992-.336.336-2.5-1.411-4.809-3.881l-4.197-4.492-4.224-25c-2.323-13.75-8.743-51.55-14.266-84-19.464-114.356-25.038-147.76-24.711-148.087.339-.339 61.963-11.066 64.853-11.289 1.284-.099 1.934 1.935 3.236 10.126m-72.554 33.5a51797.78 51797.78 0 009.235 54.25c2.21 12.925 6.727 39.475 10.038 59s8.499 50.066 11.527 67.868c3.029 17.803 5.373 32.487 5.209 32.632-.254.225-53.204-49.44-59.481-55.792-2.594-2.624-1.473 3.388-21.386-114.708-4.406-26.125-8.667-51.037-9.47-55.36-.804-4.324-1.461-8.408-1.461-9.077 0-.744 3.013-1.702 7.75-2.463 4.262-.686 14.95-2.52 23.75-4.077s16.691-2.874 17.537-2.927c1.246-.078 2.522 5.712 6.752 30.654" fill-rule="evenodd"/></svg>