<svg width="612" height="792" xmlns="http://www.w3.org/2000/svg"><path d="M227.293 119.05c-7.338 1.016-17.34 5.984-23.425 11.635-18.839 17.494-22.029 41.647-9.319 70.562 1.873 4.261 5.265 13.211 7.538 19.89 4.501 13.225 4.964 20.213 1.746 26.363-.863 1.65-4.036 7.725-7.051 13.5-6.159 11.8-8.036 18.772-9.761 36.276-1.437 14.585-4.667 28.155-10.077 42.336-3.584 9.397-4.086 11.651-3.66 16.46.57 6.424 3.33 12.388 8.259 17.844 1.901 2.105 3.457 4.109 3.457 4.455 0 .346-41.625.629-92.5.629H0v27h65v166H0v220h612V572h-90.683l-1.159-3.866c-.835-2.788-1.158-25.926-1.158-83V406h93v-27H433.841l.65-3.25c1.624-8.124 7.716-31.352 11.082-42.25 5.98-19.368 7.438-26.317 8.096-38.591l.62-11.59 49.106-.665c27.008-.366 62.493-.96 78.855-1.319l29.75-.653V252.31l-5.714 1.929c-5.21 1.759-6.41 1.817-13.604.648-9.954-1.616-12.539-.52-14.492 6.142-2.611 8.91-3.864 10.793-8.002 12.033-2.911.872-5.207.885-9.091.052-2.857-.613-7.086-1.113-9.396-1.112-2.311.001-21.301-2.289-42.201-5.088-39.95-5.351-39.365-5.326-53.907-2.238l-2.907.617.674-7.396c1.193-13.073 5.753-37.054 9.394-49.397 4.673-15.846 5.85-22.452 5.628-31.589-.386-15.913-5.945-29.498-16.358-39.975-3.588-3.61-8.549-7.529-11.024-8.707-15.935-7.589-36.69-6.902-44.03 1.458l-3.218 3.665.677 9.23c.65 8.846.583 9.296-1.598 10.824-2.938 2.057-10.49 2.055-26.161-.008-17.213-2.267-40.838-1.438-57.67 2.024-14.492 2.98-18.669 3.161-23.768 1.03-5.493-2.295-7.967-5.087-12.352-13.937-2.175-4.391-5.165-9.247-6.644-10.791-8.786-9.17-25.343-14.559-38.943-12.674m16.247 4.493c13.8 3.572 20.411 8.807 26.361 20.872 4.952 10.044 9.93 14.865 17.13 16.592 5.32 1.277 10.97.668 27.969-3.014 13.791-2.987 32.704-3.605 47.5-1.552 20.833 2.891 27.48 3.025 31.275.627 4.479-2.83 5.694-6.317 4.318-12.394-1.759-7.769-1.422-9.627 2.402-13.234 7.131-6.725 23.387-6.951 37.176-.516 11.046 5.155 18.6 13.898 24.087 27.879 2.353 5.995 2.631 8.06 2.653 19.697.022 11.946-.232 13.77-3.13 22.5-1.735 5.225-3.457 11.183-3.827 13.241-.587 3.262-1.139 3.86-4.314 4.674-44.558 11.426-64.719 19.722-100.914 41.526-22.001 13.254-30.695 17.767-38.722 20.101-11.244 3.269-24.08 1.627-33.504-4.284-10.547-6.617-28.625-12.316-43.768-13.8-16.205-1.588-31.647 5.469-41.385 18.911-1.566 2.162-2.844 3.301-2.841 2.531.015-3.765 2.75-10.716 9.654-24.532 7.058-14.123 7.561-15.557 7.546-21.5-.019-7.305-3.867-20.299-10.859-36.671-7.652-17.917-9.595-29.598-6.981-41.973 4.359-20.635 22.45-36.756 41.674-37.135 2.497-.049 7.222.605 10.5 1.454m175.977 14.207c-3.511 3.504-6.684 10.697-11.282 25.578-3.384 10.954-3.545 12.028-2.171 14.477 2.78 4.954 13.207 6.282 31.584 4.024 11.993-1.474 12.861-2.441 12.833-14.285-.017-6.856-.435-8.839-2.834-13.427-5.374-10.276-15.93-19.117-22.826-19.117-1.445 0-3.742 1.191-5.304 2.75m-206.204-.648c-1.753.508-4.162 2.155-5.352 3.66-2.961 3.744-2.203 9.357 3.014 22.296 8.208 20.359 10.306 22.854 18.015 21.423 5.561-1.032 15.797-6.889 25.014-14.313 11.772-9.482 11.619-9.248 9.569-14.615-3.179-8.326-13.471-15.153-27.238-18.07-7.611-1.613-18.161-1.787-23.022-.381M453 233.507c0 .278-.723 5.116-1.607 10.75-1.136 7.243-1.666 18.296-1.809 37.743l-.203 27.5-5.629 18c-6.124 19.577-10.204 35.132-14.27 54.391-3.427 16.234-5.669 21.963-11.378 29.077-6.375 7.944-12.088 12.933-28.607 24.986-25.865 18.871-34.821 22.925-52.497 23.764-10.704.507-38.296-2.148-55.5-5.341-26.761-4.967-56.115-16.385-65.474-25.468-4.898-4.753-7.182-9.191-9.954-19.341-2.933-10.743-9.947-23.965-17.098-32.232-13.43-15.527-14.585-20.892-8.195-38.054 2.208-5.93 4.583-13.369 5.277-16.532.694-3.163 1.558-5.75 1.919-5.75s1.695 2.504 2.964 5.566c6.412 15.47 21.085 25.602 37.005 25.552l6.6-.021-.331 3.701c-.189 2.118.983 8.195 2.739 14.202 1.689 5.775 3.57 14.775 4.181 20 1.555 13.305 3.248 18.749 7.596 24.416 13.237 17.258 38.337 22.275 62.05 12.403 16.921-7.044 29.664-19.976 39.048-39.628 3.475-7.276 3.673-8.232 3.673-17.718 0-8.779-.317-10.642-2.544-14.969-4.294-8.346-6.409-9.04-26.456-8.683-13.892.247-20.748-.185-37.5-2.361-13.785-1.791-22.883-2.491-27.774-2.137l-7.275.526 3.275-4.157c5.418-6.879 14.294-15.326 19.003-18.086 3.723-2.182 21.92-10.542 43.271-19.879 2.75-1.203 13.862-6.563 24.692-11.911 16.746-8.268 58.226-27.686 76.714-35.911a4372.65 4372.65 0 0019-8.567c13.724-6.22 15.094-6.75 15.094-5.831M0 258.598V283l7.25.02c13.663.037 119.239-2.104 133.75-2.712l14.5-.608-12.5-5.963c-17.177-8.194-50.871-21.684-72.5-29.028l-18-6.111-21.5-.661c-15.057-.463-22.923-1.123-26.25-2.201L0 234.196v24.402m360.5 33.804c-5.431 1.722-12.5 5.431-12.5 6.559 0 2.146 2.192 1.843 8.647-1.192 6.25-2.939 7.689-3.218 16.353-3.179 6.55.03 10.678.556 13.294 1.694 3.351 1.458 3.861 1.474 4.373.14.785-2.043.363-2.331-5.814-3.975-6.539-1.741-18.936-1.765-24.353-.047m-1.767 15.686c-8.647 2.038-13.397 8.654-12.38 17.246.776 6.551 4.047 11.148 10.093 14.183 9 4.518 22.031 2.545 29.303-4.435 8.23-7.899 8.831-22.662 1.086-26.667-3.106-1.607-21.75-1.823-28.102-.327m27.344 4.835c3.199 3.199 3.684 6.502 1.787 12.178-2.599 7.776-11.159 13.195-20.71 13.11-10.042-.091-15.992-4.597-16.918-12.813-1.235-10.952 5.271-15.083 24.091-15.298 8.483-.096 8.941.014 11.75 2.823m-23.954.451c-9.599 3.473-9.455 14.393.251 18.999 4.455 2.114 9.153 2.03 14.126-.254 5.337-2.45 7.824-5.427 7.716-9.234-.231-8.103-11.991-13.166-22.093-9.511m-70.501 30.143c18.041 2.076 24.284 2.401 35.598 1.853l13.72-.665 3.91 3.91c7.256 7.256 7.897 19.571 1.714 32.953-9.434 20.418-23.921 33.858-43.286 40.157-18.986 6.175-40.162.986-50.96-12.49-4.7-5.864-5.275-7.489-6.898-19.47-.84-6.196-2.904-16.44-4.587-22.765-3.495-13.133-3.692-16.394-1.158-19.193 6.519-7.204 18.221-8.17 51.947-4.29M258.5 388.861c-8.919 5.509-9.051 13.217-.302 17.741 8.112 4.195 16.802-.433 16.802-8.948 0-6.504-3.64-10.655-9.339-10.65-2.299.002-5.503.833-7.161 1.857m43.594 1.445c-4.448 1.559-7.494 5.756-7.494 10.327 0 7.79 11.212 12.449 17.693 7.351 6.21-4.884 5.253-14.605-1.725-17.52-4.093-1.71-4.046-1.709-8.474-.158m-99.077 21.592c5.024 16.171 9.754 21.504 26.483 29.857 23.676 11.822 69.578 21.352 103.5 21.487 19.85.079 30.904-4.265 55-21.612 20.375-14.669 27.751-21.134 33.5-29.362 2.75-3.936 5.309-7.181 5.686-7.212 1.791-.146 20.309 19.885 25.142 27.196 9.112 13.784 12.278 21.143 21.618 50.248 7.365 22.953 18.485 46.544 32.203 68.318 7.946 12.611 11.851 20.51 11.851 23.966 0 2.533-4.311 8.216-6.231 8.216-.342 0-1.708-2.362-3.036-5.25-2.629-5.719-6.849-11.207-9.856-12.816-3.278-1.754-3.297 1.483-.029 5.061 3.937 4.311 8.449 12.715 7.581 14.121-.844 1.364-15.099.629-20.668-1.066-3.589-1.092-3.731-1.305-3.567-5.344.247-6.085-1.166-12.758-2.837-13.399-2.343-.899-2.516.1-1.227 7.096 1.712 9.29.579 10.127-6.486 4.794-7.862-5.937-9.394-10.342-7.648-21.994 3.112-20.769-.894-42.88-10.313-56.923-5.616-8.373-10.66-7.946-14.778 1.251-5.218 11.654-10.496 54.313-12.37 99.969-1.243 30.286-2.768 60.043-3.106 60.602-.2.331-.843 10.906-1.428 23.5-1.754 37.721-3.324 44.542-12.392 53.83-7.887 8.078-22.617 14.504-33.359 14.553-3.998.018-4.04-.57-.315-4.437C379.699 742.64 386 732.16 386 729.809c0-3.245-2.748-1.905-5.006 2.441-2.734 5.262-7.97 12.462-11.39 15.662-2.492 2.331-2.771 2.369-8.341 1.128-6.001-1.336-18.987-7.374-23.195-10.783l-2.432-1.97 5.432-1.256c6.123-1.415 12.338-4.692 17.51-9.234 4.668-4.098 6.011-6.634 3.936-7.43-1.027-.394-3.388 1.116-6.818 4.359-6.041 5.714-14.298 9.274-21.509 9.274-4.553 0-5.018-.282-11.962-7.274-3.974-4-7.225-7.488-7.225-7.75 0-.263 3.19-.574 7.089-.692 11.879-.359 27.911-5.523 27.911-8.99 0-1.833-1.529-1.55-11.908 2.205-5.099 1.845-10.252 2.85-16.529 3.224l-9.12.544-1.222-2.68c-1.87-4.105-1.482-10.636.867-14.587 1.145-1.925 4.968-6.217 8.496-9.537 5.202-4.894 6.416-6.621 6.416-9.127 0-1.7-.675-3.651-1.5-4.336-2.108-1.75-1.918-2.213 1.936-4.709 4.575-2.963 8.974-9.579 13-19.55 1.829-4.533 6.736-15.046 10.902-23.363 9.167-18.298 14.443-31.406 18.266-45.378 2.651-9.689 2.873-11.852 2.884-28 .011-16.63-.128-17.898-2.797-25.5-7.367-20.985-22.419-36.941-42.691-45.256-23.604-9.682-53.153-5.184-71.387 10.865-10.268 9.039-17.019 22.692-23.039 46.597-7.23 28.712-7.36 49.644-.492 79.794 7.616 33.437 18.204 55.66 29.33 61.563 3.931 2.085 4.357 2.667 4.3 5.876-.035 1.958.529 7.331 1.254 11.938 1.569 9.971.817 25.469-1.599 32.949-.901 2.791-2.88 6.56-4.397 8.375-2.576 3.08-3.147 3.291-8.614 3.174-5.888-.126-15.603-2.479-20.477-4.959l-2.621-1.334 2.871-8.114c3.327-9.401 3.529-11.241 1.183-10.79-1.114.215-2.702 3.212-4.674 8.824-1.643 4.674-3.124 8.676-3.291 8.893-.546.71-21.299-8.369-21.323-9.328-.013-.513 2.049-5.576 4.582-11.252 4.214-9.441 4.955-13.315 2.549-13.315-.5 0-1.923 2.362-3.163 5.25-4.557 10.616-7.983 17.75-8.524 17.75-.306 0-5.418-2.392-11.36-5.315l-10.804-5.315 5.517-4.435c7.583-6.095 11.918-11.596 10.364-13.15-.916-.916-2.398.084-6.493 4.38-2.918 3.061-7.214 6.771-9.547 8.244l-4.242 2.677-5.754-3.496c-6.226-3.781-11.149-7.941-11.149-9.42 0-1.503 2.172-2.798 7.73-4.611 6.483-2.115 12.518-8.516 14.153-15.01 2.343-9.305.678-30.059-5.019-62.549-2.571-14.663-2.993-19.283-2.605-28.5.432-10.262.906-12.341 7.067-31 8.475-25.668 12.733-41.63 17.072-64 5.971-30.786 8.499-60.5 5.147-60.5-.914 0-1.664 1.394-2.018 3.75-2.042 13.571-6.737 29.155-11.795 39.144-26.673 52.682-25.967 51.581-39.21 61.106-2.676 1.925-5.762 4.719-6.858 6.209-2.739 3.723-3.299 12.096-1.274 19.062 2.402 8.26.673 10.713-7.574 10.746-5.478.022-20.816-4.961-20.816-6.763 0-2.098 3.574-8.561 5.894-10.659 1.158-1.048 2.106-2.51 2.106-3.25 0-2.246-2.679-1.513-5.77 1.579-2.638 2.638-3.84 4.856-5.626 10.382-.527 1.629-1.342 1.41-8.344-2.245-4.268-2.229-9.059-5.095-10.647-6.371l-2.887-2.32 4.729-3.132c2.601-1.723 5.25-3.325 5.887-3.56.868-.321.859-.745-.036-1.697-1.49-1.583-6.062.101-10.569 3.894l-2.997 2.522-1.87-2.309c-3.753-4.635-2.69-6.72 9.46-18.553 9.534-9.286 12.409-12.858 18.141-22.535 8.864-14.967 16.059-25.177 23.635-33.536 8.562-9.448 14.235-18.618 21.59-34.899 6.92-15.316 11.135-20.764 21.058-27.216 4.922-3.2 20.642-9.171 24.467-9.294 1.318-.042 2.44 2.261 4.796 9.843m-29.567-5.072c-.522.455-3.295 2.505-6.16 4.557-8.096 5.795-12.486 12.167-18.179 26.389-4.107 10.262-10.623 21.279-17.08 28.882-11.456 13.489-19.066 23.961-26.66 36.689-5.907 9.9-9.761 15.039-15.67 20.893-4.311 4.27-8.257 7.764-8.769 7.764-.566 0-.932-24.743-.932-63v-63h47.2c25.96 0 46.773.372 46.25.826m330.307 65.424c.158 40.442-.104 65.75-.68 65.75-1.296 0-14.038-25.342-18.861-37.509-2.178-5.495-6.528-17.866-9.666-27.491-9.441-28.958-18.662-45.301-34.195-60.606l-6.516-6.42 34.831.263 34.83.263.257 65.75m-308.173-6.5c-.317 1.512-1.722 9.5-3.124 17.75-1.402 8.25-4.314 22.2-6.473 31-4.173 17.01-16.009 54.922-17.663 56.576-.576.576-6.106.87-13.245.706l-12.257-.282-.325-5.5c-.178-3.025-.764-7.474-1.301-9.887-1.751-7.86.861-13.04 9.553-18.942 9.496-6.449 13.533-11.727 21.697-28.363 4.132-8.419 9.996-19.808 13.032-25.308 3.035-5.5 6.276-12.363 7.203-15.25 1.75-5.455 3.91-7.315 2.903-2.5m122.385 16.403c14.298 3.594 27.181 12.089 36.631 24.157 9.793 12.504 14.008 23.9 15.075 40.762 1.285 20.308-4.668 41.752-21.078 75.928-5.677 11.825-11.397 23.947-12.71 26.937-6.753 15.382-10.98 18.326-26.048 18.142-12.354-.15-20.779 1.757-30.59 6.926-10.497 5.53-13.019 5.301-20.573-1.873-13.553-12.871-27.92-61.197-27.986-94.132-.03-15.115 1.276-24.239 6.014-42 7.631-28.608 15.104-40.248 31.78-49.502 14.492-8.043 31.462-9.876 49.485-5.345m133.056 17.548c3.823 6.028 6.705 13.739 8.895 23.799 2.336 10.732 2.489 18.109.615 29.687-1.356 8.373-1.38 10.233-.182 13.713.763 2.214 1.146 4.268.851 4.563-.296.295-6.987.537-14.871.537H432v-4.371c0-13.903 5.685-54.542 8.956-64.02 3.522-10.204 5.572-11 10.069-3.908M83.846 556.828c4.334 2.985 15.256 8.779 21.154 11.221 3.025 1.253 5.928 2.654 6.45 3.114.523.461-6.34.837-15.25.837H80v-8.5c0-4.675.268-8.5.596-8.5.327 0 1.79.823 3.25 1.828" fill-rule="evenodd"/></svg>