<svg width="2293" height="2053" xmlns="http://www.w3.org/2000/svg"><path d="M1907.338 24.094c-64.196 7.482-121.013 49.489-146.881 108.595-2.121 4.846-3.879 8.884-3.907 8.973-.027.089-4.775-.91-10.55-2.219-14.117-3.202-42.04-7.962-61-10.4-8.525-1.096-18.076-2.904-21.225-4.018-37.953-13.426-91.252 11.881-148.984 70.739l-15.709 16.016-20.791 5.184c-26.777 6.677-50.85 14.696-65.111 21.688-18.578 9.111-28.795 20.72-26.685 30.324 1.055 4.803 6.109 11.66 11.711 15.89 2.954 2.23 10.303 6.435 16.332 9.344l10.962 5.29 172.218.258 172.219.259 4.193 6.241c8.004 11.913 16.681 22.295 26.998 32.304 25.838 25.067 54.925 40.503 90.814 48.196 11.701 2.508 14.23 2.691 37.058 2.689 21.807-.003 25.654-.255 35-2.294 49.34-10.764 88.83-36.959 116.756-77.448l6.349-9.205 56.197-.5 56.198-.5.309-2.173c.998-7.006-4.59-15.124-13.197-19.17-9.932-4.668-31.57-7.027-49.862-5.437-5.363.467-9.745.833-9.739.814 6.137-19.359 2.797-32.211-10.812-41.596l-4.699-3.241-.041-23.099c-.037-21.159-.265-24.152-2.717-35.656-6.285-29.493-19.288-56.857-37.75-79.442-8.449-10.335-25.262-26.07-36.032-33.72-17.782-12.632-42.439-23.801-63.824-28.911-18.654-4.457-44.715-5.999-63.798-3.775m50.162 5.393c28.473 4.988 53.54 15.415 76.5 31.82 11.413 8.155 32.957 29.939 41.232 41.693 15.091 21.434 25.321 46.057 30.387 73.146 1.76 9.409 3.025 44.212 1.726 47.477l-.845 2.123-7.5-3.004c-18.986-7.605-48.71-12.519-81-13.39-19.004-.512-19.641-.598-25.035-3.383-3.044-1.571-9.119-3.895-13.5-5.163-7.312-2.117-9.851-2.303-30.965-2.267-16.711.028-26.281.525-35 1.817-10.506 1.558-32.893 5.719-39.175 7.282-1.851.461-2.597-.329-5-5.294-3.743-7.732-15.636-20.102-25.773-26.805-16.221-10.727-39.685-20.632-67.48-28.485-7.935-2.242-14.608-4.256-14.828-4.476-.74-.741 6.889-17.002 12.256-26.121 8.472-14.395 16.879-25.106 29.4-37.457 30.539-30.125 64.636-45.902 111.1-51.41 7.086-.84 34.768.367 43.5 1.897m-294 99.741c4.456 1.61 12.149 3.13 21.17 4.184 42.691 4.985 90.002 15.842 120.016 27.542 33.121 12.912 53.164 27.443 61.139 44.326 3.029 6.411 4.027 7.707 5.675 7.367 38.989-8.043 49.262-9.529 71.5-10.346 22.597-.83 40.381 2.075 49.155 8.03 3.238 2.197 4.684 2.381 23.398 2.98 60.93 1.951 101.295 15.012 109.036 35.283 2.322 6.079 1.495 16.051-1.975 23.81-1.452 3.247-2.522 6.002-2.377 6.122.145.12 3.638-.211 7.763-.735 11.553-1.468 43.311-.406 50 1.672 10.901 3.385 17 8.584 17 14.491v2.054l-383.75-.254-383.75-.254-7.79-3.36c-10.725-4.626-22.032-12.221-25.67-17.244-2.411-3.327-3.04-5.22-3.04-9.139 0-4.733.267-5.209 6.295-11.237 11.733-11.733 38.635-22.693 82.505-33.614l21.3-5.303 19.7-19.613c28.421-28.294 50.895-45.533 74.7-57.297 20.576-10.168 30.86-12.781 48.5-12.321 10.317.269 13.723.768 19.5 2.856M820 170.498c-13.693 3.082-27.385 12.026-38.289 25.009l-5.859 6.976-15.676 5.596c-16.02 5.718-34.586 13.024-39.071 15.374-2.296 1.203-2.921 1.001-7.554-2.438-7.903-5.865-13.301-8.643-23.551-12.12-8.538-2.896-10.97-3.268-24.025-3.676-12.025-.376-16.448-.086-25.697 1.684-20.993 4.016-48.469 15.287-72.702 29.823l-9.925 5.953-11.575-3.771c-18.353-5.98-29.453-7.965-48.12-8.605-20.537-.705-29.228.764-42.521 7.184-11.766 5.682-20.854 14.889-26.452 26.799l-3.738 7.954-12.873.291c-25.336.572-46.302 7.291-63.67 20.404l-5.381 4.063-24-.985c-62.018-2.545-112.846 4.716-144.745 20.678-23.984 12-40.102 30.259-45.483 51.522-3.722 14.709-3.628 18.568.881 36.287 12.692 49.869 22.983 111.318 26.502 158.238 3.726 49.684 4.744 57.337 9.452 71.023 4.095 11.905 7.963 17.67 22.572 33.639 19.009 20.778 27.1 33.429 38.449 60.116 7.853 18.467 16.179 27.977 31.084 35.501 22.996 11.608 63.135 13.175 111.967 4.371 37.835-6.822 90.708-22.376 133.938-39.401l12.99-5.116 14.286 8.948c66.953 41.935 140.209 70.321 224.915 87.154l5.63 1.119 2.63 16.704c10.107 64.18 12.191 108.214 6.01 126.993-2.53 7.688-12.774 28.354-20.857 42.075-4.148 7.042-7.542 13.329-7.542 13.97s-.475 1.166-1.055 1.166c-.581 0-10.071 6.13-21.089 13.623C684.86 1058.42 679 1064.171 679 1074.721c0 2.958.652 6.639 1.449 8.18 3.71 7.174 16.275 14.251 32.051 18.052 4.95 1.193 9.571 2.355 10.269 2.584.871.285-.735 4.422-5.12 13.189-5.994 11.984-17.045 36.534-21.506 47.774-1.199 3.021-2.51 4.87-3.314 4.67-.731-.181-7.404-2.72-14.829-5.643-70.083-27.584-140.243-37.754-189.759-27.506-41.584 8.606-75.104 33.505-88.789 65.952-16.167 38.334-7.944 88.884 20.593 126.587 3.078 4.066 4.465 6.657 3.692 6.898-.68.212-6.862 1.579-13.737 3.038-17.568 3.73-60.409 14.645-80 20.384-9.075 2.659-16.62 4.537-16.768 4.174-.147-.363.854-5.077 2.224-10.478 2.823-11.13 7.657-21.581 13.612-29.433 2.649-3.492 3.836-5.929 3.409-7-.521-1.307-1.718-.482-5.853 4.035-11.09 12.113-21.814 29.088-26.07 41.27l-2.237 6.4-1.746-5.674c-3.424-11.124-9.377-17.163-16.927-17.17l-3.856-.004 2.971 2.775c1.634 1.526 3.941 4.677 5.127 7.001 2.083 4.084 5.619 16.052 4.942 16.729-.183.183-1.526.632-2.986.998-3.133.787-3.597-.183-4.649-9.72l-.693-6.283-3.189 7.58c-1.753 4.17-3.48 8.744-3.836 10.165-.382 1.522-1.744 3.011-3.312 3.622-1.465.571-11.965 4.435-23.333 8.587-11.369 4.152-22.795 8.46-25.392 9.573-2.597 1.113-4.916 1.829-5.153 1.591-.238-.238.308-1.865 1.214-3.615 1.935-3.742 1.328-6.934-.958-5.037-.79.655-2.224 3.294-3.187 5.863-1.578 4.209-2.928 6.116-4.354 6.153-.275.007-1.809-2.491-3.408-5.552-5.159-9.874-15.446-19.293-21.194-19.408-.606-.012 1.555 5.265 4.804 11.728 3.248 6.463 6.149 13.336 6.446 15.275l.541 3.524-11.345 4.859c-42.915 18.379-98.947 49.491-135.055 74.992-18.087 12.774-16.359 11.081-14.387 14.091l1.7 2.595 5.699-4.121c19.389-14.019 46.387-31.255 69.699-44.497 19.989-11.355 81.705-41.468 84.986-41.468 1.009 0 .489 5.765-.952 10.553-1.133 3.764-1.191 5.041-.257 5.618 2.541 1.57 4.228-4.234 4.119-14.171-.106-9.675-2.299-17.895-7.539-28.25-2.927-5.784-.367-4.444 4.777 2.5 5.348 7.22 9.572 16.093 12.664 26.603 1.949 6.624 3.807 9.376 5.313 7.869.289-.289-.181-2.901-1.043-5.805-1.702-5.732-2.076-11.917-.72-11.917.467 0 1.624 1.721 2.573 3.825.949 2.104 2.783 5.142 4.075 6.75 1.949 2.426 2.458 2.648 2.985 1.302.38-.969-.597-3.567-2.423-6.446-1.682-2.652-3.058-5.376-3.058-6.053 0-.676 4.837-3.111 10.75-5.41 17.799-6.922 40.221-14.968 41.711-14.968.77 0 1.544 1.013 1.719 2.25.642 4.515 2.336 2.084 2.964-4.25.354-3.575 1.276-8.047 2.048-9.937l1.403-3.438 2.25 6.169c1.488 4.083 3.911 7.95 7.164 11.437l4.915 5.269.038-8.162c.047-10.137-2.126-21.833-5.377-28.932-2.966-6.48-1.708-7.178 1.886-1.046 3.505 5.982 5.489 12.175 6.324 19.746.516 4.677 1.104 6.394 2.193 6.394 1.02 0 1.709-1.548 2.192-4.925.387-2.709 1.434-7.209 2.325-10 1.897-5.938 8.745-19.974 11.502-23.575 1.683-2.198 1.608-1.532-.619 5.5-4.48 14.15-5.765 40.35-1.906 38.869 1.021-.392 1.329-2.468 1.196-8.075l-.178-7.547 18-5.374c20.274-6.054 66.217-17.727 86.299-21.927l13.299-2.781 5.201 5.069c2.86 2.788 10.44 8.826 16.843 13.418 17.171 12.313 30.102 23.322 42.942 36.562 18.926 19.515 30.426 36.37 36.156 52.995 2.655 7.703 2.938 9.649 2.579 17.722-.342 7.682-.85 9.887-3.324 14.417-5.343 9.787-17.085 18.025-33.495 23.501-4.125 1.376-15.15 4.104-24.5 6.062-42.607 8.922-58.484 17.056-58.496 29.971-.015 15.033 28.977 28.791 78.062 37.043 40.576 6.821 74.614 5.668 95.832-3.247 4.023-1.69 7.061-2.512 6.803-1.841-.256.666-4.815 23.251-10.131 50.187-6.371 32.277-10.343 50.169-11.652 52.476-13.105 23.104-19.896 42.105-19.911 55.715-.015 13.577 5.409 33.42 13.325 48.749 10.896 21.097 34.169 45.169 59.011 61.036l7.828 5-.605 8.432c-.679 9.46-2.807 18.659-5.565 24.066-1.802 3.533-1.801 3.646.063 4.81 1.05.656 2.39 1.192 2.978 1.192 1.804 0 6.061-10.645 7.513-18.785 2.838-15.916 1.349-47.702-3.494-74.568-1.005-5.581-1.669-10.321-1.474-10.534.195-.213 1.754 1.111 3.464 2.941 6.229 6.669 10.525 18.194 13.607 36.504 3.176 18.868 2.466 74.817-1.242 97.942l-.481 3 1.697-3c3.838-6.785 13.963-32.204 19.919-50.008 9.929-29.682 13.773-46.919 17.358-77.83 1.218-10.505 4.231-17.689 10.078-24.032 4.124-4.474 13.663-11.313 14.547-10.429.252.252-.861 2.897-2.473 5.878-9.498 17.56-13.723 49.354-12.747 95.921.488 23.317 2.83 58.872 4.122 62.59.213.614 1.741.891 3.495.633 2.878-.422 3.074-.696 2.562-3.59-.76-4.3-3.444-36.015-3.079-36.38.262-.263 46.457 14.799 47.516 15.492 1.233.808-8.505 33.855-11.78 39.974-1.058 1.978-.867 2.376 1.813 3.762l2.997 1.55 1.502-3.595c5.274-12.622 10.962-32.862 14.174-50.436 2.467-13.496 2.509-43.425.077-54.745-.975-4.534-2.036-9.034-2.36-10-.998-2.98 6.035 7.681 12.696 19.245 16.906 29.35 26.377 58.867 27.675 86.25l.58 12.25h5.495l.626-12.75c1.77-35.997 4.726-64.541 7.534-72.75l1.027-3-.462 3.5c-.254 1.925-.961 11.15-1.571 20.5-1.544 23.638-.115 40.287 4.183 48.75 1.048 2.063 2.161 3.75 2.474 3.75 2.512 0 17.951-23.943 21.361-33.127l1.253-3.373 1.376 5c7.432 26.997 9.48 53.615 4.97 64.572-.444 1.078.165 1.942 1.938 2.75 1.423.648 2.822 1.178 3.111 1.178 1.036 0 20.23-40.766 25.228-53.58 5.489-14.074 11.508-33.902 12.69-41.806.946-6.325 1.394-5.419 6.376 12.903 5.751 21.147 8.087 36.065 8.087 51.635 0 15.659-1.789 24.454-6.597 32.439l-3.479 5.777 2.099 2.066 2.099 2.066 2.044-2.49c6.05-7.371 9.537-18.845 10.497-34.539l.655-10.709 5.091.602c2.8.332 14.541 1.729 26.091 3.105 51.166 6.095 63.77 6.803 129 7.247 33.55.228 73.825-.014 89.5-.537 15.675-.524 28.609-.857 28.741-.741.133.116-.173 4.903-.679 10.637a1235.93 1235.93 0 00-1.585 20.175l-.664 9.75h3.032c3.468 0 3.59-.472 4.661-18 1.987-32.517 7.836-72.208 13.336-90.5l1.805-6 .633 12.5c1.068 21.097 6.712 46.975 17.181 78.767 8.143 24.731 11.178 32.187 12.102 29.733.414-1.1 1.577-4.142 2.584-6.759 2.787-7.243 7.592-26.273 8.9-35.241 1.313-9.008 1.599-26.218.573-34.5-.669-5.397-.652-5.447.907-2.7 2.781 4.9 8.311 23.159 10.408 34.366 2.959 15.812 4.065 29.261 4.065 49.44V2008h5.709l.564-10.227c.727-13.204-.809-38.753-3.157-52.49-1.014-5.931-1.792-10.847-1.73-10.925.324-.403 39.962-3.343 40.316-2.99.229.229-.286 4.115-1.143 8.635-2.565 13.52-1.53 29.543 1.981 30.685.573.187 1.841-.246 2.819-.961 1.588-1.161 1.648-1.812.568-6.101-2.477-9.838.721-28.046 8.667-49.348 4.89-13.112 13.572-31.542 14.398-30.564.365.432 1.181 5.061 1.812 10.286 2.105 17.409 14.033 59.562 22.216 78.509l2.156 4.991 2.336-4.563c10.526-20.559 9.344-68.588-3.598-146.112-2.173-13.021-5.518-31.433-7.433-40.917-1.914-9.483-3.249-17.474-2.966-17.757.909-.908 7.629 6.168 11.573 12.186 14.673 22.394 27.128 83.722 32.222 158.663l1.19 17.5h6l.746-10c2.062-27.655 11.47-58.481 26.266-86.066 8.755-16.321 23.865-38.467 34.715-50.878l3.448-3.944-3.228 12.944c-5.837 23.408-8.425 47.855-8.438 79.694L1455 1919h3c2.924 0 3-.124 3-4.888v-4.888l13.565-3.203c7.461-1.762 21.523-5.597 31.25-8.522 9.727-2.926 17.842-5.166 18.034-4.977.619.608-5.77 22.356-9.473 32.241-3.412 9.109-3.504 9.67-1.795 10.92.991.724 2.343 1.317 3.006 1.317 1.374 0 8.072-18.241 11.805-32.149 3.547-13.218 5.511-24.531 6.271-36.114l.655-10.007 1.998 3.885c6.057 11.779 11.666 32.259 11.677 42.635l.007 6.75h6.5l.008-45.25c.009-47.355.812-61.315 4.617-80.25 1.105-5.5 2.965-12.025 4.134-14.5l2.126-4.5.741 23.5c1.766 56.018 4.906 88.904 9.994 104.674 2.451 7.594 3.907 9.059 6.337 6.373 1.684-1.86 1.67-2.214-.311-8.081-1.14-3.374-2.834-11.102-3.766-17.173-1.588-10.338-1.588-11.097-.014-11.978 4.181-2.34 14.22-11.57 20.237-18.606 18.326-21.43 33.328-50.197 40.928-78.487 8.284-30.831 8.78-71.014 1.323-107.222-4.651-22.582-15.055-50.968-24.125-65.819-8.718-14.275-9.551-15.993-12.211-25.181-4.552-15.729-12.861-63.491-11.313-65.038.682-.682 51.01 2.735 96.306 6.539 50.05 4.204 49.881 4.187 51.074 5.121.597.467 1.688 2.674 2.423 4.904 1.584 4.797 4.623 5.226 4.293.606-.285-3.997-10.658-25.099-15.471-31.473l-4.074-5.396 6.872 3.613c3.78 1.987 10.164 6.09 14.188 9.118 4.024 3.028 7.551 5.506 7.838 5.506.287 0 .22-5.287-.148-11.75-.664-11.668.733-38.003 2.322-43.75.586-2.118 1.028 1.558 1.504 12.5.371 8.525 1.345 18.862 2.164 22.971 1.713 8.6 5.258 19.759 6.524 20.542 1.058.653 7.243-18.222 9.343-28.513 1.228-6.016 2.664-15.762 3.752-25.474.406-3.623 1.916 9.24 2.462 20.974.753 16.187-1.045 32.983-4.989 46.6-1.789 6.177-2.12 8.577-1.258 9.124 1.902 1.209 3.083.318 4.05-3.052.691-2.412 1.476-3.172 3.274-3.172 6.092 0 117.01 12.3 117.682 13.05.222.247.037 3.375-.41 6.95-1.307 10.447-2.277 41.039-1.498 47.273.58 4.642 1.066 5.727 2.561 5.727 1.735 0 1.849-1.28 1.904-21.25.087-31.879 3.998-58.897 11.328-78.25 3.418-9.023 5.079-11.657 3.702-5.872-1.945 8.178-2.205 28.451-.526 41.117 1.596 12.043 7.884 38.936 9.476 40.528.89.89 8.285-22.754 13.066-41.773 7.296-29.023 11.022-52.739 11.124-70.801.074-13.003.681-12.3 4.336 5.021 4.863 23.047 8.743 56.412 10.236 88.03.654 13.84.737 14.25 2.887 14.25 2.187 0 2.208-.14 1.703-11.572l-.51-11.572 3.392.571c1.866.314 19.368 2.622 38.893 5.129 19.525 2.508 48.488 6.333 64.363 8.502 15.875 2.168 29.004 3.942 29.175 3.942.172 0-1.432 4.022-3.564 8.937-8.8 20.29-13.985 41.996-13.96 58.444.016 10.707.626 13.619 2.853 13.619 1.428 0 1.634-1.66 1.638-13.25.004-14.537 1.528-23.586 6.678-39.662 3.237-10.108 4.032-10.347 5.281-1.588.393 2.75 2.495 10.4 4.672 17 4.798 14.547 18.723 43.503 19.905 41.391.438-.783 1.731-6.265 2.873-12.183 8.029-41.604 3.772-81.792-13.475-127.208-.696-1.833-.548-1.807 1.77.301 10.222 9.302 20.62 47.568 26.817 98.699 1.2 9.9 2.34 18.168 2.535 18.374 1.181 1.249 3.424-1.335 3.967-4.571 1.895-11.287 7.28-22.564 16.88-35.347 6.023-8.021 24.497-28.384 25.154-27.727.165.165-.597 3.443-1.694 7.285-3.853 13.494-1.087 43.938 5.257 57.86 1.287 2.826 1.695 3.027 3.635 1.796.986-.627.817-2.086-.782-6.734-3.334-9.69-5.978-24.659-5.978-33.843 0-4.726.113-8.586.25-8.577.137.009 13.072 1.995 28.744 4.414 29.653 4.576 30.339 4.578 29.762.075-.227-1.771-1.88-2.24-14.756-4.189a19286.1 19286.1 0 01-28.739-4.376l-14.239-2.18.638-2.63c1.497-6.176 5.577-13.5 10.306-18.5 3.44-3.638 4.871-5.89 4.447-6.997-.345-.898-.931-1.633-1.302-1.633-.976 0-17.546 14.227-24.807 21.3l-6.196 6.035-15.304-2.205c-8.417-1.213-16.492-2.438-17.943-2.723-2.435-.477-2.812-1.271-4.858-10.212-5.163-22.57-12.912-41.273-19.492-47.051-3.04-2.669-10.01-4.978-11.259-3.729-.299.299.685 3.283 2.188 6.63 4.056 9.039 8.29 21.959 11.609 35.43 3.786 15.364 3.802 16.626.201 15.986-6.938-1.235-97.334-13.368-138.432-18.58l-17.681-2.243-.641-7.569c-3.962-46.799-10.239-79.586-18.514-96.71-5.576-11.539-11.156-15.783-17.521-13.328l-2.961 1.143 4.706 2.41c5.895 3.019 9.285 8.524 11.427 18.557 3.423 16.032-.781 54.017-9.601 86.744l-1.182 4.384-6.131-.641c-3.372-.352-6.561-1.07-7.087-1.596-.53-.53-.948-8.2-.938-17.244.018-17.664 1.512-27.43 5.852-38.248 1.806-4.501 2.093-6.15 1.173-6.735-2.037-1.294-2.589-.966-5.808 3.445-7.502 10.282-15.244 30.113-18.543 47.5-1.386 7.303-2.11 9.25-3.437 9.25-.925 0-23.9-2.454-51.056-5.453s-53.2-5.815-57.875-6.256c-7.666-.724-8.479-.998-8.284-2.797.12-1.097.964-6.944 1.878-12.994 2.857-18.928.738-49.739-4.638-67.414-2.851-9.377-5.318-15.086-6.519-15.086-2.284 0-2.49 1.642-1.025 8.164 3.922 17.462 2.698 35.956-4.081 61.66-1.983 7.519-2.545 6.907-4.925-5.354-1.245-6.42-1.764-14.3-1.823-27.717-.046-10.311-.45-18.749-.899-18.75-2.296-.008-5.067 2.611-6.701 6.333-2.861 6.517-4.114 15.686-4.825 35.322l-.658 18.159-9.114-5.729c-18.846-11.845-31.134-11.672-33.081.466l-.633 3.946 4.167-3.75c2.292-2.062 4.728-3.748 5.414-3.746 4.317.013 11.948 8.58 17.678 19.846l2.212 4.35-3.822-.587c-8.463-1.3-101.762-8.625-129.98-10.205-12.094-.677-12.163-.695-12.677-3.294-.284-1.438-1.535-13.941-2.779-27.785l-2.263-25.172 11.604-22.828c23.924-47.062 34.83-78.789 37.88-110.198 1.691-17.413-.296-32.613-7.216-55.216-5.067-16.554-6.26-30.672-3.419-40.492 3.745-12.948 13.781-29.227 30.442-49.381 10.499-12.701 20.546-21.938 28.476-26.181 14.466-7.74 24.772-2.35 42.845 22.411 30.298 41.508 33.908 45.803 59.474 70.756 44.512 43.444 63.221 55.704 95.731 62.73 11.429 2.47 41.945 2.416 56.96-.101 33.706-5.65 78.16-20.324 123.39-40.73 43.078-19.435 65.094-36.162 65.189-49.529.05-7.042-8.443-13.722-20.81-16.367-8.735-1.869-33.492-2.44-47.845-1.105-7.053.657-20.473 2.49-29.823 4.076-33.271 5.64-40.235 6.381-60.5 6.441-14.828.043-21.314-.348-27.069-1.633-30.925-6.907-51.005-24.513-75.92-66.564-23.964-40.448-44.383-68.166-73.405-99.645-4.892-5.305-8.676-9.864-8.41-10.13.691-.691 45.416-12.774 57.177-15.447 8.199-1.864 10.026-2.014 10.779-.884 1.145 1.719.167 13.438-1.801 21.582-1.436 5.939-1.258 8.278.628 8.278 1.144 0 3.824-11.99 4.607-20.609.344-3.79.189-9.253-.344-12.141-.533-2.888-.839-5.25-.68-5.25.159 0 2.996 3.592 6.304 7.983 6.815 9.044 11.729 18.634 12.718 24.819.729 4.555 3.067 5.745 3.83 1.948.248-1.237.978-7.2 1.621-13.25 2.254-21.186 7.489-44.628 11.056-49.5.891-1.218.968-1.124.409.5-2.33 6.773-5.517 21.628-6.559 30.572-1.368 11.742-.705 32.631 1.362 42.928l1.304 6.5 3.066-6c3.555-6.955 7.786-18.878 9.445-26.612 1.057-4.932 1.233-5.175 2.097-2.886 1.836 4.865 3.785 17.267 3.785 24.086 0 5.477.311 6.912 1.5 6.912 1.214 0 1.496-1.574 1.478-8.25-.025-9.825-2.619-22.29-7.002-33.656-1.756-4.553-2.806-8.619-2.334-9.037 1.95-1.724 63.57-11.646 102.858-16.562 27.926-3.494 76.897-8.495 83.185-8.495 3.245 0 3.315.091 3.315 4.351 0 2.393-.506 5.802-1.124 7.576-.819 2.347-.825 3.524-.023 4.326 1.913 1.913 4.147-5.419 4.147-13.616 0-8.328-2.49-17.687-7.18-26.988-1.623-3.218-2.752-6.05-2.509-6.294 1.002-1.001 8.773 9.242 12.464 16.43 3.974 7.737 6.041 13.046 8.165 20.965.73 2.721 1.708 4.25 2.717 4.25 1.21 0 1.426-.639.927-2.75-.356-1.513-.902-5.9-1.212-9.75l-.564-7 2.65 5c4.127 7.787 6.219 10.214 7.611 8.827.902-.899.683-1.866-.938-4.143l-2.114-2.969 9.741-.585c5.358-.321 15.029-.864 21.492-1.206 10.662-.564 11.75-.797 11.75-2.523 0-2.298-3.094-2.395-28-.878-15.094.919-16.606.86-17.75-.7-1.695-2.313-1.577-8.789.224-12.272 1.267-2.45 1.275-3.014.062-4.021-1.694-1.406-3.309 1.303-6.109 10.245l-1.808 5.774-3.398-6.774c-5.629-11.22-10.845-17.221-17.721-20.389-5.805-2.673-7.033-2.448-4.695.864 4.675 6.621 12.195 24.051 12.195 28.264 0 1.445-1.537 1.803-10.25 2.386-48.198 3.227-135.168 15.103-184.636 25.213l-3.387.692.728-4.903c.599-4.029 4.965-18.678 7.242-24.293.728-1.797-4.424-.65-6.834 1.522-2.511 2.262-6.457 11.987-8.469 20.869-.996 4.4-2.189 8.265-2.65 8.588-.462.324-5.044 1.416-10.184 2.426l-9.345 1.838-6.692-6.792c-7.892-8.009-10.573-7.807-5.063.381 1.947 2.893 3.534 6.002 3.526 6.909-.011 1.31-3.776 2.557-18.25 6.048-10.03 2.419-26.064 6.618-35.631 9.331l-17.394 4.933-10.606-4.495c-21.633-9.17-39.289-14.36-58.732-17.263-13.578-2.028-41.915-1.45-53.373 1.088-44.548 9.868-81.401 40.37-106.052 87.775-3.33 6.403-6.033 10.57-6.306 9.721-.262-.819-5.088-31.188-10.723-67.488-8.087-52.088-10.341-68.887-10.695-79.695-1.141-34.888 7.593-64.776 24.071-82.365l5.205-5.555 15.5 5.988c17.91 6.918 34.794 12.18 48.72 15.182 7.935 1.711 15.347 2.268 39.28 2.954 16.225.464 31.9 1.323 34.833 1.908 8.042 1.603 12.907 4.099 29.029 14.892 24.776 16.588 45.658 26.773 72.832 35.523 27.181 8.752 52.666 12.764 81.286 12.796 40.584.046 75.146-7.643 114.907-25.564 26.001-11.719 59.17-33.101 83.003-53.509 3.635-3.113 11.469-8.222 17.408-11.354 38.264-20.176 77.416-50.685 100.939-78.657 43.622-51.873 51.637-104.277 24.173-158.044-15.543-30.429-39.976-51.074-73.355-61.982-28.008-9.153-63.119-11.259-125.055-7.504-29.389 1.782-49.2 1.598-59-.546-3.025-.662-12.925-4.346-22-8.186-126.02-53.325-251.353-84.147-321.368-79.031l-14.868 1.086-9.132-6.305c-37.167-25.66-89.027-50.189-146.132-69.116-69.683-23.096-141.508-36.366-230.5-42.586-22.266-1.556-103.083-1.54-125 .025-12.527.894-23.002.904-43.5.041l-27-1.136-4.275-2.961c-6.023-4.169-14.422-7.38-24.12-9.22-4.579-.868-8.497-1.579-8.705-1.579-.209 0-2.463-4.163-5.009-9.25-2.546-5.087-7.05-12.978-10.01-17.534-2.96-4.557-5.381-8.494-5.381-8.75 0-.256 42.188-.484 93.75-.505l93.75-.04-8.049-7.714c-13.565-12.999-32.91-24.991-48.451-30.034-10.8-3.505-15.993-4.312-27.518-4.28l-11.019.032-4.189-5.415c-10.108-13.063-29.522-23.736-50.274-27.638-9.496-1.785-32.612-1.472-44.477.604-5.487.96-15.251 3.188-21.697 4.952l-11.72 3.207-2.259-3.056c-1.243-1.681-5.835-7.044-10.204-11.917-28.452-31.733-62.091-47.916-87.643-42.164m26.356 5.068c8.719 2.222 20.686 8.222 31.1 15.594 9.989 7.071 27.187 23.595 35.883 34.477l5.704 7.137 7.728-2.48c16.119-5.171 28.883-7.37 46.229-7.966 18.95-.651 29.075.748 42.284 5.842 13.457 5.189 26.682 15.371 32.79 25.243l1.802 2.913 14.812.154c12.451.129 15.928.518 21.812 2.442 15.183 4.963 34.249 15.95 46 26.509l5 4.492-90.538.039-90.538.038-7.842-8.569c-33.193-36.268-75.709-46.936-123.212-30.917-17.228 5.81-43.347 20.317-61.989 34.43-3.674 2.781-7.27 5.056-7.992 5.056-.721 0-1.804-1.913-2.405-4.25-5.333-20.731-14.888-39.642-26.63-52.702-2.535-2.819-4.439-5.288-4.232-5.485.909-.866 39.216-15.626 47.233-18.2 8.476-2.722 9.063-3.104 13.693-8.923 9.455-11.883 19.991-19.884 31.559-23.966 8.371-2.953 22.174-3.348 31.749-.908m-166.564 35.012c25.536 5.226 45.273 21.601 58.966 48.922 4.737 9.452 9.698 23.818 11.383 32.962.663 3.596 1.464 6.531 1.782 6.523.317-.009 4.627-3.216 9.577-7.128 27.176-21.478 57.234-36.668 84-42.449 12.642-2.731 33.399-2.343 45.511.849 11.938 3.146 20.994 7.231 31.439 14.181 20.06 13.347 38.952 36.156 50.752 61.272 3.662 7.796 4.045 8.239 7.577 8.769 9.092 1.364 18.107 3.767 22.721 6.056l5 2.481-16-.528-59.5-1.973c-142.59-4.737-255.061-4.368-313.291 1.027l-15.791 1.463-11.209-2.98C524.661 321.933 433.602 305.362 368 299.133l-18.5-1.756 8-5.202C373.458 281.8 391.551 277 414.7 277h13.886l1.938-5.703c2.638-7.759 8.029-15.799 14.616-21.797 11.069-10.078 22.987-14.305 42.86-15.199 18.68-.84 34.744 1.69 59.022 9.296l11.523 3.61 9.477-5.782c19.465-11.874 45.668-23.693 61.978-27.953 17.44-4.556 36.315-5.653 49.792-2.894m1399.58 93.672c-7.834 12.552-22.018 28.647-34.291 38.912-24.478 20.473-52.181 33.834-82.636 39.854-14.165 2.8-38.261 3.705-53.585 2.013-29.728-3.283-59.261-14.48-83.86-31.795-15.905-11.195-44.882-41.946-48.561-51.532-.613-1.598 8.695-1.702 152.467-1.702h153.119l-2.653 4.25M356.5 306.453c66.381 5.839 142.438 19.034 217.5 37.731 15.675 3.904 29.175 7.101 30 7.105.825.003 9.825-.73 20-1.629 30.93-2.734 64.401-3.646 134-3.653 84.685-.008 164.663 1.944 271.5 6.626 31.822 1.395 41.902 1.477 62 .506 29.479-1.424 89.56-1.49 114.5-.126 108.834 5.953 205.561 27.14 292.5 64.07 30.604 13 68.74 33.63 89 48.146l9 6.449 7-.788c10.078-1.134 43.129-1.061 56 .124 74.152 6.824 167.33 33.764 281.879 81.498 4.884 2.035 12.309 4.311 16.5 5.059 10.017 1.787 36.403 1.76 66.621-.066 28.602-1.728 58.027-1.906 73.076-.442 55.096 5.361 89.844 26.635 110.323 67.542 27.985 55.901 14.077 111.576-41.243 165.103-21.334 20.641-49.508 41.084-79.156 57.433-8.621 4.754-17.973 10.814-21.99 14.25-40.988 35.053-92.407 61.455-138.204 70.962-21.222 4.406-28.826 5.147-52.806 5.147-23.96 0-31.588-.742-52.731-5.131-32.929-6.835-66.332-20.827-93.625-39.217-16.56-11.158-16.983-11.4-48.949-28.024-110.377-57.4-174.105-84.53-222.033-94.522-18.106-3.775-29.276-4.931-47.162-4.882-25.559.07-44.303 3.127-97.5 15.901-64.559 15.503-103.985 22.97-157.5 29.831-91.333 11.709-214.204 16.994-290 12.475-198.331-11.827-356.546-87.159-475.667-226.485-30.422-35.582-62.622-81.458-96.823-137.946-42.215-69.724-48.714-78.144-68.047-88.164-14.389-7.457-22.492-9.681-33.284-9.134-12.566.637-20.362 5.174-27.201 15.832-3.512 5.473-7.978 18.35-7.978 23.004 0 2.769.251 2.962 3.841 2.962h3.841l1.246-5.75c5.961-27.494 24.601-34.981 52.572-21.116 19.618 9.725 25.363 16.854 61.412 76.207 32.925 54.212 49.42 79.235 72.927 110.635C394.592 621.081 447.168 673.495 497.31 709c5.826 4.125 10.614 7.748 10.641 8.05.144 1.625-53.844 20.248-82.451 28.442-77.158 22.098-132.119 25.256-164.303 9.439-14.507-7.13-18.52-12.33-30.558-39.604-9.711-21.999-17.34-33.279-37.179-54.969-6.759-7.391-13.505-15.842-15.235-19.087-6.753-12.671-10.166-30.603-12.231-64.271-3.283-53.514-13.017-115.095-27.063-171.205-4.449-17.776-4.762-23.227-1.959-34.186 9.843-38.485 50.596-60.621 122.528-66.556 16.043-1.323 75.859-.46 97 1.4m1087 469.977c24.217 4.362 49.364 11.868 78.813 23.525 16.238 6.428 50.89 21.557 59.891 26.149l4.123 2.103-8.555 3.218c-11.88 4.469-21.7 10.563-30.514 18.935-9.393 8.922-15.024 16.768-20.824 29.011-8.191 17.291-11.495 34.749-11.476 60.629.012 16.093.306 18.389 11.918 93.064l11.906 76.563-6.281 22.937c-13.699 50.023-24.894 103.313-29.924 142.436-3.002 23.354-3.815 38.18-3.282 59.831.577 23.451.568 23.397 9.811 61.102 7.509 30.633 13.814 46.824 21.894 56.229 10.005 11.645 24.878 11.949 41.5.848l6-4.007.692 6.248c.38 3.437 1.418 13.899 2.306 23.249 3.504 36.914 8.095 66.761 13.548 88.087 3.326 13.008 6.17 19.806 11.699 27.966 5.441 8.031 10.183 17.756 15.091 30.947 11.775 31.652 16.859 61.645 15.848 93.5-.614 19.32-2.235 30.826-6.732 47.774-8.315 31.334-27.412 64.549-48.155 83.754l-6.247 5.783-.682-3.406c-.924-4.616-2.674-39.074-3.487-68.655l-.667-24.25h-3.457c-4.59 0-9.261 4.686-12.008 12.048-4.626 12.4-8.186 44.321-8.303 74.452-.033 8.8-.373 17.733-.754 19.85l-.692 3.851-3.336-7.851c-3.554-8.361-15.608-29.888-17.334-30.955-.567-.351-1.926.257-3.019 1.35-1.976 1.976-1.976 2.011-.035 5.871 2.195 4.366 3.832 11.219 4.63 19.384.724 7.411-.971 23.101-2.611 24.171-3.911 2.551-57.429 17.829-62.453 17.829-1.502 0-1.597-1.564-1.012-16.75 1.456-37.857 7.189-68.381 16.214-86.329 3.634-7.226 9.843-13.674 25.456-26.437 5.225-4.272 10.175-8.442 11-9.268 1.374-1.376-15.014 6.911-24.5 12.388-3.803 2.196-18.551 17.331-30.594 31.396-23.413 27.344-42.898 61.255-52.574 91.496-4.638 14.496-5.065 15.504-6.568 15.504-.918 0-1.925-5.573-3.569-19.75-7.62-65.726-19.785-107.984-35.636-123.794-4.071-4.061-7.409-6.439-10.175-7.25-4.165-1.22-8.384-1.593-8.384-.741 0 .256 1.362 6.852 3.026 14.658 9.195 43.125 17.771 100.252 19.59 130.496l.669 11.119-7.747.726c-4.261.4-8.11.346-8.552-.119-1.228-1.29-4.868-20.067-5.992-30.903-1.021-9.842-.609-14.632 2.542-29.615.805-3.827 1.456-7.266 1.446-7.642-.03-1.137-9.743 16.466-16.726 30.315-3.606 7.15-9.148 19.5-12.317 27.445-3.853 9.661-6.37 14.663-7.6 15.102-1.012.362-9.489 1.193-18.839 1.848-9.35.655-18.812 1.433-21.027 1.728l-4.028.537-2.292-7.33c-4.648-14.864-17.726-37.578-22.746-39.504-.815-.313-2.296.168-3.291 1.069-1.741 1.575-1.723 1.816.476 6.411 3.785 7.909 6.451 19.113 7.089 29.789l.603 10.094-4.782.656c-2.629.36-7.362.655-10.517.655-5.444 0-5.765-.139-6.335-2.75-7.868-36.063-9.749-51.679-7.847-65.131 1.24-8.766 3.994-16.21 7.301-19.729 1.885-2.008 5.396-3.845 12.396-6.489l3-1.133-3.5-1.308c-7.844-2.931-13.102-1.41-19.463 5.63-9.965 11.031-18.146 37.624-23.66 76.907l-2.216 15.793-21.581.816c-11.869.448-50.605.817-86.08.82-66.756.005-71.1-.177-119-4.989-16.916-1.7-53.092-6.194-53.544-6.652-.155-.157-1.046-4.776-1.98-10.264-3.181-18.696-13.243-54.528-20.291-72.26-1.455-3.66-15.083-20.697-15.901-19.878-.162.162 2.687 7.229 6.331 15.706l6.626 15.411-.557 8c-.307 4.4-1.297 11.6-2.202 16-1.558 7.58-8.575 29.823-11.859 37.592l-1.518 3.592-8.742-1.602-8.742-1.601-2.672-10.491c-5.104-20.041-7.174-26.118-8.697-25.533-.779.299-2.054.543-2.834.543-.976 0-1.418 1.189-1.418 3.818 0 4.944-2.474 13.194-6.127 20.432-3.042 6.027-3.656 6.343-9.887 5.097l-3.265-.653.58-20.097c.511-17.69 2.651-42.781 4.211-49.372.486-2.051.265-2.212-2.237-1.631-4.727 1.097-6.993 3.13-9.733 8.731-3.332 6.811-6.062 19.906-8.224 39.449l-1.689 15.273-2.631-8.773c-9.188-30.642-28.589-65.047-53.383-94.671l-2.425-2.898-2.581 2.031c-2.559 2.013-2.565 2.05-.701 4.42 6.506 8.271 12.932 24.11 15.73 38.773 2.529 13.251 2.158 46.546-.567 50.956-.929 1.504-7.867-.466-33.698-9.569l-16.126-5.683-.624-5.963c-.922-8.829-.74-29.219.41-45.67 3.009-43.06 12.841-67.6 27.848-69.502 11.319-1.435 11.119-1.354 11.119-4.543 0-2.926-.055-2.955-5.678-2.955-7.885 0-26.264 5.865-33.875 10.809-12.238 7.951-19.527 19.249-21.413 33.191a5006.48 5006.48 0 00-2.632 19.925c-.89 6.834-3.404 19.434-5.587 28-2.184 8.566-4.213 16.588-4.509 17.825-.662 2.761-1.336 2.786-6.346.23l-3.96-2.021v-7.428c0-4.086-.669-12.53-1.486-18.766-4.229-32.26-13.772-49.299-29.764-53.142-3.327-.8-3.315-.971-.75 11.377 3.79 18.242 7.946 53.003 6.335 52.997-1.959-.008-23.394-16.934-32.097-25.346-21.334-20.621-33.302-42.064-37.759-67.651-2.007-11.525-1.442-18.224 2.545-30.186 2.527-7.582 9.714-22.883 15.883-33.814 1.291-2.288 5.437-20.981 11.978-54 5.501-27.775 12.983-64.225 16.625-81 11.857-54.6 25.516-108 27.627-108 .474 0 .863 3.169.863 7.043 0 16.569 5.299 52.023 10.979 73.457 20.47 77.249 63.718 123.396 127.905 136.476 13.565 2.765 16.116 2.702 16.116-.394 0-1.33.235-3.03.521-3.777.396-1.031-2.071-1.789-10.25-3.15-12.535-2.087-30.857-7.923-41.392-13.186-50.885-25.419-82.735-81.211-93.438-163.674-2.214-17.064-2.982-51.188-1.526-67.795 2.009-22.895 9.003-71.44 10.685-74.162.582-.942 9.01-6.838 9.775-6.838.283 0-.659 2.563-2.093 5.695-5.389 11.771-3.972 25.063 3.138 29.435 15.872 9.761 25.967.689 38.016-34.164 2.573-7.443 5.028-14.098 5.455-14.789.553-.895 3.372-1.173 9.804-.967l9.027.29-3.398 8.817c-8.958 23.24-13.809 52.084-11.39 67.718 1.516 9.795 4.859 16.943 9.62 20.572 3.634 2.77 4.247 2.893 14.371 2.89 12.729-.004 18.903-1.833 25.356-7.513 7.435-6.545 8.876-11.345 9.747-32.484.679-16.446 1.022-18.863 3.977-28 3.567-11.028 8.459-21.5 10.044-21.5.561 0 6.292 2.082 12.735 4.627 13.996 5.526 37.46 17.139 50.959 25.218 11.626 6.96 35.04 21.548 37.5 23.367 1.599 1.181 1.289 1.868-3.745 8.288-7.965 10.159-12.177 18.865-15.593 32.227-3.085 12.072-6.108 20.072-14.378 38.048-6.003 13.048-6.496 18.555-2.075 23.173 1.624 1.696 4.774 3.548 7 4.116 2.227.568 9.462 2.585 16.079 4.484 15.764 4.523 22.867 4.639 30.098.492 11.002-6.311 19.404-23.273 27.414-55.342 1.676-6.709 4.451-16.817 6.166-22.464 2.562-8.436 3.418-10.17 4.801-9.731 13.168 4.18 39.322 9.128 53.512 10.126l9.478.666.008 7.103c.01 10.217 1.591 18.705 5.606 30.102 5.449 15.469 7.243 22.774 8.943 36.408 2.554 20.498 7.141 27.036 20.102 28.655 2.844.356 8.339.112 12.209-.541 9.198-1.551 14.85-5.26 18.677-12.255 2.482-4.536 2.937-6.605 3.28-14.911.498-12.047-1.298-21.376-7.866-40.856-4.786-14.192-6.936-23.832-6.951-31.156l-.008-3.656 5.25-.652c21.747-2.701 54.319-10.01 77.465-17.384l12.216-3.891 1.009 3.119c3.724 11.509 5.245 21.215 6.055 38.62 1.33 28.618 5.67 41.679 17.972 54.093 11.032 11.132 19.466 12.433 32.033 4.942 3.575-2.131 9.425-5.08 13-6.553 8.555-3.525 12.581-6.682 13.997-10.974 1.845-5.589-.5-12.736-7.303-22.261l-3.038-4.254-.241-19.746c-.27-22.046-2.175-38.746-5.881-51.532-1.357-4.683-2.595-9.101-2.75-9.818-.387-1.779 15.34-7.646 26.716-9.967 10.887-2.221 24.109-3.589 43.639-4.515l14.638-.694.729 4.315c.401 2.374 2.543 7.724 4.76 11.89 3.857 7.246 4.031 7.964 4.012 16.574-.011 4.95-1.018 16.2-2.238 25-3.914 28.239-2.166 41.708 6.187 47.666 7.442 5.307 28.443 2.909 37.057-4.231 11.594-9.611 12.829-25.678 6.008-78.151-1.481-11.394-2.371-21.038-1.978-21.431 1.308-1.308 65.093 2.749 89.072 5.666 14.47 1.76 23.712 8.178 31.292 21.733 9.266 16.569 14.241 39.737 15.892 73.998l.686 14.25H1507v-9.578c0-23.196-4.192-50.483-10.441-67.967-6.489-18.157-16.06-30.623-28.04-36.52-4.953-2.438-8.611-3.314-18.592-4.453-15.745-1.795-47.537-4.259-64.427-4.994-7.15-.311-15.362-.805-18.25-1.099l-5.25-.533v-4.863c0-11.264 5.13-28.289 14.129-46.894 7.45-15.402 8.828-21.304 6.436-27.567-2.431-6.366-5.977-8.841-18.527-12.931-12.396-4.04-17.649-4.415-23.654-1.688-8.135 3.694-12.543 12.334-20.37 39.928-8.069 28.445-9.02 32.23-10.97 43.659l-1.706 10-7.919.224c-30.482.863-54.522 4.406-70.484 10.389l-11.065 4.147-1.652-2.36c-.909-1.297-3.798-4.728-6.419-7.622-9.792-10.813-15.464-26.649-16.396-45.778-.722-14.826-1.873-19.52-5.951-24.285-4.613-5.39-9.942-6.759-18.067-4.643-7.673 1.998-12.908 5.142-18.481 11.1-9.187 9.822-13.075 23.018-13.108 44.501l-.022 13.674 5.708 12.29c7.833 16.866 11.769 27.022 10.817 27.911-1.364 1.276-22.921 7.893-38.995 11.97-15.208 3.858-42.821 8.982-48.4 8.982-2.579 0-2.904-.346-2.904-3.093 0-4.958 3.787-22.158 6.972-31.665 5.737-17.122 6.703-37.1 2.241-46.308-3.394-7.002-7.639-8.934-19.631-8.934-11.182 0-15.26 1.323-20.838 6.758-6.224 6.064-7.852 12.033-8.821 32.332-1.014 21.246-2.807 30.669-7.992 42.002-2.162 4.725-3.931 9.179-3.931 9.897 0 2.611-27.67-.769-50.25-6.139-7.013-1.667-12.75-3.5-12.75-4.073 0-2.083 4.032-7.484 8.851-11.856l4.932-4.474.735-8.82c.927-11.13.046-18.714-2.927-25.209-3.031-6.622-6.782-9.168-16.141-10.959-15.549-2.975-25.048-1.291-30.717 5.446-2.726 3.24-5.733 11.532-5.733 15.809 0 4.448-7.85 19.286-10.203 19.286-1.206 0-12.533-6.716-31.235-18.521-17.134-10.815-44.038-24.702-60.062-31.002-6.6-2.595-12.37-5.056-12.823-5.47-1.107-1.012 6.889-10.693 12.138-14.697 2.319-1.768 6.974-3.989 10.344-4.935 12.913-3.623 23.296-13.663 30.895-29.875 5.339-11.391 7.102-17.054 7.693-24.723.972-12.614-2.55-16.311-17.17-18.022-6.708-.785-12.847-.801-21.362-.056-11.711 1.025-12.075 1.131-18.237 5.316-13.584 9.224-17.627 14.444-19.067 24.612-.578 4.082-2.187 9.012-4.165 12.762-4.156 7.879-19.375 23.431-26.364 26.941-2.816 1.414-6.846 4.393-8.957 6.62l-3.837 4.05h-9.794c-6.394 0-9.794-.378-9.794-1.089 0-2.542 9.283-19.965 14.073-26.411 9.63-12.96 14.106-26.54 15.5-47.021.719-10.58-.806-33.041-2.886-42.479-1.189-5.395-1.307-5.532-6.199-7.206-6.215-2.126-13.689-2.258-17.459-.309-7.304 3.777-10.151 12.939-10.176 32.743-.021 17.129-1.653 27.425-6.783 42.772-4.314 12.908-15.698 38.232-22.846 50.82-4.475 7.881-5.111 8.531-12.073 12.338l-7.349 4.019.672-3.338c2.106-10.471 12.234-50.512 16.02-63.339 13.182-44.654 30.833-90.235 48.93-126.347 5.967-11.909 6.394-13.168 4.812-14.187-1.61-1.036-1.603-1.075.096-.542 1.007.317 2.224.576 2.703.576.479 0 1.763 2.016 2.854 4.481 1.422 3.216 3.341 5.343 6.796 7.535 8.254 5.235 13.125 6.253 31.315 6.542 9.075.144 19.875.553 24 .909 16.524 1.427 34.546 3.705 35.318 4.464.45.443.319 3.559-.292 6.924-1.588 8.756-1.36 25.579.439 32.412 4.705 17.872 16.359 28.13 35.035 30.839 4.4.638 8.11 1.248 8.243 1.354.134.106-1.103 3.884-2.75 8.396-1.702 4.665-2.993 10.186-2.993 12.803 0 5.485 7.666 29.033 12.317 37.836 3.856 7.299 15.118 18.747 23.04 23.422 19.856 11.716 53.863 18.011 90.876 16.821 18.221-.586 29.594-2.492 40.911-6.855 19.734-7.608 32.24-20.685 36.316-37.976 1.889-8.015 1.897-12.542.036-21.407-3.444-16.402-14.393-31.108-28.089-37.727-4.201-2.03-7.359-4.283-8.125-5.797-1.784-3.526-1.575-9.462.61-17.344l1.893-6.824-3.361-1.404c-1.848-.772-3.581-1.404-3.852-1.404-1.443 0-4.57 13.971-4.556 20.355.024 10.442 2.289 13.95 12.511 19.38 9.926 5.273 16.598 12.219 21.353 22.23 3.081 6.486 3.599 8.669 3.948 16.647.47 10.758-1.141 16.897-6.621 25.22-11.399 17.315-40.418 26.499-78.207 24.753-41.359-1.911-66.924-9.528-81.844-24.385-7.968-7.936-11.333-14.101-17.172-31.469-4.11-12.223-4.243-12.993-3.121-18 1.459-6.506 9.666-23.584 18.613-38.731 8.742-14.8 30.717-47.844 42.895-64.5l9.505-13-2.688-2.245c-1.478-1.235-3.088-2.247-3.578-2.25-1.076-.006-.749-.431-15.189 19.745-9.252 12.927-12.102 16.25-13.933 16.25-7.36 0-56.187-8.03-67.488-11.099-4.125-1.12-10.65-2.201-14.5-2.402-3.85-.201-13.3-1.101-21-2.001-7.7-.9-22.55-1.85-33-2.113-18.775-.471-25.638-1.519-31.475-4.804-2.301-1.294-1.984-1.393 4.5-1.403 6.88-.011 14.527-2.01 40.975-10.71 5.113-1.682 11.279-2.832 17.087-3.187 8.823-.539 9.491-.421 23 4.076 20.019 6.664 29.726 8.627 45.913 9.285 11.725.476 15.583.24 23.745-1.456 11.534-2.396 21.96-6.954 30.318-13.252 3.334-2.514 9.039-5.963 12.677-7.666 9.083-4.25 17.728-10.288 22.514-15.725 11.357-12.903 6.008-25.817-14.868-35.899-14.087-6.803-45.04-18.959-63.771-25.044-31.5-10.233-54.434-14.116-78.615-13.311-19.977.665-35.078 4.031-48.75 10.865-3.162 1.581-5.75 2.673-5.75 2.426 0-.246 2.924-5.765 6.499-12.264 7.841-14.256 13.814-27.648 16.22-36.364 1.504-5.448 1.778-10.576 1.76-32.952-.022-28.449-1.121-41.582-6.569-78.5-1.624-11-3.229-21.913-3.567-24.25-.409-2.825-.241-4.25.499-4.25.613 0 6.637.894 13.386 1.988 64.588 10.461 147.591 12.592 252.272 6.478 105.438-6.158 174.684-16.256 274-39.956 36.839-8.792 56.243-12.844 69-14.41 4.95-.608 10.125-1.297 11.5-1.532 5.96-1.016 42.941.321 51.5 1.862m194.856 77.32l37.144 18.75-16.5.301c-26.108.476-44.127-2.474-71-11.624-21.504-7.322-28.209-10.22-27.002-11.674 1.808-2.18 19.05-10.443 26.002-12.462 11.902-3.457 10.509-3.91 51.356 16.709M416.575 842.001c-13.562 2.432-23.218 7.697-32.857 17.915-9.428 9.995-16.851 24.103-21.187 40.271l-1.794 6.687-6.618-5.313c-18.881-15.155-39.098-25.546-57.536-29.571-7.165-1.564-24.086-1.298-31.083.489-3.3.843-10.272 3.629-15.493 6.191-8.166 4.007-10.914 6.07-19.647 14.744-10.896 10.824-19.783 23.4-25.477 36.054l-3.263 7.25-5.856 1.089c-7.416 1.379-15.305 4.973-20.039 9.13-7.473 6.561-12.415 21.393-11.101 33.313l.634 5.75h523.534l3.24-5.05c5.322-8.293 8.299-16.698 8.307-23.45.009-7.187-1.764-10.996-7.338-15.767-3.947-3.379-14.745-7.719-19.272-7.747-4.992-.03-6.747-1.347-11.12-8.343C649.497 904.665 628.079 893 602.67 893h-8.199l-3.265-7.008c-11.829-25.388-41.347-32.221-81.893-18.956l-9.187 3.005-6.813-4.393c-28.02-18.068-57.386-27.117-76.738-23.647m28.015 6.004c13.932 3.531 29.7 10.732 46.025 21.017l9.177 5.781 9.854-3.346c15.479-5.257 24.581-6.725 38.657-6.237 9.495.329 13.449.913 17.85 2.637 11.058 4.331 18.588 12.25 22.912 24.094l2.026 5.549 11.204.031c13.206.037 19.252 1.338 30.575 6.578 6.893 3.19 9.811 5.331 16.536 12.132 4.939 4.994 9.436 10.683 11.376 14.391 3.253 6.216 4.817 7.326 10.363 7.354 1.454.008 5.596.926 9.204 2.04 16.422 5.072 19.895 16.088 10.666 33.827L686.777 982H168.755l.427-8.927c.354-7.408.931-9.914 3.39-14.722 4.76-9.306 14.566-15.402 27.428-17.049l4.5-.576 5.663-11.659c6.746-13.889 14.795-25.026 24.984-34.567 14.058-13.165 26.504-18.563 44.353-19.235 9.374-.354 12.434-.044 20.706 2.091 17.249 4.454 34.125 13.707 53.396 29.275l10.102 8.162 1.741-8.1c6.623-30.823 23.968-53.277 45.66-59.11 8.113-2.182 24.002-1.982 33.485.422m1452.011 145.542c1.6 6.374-.152 19.812-4.077 31.264-5.134 14.984-5.963 13.477-5.998-10.907-.028-20.111.286-21.428 5.297-22.195 1.472-.225 3.006-.477 3.408-.559.402-.083 1.019.996 1.37 2.397M1878 996.959c0 2.122-1.825 16.115-2.584 19.815-.387 1.89-1.045 1.164-3.886-4.286-1.881-3.609-4.806-8.311-6.499-10.449l-3.079-3.887 5.774-1.139c3.176-.627 6.224-1.301 6.774-1.497 2.375-.85 3.5-.386 3.5 1.443m170.437.399c-12.927 4.807-17.526 11.404-19.351 27.758-1.14 10.218-4.411 23.885-8.468 35.384l-2.469 7-.075-11.678c-.135-21.274-3.231-34.845-9.455-41.444-3.742-3.968-9.181-5.785-8.274-2.764 4.058 13.511 5.552 45.669 2.444 52.614-1.836 4.103-.518 6.489 1.819 3.293 3.752-5.131 4.301-29.279 1.04-45.771-.734-3.712-.974-6.75-.533-6.75 1.575 0 5.826 8.642 7.385 15.014 2.158 8.82 2.986 32.051 1.619 45.403-.615 6.005-.94 11.096-.722 11.313.593.594 10.065-23.998 12.992-33.73 3.17-10.543 5.222-20.381 6.151-29.5.954-9.361 2.889-13.855 7.758-18.023 2.234-1.912 4.379-3.477 4.766-3.477.387 0-.377 2.676-1.699 5.947-4.277 10.59-5.635 23.82-4.984 48.553.677 25.729 1.285 31.5 3.316 31.5 1.211 0 1.308-1.692.62-10.75-1.436-18.891-.933-47.76.99-56.904 3.164-15.045 6.839-20.691 14.185-21.793 2.942-.441 4.508-1.175 4.508-2.114 0-2.166-6.438-1.73-13.563.919m-344.411 3.695c18.728 2.327 34.338 6.523 56.474 15.183l13 5.085 10.389 10.59c25.672 26.167 48.415 56.522 72.867 97.255 23.361 38.917 36.706 53.639 59.107 65.209 14.264 7.367 24.96 9.762 46.308 10.368 20.372.578 32.666-.475 61.329-5.251 31.021-5.169 37.687-5.854 57-5.856 13.491-.002 19.701.418 24.79 1.676 17.056 4.215 18.251 8.416 5.7 20.037-22.802 21.11-110.97 58.008-162.499 68.005-53.261 10.333-86.93 2.563-124.112-28.642-15.904-13.347-53.069-50.477-63.235-63.174-5.304-6.624-14.594-18.986-20.644-27.469-12.913-18.108-24.267-30.536-31.486-34.465-17.806-9.691-37.328.797-64.018 34.396-15.877 19.986-24.249 34.77-27.98 49.41-3.397 13.328-2.721 20.135 4.479 45.09 5.718 19.817 6.911 28.553 6.2 45.386-.707 16.732-3.146 28.674-10.135 49.614-6.428 19.259-11.933 32.27-23.239 54.929-13.577 27.212-14.852 29.225-21.719 34.318-27.606 20.471-39.602 11.386-53.137-40.247-5.635-21.495-10.22-42.461-11.372-52-4.464-36.963 4.614-104.884 24.903-186.324 11.919-47.841 17.546-64.603 27.73-82.594 26.566-46.933 63.949-74.802 107.909-80.447 9.857-1.266 25.569-1.303 35.391-.082m-858.629 6.929c24.144 4.128 45.937 10.841 80.103 24.674 33.477 13.555 40.5 18.077 40.5 26.08 0 5.548-8.745 13.614-21.624 19.944-5.432 2.67-12.236 6.725-15.121 9.012-13.815 10.952-34.97 15.917-56.755 13.321-22.378-2.667-44.298-10.383-86-30.27-28.768-13.719-32.017-14.893-41.5-14.995-7.816-.084-7.098-.288-39 11.083-4.675 1.667-10.684 3.345-13.354 3.729-4.736.681-4.827.646-3.708-1.443 1.855-3.467 12.721-11.886 35.142-27.228 11.566-7.914 21.566-14.702 22.224-15.084.658-.382 4.791-2.814 9.184-5.405 14.057-8.288 28.768-13.248 45.513-15.343 10.441-1.307 30.602-.433 44.396 1.925m311.226 7.129c-25.569 1.63-45.309 6.135-60.474 13.802-7.47 3.776-7.967 3.88-21.264 4.463-30.517 1.336-59.944 7.714-74.232 16.087-23.236 13.617-19.995 37.45 7.526 55.338 5.682 3.693 6.716 4.825 7.31 8 2.29 12.232 14.018 25.782 28.511 32.942 4.675 2.309 11.509 4.984 15.188 5.944l6.687 1.745v6.436c0 11.729 8.283 24.068 22.484 33.495 18.591 12.339 51.501 23.684 68.522 23.62 13.972-.053 28.017-5.902 38.095-15.865 12.293-12.152 19.728-28.385 24.558-53.618.368-1.924 1.193-2.002 21.674-2.04 23.125-.043 34.868-1.312 46.84-5.057 12.699-3.974 19.673-9.873 21.415-18.114.789-3.731 1.087-3.724 15.507.369 10.681 3.032 24.731 5.333 32.598 5.338 14.598.01 23.482-6.56 23.411-17.311-.067-10.16-12.391-31.081-25.924-44.011-30.04-28.7-87.083-47.517-156.555-51.645-18.841-1.119-23.167-1.111-41.877.082m52.073 8.941c62.803 5.159 116.232 24.093 142.715 50.576 6.679 6.68 16.022 20.374 18.69 27.396 2.44 6.421 2.471 12.148.079 14.313-5.162 4.671-19.838 4.045-43.18-1.844-40.195-10.141-135.762-18.867-170.89-15.604-21.144 1.964-31.797 5.123-38.893 11.534-2.169 1.959-6.592 4.803-9.83 6.32-5.632 2.638-6.558 2.757-21.387 2.757-11.112 0-17.838-.504-23.758-1.782-27.989-6.04-54.462-19.801-64.167-33.353-5.165-7.212-5.954-11.917-3.018-17.983 6.37-13.158 38.589-22.708 84.368-25.005 13.486-.677 14.03-.791 18.862-3.974 8.692-5.724 29.013-11.147 49.713-13.267 12.305-1.26 45.816-1.306 60.696-.084m-452.491 42.264c7.245 2.666 45.787 20.927 45.792 21.697.002.282-3.484 1.479-7.747 2.66-4.263 1.182-14.5 4.242-22.75 6.801-11.276 3.498-16.117 4.549-19.5 4.235-7.576-.703-47.356-11.332-53.293-14.239-3.073-1.505-6.76-3.96-8.193-5.456l-2.606-2.719 5.796-.616c5.94-.631 16.728-4.008 30.683-9.604 14.373-5.765 21.879-6.415 31.818-2.759m459.295 41.761c23.327 1.566 74.026 7.316 83.25 9.442 3.044.702 2.984 4.838-.116 7.938-8.117 8.117-25.758 11.599-58.801 11.605-17.656.004-22.901-.373-36-2.591-26.551-4.495-48.121-7.467-54.205-7.469-15.014-.005-43.209 6.205-66.423 14.63l-12.705 4.611-7.5-2.151c-15.886-4.555-28.827-13.03-35.178-23.038-3.741-5.894-3.759-7.59-.059-5.677 6.01 3.109 23.867 8.686 34.509 10.78 13.267 2.609 32.233 3.045 40.728.935 7.236-1.797 14.153-5.332 18.997-9.708 7.134-6.445 17.91-9.218 40.003-10.294 15.519-.756 32.098-.45 53.5.987m-365 24.313l5 1.351-2.815 1.129c-3.547 1.424-4.958 1.418-8.138-.031-2.595-1.182-3.07-1.983-1.88-3.172.931-.932 2.116-.822 7.833.723m311.417 4.232c.229.208-.485.378-1.586.378-1.606 0-2.346 1.24-3.733 6.25-3.335 12.047-10.871 20.394-22.445 24.861-7.093 2.737-26.033 3.763-35.408 1.919-12.463-2.452-17.077-6.526-16.553-14.615l.308-4.759 5.668-1.884 5.668-1.884 4.832 3.702c6.188 4.74 10.223 6.41 15.488 6.41 6.996 0 12.75-5.25 15.893-14.5.748-2.2 1.659-4.369 2.025-4.82 1.603-1.974 27.811-2.903 29.843-1.058m-282.513 1.385c1.31 1.306-6.699 11.498-11.564 14.718-6.192 4.097-14.569 4.326-21.84.596-5.082-2.606-5.5-3.087-5.5-6.321v-3.5l6.245.342c6.778.371 13.194-1.902 16.873-5.977 1.678-1.859 2.586-2.013 8.382-1.423 3.575.365 6.907 1.069 7.404 1.565m311.915 2.997c10.351 1.648 19.014 2.996 19.25 2.996 2.446 0-3.693 22.715-9.064 33.539-15.836 31.917-41.533 38.347-84.426 21.124-19.976-8.021-35.015-18.737-39.994-28.497l-2.168-4.249 3.927 3.927c11.625 11.625 43.764 13.432 63.876 3.592 11.067-5.415 20.188-17.758 22.634-30.631 1.089-5.73 1.146-5.803 4.125-5.303 1.662.278 11.49 1.854 21.84 3.502m-288.321.048c4.674.611 8.65 1.263 8.836 1.448.185.186-1.879 3.636-4.587 7.669-4.738 7.056-16.967 27.091-22.705 37.198l-2.763 4.867-8.64-.42c-14.394-.701-23.782-6.424-28.91-17.625-3.024-6.604-4.201-13.731-2.129-12.882 10.573 4.332 18.529 4.491 26.765.532 5.612-2.697 13.557-10.66 17.635-17.676 2.576-4.43 3.354-5.094 5.5-4.691 1.375.258 6.324.969 10.998 1.58m219.002-.92c0 2.471-4.313 7.909-6.762 8.523-2.496.627-11.238-2.954-11.238-4.603 0-.368 3.713-1.607 8.25-2.753 10.225-2.583 9.75-2.526 9.75-1.167m-557.323 2.372c23.242 2.885 43.616 7.266 70.204 15.098 15.396 4.535 40.038 13.261 50.442 17.862l5.536 2.448-2.937 7.627c-14.072 36.544-28.442 87.082-37.347 131.338-1.922 9.557-3.626 17.505-3.785 17.662-.506.497-25.909-14.43-35.79-21.03-14.468-9.665-22.6-16.831-26.065-22.97-7.285-12.908-37.883-35.077-55.305-40.069-5.668-1.624-5.96-1.614-8.5.275-3.382 2.515-3.727 5.169-1.289 9.928 2.55 4.978 15.171 19.231 23.663 26.725 3.676 3.243 12.768 12.468 20.205 20.5 36.296 39.198 57.796 72.478 64.345 99.602 2.877 11.912 2.538 17.195-2.09 32.581-5.3 17.618-13.342 50.12-21.825 88.206-5.214 23.413-7.31 31.151-8.748 32.308-3.639 2.93-13.958 7.376-21.727 9.363-32.925 8.42-103.381-.137-135.664-16.478-9.144-4.629-14.849-9.029-15.603-12.036-1.91-7.609 15.173-15.079 52.344-22.89 29.044-6.102 43.989-12.382 54.861-23.054 13.35-13.104 16.508-29.135 9.761-49.549-9.115-27.579-41.09-64.328-79.958-91.895-13.761-9.76-24.377-19.611-31.851-29.556-33.164-44.126-37.238-101.343-9.79-137.5 19.734-25.996 52.216-41.998 93.292-45.959 11.992-1.157 38.301-.439 53.621 1.463m168.895 36.555c1.816 1.508 3.429 17.097 3.415 33.009-.022 23.706-3.686 37.037-14.007 50.959-8.065 10.879-13.166 22.026-23.523 51.408-9.005 25.548-14.199 34.565-19.908 34.565-3.982 0-8.439-2.715-9.158-5.579-1.45-5.776.674-11.362 15.941-41.921 16.786-33.6 23.355-49.039 27.328-64.226 2.142-8.19 2.676-13.096 3.296-30.274.773-21.396 1.786-26.537 5.7-28.916 2.009-1.221 9.024-.594 10.916.975m112.01 46.382c2.811 3.848.78 13.723-5.637 27.416-7.258 15.491-15.143 23.338-26.81 26.684-3.099.889-7.45 2.668-9.669 3.953-11.83 6.854-26.428 29.86-33.002 52.011-2.211 7.447-2.812 12.039-3.494 26.687-.919 19.715-2.145 24.253-7.849 29.053-3.838 3.23-8.263 4.572-17.828 5.41-8.597.753-11.115-.452-14.454-6.92-4.62-8.946-3.324-35.296 2.789-56.705 3.617-12.666 8.873-25.796 12.914-32.255 2.852-4.559 4.809-6.378 9.63-8.947 16.468-8.778 34.73-32.614 34.804-45.428.017-2.95.872-5.27 3.045-8.271 3.502-4.834 15.308-13.842 18.973-14.477 1.378-.239 9.855-.371 18.838-.293 14.922.129 16.455.309 17.75 2.082m515.281 22.059c5.955 1.925 11.572 4.323 12.482 5.329 3.248 3.589 2.133 9.521-4.245 22.586-15.47 31.685-18.613 52.33-13.334 87.585 4.163 27.807 5.394 52.506 3.075 61.716-1.422 5.649-7.132 11.695-12.526 13.263-2.098.61-6.965 1.365-10.815 1.677-6.102.495-7.337.301-9.625-1.518-2.977-2.366-4.875-8.517-4.875-15.799 0-2.627 1.167-14.015 2.592-25.307 3.475-27.518 3.155-32.869-2.666-44.569-4.37-8.782-4.425-9.023-4.372-18.929.059-10.945 1.513-17.848 10.437-49.534 8.199-29.117 10.523-34.513 16.404-38.099 4.145-2.527 4.925-2.456 17.468 1.599M543.5 1266.189c15.991 9.366 30.029 21.021 33.5 27.811.984 1.925 3.78 5.638 6.214 8.25l4.426 4.75h-12.873l-21.865-22.031c-12.026-12.117-22.348-22.933-22.938-24.036-1.05-1.963-.992-1.972 2.731-.425 2.093.87 6.955 3.426 10.805 5.681m637.23 5.061c2.915 3.156 4.258 8.924 4.264 18.316.014 20.12 6.942 39.283 19.221 53.164 13.456 15.213 17.641 31.499 18.511 72.038l.52 24.267 3.231 4.233c4.343 5.691 7.523 12.102 7.523 15.169 0 2.932-1.861 4.299-11 8.076-3.575 1.478-9.034 4.217-12.131 6.087-9.053 5.466-14.58 4.54-22.492-3.77-9.927-10.426-13.286-20.879-14.407-44.83-.499-10.67-1.646-21.598-2.939-28-2.894-14.332-9.783-34.297-17.703-51.311l-6.606-14.189-.463-11.05c-1.037-24.794 5.94-41.443 20.139-48.055 6.587-3.067 11.586-3.118 14.332-.145m-115.326 42.564c3.72 7.193 2.791 25.492-1.995 39.328-5.021 14.513-7.484 27.558-8.101 42.905-.718 17.868.209 23.821 6.688 42.953 6.161 18.196 8.403 29.185 7.766 38.08-.968 13.534-6.87 18.932-20.669 18.905-12.02-.023-14.389-2.181-16.23-14.787-3.144-21.521-4.363-27.033-8.92-40.332-8.155-23.8-8.404-36.61-1.026-52.752 6.616-14.475 8.357-23.412 9.566-49.114.74-15.72 1.744-19.462 6.495-24.214l3.787-3.786h21.184l1.455 2.814m-456.296 8.436c6.913 4.537 17.815 11.175 24.227 14.75 9.137 5.094 11.659 6.957 11.662 8.611.002 1.161-.864 7.761-1.925 14.668-1.06 6.906-2.736 20.854-3.724 30.996l-1.797 18.438-2.334-8.106c-6.997-24.3-27.543-57.682-52.534-85.357l-2.032-2.25h15.889l12.568 8.25m336.476 8.049c3.726.929 5.238 1.928 6.686 4.415 2.475 4.249 3.679 13.318 2.832 21.319-.645 6.09-.99 6.778-5.914 11.804-7.781 7.944-13.086 19.725-19.212 42.663-10.259 38.421-16.366 53.46-24.319 59.892-3.372 2.727-4.597 3.107-10 3.101-3.984-.004-9.862-1.112-16.657-3.141-5.775-1.724-12.413-3.652-14.75-4.284-3.677-.993-4.248-1.513-4.238-3.858.007-1.491 1.53-6.085 3.386-10.21 1.855-4.125 5.235-11.62 7.512-16.656 2.276-5.036 5.484-14.486 7.127-21 4.13-16.367 8.853-25.373 20.898-39.844 11.66-14.008 15.446-20.555 17.063-29.5 1.934-10.698 4.421-14.974 9.502-16.337 2.78-.745 14.297.193 20.084 1.636m-572.834 41.783c-5.046 2.933-7.702 15.902-8.587 41.918l-.663 19.5-2.747-5.864c-1.511-3.225-4.367-8.532-6.348-11.792-2.789-4.591-3.894-5.683-4.905-4.844-1.066.884-1.007 1.672.32 4.292 2.115 4.173 2.703 15.861 1.23 24.428-.642 3.729-2.716 11.433-4.611 17.121-3.198 9.602-3.523 12.159-1.543 12.159.785 0 6.021-14.687 8.2-23 .649-2.475 1.475-8.325 1.836-13l.658-8.5 2.717 5.901c3.26 7.081 5.693 16.053 5.693 20.993 0 2.394.462 3.606 1.375 3.606 1.124 0 1.477-5.438 1.931-29.75.554-29.717 1.797-41.961 4.809-47.367 1.155-2.073 1.484.728 2.536 21.549.665 13.162 1.702 27.629 2.303 32.148 1.407 10.57 3.801 18.676 5.354 18.126 1.386-.49 1.356-.914-.712-10.206-1.57-7.051-3.091-25.384-4.391-52.92-.399-8.45-1.139-15.048-1.705-15.217-.55-.164-1.788.159-2.75.719m-82.757 9.668l-.006 3.75-1.955-2.965c-1.46-2.216-1.648-3.16-.743-3.735 2.2-1.398 2.711-.841 2.704 2.95m1645.245 155.14c.406.378-.448 4.84-1.897 9.917-1.45 5.078-2.847 9.021-3.105 8.762-.675-.675-4.161-15.688-4.202-18.095-.03-1.781.481-1.981 4.216-1.648 2.338.208 4.582.687 4.988 1.064m188.471 24.232c4.285.617 8.121 1.42 8.525 1.784.404.365 1.194 7.088 1.755 14.941 1.075 15.046.086 34.958-2.417 48.653l-1.28 7-5.544-11.5c-10.333-21.43-15.709-42.198-14.309-55.272.831-7.761.188-7.49 13.27-5.606m37.548 5.365c5.633.818 11.696 1.737 13.472 2.042l3.229.554-5.943 7.478c-6.191 7.791-11.222 15.811-15.109 24.082-2.248 4.784-2.288 4.812-2.648 1.857-.443-3.641-3.889-27.339-4.834-33.25-.792-4.954-1.738-4.733 11.833-2.763m-743.054 7.547c-51.27 37.831-130.111 66.49-217.203 78.956-31.596 4.522-51.044 6.134-81.25 6.733l-27.75.55v9.047l23.25-.643c125.742-3.477 238.11-36.055 311.459-90.299l7.323-5.416-2.204-2.981c-1.212-1.64-2.682-2.942-3.266-2.894-.584.048-5.246 3.174-10.359 6.947m377.68 217.72c-46.046 48.365-86.597 116.392-96.945 162.633-.693 3.094-1.385 5.499-1.54 5.344-.154-.154-1.255-4.994-2.446-10.756-7.116-34.428-20.649-57.774-38.646-66.668-6.867-3.394-8.39-3.753-17.171-4.04-9.461-.31-9.59-.284-7.135 1.459 20.488 14.54 34.348 47.839 39.538 94.988.845 7.674 1.407 18.614 1.249 24.312l-.287 10.361-5.727-7.483c-10.847-14.172-18.489-30.135-22.454-46.904-.845-3.575-1.825-13.025-2.178-20.999l-.641-14.499-5.892 12.999c-12.942 28.55-19.516 49.957-20.348 66.26-.416 8.154-.177 11.167 1.161 14.671 2.347 6.145 3.909 7.239 5.93 4.155 1.436-2.191 1.449-2.821.127-5.986-3.728-8.922-.084-29.23 9.798-54.601l4.09-10.5 1.277 6.878c4.305 23.172 18.685 49.519 35.561 65.154l6.296 5.834.314-9.433c.644-19.336-2.367-50.742-6.837-71.324-4.103-18.896-12.335-39.719-20.359-51.499-2.019-2.965-3.465-5.597-3.212-5.849 1.202-1.202 11.427 5.842 16.458 11.338 14.406 15.739 23.814 44.873 27.659 85.651.622 6.6.699 6.75 3.477 6.75 2.779 0 2.854-.147 3.463-6.75 3.69-40.023 22.413-84.254 56.318-133.041 4.698-6.76 8.946-12.54 9.44-12.845.493-.306-.979 3.177-3.273 7.739-12.577 25.015-21.975 57.14-26.59 90.897-1.883 13.769-2.505 54.231-1.019 66.336.83 6.764.867 6.829 3.498 6.169 1.462-.367 2.798-.807 2.968-.977.17-.17-.2-7.755-.823-16.855-2.634-38.498 3.77-81.939 17.623-119.544 9.02-24.483 28.05-57.823 43.361-75.964 5.951-7.051 6.123-7.409 4.457-9.25-.953-1.053-2.054-1.915-2.445-1.915-.392 0-4.035 3.49-8.095 7.754m-1132.229 73.224c-.283 1.418-1.64 5.491-3.015 9.05-2.325 6.021-2.504 6.228-2.562 2.972-.035-1.925.221-6.5.567-10.166.627-6.636.641-6.661 3.078-5.551 1.931.88 2.339 1.66 1.932 3.695m157.154 49.097c-.197.591-.785 1.075-1.308 1.075s-1.111-.484-1.308-1.075c-.197-.591.391-1.075 1.308-1.075s1.505.484 1.308 1.075m39.552 6.561c2.67.366 4.64 1.16 4.64 1.87 0 .678-1.969 5.455-4.376 10.614l-4.376 9.38-.589-4.5c-2.242-17.144-2.296-18-1.123-18 .652 0 3.273.286 5.824.636m505.611 6.114c-.083 4.977-1.981 27.194-2.568 30.063-.373 1.821-1.018 2.946-1.435 2.5-.822-.884-9.595-27.551-10.136-30.813-.285-1.717.375-2.084 4.668-2.593 9.005-1.068 9.502-1.023 9.471.843m-120.652 12c-1.254 8.557-2.675 15.642-4.562 22.75l-2.124 8-5.25-15.953c-2.887-8.774-5.028-16.312-4.757-16.75.27-.438 4.228-.797 8.794-.797h8.303l-.404 2.75" fill-rule="evenodd"/></svg>