<svg width="2117" height="2647" xmlns="http://www.w3.org/2000/svg"><path d="M986.863 34.011c-4.2.402-8.058.991-8.573 1.31-.515.318-4.279 1.365-8.363 2.326-6.538 1.539-15.627 1.82-75.927 2.355-57.476.51-69.707.866-76 2.214-13.496 2.892-21.291 3.941-35.5 4.781-10.798.638-15.79 1.422-21.824 3.429-4.303 1.431-10.836 3.029-14.516 3.551-7.874 1.117-22.321 4.463-28.151 6.52-2.26.797-5.454 2.794-7.098 4.438-4.276 4.276-23.403 13.13-41.159 19.053-8.388 2.798-16.152 5.477-17.252 5.954-1.1.476-6.43 2.284-11.844 4.017-13.147 4.208-42.057 18.373-56.656 27.758-14.533 9.343-19.024 12.695-38.9 29.028-4.18 3.435-10.975 8.71-15.1 11.723s-14.674 11.678-23.441 19.255c-16.053 13.873-27.442 26.114-45.85 49.277-5.026 6.325-12.723 15.325-17.103 20-8.655 9.237-35.265 40.795-40.106 47.564-1.65 2.307-6.375 8.445-10.5 13.641a3316.235 3316.235 0 00-16 20.363c-4.675 6.005-14.5 17.896-21.834 26.425-17.032 19.808-20.131 24.553-33.206 50.838-15.833 31.826-17.71 36.704-25.652 66.669-3.34 12.601-3.434 13.461-3.048 28 .462 17.45 1.763 21.576 9.121 28.934 5.744 5.743 12.859 8.006 23.109 7.348 5.955-.382 9.006-1.321 18.257-5.62 6.11-2.839 11.606-5.162 12.214-5.162.608 0 3.453-1.218 6.322-2.708 6.961-3.613 10.928-5.026 18.874-6.724 9.343-1.995 19.888-7.192 29.976-14.772 4.748-3.568 12.173-8.457 16.5-10.865 4.327-2.409 8.618-4.841 9.535-5.405.918-.564 2.943-1.747 4.5-2.628 11.838-6.698 18.927-10.924 25.832-15.398 8.569-5.552 21.271-13.116 31-18.461 15.422-8.472 37.068-25.656 58-46.045 16.579-16.149 21.194-20.107 30.5-26.162 6.46-4.203 18.848-10.115 25.679-12.255 36.592-11.463 47.531-13.64 82.821-16.482 20.78-1.673 52.072 3.062 65.528 9.916 7.712 3.928 10.869 6.894 12.08 11.351 1.725 6.347.569 18.267-2.344 24.165-3.055 6.186-13.689 23.432-15.742 25.528-6.154 6.287-15.765 11.6-33.522 18.533-11.098 4.334-16.129 6-44 14.576-18.376 5.654-27.181 8.768-35.796 12.662A1341.334 1341.334 0 01630 474.039c-11.921 5.221-68.905 34.484-75.5 38.772-3.85 2.503-14.287 9.306-23.192 15.12-8.906 5.813-18.806 12.221-22 14.241-3.195 2.02-8.958 6.426-12.808 9.793-3.85 3.366-13.968 12.064-22.484 19.328-18.69 15.942-61.569 57.043-68.516 65.675a3800.2 3800.2 0 01-8.214 10.174c-8.26 10.18-16.989 27.713-19.405 38.977-1.914 8.924-.589 21.378 3.107 29.2 4.67 9.885 10.36 17.874 15.203 21.349 8.114 5.821 31.714 11.253 42.644 9.815 7.481-.984 17.456-3.289 21.445-4.955 3.526-1.474 19.419-10.962 30.389-18.144 2.844-1.861 5.432-3.384 5.752-3.384 1.362 0 21.968-10.26 27.905-13.894 9.251-5.662 42.671-23.106 44.268-23.106.332 0 2.022-.647 3.755-1.438 6.502-2.966 16.578-6.953 31.92-12.631 8.702-3.221 17.939-6.964 20.526-8.319 4.29-2.247 6.214-3.105 14.368-6.411 1.465-.593 7.99-2.876 14.5-5.072 20.674-6.975 27.961-9.794 34.482-13.338 8.507-4.624 25.51-15.208 35.904-22.349 18.04-12.393 22.656-15.358 28.451-18.268 7.538-3.785 16.09-6.787 21.683-7.612 6.458-.952 12.191-2.412 23.817-6.063a5448.271 5448.271 0 0121-6.54c5.775-1.783 15.9-5.017 22.5-7.188 13.905-4.573 26.21-6.1 50-6.205 11.708-.052 17.524.429 26.5 2.19 6.325 1.241 18.025 3.417 26 4.836 7.975 1.419 20.575 4.579 28 7.022 7.425 2.443 15.3 4.898 17.5 5.455 2.2.558 4.9 1.413 6 1.9 4.477 1.983 32.142 10.281 40.2 12.059 8.572 1.892 8.269 2.766-3.462 9.972-16.143 9.917-26.901 16.926-36.091 23.513-4.594 3.293-13.369 9.074-19.5 12.846-6.131 3.773-22.605 15.023-36.609 25-22.843 16.275-27.365 19.992-43.975 36.141-10.183 9.9-21.9 21.593-26.039 25.984C855.483 743.914 849.335 750 848.289 750c-.581 0-1.291-.9-1.579-2-.647-2.473-2.882-2.533-11.262-.3-3.51.935-6.696 1.385-7.081 1-2.847-2.847 37.812-47.205 59.133-64.512 3.85-3.125 12.175-9.992 18.5-15.261 10.483-8.731 16.952-13.576 28.189-21.111 4.188-2.808 30.862-13.596 39.075-15.803 5.759-1.548 10.736-6.634 10.736-10.971 0-1.649-1.111-4.209-2.589-5.965-2.3-2.734-3.189-3.077-7.969-3.077-2.985 0-8.622 1.067-12.661 2.396-10.207 3.36-29.42 11.295-34.781 14.365-6.189 3.544-24.895 17.375-34.136 25.239-4.202 3.575-10.952 9.08-15.001 12.233-16.147 12.573-51.073 48.782-63.437 65.767-8.083 11.104-15.821 19.508-46.504 50.5-16.335 16.5-31.662 32.315-34.061 35.144-9.642 11.373-19.838 25.383-25.366 34.856-3.21 5.5-7.476 12.475-9.48 15.5-2.004 3.025-4.678 7.525-5.941 10a386.372 386.372 0 01-5.068 9.5c-1.524 2.75-4.993 9.28-7.709 14.511-2.716 5.231-5.631 10.631-6.478 12-3.285 5.308-22.154 34.632-23.937 37.199-1.035 1.49-1.882 2.89-1.882 3.111 0 .221-1.835 3.727-4.077 7.791-2.243 4.063-4.743 9.188-5.557 11.388-4.591 12.411-6.683 19.072-8.948 28.5-4.425 18.419-6.254 25.262-9.485 35.5-1.736 5.5-4.016 13.067-5.067 16.815-1.052 3.749-4.831 15.674-8.398 26.5-10.153 30.812-10.27 31.202-11.971 40.185-.885 4.675-2.034 10.66-2.553 13.299-.519 2.64-.938 20.19-.931 39 .01 29.641.339 37.106 2.461 55.985 1.348 11.981 2.691 22.174 2.987 22.652.295.478 1 7.775 1.567 16.216.567 8.442 1.659 20.523 2.427 26.848.768 6.325 1.704 15.775 2.08 21 .376 5.225 1.558 13.55 2.626 18.5 1.069 4.95 2.58 12.6 3.359 17 2.193 12.399 7.222 35.442 8.973 41.116 3.914 12.682 15.37 31.623 26.614 44.002 11.338 12.482 39.359 34.851 61.393 49.008 23.344 15 56.403 24.215 87.316 24.34 8.209.034 12.184 1.074 12.184 3.188 0 .597-1.51 3.618-3.355 6.715-5.377 9.023-11.985 21.999-15.599 30.631-1.842 4.4-5.041 11.6-7.11 16-8.698 18.499-13.706 32.825-16.945 48.476a990.33 990.33 0 01-3.903 17.908c-2.88 12.503-4.869 33.506-6.981 73.711-2.128 40.524-1.772 38.883-10.548 48.595-3.696 4.09-7.863 11.049-14.822 24.754-10.425 20.528-15.321 29.681-17.147 32.056-2.29 2.978-5.892 10.381-13.761 28.279-8.708 19.807-11.249 26.488-15.296 40.221-1.459 4.95-3.542 11.781-4.63 15.18-2.034 6.357-5.356 21.499-8.957 40.82-1.127 6.05-2.693 13.475-3.478 16.5-2.097 8.078-4.314 35.285-5 61.373-.669 25.42.203 21.62-9.848 42.915-2.541 5.384-4.62 10.025-4.62 10.314 0 .29-1.058 2.86-2.352 5.712a1881.409 1881.409 0 00-5.233 11.686c-3.314 7.475-9.714 18.771-20.415 36.035-4.125 6.655-8.177 13.307-9.004 14.783-7.658 13.653-12.497 20.755-18.326 26.892-6.612 6.961-8.794 8.357-23.17 14.827-6.899 3.105-36.347 17.691-40.5 20.061-2.475 1.412-6.75 3.443-9.5 4.512-2.75 1.07-5.9 2.373-7 2.895-1.1.522-4.25 1.682-7 2.577-19.598 6.381-62.228 28.109-73.315 37.368-8.394 7.009-10.919 11.656-9.29 17.094.634 2.117 2.38 4.819 3.879 6.005 2.458 1.945 3.561 2.103 11.226 1.608 8.501-.548 18.777-2.253 31-5.144 21.424-5.066 43-7.948 43-5.744 0 .585-5.702 3.877-12.671 7.315-11.955 5.899-28.261 17.035-35.77 24.427-23.97 23.598-37.802 42.425-39.283 53.469-1.017 7.584 5.094 15.008 12.362 15.016 3.39.004 17.191-3.704 26.862-7.218 3.3-1.199 11.4-5.172 18-8.829 18.687-10.355 36.156-19.203 46-23.298 14.402-5.991 20.91-9.574 30.243-16.652 11.785-8.936 24.257-16.197 24.257-14.121 0 1.214-2.964 6.97-6.5 12.622-3.889 6.217-17.596 34.26-21.995 45-1.802 4.4-4.829 11.375-6.726 15.5-6.251 13.589-7.086 15.965-7.183 20.424-.175 8.051 7.581 12.769 15.098 9.185 8.111-3.868 28.282-21.989 40.105-36.029 6.833-8.114 18.776-21.8 26.25-30.08 9.238-10.235 12.304-13.902 18.138-21.702 4.911-6.564 6.793-8.418 7.661-7.55.634.634 1.151 2.075 1.149 3.202-.007 5.797 10.758 46.465 14.176 53.55 4.33 8.977 16.866 21.502 22.431 22.412 11.102 1.815 17.52-5.861 21.511-25.723 2.464-12.263 3.478-23.134 4.871-52.189 1.114-23.247 2.57-32.072 8-48.5 1.545-4.675 4.941-15.7 7.547-24.5 7.071-23.883 8.418-26.402 20.926-39.117 5.887-5.986 13.107-14.033 16.045-17.883 5.048-6.618 12.496-20.009 12.496-22.469 0-.622.651-2.388 1.446-3.926.795-1.538 2.333-6.128 3.419-10.2 1.085-4.073 4.308-13.93 7.163-21.905a2439.894 2439.894 0 009.465-27c2.352-6.875 5.903-16.412 7.891-21.193 3.852-9.26 4.512-15.039 2.084-18.248-.807-1.068-1.468-2.466-1.468-3.108 0-.641 4.64-6.743 10.312-13.559 5.671-6.815 11.727-14.471 13.458-17.011 1.73-2.541 5.216-7.041 7.745-10 2.53-2.96 5.811-7.423 7.292-9.919 1.481-2.495 5.742-9.02 9.469-14.5 3.726-5.479 11.237-17.162 16.689-25.962 12.103-19.532 18.462-29.638 27.331-43.431 11.66-18.131 16.017-28.78 19.645-48.006 1.428-7.567 4.357-13.668 11.53-24.016 10.469-15.102 24.204-39.069 28.393-49.547 14.247-35.633 29.006-79.307 31.559-93.394 3.533-19.488 7.821-38.993 9.998-45.481 5.737-17.095 6.81-21.752 6.381-27.687-.262-3.615-.017-6.008.637-6.232.583-.2 7.586.468 15.561 1.484 12.18 1.551 20.101 1.799 49.5 1.549 31.064-.265 35.47-.501 39.177-2.098 2.297-.99 5.222-1.651 6.5-1.47 2.282.323 2.333.592 2.912 15.329.324 8.25.928 16.575 1.343 18.5 1.572 7.287 7.514 25.791 10.598 33 3.537 8.268 19.346 40.383 26.828 54.5 8.125 15.33 21.142 41.151 21.142 41.938 0 1.791 15.331 30.861 20.805 39.451 5.26 8.254 15.506 21.209 23.593 29.834l7.293 7.777.636 21.545c.509 17.255 1.226 24.962 3.6 38.697 3.413 19.748 4.18 22.483 10.881 38.758a13965.026 13965.026 0 0018.199 44c3.817 9.172 13.157 30.594 17.103 39.224 1.2 2.627 3.457 7.608 5.014 11.07 1.558 3.462 4.479 9.087 6.492 12.5 2.012 3.413 4.78 8.231 6.151 10.706 5.31 9.589 14.311 20.873 28.392 35.593 26.143 27.33 34.907 44.462 34.931 68.288.01 9.742-1.241 14.185-7.914 28.119-3.579 7.473-19.563 25.959-26.53 30.683-2.28 1.546-4.371 3.05-4.646 3.342-.275.292-4.325 3.509-9 7.149s-9.954 7.903-11.732 9.472c-1.777 1.57-7.607 6.229-12.954 10.354-5.348 4.125-11.993 9.571-14.768 12.103-2.775 2.531-9.321 7.794-14.546 11.694-31.513 23.523-41.391 31.602-55.851 45.679-12.616 12.282-15.149 15.597-15.149 19.826 0 4.09 4.092 9.027 8.308 10.024 3.326.786 5.341.276 16.983-4.304 7.265-2.857 17.149-7.188 21.964-9.624 4.814-2.436 13.364-5.936 19-7.779 5.635-1.842 13.17-4.702 16.745-6.355 8.092-3.742 17.809-7.541 25-9.774 3.025-.94 8.425-3.309 12-5.265 3.575-1.957 8.134-4.367 10.13-5.357 4.402-2.181 22.541-8.07 23.6-7.661 1.207.467.383 2.578-3.179 8.146-3.848 6.015-14.768 28.589-17.728 36.647-5.315 14.466-7.356 19.31-12.511 29.688-4.635 9.331-5.452 11.754-4.92 14.591.758 4.035 4.127 7.465 7.608 7.743 6.463.516 8.046-.168 16.684-7.206 7.576-6.174 11.074-9.271 21.255-18.816 6.17-5.785 14.7-12.493 21.271-16.727 4.24-2.733 11.89-8.183 17-12.111 13.034-10.021 26.086-19.144 27.404-19.154 1.299-.009 2.386 6.826 2.386 15.005 0 6.92 2.27 16.028 8.47 33.987 6.471 18.741 14.148 33.195 20.133 37.903 4.23 3.327 9.852 2.842 13.893-1.199 2.97-2.97 3.367-4.068 4.029-11.127.404-4.307.444-17.562.091-29.454-.771-25.905-.771-26.063-.068-27.201.306-.495 2.711 1.682 5.345 4.839 11.767 14.102 36.108 34.586 42.531 35.791 4.344.815 8.939-.182 10.874-2.359 3.475-3.91 3.971-9.14 1.722-18.193-7.81-31.449-7.694-30.441-9.942-86-.954-23.557-2.775-40.156-5.43-49.5-2.962-10.424-6.815-23.076-7.613-25-2.139-5.157-10.184-27.638-11.639-32.524-6.443-21.638-8.331-29.938-9.026-39.668-.581-8.124-.39-9.908 1.644-15.345 2.297-6.144 2.299-6.183 1.092-28.807a80067.5 80067.5 0 01-2.11-39.78c-.858-16.295-2.991-33.366-4.982-39.876-.505-1.65-2.537-9.75-4.516-18-3.596-14.993-7.506-30.02-10.017-38.5-3.17-10.707-8.879-29.151-11.452-37a4030.794 4030.794 0 01-6.476-20c-5.428-16.922-12.115-30.089-24.244-47.741-13.42-19.528-22.898-35.11-24.178-39.748-1.282-4.642.116-14.259 3.22-22.153 1.329-3.378 3.402-9.453 4.607-13.5 1.205-4.047 2.592-8.483 3.082-9.858 2.46-6.906 8.003-27.494 9.423-35 .884-4.675 2.154-10.3 2.822-12.5.817-2.688 1.209-12.201 1.197-29-.017-23.808-.145-25.501-2.698-35.5-1.475-5.775-2.956-12.3-3.293-14.5-1.075-7.032-2.58-13.886-3.952-18-.734-2.2-2.961-9.4-4.949-16-6.236-20.705-9.779-31.895-11.08-35-.691-1.65-2.081-5.25-3.088-8-4.23-11.55-18.539-31.622-40.988-57.5-9.027-10.406-15.434-18.69-15.434-19.958 0-.69 1.994-1.605 16.25-7.453 22.466-9.215 26.728-11.161 33.744-15.402 10.125-6.122 14.415-9.675 16.615-13.759 1.015-1.885 2.263-3.428 2.772-3.428.509 0 5.92 4.879 12.023 10.842 19.91 19.454 45.276 37.309 76.596 53.914 4.675 2.479 10.3 5.72 12.5 7.204 2.2 1.484 6.25 3.741 9 5.015 2.75 1.274 11.075 5.313 18.5 8.976 7.425 3.663 16.425 7.467 20 8.454 3.575.988 8.3 2.391 10.5 3.119 2.2.728 5.575 1.627 7.5 1.998 6.124 1.18 7.6 2.77 8.951 9.637 4.558 23.163 6.275 61.647 3.652 81.841a5421.646 5421.646 0 00-3.648 28.948c-1.113 9.046-3.63 23.446-5.593 32-1.962 8.554-3.8 16.567-4.083 17.808-.283 1.24.012 2.89.655 3.665 1.598 1.925 6.817.381 8.928-2.64.876-1.254 4.537-5.458 8.134-9.34 3.597-3.883 9.641-11.083 13.432-16 7.946-10.309 10.672-12.88 11.791-11.122.412.65.757 6.395.766 12.768.014 10.807 1.507 24.351 3.848 34.913.549 2.475 1.528 9.45 2.176 15.5 1.287 12.017 2.733 15.5 6.435 15.5 2.37 0 11.556-8.056 11.556-10.134 0-.537.854-2.864 1.897-5.171 1.044-2.307 2.387-5.995 2.986-8.195 2.332-8.571 7.258-36.413 7.816-44.172.323-4.495.956-8.77 1.408-9.5 1.194-1.931 2.919.084 10.735 12.533 13.584 21.638 17.468 25.448 26.271 25.776 6.263.232 8.569-.785 9.803-4.327.708-2.03 1.084-16.852 1.084-42.709 0-30.696.331-41.329 1.471-47.285 1.119-5.851 1.493-16.7 1.566-45.473.075-29.752.414-39.162 1.592-44.245.824-3.551 1.247-7.455.941-8.676-.452-1.799 1.43-4.278 9.924-13.071 5.765-5.968 12.85-14.14 15.744-18.159 2.894-4.02 7.75-10.77 10.791-15 6.749-9.388 18.478-27.412 22.25-34.192 8.769-15.761 15.927-31.835 26.496-59.5 4.624-12.104 12.568-36.055 14.261-43 1.073-4.4 2.384-9.35 2.913-11 .53-1.65 2.072-7.275 3.429-12.5 2.308-8.892 4.548-16.552 9.796-33.5 1.193-3.85 3.605-12.4 5.362-19 1.756-6.6 3.982-14.7 4.946-18 .964-3.3 2.127-7.575 2.584-9.5.457-1.925 1.548-5.975 2.424-9 .876-3.025 2.362-12.475 3.302-21 1.527-13.858 1.708-30.012 1.708-152.5 0-99.017-.336-140.797-1.211-150.696-1.242-14.051-5.374-41.011-7.786-50.804-.745-3.025-2.109-9.325-3.031-14-1.668-8.455-4.498-18.138-11.05-37.804-3.622-10.872-3.693-14.658-.296-15.736 3.342-1.061 5.183-5.029 4.626-9.972-.384-3.401-2.135-6.875-7.317-14.511-3.746-5.521-8.817-12.387-11.268-15.257-2.451-2.871-7.182-8.82-10.514-13.22-8.464-11.178-37.676-41.568-46.479-48.353-13.382-10.315-17.625-13.293-23.174-16.261a361.535 361.535 0 01-10.5-5.882c-2.75-1.617-6.575-3.469-8.5-4.117-1.925-.647-9.058-3.812-15.852-7.032-6.793-3.221-16.571-6.979-21.729-8.351-5.157-1.372-13.999-4.25-19.648-6.394-5.649-2.144-14.771-4.838-20.271-5.987-5.5-1.148-14.05-3.172-19-4.498-4.95-1.325-11.475-2.709-14.5-3.076-3.025-.367-10.225-1.781-16-3.143-15.08-3.556-14.31-3.423-25.371-4.399-5.571-.491-12.811-1.594-16.089-2.45-4.42-1.155-11.048-1.557-25.643-1.557-18.563 0-20.359-.171-31.54-2.997-14.653-3.704-17.31-3.754-21.295-.402-4.16 3.5-24.575 10.629-28.701 10.023-6.785-.999-45.361-30.636-45.361-34.851 0-1.03.612-3.087 1.361-4.573 1.244-2.468 2.235-6.373 5.637-22.2.651-3.025 1.77-8.2 2.487-11.5.717-3.3 1.61-9.15 1.984-13 .375-3.85 1.272-9.25 1.994-12 .723-2.75 2.081-9.95 3.02-16 1.501-9.679 1.652-17.665 1.256-66.5l-.449-55.5-3.125-17c-1.72-9.35-3.138-19.025-3.153-21.5-.024-4.203-1.149-12.075-4.498-31.5-.758-4.4-2.314-10.925-3.457-14.5-3.032-9.487-6.057-24.58-6.057-30.223 0-2.697-1.163-10.388-2.584-17.091-2.397-11.308-3.979-20.366-6.409-36.686-.532-3.575-.983-11.675-1.002-18-.054-17.949-3.554-29.853-16.465-56-7.337-14.858-21.228-34.551-30.578-43.348-10.728-10.094-31.332-23.794-42.434-28.213-4.415-1.758-11.906-5.078-16.645-7.379-9.373-4.549-17.328-6.246-37.883-8.083-6.325-.565-14.2-1.668-17.5-2.45-3.3-.782-9.017-2.121-12.706-2.975-3.688-.853-11.185-1.552-16.662-1.552-5.476 0-13.483-.675-17.794-1.5-5.019-.96-14.132-1.517-25.338-1.548-21.752-.061-35.899-1.279-64.044-5.516-10.27-1.545-66.317-1.84-81.093-.425M1065 55.012c34.061 4.657 37.817 4.988 56.551 4.988 11.925 0 23.051.555 28.71 1.432 5.081.787 14.639 1.66 21.239 1.94 7.788.33 17.09 1.582 26.5 3.564 7.975 1.681 17.159 3.058 20.408 3.06 9.665.007 27.246 3.834 34.574 7.526 3.585 1.806 9.668 4.524 13.518 6.041 6.424 2.53 11.83 5.681 26.642 15.529 8.697 5.782 17.336 14.414 22.525 22.506 2.658 4.145 6.533 9.869 8.611 12.719 5.406 7.418 13.058 23.404 17.319 36.183 3.436 10.307 3.717 12.102 4.461 28.5.793 17.479 2.239 28.532 5.956 45.5 1.084 4.95 2.665 15.134 3.514 22.631.849 7.498 2.633 17.848 3.964 23 4.325 16.742 5.334 21.193 7.453 32.869 1.148 6.325 2.089 13.75 2.091 16.5.005 5.501.628 9.972 4.391 31.5 2.498 14.289 2.536 15.287 2.581 68.5l.047 54-3.064 17.5c-1.684 9.625-3.767 21.55-4.627 26.5-2.521 14.502-6.779 32.342-8.831 37-.727 1.65-2.156 5.153-3.177 7.785-1.021 2.632-2.829 5.429-4.018 6.216-1.189.786-7.264 2.33-13.5 3.431a2675.075 2675.075 0 00-16.838 3.022c-3.025.562-11.125 1.954-18 3.095-6.875 1.141-14.3 2.572-16.5 3.18-2.601.72-22.708 1.247-57.5 1.508-45.273.34-54.5.168-60-1.113-3.575-.833-10.55-2.252-15.5-3.153-13.257-2.413-37.571-9.952-41.303-12.807-2.01-1.537-9.943-1.193-11.934.517-.97.833-2.534 1.788-3.477 2.122-2.303.815-11.333-.935-22.286-4.32-4.95-1.53-15.075-4.194-22.5-5.921-7.425-1.726-14.893-3.576-16.596-4.109-1.702-.534-6.652-1.891-11-3.016-4.347-1.124-11.504-3.33-15.904-4.901-4.4-1.572-12.725-4.306-18.5-6.078a2494.882 2494.882 0 01-19.584-6.105c-9.284-2.948-22.514-5.751-39.416-8.352-5.225-.804-11.075-1.958-13-2.564-1.925-.606-11.69-1.403-21.7-1.77-11.652-.427-18.619-1.085-19.363-1.83-.73-.73-1.477-7.983-2.008-19.5-1.049-22.729-3.656-42.872-7.444-57.52-.737-2.85-2.088-10.05-3.002-16-.914-5.949-3.244-18.692-5.178-28.317-1.933-9.625-4.145-21.227-4.915-25.781-.77-4.555-2.95-15.58-4.845-24.5-1.896-8.921-4.171-21.619-5.056-28.219-1.864-13.899-2.106-15.002-6.802-31.051-3.433-11.732-11.69-34.378-15.842-43.449-10.248-22.388-15.703-30.673-39.931-60.642-11.158-13.803-12.469-15.894-10.667-17.018 9.758-6.089 37.208-19.039 44.253-20.877 3.85-1.005 10.739-3.545 15.309-5.645 4.57-2.1 8.589-3.818 8.93-3.818.342 0 5.153-2.203 10.691-4.897C867.737 144.174 892.027 135 896.715 135c1.257 0 2.285.45 2.285 1s-.661 1-1.469 1-3.171.842-5.25 1.87a576.104 576.104 0 01-7.781 3.76c-2.2 1.04-7.15 4.102-11 6.805-3.85 2.704-11.442 8.046-16.87 11.871-22.224 15.663-33.671 29.945-39.429 49.194-3.997 13.365-4.352 16.082-2.653 20.327.85 2.127 2.875 4.849 4.499 6.05 2.418 1.788 2.953 2.91 2.953 6.201 0 5.976 6.687 12.282 18.304 17.261 13.092 5.611 23.307 7.49 42.696 7.852 36.296.679 63.268-7.459 79.925-24.116 4.77-4.77 6.105-6.925 8.14-13.14 5.811-17.743 1.55-44.666-12.206-77.119-5.902-13.924-13.359-19.65-28.859-22.161-4.675-.757-7.825-1.612-7-1.901 12.311-4.302 28.832-6.751 45.56-6.753 13.404-.001 15.714.255 21 2.328 6.81 2.669 13.668 6.735 17.782 10.542 8.642 7.997 12.612 27.091 12.64 60.807.025 29.041-1.334 38.037-8.505 56.322-12.199 31.103-22.704 41.435-56.977 56.037-19.532 8.321-31.905 11.425-79.5 19.941-6.325 1.132-13.163 2.511-15.196 3.064-7.306 1.988-10.173 10.092-5.495 15.531 2.877 3.345 9.861 4.247 19.557 2.527 19.271-3.42 49.318-9.225 54.134-10.459 9.692-2.484 23.408-6.675 26.5-8.098 1.65-.76 7.173-3.213 12.273-5.452 20.356-8.938 30.674-15.574 40.766-26.22 7.289-7.69 11.736-14.425 17.412-26.371 13.14-27.657 16.675-45.844 15.744-81-.981-36.992-4.451-52.51-15.062-67.344-5.287-7.392-23.677-18.37-36.265-21.648-11.918-3.105-39.168-1.632-61.868 3.344-4.95 1.085-11.475 2.271-14.5 2.636-13.724 1.656-48.53 13.158-66.5 21.975-17.405 8.54-25.399 11.82-41.373 16.973-8.343 2.692-33.076 15.07-38.524 19.28a791.115 791.115 0 01-6.131 4.704c-1.51 1.125-5.607-3.32-13.651-14.809-16.326-23.32-29.238-50.064-29.068-60.205.118-6.99 1.789-12.627 4.497-15.171 2.46-2.311 17.411-6.489 29.25-8.174 3.85-.548 10.308-2.124 14.352-3.503 5.229-1.784 10.426-2.67 18-3.069 11.814-.622 27.957-2.807 38.648-5.232 5.836-1.323 18.386-1.704 75.5-2.291 45.432-.467 70.184-1.09 73.5-1.85 2.75-.63 7.7-1.776 11-2.547 7.368-1.721 70.85-2.15 82.5-.557m-368 45.014c0 3.148 3.124 14.277 5.467 19.474 1.239 2.75 3.26 7.475 4.49 10.5 5.054 12.431 22.844 40.534 34.499 54.5 2.295 2.75 5.934 7.475 8.085 10.5 2.152 3.025 9.323 12.222 15.936 20.438 25.34 31.483 30.886 39.962 39.942 61.062.944 2.2 2.124 4.9 2.622 6 .974 2.152 2.162 5.461 7.54 21 4.394 12.696 9.052 31.949 9.92 41 .369 3.85 2.221 14.425 4.115 23.5 1.895 9.075 4.342 21.675 5.438 28 1.096 6.325 2.639 14.2 3.428 17.5 1.347 5.636 2.825 13.531 7.487 40 1.066 6.05 2.63 14.375 3.475 18.5 3.33 16.241 4.649 27.346 5.631 47.4.563 11.496.807 21.465.542 22.155-.264.689-3.557 1.953-7.318 2.809-3.76.855-11.328 3.091-16.818 4.969-11.019 3.77-17.15 5.724-34.981 11.147-6.6 2.007-12.944 4.03-14.097 4.494-1.154.464-4.754 1.171-8 1.57-8.229 1.013-18.846 4.636-30.755 10.495-11.649 5.731-11.268 5.505-22.643 13.461-11.751 8.22-17.745 12.166-30.005 19.752-12.479 7.722-16.522 9.792-24.5 12.54-24.193 8.333-43.572 15.626-50.662 19.065-4.586 2.225-14.413 6.288-21.838 9.03-20.043 7.4-41.642 16.455-49 20.54-3.575 1.985-9.875 5.235-14 7.223-4.125 1.988-10.875 5.776-15 8.418-6.771 4.336-12.301 7.127-26 13.119-2.475 1.083-7.65 3.99-11.5 6.461a3382.442 3382.442 0 01-15.781 10.045c-14.314 9.051-27.121 11.272-42.797 7.422-9.511-2.335-10.976-3.133-14.932-8.127-12.136-15.323-8.583-34.386 11.085-59.488 10.575-13.496 44.889-46.701 74.923-72.5 12.386-10.64 14.542-12.538 19.002-16.724 2.475-2.324 7.573-6.149 11.329-8.5 12.884-8.067 19.196-12.158 34.171-22.141 10.781-7.187 24.389-14.73 48.383-26.818 18.36-9.249 33.728-16.817 34.15-16.817.423 0 4.607-1.79 9.298-3.978 11.051-5.153 17.444-7.57 26.669-10.081 4.125-1.123 8.4-2.438 9.5-2.921 1.1-.483 5.375-1.86 9.5-3.059 18.946-5.508 47.253-16.074 56.5-21.091 14.618-7.93 24.361-17.273 31.135-29.855 1.337-2.483 3.997-6.99 5.911-10.015 5.509-8.705 7.457-16.717 7.439-30.608-.02-15.765-2.328-21.952-11.169-29.94-5.121-4.626-19.969-11.64-29.316-13.848a819.284 819.284 0 01-12.5-3.064c-11.247-2.887-30.343-3.901-50.059-2.659-22.255 1.402-31.919 2.82-50.941 7.477-30.472 7.459-54.531 16.882-67.39 26.392-2.81 2.079-6.965 5.032-9.233 6.563-2.268 1.531-9.468 8.191-16 14.801-10.642 10.767-25.368 24.111-32.486 29.434-1.435 1.074-5.26 3.973-8.5 6.443-8.646 6.591-10.697 7.919-23.891 15.474-6.6 3.779-17.91 10.599-25.134 15.155-7.224 4.557-20.499 12.421-29.5 17.476-16.657 9.355-24.213 14.147-31.366 19.893-5.853 4.702-12.032 7.554-20.5 9.465-4.125.931-11.55 3.444-16.5 5.585-4.95 2.142-11.7 4.876-15 6.078-3.3 1.201-8.419 3.541-11.376 5.2-7.169 4.022-13.127 4.136-16.935.323-2.65-2.654-2.689-2.885-2.668-15.916.019-12.186.282-14.048 3.351-23.724 1.832-5.775 3.99-12.75 4.796-15.5 3.159-10.783 7.162-20.15 18.377-43 10.281-20.948 15.792-29.973 24.327-39.839l13.128-15.174c4.4-5.085 12.152-14.587 17.226-21.116a3223.49 3223.49 0 0115.5-19.781c3.451-4.351 7.57-9.74 9.154-11.976 1.584-2.236 8.768-11.051 15.966-19.59 13.588-16.12 14.858-17.574 26.285-30.083 3.798-4.158 10.015-11.583 13.816-16.5 3.802-4.918 9.657-12.091 13.012-15.941 3.355-3.85 8.025-9.343 10.377-12.206 5.045-6.142 28.472-26.848 41.628-36.794 5.093-3.85 16.09-12.508 24.438-19.24 16.524-13.325 22.014-17.244 35.629-25.43 18.088-10.875 37.043-19.302 62.469-27.773 13.475-4.489 25.4-8.556 26.5-9.036 5.088-2.225 7.5-1.901 7.5 1.005m208.269 33.63c-.677.274-2.027.291-3 .037-.973-.254-.419-.478 1.231-.498 1.65-.02 2.446.187 1.769.461m29.217 20.743c3.663 2.4 5.304 6.249 3.441 8.069-1.578 1.542-19.233 7.23-30.927 9.965-12.384 2.896-31.076 9.066-39.651 13.089-1.733.813-4.231 1.478-5.55 1.478-1.32 0-2.939.54-3.599 1.2-.66.66-1.2.865-1.2.456 0-1.517 4.737-5.726 13-11.552 4.675-3.296 8.95-6.362 9.5-6.815 7.454-6.133 22.893-13.774 35-17.322 4.777-1.4 17.001-.524 19.986 1.432m10.397 21.96c2.012 2.424 7.016 19.927 7.081 24.769.02 1.445-.59 3.147-1.355 3.782-2.047 1.699-22.937 8.56-31.609 10.382-4.125.867-12.675 2.31-19 3.207-11.386 1.614-18.982 2.921-34.523 5.942-4.412.857-9.501 1.559-11.307 1.559-5.858 0-12.149 2.157-14.953 5.128-2.919 3.093-4.205 3.484-5.896 1.793-.773-.773-.158-4.147 2.163-11.866 3.655-12.162 6.792-19.027 10.127-22.159l2.271-2.134 2.694 2.119c3.173 2.496 7.905 2.71 14.649.663 2.676-.811 4.967-1.043 5.282-.533.306.496-.088 2.443-.875 4.328-1.128 2.699-1.184 3.927-.263 5.775 1.898 3.806 5.363 4.991 13.669 4.674 7.138-.273 8.039-.585 17-5.889 5.204-3.081 12.931-7.251 17.17-9.268 6.979-3.319 7.769-3.99 8.351-7.093.418-2.226.11-4.495-.877-6.474-1.803-3.614-1.844-3.576 7.786-7.238 8.052-3.062 10.82-3.389 12.415-1.467m-28.648 13.043c1.233 1.844.939 2.147-4.308 4.438-2.79 1.219-9.067 4.624-13.95 7.567-8.929 5.383-14.4 7.228-18.021 6.079-3.74-1.187-2.198-4.079 3.912-7.335 6.635-3.537 8.61-5.463 7.789-7.601-.334-.871.48-2.299 1.982-3.48 2.293-1.805 3.509-1.943 12.204-1.385 5.311.34 9.988 1.113 10.392 1.717M952 220.885c0 5.68-6.918 12.971-17.36 18.299-11.348 5.789-27.755 8.398-50.64 8.051-18.29-.278-27.446-1.711-33.173-5.194-4.233-2.574-2.918-3.056 16.673-6.113 6.6-1.029 16.05-2.578 21-3.44 4.95-.863 12.375-1.965 16.5-2.45 10.508-1.235 24.009-4.362 34-7.876 10.273-3.614 13-3.881 13-1.277m137.5 388.158c8.355 2.491 21.486 4.747 31.237 5.368 4.531.288 9.484 1.169 11.007 1.957 1.524.788 9.292 2.715 17.263 4.282l14.493 2.85 69.5.317c62.861.286 70.377.149 78.681-1.434 6.546-1.248 9.824-1.463 11.418-.752 2.553 1.139 3.086.732-12.409 9.467-19.851 11.19-26.736 16.733-25.331 20.394.91 2.373 3.459 1.785 7.973-1.837 2.292-1.839 6.643-4.702 9.668-6.362 6.618-3.632 21.775-12.396 28-16.191 8.161-4.974 18.94-8.604 25.5-8.586 4.901.013 7.369.698 13.475 3.74 6.168 3.072 7.704 3.494 8.787 2.411 2.085-2.085.387-4.566-5.338-7.797-3.634-2.051-5.135-3.46-4.75-4.462.715-1.864 3.583-3.408 6.329-3.408 2.957 0 27.997 17.796 27.997 19.898 0 .862-1.715 1.76-11 5.766-12.091 5.216-26.459 13.626-35 20.486-4.675 3.755-8.969 7.395-9.541 8.089-.573.694-3.958 4.636-7.522 8.761-3.565 4.125-8.251 9.975-10.415 13-4.843 6.77-12.508 16.099-14.511 17.661-2.132 1.663-2.601 1.081-5.041-6.25-2.749-8.261-11.636-18.281-19.377-21.847-6.975-3.214-19.083-4.227-24.287-2.033l-3.806 1.605 2.361 1.932c1.874 1.534 3.931 1.932 9.985 1.932 6.31 0 8.551.468 12.989 2.714 7.433 3.761 13.512 10.815 16.149 18.738 1.171 3.518 2.778 6.936 3.572 7.595 2.185 1.813 1.754 4.393-1.552 9.291-2.827 4.19-6.814 11.806-10.291 19.662-4.049 9.149-5.608 13.29-8.786 23.339-1.885 5.961-4.129 11.219-4.987 11.683-2.578 1.396-18.764-2.757-25.571-6.561-5.784-3.232-12.369-9.357-12.369-11.505 0-.536 2.037-4.742 4.526-9.347 2.49-4.604 5.925-12.137 7.633-16.74 2.764-7.449 3.118-9.633 3.223-19.869.109-10.632-.082-11.879-2.532-16.52-5.634-10.67-19.484-19.775-32.028-21.054-6.907-.704-20.341.95-25.661 3.16-4.739 1.968-8.79 5.626-14.317 12.927-5.046 6.665-8.808 9.972-9.93 8.728-.368-.408-1.41-3.029-2.317-5.826-.906-2.797-3.615-7.788-6.019-11.092-9.199-12.642-16.16-15.661-33.772-14.645l-10.694.617-.612-2.898c-3.805-18.004-5.381-21.367-13.987-29.847-4.906-4.834-9.092-7.647-18.461-12.401-7.296-3.703-13.395-6.155-15.334-6.164-4.756-.023-6.199-1.217-4.748-3.93 1.096-2.047 1.637-2.15 7.854-1.5 3.672.385 9.376 1.504 12.676 2.488m-5 14.264c4.95 2.523 11.141 6.11 13.758 7.971 6.209 4.414 12.391 12.798 14.531 19.707 1.994 6.434 2.108 16.81.247 22.515-3.656 11.21-21.529 45.245-28.619 54.5-5.153 6.725-21.657 24.742-28.726 31.358-4.644 4.345-18.2 13.15-23.036 14.961-1.014.38-6.414.97-12 1.312-16.998 1.039-17.072 1.036-17.442-.82-.66-3.315 14.963-24.894 22.958-31.709 6.356-5.419 13.702-15.856 15.491-22.012 1.222-4.203 1.469-7.851 1.02-15.068-1.301-20.892-9.832-43.026-21.207-55.022-3.389-3.575-6.445-7.291-6.79-8.257-.495-1.385 1.428-3.104 9.094-8.129 11.751-7.703 17.097-10.614 19.496-10.614.993 0 3.58-.906 5.749-2.012 5.953-3.037 10.707-3.935 18.976-3.586 6.609.279 8.569.862 16.5 4.905m422.5 6.564c12.925.481 25.075 1.342 27 1.913 1.925.571 7.325 1.328 12 1.682 4.675.355 13.9 1.933 20.5 3.509 6.6 1.576 15.6 3.399 20 4.05 4.4.652 9.948 1.843 12.329 2.647 2.382.804 9.582 2.541 16 3.861 6.419 1.32 15.721 4.013 20.671 5.984 4.95 1.971 13.126 4.663 18.17 5.984 5.043 1.32 14.17 4.685 20.281 7.477 6.111 2.791 13.293 5.936 15.96 6.987 6.637 2.616 21.42 10.994 28.089 15.919 13.862 10.236 19.894 15.247 24.939 20.718 2.992 3.244 9.789 10.412 15.105 15.93 9.44 9.797 9.692 10.182 10.803 16.49.818 4.646 2.499 8.707 5.987 14.469 2.667 4.405 6.567 12.059 8.667 17.009 2.099 4.95 4.155 9.675 4.568 10.5.413.825 1.668 5.1 2.79 9.5 1.121 4.4 3.153 11.375 4.515 15.5 4.814 14.586 7.671 24.61 9.69 34 3.821 17.767 8.089 42.469 9.157 53 .67 6.606 1.23 60.748 1.509 146 .432 132.096.015 158.37-2.725 171.5-1.207 5.781-6.39 25.531-9.448 36-1.446 4.95-3.355 11.7-4.242 15-1.977 7.359-3.403 12.241-7.158 24.5-1.601 5.225-3.71 12.425-4.688 16-.978 3.575-2.564 8.975-3.525 12-.96 3.025-2.278 8.2-2.929 11.5-2.439 12.377-17.371 54.583-25.57 72.277-1.345 2.903-2.446 5.603-2.447 6-.003.84-6.566 13.805-11.757 23.223-3.213 5.83-13.011 20.696-26.694 40.5-13.296 19.244-34.053 38.82-52.047 49.084-15.31 8.734-17.267 9.386-28.217 9.401-10.783.016-44.935-4.834-53.283-7.566-4.861-1.591-19.428-5.726-27.5-7.806-5.003-1.289-35.462-15.813-43-20.504-2.2-1.369-8.5-5.036-14-8.149-28.724-16.259-33.982-19.614-50.869-32.459-9-6.845-18.807-16.01-36.47-34.084-26.746-27.368-26.983-27.707-33.093-47.417-1.791-5.775-5.887-17.7-9.102-26.5-3.216-8.8-6.161-17.35-6.545-19-.383-1.65-1.023-3.45-1.421-4-.398-.55-1.032-2.35-1.408-4-1.646-7.215-6.61-19.243-16.001-38.77-7.962-16.557-12.318-26.202-15.235-33.73-5.464-14.105-12.834-31.016-18.009-41.323-2.988-5.952-6.269-12.927-7.289-15.5-1.021-2.572-3.701-8.641-5.957-13.486-2.255-4.845-4.121-9.345-4.145-10-.024-.655-.717-2.991-1.54-5.191-2.679-7.165-10.201-32.083-12.269-40.643-4.223-17.481-5.835-27.111-7.676-45.857-.351-3.575-1.724-13.025-3.052-21-2.142-12.861-2.409-17.496-2.361-41 .029-14.575.478-34.15.998-43.5.519-9.35 1.369-25.55 1.887-36 1.096-22.073 1.112-22.174 7.987-48 .439-1.65 1.911-6.375 3.271-10.5 1.36-4.125 3.295-10.425 4.299-14 1.005-3.575 2.901-9.875 4.213-14 1.313-4.125 3.678-12.45 5.257-18.5 1.579-6.05 3.766-14.375 4.86-18.5 1.094-4.125 2.723-11.55 3.622-16.5 6.769-37.304 16.721-59.855 37.07-84 2.318-2.75 5.993-7.587 8.168-10.748 10.944-15.909 25.268-29.427 38.31-36.151 15.708-8.1 19.716-9.826 34-14.647 18.406-6.212 23.845-8.792 27.371-12.983 1.669-1.984 4.367-3.619 7.38-4.473 4.95-1.404 6.864-1.39 54.249.373m-326 10.675c-17.316 2.384-40.892 8.46-44.524 11.474-4.092 3.396.452 6.74 6.228 4.583 18.582-6.938 32.245-9.522 54.493-10.305 19.782-.696 22.825-.075 33.387 6.82 6.389 4.171 7.889 5.757 11.626 12.291 4.67 8.167 6.315 9.502 8.718 7.078 1.431-1.445 1.21-2.277-2.456-9.266-4.633-8.832-11.667-15.244-22.472-20.487-6.236-3.026-7.068-3.164-20.5-3.394-8.123-.139-18.408.367-24.5 1.206m-164.856 14.438c6.617 6.617 12.549 17.664 16.503 30.734 2.255 7.456 2.671 10.757 2.755 21.859l.098 13.078-3.925 5.922c-2.159 3.258-6.363 8.173-9.343 10.923-5.491 5.068-17.172 19.735-22.703 28.508-1.666 2.641-4.542 6.912-6.392 9.491-1.932 2.695-3.421 6.031-3.5 7.845-.121 2.78.209 3.196 2.769 3.487 1.598.183 4.523-.349 6.5-1.18 1.977-.832 7.194-2.004 11.594-2.603 10.163-1.386 33.189-.853 36.317.84 3.352 1.814 7.947 9.565 10.353 17.463 2.9 9.522 1.849 12.76-6.16 18.979-5.474 4.252-6.01 5.007-6.01 8.469 0 3.087-.929 4.917-4.949 9.751-13.19 15.859-38.296 57.381-37.306 61.7.896 3.908 3.815 1.967 10.357-6.888 2.166-2.932 5.345-6.059 7.064-6.948 4.112-2.126 23.468-3.012 34.884-1.596 13.205 1.638 18.64 4.121 27.33 12.486 8.97 8.634 10.241 11.985 11.238 29.631.653 11.553.615 11.848-2.643 20.643-1.819 4.907-5.932 12.953-9.141 17.88-5.896 9.054-7.119 13.112-4.279 14.202 2.595.995 4.956-.717 16.287-11.812 5.983-5.859 12.404-11.444 14.268-12.411 1.903-.988 6.537-1.964 10.563-2.225 5.973-.387 7.934-.096 11.728 1.74 7.746 3.75 11.583 10.335 16.926 29.048 3.293 11.531 3.863 18.635 3.427 42.694l-.433 23.806-3.639 12.5c-5.529 18.994-13.297 36.095-20.844 45.885-2.227 2.889-2.398 6.963-.325 7.758 2.033.78 3.723-.775 8.136-7.486 2.045-3.111 4.199-5.988 4.785-6.392.586-.404 5.301-.741 10.478-.75 8.175-.013 9.956.304 13.552 2.411 5.925 3.472 9.467 11.126 11.143 24.074 3.412 26.376 3.616 32.258 1.56 44.988-2.137 13.23-1.681 17.393 1.706 15.58 2.479-1.327 2.665-1.912 4.672-14.684 1.753-11.152 1.693-15.985-.503-40.884-1.024-11.607-2.46-17.435-6.067-24.619-4.803-9.564-10.528-13.01-22.725-13.679-9.476-.52-9.475-.518-6.159-9.216 2.814-7.381 7.592-22.899 9.695-31.486 1.39-5.678 1.705-11.626 1.665-31.5-.055-27.289-.455-30.282-6.614-49.467-3.653-11.378-4.722-13.565-8.725-17.845-5.903-6.311-10.717-8.687-19.003-9.382-7.79-.653-15.69 1.242-21.437 5.142L1098 953.94v-2.985c0-1.642.761-5.723 1.691-9.068 1.477-5.311 1.551-7.627.589-18.235-1.735-19.115-4.59-24.901-17.191-34.845-11.339-8.946-25.165-12.143-48.24-11.154l-10.849.465v-2.599c0-1.43.854-3.819 1.898-5.309 1.044-1.491 4.377-6.535 7.407-11.21 3.029-4.675 6.51-9.625 7.735-11 3.058-3.432 12.106-15.735 14.709-20 4.004-6.56 23.718-22.248 30.092-23.947 5.823-1.551 17.333-1.592 20.159-.071 4.91 2.642 9.355 10.256 12.013 20.579 2.409 9.355 5.946 46.234 5.942 61.939-.004 12.789-.911 17.509-5.13 26.701-3.226 7.028-3.204 9.799.076 9.799 3.018 0 6.851-6.575 10.184-17.468 3.009-9.835.48-59.508-4.074-80.033-2.94-13.25-9.108-23.93-16.011-27.727-3.01-1.656-4.976-1.863-14.049-1.478-11.374.481-13.758 1.278-22.199 7.419-2.612 1.9-5.247 3.289-5.855 3.086-.609-.203-2.13-3.595-3.38-7.538-2.968-9.361-6.435-15.139-12.05-20.081l-4.564-4.017 3.799-2.8c5.133-3.784 29.112-28.185 36.225-36.863 3.156-3.85 7.638-10.375 9.962-14.5 2.323-4.125 4.906-8.625 5.739-10 2.726-4.499 15.089-30.412 16.282-34.129 1.906-5.936 3.471-6.703 15.226-7.463 9.955-.644 10.907-.535 16.089 1.837 4.418 2.023 6.398 3.781 10.008 8.888 7.335 10.375 6.832 8.297 8.499 35.151.308 4.962.036 8.861-.749 10.757-1.285 3.102-9.882 11.088-20.983 19.49-3.575 2.707-8.975 7.21-12 10.009-3.025 2.799-8.875 7.367-13 10.151-10.052 6.786-17 13.39-17 16.16 0 3.993 2.73 3.516 8.719-1.526 6.613-5.566 7.13-5.934 27.601-19.685 22.196-14.91 26.201-17.108 36.475-20.012 11.322-3.201 12.583-3.234 14.428-.378 3.522 5.455 4.967 12.351 5.499 26.25.552 14.417-.945 26.866-4.301 35.77-2.607 6.916-1.5 10.913 2.438 8.805 2.704-1.447 4.592-6.84 7.169-20.485 4.634-24.535-.095-53.793-9.414-58.237-2.981-1.422-4.192-1.48-8.786-.422-6.839 1.575-12.828 2.414-12.828 1.796 0-.265.753-2.225 1.674-4.355.98-2.266 1.926-8.021 2.282-13.872l.607-10 7.468-8.899c14.639-17.442 14.674-17.472 22.469-19.102 11.334-2.371 20.599-1.984 26.783 1.117 11.213 5.623 13.578 7.603 16.839 14.1 2.971 5.92 3.098 6.66 2.666 15.5-.66 13.519-5.118 25.466-14.961 40.096-5.477 8.141-12.484 15.441-16.814 17.518-3.551 1.704-4.999 4.584-3.206 6.377 2.023 2.023 7.384-.455 13.634-6.3 3.472-3.249 6.746-5.907 7.274-5.907.528 0 2.734 1.688 4.904 3.752 5.529 5.26 17.403 10.925 26.881 12.824 4.4.881 8.61 2.107 9.356 2.724 2.329 1.925 1.021 9.506-6.677 38.7-1.668 6.325-3.741 13.862-4.606 16.75-.865 2.888-2.199 7.388-2.965 10s-3.032 10.15-5.037 16.75c-6.638 21.858-7.529 24.935-9.552 33-3.095 12.341-4.813 29.307-6.225 61.5-1.894 43.169-1.7 86.342.433 96.5.924 4.4 2.155 11.825 2.735 16.5.581 4.675 1.974 15.416 3.095 23.869 1.121 8.453 1.81 15.597 1.532 15.876-.279.278-5.137.448-10.798.376-8.889-.111-11.108.212-16.291 2.37-6.536 2.723-9.027 3.083-10.037 1.449-1.647-2.665 6.216-31.439 9.758-35.707.883-1.063 1.279-5.285 1.279-13.637 0-11.53-.159-12.47-3.408-20.096-4.211-9.887-12.273-18.678-18.711-20.403-5.941-1.592-35.115.208-37.202 2.295-1.298 1.298-1.312 1.742-.104 3.198 1.259 1.518 3.147 1.621 18.452 1.007 16.683-.668 17.122-.634 20.425 1.61 4.657 3.163 10.487 11.996 12.7 19.241 1.095 3.587 1.848 9.107 1.848 13.552 0 6.33-.486 8.518-3.114 14.025-4.001 8.386-5.709 14.517-8.419 30.232-3.056 17.718-1.607 18.999 13.342 11.796 8.154-3.928 11.869-4.627 22.406-4.217 3.082.12 5.11.949 7.542 3.085 3.442 3.022 3.873 4.101 10.818 27.079 7.588 25.109 13.121 39.325 23.934 61.5 9.361 19.198 14.193 30.086 18.64 42 4.066 10.895 8.241 20.453 13.446 30.781 1.048 2.079 1.905 4.404 1.905 5.166 0 .763.338 1.536.75 1.72 2.431 1.08 12.015 24.237 20.414 49.323 3.869 11.556 7.487 21.857 8.041 22.893.555 1.036 1.581 5.184 2.282 9.218 1.113 6.409 1.047 8.596-.522 17.329-.987 5.497-2.956 13.949-4.376 18.782-4.891 16.649-9.657 40.293-8.541 42.377 2.732 5.105 5.266.446 8.951-16.455 3.722-17.07 9.522-38.555 10.737-39.77.454-.454 1.937 1.282 3.295 3.858 6.054 11.486 9.395 16.232 16.038 22.778 3.907 3.85 7.505 7.739 7.995 8.643.721 1.327-.736 2.766-7.592 7.5-13.871 9.576-28.55 16.357-35.41 16.357-1.791 0-3.062.521-3.062 1.256 0 1.21-3.26 2.884-15 7.705-3.025 1.242-8.034 3.784-11.131 5.648-3.097 1.865-6.576 3.391-7.731 3.391-2.785 0-3.883-4.212-1.892-7.257.806-1.234 2.227-5.393 3.157-9.243 3.834-15.872 7.746-30.669 9.175-34.705 1.967-5.555 5.996-19.765 9.015-31.795 2.112-8.418 2.385-11.778 2.396-29.5.008-11-.46-23.825-1.039-28.5-.579-4.675-1.461-11.65-1.959-15.5-1.291-9.962-6.142-24.398-10.105-30.068-4.456-6.375-13.5-15.163-17.886-17.379-6.008-3.037-8.99-3.301-16.183-1.436-3.726.967-7.063 1.47-7.415 1.118-.352-.352-.798-8.484-.991-18.071-.386-19.187-1.006-23.085-5.547-34.859-4.006-10.39-12.958-20.978-21.656-25.613-5.677-3.026-6.553-3.192-16.855-3.192-12.82 0-15.686.696-23.545 5.72-10.479 6.699-14.301 9.824-14.61 11.944-.618 4.236 3.316 3.373 12.77-2.803 11.463-7.488 12.809-7.984 22.532-8.297 12.916-.416 15.898.679 24.111 8.856 7.503 7.471 9.709 11.031 13.37 21.58 1.925 5.547 2.333 9.253 2.779 25.278.351 12.638.102 21.705-.761 27.727-1.034 7.214-1.037 9.244-.018 10.472 1.979 2.384 2.808 1.874 5.463-3.367 2.814-5.552 10.562-11.11 15.488-11.11 4.675 0 11.209 3.438 16.397 8.628 13.73 13.734 19.22 36.649 19.133 79.872-.04 19.85-.447 22.531-6.379 42-3.77 12.375-12.329 42.671-13.51 47.821-.357 1.556-1.191 2.651-1.86 2.441-.667-.209-3.238-4.414-5.713-9.345-4.228-8.423-6.662-12.204-14.111-21.917-1.688-2.2-4.871-7.024-7.075-10.72l-4.006-6.72 2.096-2.665c1.985-2.523 2.096-3.837 2.092-24.78-.005-25.098-1.725-39.615-5.938-50.115-.441-1.1-2.946-7.625-5.566-14.5-8.095-21.243-15.441-31.097-27.896-37.418-8.443-4.286-15.366-5.44-33.096-5.518-9.945-.044-10.024-.025-14.391 3.446-2.415 1.919-4.492 3.49-4.616 3.49-.124 0-1.236-2.812-2.471-6.25-1.236-3.437-3.192-7.825-4.347-9.75-4.962-8.269-7.895-9.39-25.675-9.81-15.656-.37-22.244.567-38.177 5.431-4.772 1.457-9.316 2.404-10.099 2.103-1.15-.441-1.526-4.972-1.968-23.726l-.546-23.181-3.207-6.159c-3.963-7.61-5.442-9.302-10.503-12.014-3.764-2.018-5.386-2.144-27.5-2.144-22.472 0-23.725.102-28.652 2.331-6.525 2.952-9.681 6.271-9.681 10.179 0 6.063 6.82 7.233 7.517 1.289.216-1.85 1.419-3.347 3.816-4.75 3.261-1.909 5.117-2.049 27.169-2.049h23.668l2.597 2.439c1.429 1.342 3.828 4.492 5.332 7l2.734 4.561.324 25.104c.273 21.1.074 25.705-1.25 28.872-.866 2.073-1.574 5.528-1.574 7.678 0 2.151-.675 5.526-1.5 7.5-1.942 4.647-1.898 6.979.145 7.763 2.232.857 5.032-1.88 6.434-6.288.635-1.996 2.453-6.396 4.041-9.779 2.867-6.108 2.935-6.167 10.133-8.759 14.848-5.345 22.021-6.591 37.957-6.591 17.302 0 19.331.655 23.365 7.538 3.776 6.443 4.727 16.417 3.252 34.119-1.074 12.893-1.026 14.39.531 16.767 1.407 2.147 2.053 2.426 3.642 1.576 2.133-1.142 3.17-4.547 5.025-16.5.683-4.4 2.579-11.275 4.214-15.279 4.119-10.09 5.156-10.543 22.081-9.648 12.653.67 13.5.854 21.18 4.616 6.716 3.289 8.867 4.993 13.4 10.615 6.028 7.476 8.095 11.685 15.321 31.196 6.58 17.768 8.726 31.648 8.757 56.628.016 13.315-.31 18.403-1.229 19.166-.936.776-3.479-1.479-10.084-8.944-11.445-12.935-18.63-18.456-30.003-23.056-14.466-5.851-19.133-5.055-30.083 5.133-3.591 3.34-6.94 6.073-7.442 6.073-1.086 0-1.585-2.554-3.663-18.736-2.824-21.982-6.278-28.399-18.379-34.141-6.965-3.304-8.342-3.604-16.595-3.613-7.775-.009-9.748.358-14.5 2.698-8.314 4.094-19.03 15.033-23.122 23.604-2.155 4.513-3.986 7.096-5.056 7.132-1.839.061-2.239-2.334-3.332-19.944-.637-10.257-2.903-21.872-5.111-26.198-1.606-3.148-5.41-6.172-14.234-11.316-5.839-3.404-7.258-3.778-17.456-4.597-12.725-1.023-14.689-.681-14.689 2.562 0 2.851 1.583 3.343 13.5 4.193 7.376.527 10.173 1.231 15.5 3.904 3.575 1.794 7.732 4.56 9.238 6.148 3.507 3.699 6.759 16.05 6.771 25.714.004 3.899.641 12.49 1.415 19.09 1.569 13.384 1.28 42.528-.51 51.314-.595 2.922-1.729 5.562-2.519 5.865-.791.303-5.272-1.393-9.958-3.769-14.702-7.454-24.105-6.554-32.87 3.148-2.088 2.311-4.893 6.596-6.232 9.521-1.41 3.079-2.941 5.126-3.635 4.859-.66-.254-2.548-3.043-4.195-6.2-3.15-6.035-14.456-18.238-16.899-18.238-.787 0-7.05-2.925-13.919-6.5-10.41-5.418-13.304-6.5-17.391-6.5-7.412 0-14.234 3.935-24.594 14.187-4.898 4.847-9.241 8.813-9.651 8.813-.41 0-1.025-4.894-1.368-10.876-.668-11.68-4.286-30.315-7.611-39.201-2.772-7.41-9.32-13.629-21.346-20.273-12.547-6.932-19.21-8.45-29.629-6.747-4.179.683-9.337 1.746-11.463 2.362-4.474 1.297-9.634 6.017-9.634 8.812 0 2.718-2.186 2.4-8.679-1.265-11.105-6.267-29.188-4.823-46.493 3.713-5.13 2.53-10.598 5.81-12.149 7.288-3.082 2.935-12.797 17.037-14.768 21.437-2.558 5.71-4.761 3.399-17.957-18.845-5.189-8.748-10.439-18.83-11.666-22.405l-2.23-6.5 2.348-.9c1.291-.495 6.566-6.118 11.721-12.496 12.695-15.705 18.955-21.783 25.691-24.94 5.329-2.498 6.552-2.661 19.682-2.613 18.267.067 20.072.8 24.318 9.874 1.817 3.882 5.42 9.07 8.657 12.463 5.464 5.728 7.628 10.127 8.967 18.225.328 1.987 1.453 4.387 2.498 5.333 1.809 1.637 1.959 1.611 3.103-.527 2.788-5.21-2.863-23.147-8.191-25.998-2.187-1.171-8.629-10.589-11.82-17.282-2.757-5.783-5.02-6.943-16.938-8.686-12.578-1.839-24.758-.772-32.417 2.839-7.516 3.545-14.262 9.037-19.295 15.708-4.242 5.623-13.231 16.561-17.103 20.809-1.408 1.545-2.901 2.445-3.316 2-.416-.445-1.713-4.634-2.883-9.309-1.17-4.675-2.51-9.4-2.978-10.5-3.557-8.348-4.552-14.721-5.066-32.455-.295-10.15-.311-21.4-.036-25 .485-6.351.583-6.548 3.299-6.647 3.319-.12 6.58-3.08 18.617-16.898 12.135-13.93 12.77-14.553 20.188-19.798 9.285-6.565 14.357-8.654 21.072-8.68 5.337-.021 6.01.262 11.246 4.728 8.579 7.317 10.632 12.482 11.61 29.208 1.158 19.824 5.041 33.197 9.835 33.876 2.193.311 2.325.065 1.88-3.5-.263-2.109-1.422-7.434-2.574-11.834-1.214-4.633-2.45-13.692-2.937-21.526-1.023-16.45-2.675-20.564-11.952-29.76-7.264-7.2-9.339-8.214-16.812-8.214-12.442 0-30.615 11.5-43.266 27.379-8.819 11.069-17.794 19.994-19.219 19.113-.902-.558-1.049-2.562-.541-7.379.384-3.637 1.016-15.613 1.405-26.613.726-20.548 1.385-23.805 5.051-24.969 1.84-.584 4.061-4.342 5.633-9.531 1.064-3.513 4.722-9.013 8.127-12.222 2.7-2.544 3.606-2.752 13.863-3.19 6.036-.258 14.125-.018 17.975.534 24.316 3.486 25.735 4.164 33.536 16.027 3.128 4.756 6.937 12.076 8.465 16.266 3.632 9.958 4.557 10.194 16.723 4.276 15.275-7.429 21.392-8.391 25.903-4.069 2.333 2.235 3.152 2.48 5.555 1.663 4.101-1.394 8.363.117 13.136 4.656 3.584 3.41 4.182 4.566 4.182 8.085 0 2.258.51 5.058 1.132 6.221 2.533 4.732 3.797 13.777 3.81 27.253.017 17.773.287 17.381-14.442 20.998-6.05 1.486-15.275 4.06-20.5 5.721-8.477 2.693-9.993 3.553-14.081 7.985-2.52 2.732-5.893 7.39-7.495 10.352-2.705 5.001-2.795 5.502-1.264 7.032 2.146 2.147 2.641 1.769 9.334-7.123 3.112-4.136 6.713-8.209 8-9.053 1.288-.844 6.937-2.857 12.553-4.473 8.627-2.483 11.98-2.939 21.614-2.939 12.706 0 17.123 1.215 19.917 5.478 1.625 2.481 1.629 2.864.07 6.135-2.094 4.39-.761 8.053 2.328 6.4 4.645-2.486 6.284-.432 12.189 15.271 3.011 8.009 3.101 8.75 3.594 29.455.518 21.791 1.176 25.267 4.541 23.976.874-.335 1.839-2.209 2.145-4.162.305-1.954.795-5.097 1.087-6.984.293-1.887 1.959-5.15 3.701-7.25 4.405-5.309 27.618-26.051 31.267-27.938 3.809-1.97 18.889-3.92 23.527-3.042 8.587 1.626 21.195 13.567 26.576 25.17 5.458 11.769 7.916 36.404 4.889 48.991-.926 3.85-1.753 8.35-1.838 10-.132 2.565.204 3 2.315 3 3.851 0 6.145-7.305 6.778-21.585.833-18.77-2.422-38.396-7.845-47.317-1.635-2.688-1.649-3.19-.188-6.84 1.299-3.249 1.478-6.774 1.017-20.099-.504-14.573-1.155-19.652-4.798-37.41-1.813-8.837-6.993-14.266-19.393-20.322-5.736-2.802-10.614-5.619-10.84-6.261-.226-.641.194-3.191.933-5.666 3.989-13.364 2.671-23.908-5.366-42.927-4.487-10.619-6.601-14.354-10.107-17.86-8.457-8.457-17.883-10.414-27.264-5.66-4.96 2.513-17.372 11.601-25.185 18.44-4.079 3.569-13.783 15.734-19.272 24.156l-3.062 4.698-3.196-5.814c-3.028-5.509-7.8-10.647-13.073-14.077-3.543-2.305-2.148-5.053 7.842-15.444 12.971-13.492 25.737-31.516 29.989-42.339 3.249-8.271 6.429-20.342 10.979-41.673 1.056-4.95 3.359-13.275 5.118-18.5 2.802-8.319 3.257-11.179 3.658-23l.459-13.5-2.901-4.5c-1.595-2.475-4.85-5.847-7.231-7.493-3.824-2.643-5.262-3.018-12.293-3.201-4.38-.114-8.207-.452-8.506-.751-.773-.773 2.901-4.646 5.278-5.562 1.286-.496 2.591-.251 3.654.686 2.12 1.868 4.834.34 7.241-4.077.929-1.706 4.258-5.83 7.397-9.164 3.14-3.335 8.16-9.086 11.157-12.781 8.627-10.635 16.32-15.882 28.659-19.546 13.946-4.142 19.141-2.501 24.757 7.818 3.636 6.681 4.769 15.857 5.329 43.138.402 19.616.249 22.323-1.693 29.929-1.174 4.6-2.813 9.673-3.641 11.275-2.858 5.527-13.179 19.242-17.669 23.48-4.868 4.595-5.455 8.249-1.324 8.248 4.263-.001 19.37-17.72 25.182-29.537 4.224-8.587 6.49-23.442 6.505-42.643.008-9.296-.234-17.302-.537-17.792-.303-.49-.978-5.375-1.501-10.855-1.064-11.176-2.831-16.465-7.838-23.465-6.288-8.793-13.559-10.508-27.917-6.588-12.122 3.31-20.122 7.978-28.761 16.782-5.407 5.511-8.106 6.619-6.938 2.849 1.028-3.318 6.101-12.289 11.452-20.25C985.999 917.743 988 911.062 988 877.754c0-19.975-.191-22.518-1.972-26.197-3.231-6.673-11.009-10.695-25.52-13.197-3.436-.592-5.091-1.384-5.31-2.54-.175-.924 1.509-4.572 3.742-8.108 2.233-3.535 4.06-6.71 4.06-7.055 0-.345 1.345-2.813 2.989-5.484 1.643-2.672 3.634-6.688 4.424-8.926.789-2.238 5.632-12.547 10.761-22.908L990.5 764.5l.332-11.088c.488-16.308-1.95-22.893-10.638-28.727-4.672-3.138-18.203-6.107-23.631-5.185-1.685.286-11.388.978-21.563 1.538-10.175.56-20.638 1.289-23.25 1.62-3.8.482-4.75.306-4.75-.879 0-1.8 20.656-21.483 27.55-26.253 2.723-1.884 8.775-6.216 13.45-9.626 18.531-13.52 28.71-20.458 39.5-26.924 4.95-2.966 10.575-6.584 12.5-8.039 6.452-4.879 7.475-4.622 16.144 4.047m411.694 9.104c-2.72 1.042-5.838 6.187-5.838 9.633 0 1.056 1.546 3.725 3.435 5.932l3.435 4.014-5.891 6.191c-10.192 10.71-17.557 25.144-20.996 41.142-1.974 9.186-4.789 17.768-7.297 22.248-10.68 19.08-13.198 23.441-14.291 24.752-.688.825-2.633 4.287-4.323 7.694-5.206 10.496-3.767 18.522 3.568 19.898 5.44 1.021 9.706-1.496 13.233-7.807 1.624-2.907 4.595-7.985 6.601-11.285 14.3-23.521 20.233-37.226 23.375-54 1.44-7.684 6.772-18.501 13.121-26.62 2.745-3.509 4.999-7.182 5.01-8.161.054-4.867 5.343-1.954 18.578 10.232 4.264 3.926 14.673 16.443 17.92 21.549 4.088 6.429 13.755 26.91 17.094 36.216 1.931 5.381 5.458 14.734 7.837 20.784 2.38 6.05 6.829 18.65 9.887 28 3.058 9.35 6.415 19.025 7.46 21.5 1.725 4.085 6.538 19.316 12.798 40.5 1.3 4.4 3.697 12.5 5.326 18 4.128 13.932 6.12 22.195 6.12 25.381 0 1.495.445 3.164.99 3.709.544.544 2.376 5.697 4.07 11.45 1.693 5.753 3.701 12.485 4.461 14.96.76 2.475 2.042 6.75 2.849 9.5 2.063 7.029 6.217 18.035 9.211 24.407 1.398 2.973 3.59 8.598 4.872 12.5 1.281 3.901 2.798 8.218 3.369 9.593 2.651 6.375 7.262 22.482 9.161 32 1.151 5.775 2.554 11.94 3.116 13.7.563 1.76 2.071 8.06 3.351 14 1.28 5.94 3.105 13.5 4.054 16.8 1.906 6.626 2.583 9.482 7.944 33.5 3.653 16.365 6.006 29.857 9.068 52 .875 6.325 2.015 13.75 2.534 16.5.519 2.75 1.624 14 2.456 25 .832 11 1.994 23.375 2.583 27.5 2.43 17.038 3.182 42.682 3.574 121.921.404 81.598.367 83.653-1.687 94-1.155 5.819-2.357 14.636-2.671 19.594-.553 8.74-.488 9.114 2.151 12.25 2.228 2.648 3.443 3.235 6.699 3.235 4.736 0 7.37-1.25 9-4.273.66-1.225 2.28-8.752 3.6-16.727a6729.58 6729.58 0 013.25-19.5c1.26-7.418 1.208-156.208-.059-168.555-1.597-15.563.318-16.051 17.554-4.469 15.989 10.745 30.098 25.992 39.348 42.524 3.514 6.282 7.152 14.006 7.156 15.194.005 1.756 3.778 8 5.774 9.556.882.688 3.511 1.25 5.841 1.25 4.92 0 7.727-2.7 8.811-8.478 2.566-13.679-24.619-55.312-46.06-70.539-19.42-13.792-27.584-17.983-35.031-17.983-2.252 0-4.547-.562-5.101-1.25-.988-1.226-2.085-11.277-4.285-39.25-.606-7.7-1.707-18.05-2.447-23a4712.485 4712.485 0 01-5.505-38c-1.028-7.353-5.091-27.408-8.51-42-2.194-9.366-10.347-43.07-12.715-52.561-1.175-4.711-1.814-9.397-1.421-10.421.645-1.682.974-1.561 3.429 1.255 2.954 3.389 8.167 5.212 14.929 5.221 2.317.003 6.507.91 9.311 2.015 7.657 3.019 38.337 23.858 47.715 32.411 6.78 6.183 15.156 12.279 30.327 22.069 22.327 14.408 30.73 21.507 34.938 29.511 7.728 14.7 13.52 19.35 20.479 16.443 5.933-2.479 7.183-9.065 3.138-16.544a4155.512 4155.512 0 01-5.25-9.75c-3.888-7.248-17.973-22.036-23.952-25.149-2.641-1.375-7.753-4.499-11.361-6.943a3825.728 3825.728 0 00-16.89-11.342c-5.682-3.795-13.782-10.049-18-13.899-9.066-8.275-13.89-11.83-33.012-24.323-17.503-11.435-24.768-14.527-35.757-15.219-10.135-.637-14.406 1.091-18.448 7.464-3.145 4.959-2.738 5.5-5.818-7.738-2.834-12.184-11.011-35.919-19.476-56.533-2.492-6.068-5.451-14.466-6.576-18.664-1.125-4.197-2.934-10.033-4.021-12.967-1.882-5.085-5.755-18.985-8.59-30.836-.724-3.025-2.004-7.75-2.846-10.5-.842-2.75-2.623-8.825-3.96-13.5-3.666-12.825-12.263-40.778-14.455-47l-5.462-15.5c-1.938-5.5-5.165-15.175-7.17-21.5-2.006-6.325-4.245-12.85-4.977-14.5-.732-1.65-3.228-7.95-5.547-14-2.319-6.05-5.614-14.6-7.322-19-2.862-7.37-7.599-17.01-14.858-30.235-1.58-2.879-2.873-5.657-2.873-6.174 0-.517 2.588-.026 5.75 1.092 4.368 1.543 7.125 1.89 11.472 1.442 8.752-.9 26.553-5.187 39.778-9.579 11.04-3.666 25.69-7.046 30.544-7.046 2.11 0 6.338-.439 9.396-.976 3.058-.537 9.835-1.718 15.06-2.624 5.225-.907 10.71-2.265 12.189-3.018 8.407-4.283 7.339-15.705-1.679-17.969-1.464-.367-7.915.086-14.336 1.007-6.421.922-15.499 2.129-20.174 2.683-11.579 1.373-29.437 5.421-41.5 9.408-14.622 4.832-23.977 6.821-33.014 7.019-9.824.214-14.058 2.077-15.297 6.733-.509 1.91-.472 4.385.09 6.038 1.408 4.141.174 4.393-2.988.611-8.199-9.808-14.557-16.366-21.291-21.961-4.125-3.428-9.3-7.87-11.5-9.871-12.162-11.065-21.384-15.396-27.662-12.992m-460.991 62.87c11.539 1.668 16.739 7.71 17.828 20.714.735 8.779-.85 16.23-5.18 24.343-5.233 9.804-15.495 31.381-15.495 32.579 0 .373-4.05 7.78-9 16.46s-9 16.65-9 17.709c0 3.489 3.176 5.078 12.448 6.231 10.745 1.335 17.834 4.191 20.83 8.391 2.138 2.998 2.22 3.943 2.172 25.115-.044 19.743-.282 22.821-2.314 30-2.192 7.743-6.236 16.775-9.992 22.314-8.255 12.174-12.524 19.075-17.125 27.686-10.559 19.759-21.859 33.989-34.731 43.736-6.186 4.684-7.436 7.416-4.487 9.804 1.92 1.555 2.67 1.545 11.377-.157 12.769-2.496 17.748-2.412 21.832.367 5.534 3.766 7.195 6.867 7.721 14.409.557 8-.084 11.697-5.522 31.841-2.227 8.25-4.784 18.375-5.683 22.5-6.175 28.341-10.069 37.698-22.861 54.937-6.388 8.609-24.256 28.397-27.44 30.389-.726.455-5.237.954-10.023 1.11-7.198.233-10.422.932-18.654 4.041-6.82 2.575-10.412 3.468-11.413 2.837-.803-.507-2.449-4.546-3.658-8.975-1.294-4.74-3.507-9.861-5.378-12.446a1911.402 1911.402 0 01-8.063-11.267c-5.3-7.461-13.573-13.886-20.166-15.661-2.129-.573-9.833-1.121-17.12-1.217-15.006-.197-17.441.493-25.098 7.12-2.488 2.154-6.546 5.368-9.018 7.143-2.473 1.776-5.739 5.197-7.26 7.602-1.898 3.003-3.012 3.984-3.554 3.13-.434-.684-.796-10.787-.805-22.452-.02-28.166 1.933-42.274 5.856-42.303.896-.007 2.602-1.516 3.791-3.353 3.775-5.829 27.977-20.861 37.854-23.509 2.209-.593 13.155-1.118 24.324-1.169 16.433-.074 20.741.193 22.584 1.401 2.632 1.725 5.565 7.378 5.6 10.793.025 2.502 1.89 9.803 6.901 27.014 4.709 16.172 6.17 39.397 3.434 54.585-.537 2.98-.371 3.25 2.002 3.25 4.399 0 5.644-4.043 5.605-18.2-.051-18.744-1.496-31.069-5.018-42.8-3.951-13.161-5.544-19.306-6.456-24.898-1.43-8.766-4.923-14.167-10.71-16.563-2.908-1.204-7.921-1.539-23.02-1.539-26.882 0-32.615 1.647-53.364 15.333-5.557 3.665-11.266 7.742-12.689 9.061-1.422 1.318-2.838 2.143-3.147 1.834-.896-.896-.65-12.645.332-15.829.492-1.594 1.655-7.624 2.584-13.399 2.77-17.22 5.552-31.094 7.619-38l1.945-6.5 5.229-.099c2.876-.055 8.829-1.09 13.229-2.301 31.674-8.716 35.239-9.307 53.805-8.922 17.463.363 17.934.545 21.594 8.331 4.769 10.145 12.807 41.621 16.172 63.322 1.051 6.782 2.167 12.745 2.479 13.25.687 1.111 5.141 1.228 5.806.153.26-.422.072-2.912-.418-5.535s-1.326-8.016-1.859-11.984c-1.051-7.833-4.404-24.4-5.913-29.215-.516-1.65-1.729-5.925-2.693-9.5-6.075-22.511-7.8-26.446-13.97-31.863L857.93 985h-19.447c-19.267 0-19.607.038-36.715 4.082-9.497 2.246-20.339 5.12-24.092 6.389-7.938 2.682-8.819 2.054-6.833-4.874 1.197-4.174 9.74-36.801 12.724-48.597.905-3.575 3.586-12.575 5.959-20 2.373-7.425 4.639-15.3 5.036-17.5.397-2.2 1.333-4.888 2.08-5.973.747-1.084 1.358-2.991 1.358-4.237 0-9.958 14.33-48.77 23.992-64.982 1.046-1.755 2.915-5.58 4.153-8.5 1.238-2.919 3.009-6.433 3.936-7.808.928-1.375 5.152-7.847 9.389-14.382 11.134-17.177 39.264-51.3 50.219-60.918 4.656-4.088 20.959-8.277 37.603-9.662 24.32-2.023 31.647-2.224 39.555-1.08M845.978 753.75c-.012.962-3.666 6.25-8.12 11.75-4.453 5.5-10.001 12.925-12.327 16.5C814.939 798.276 810 806.113 810 806.643c0 .315-3.966 8.512-8.814 18.215s-9.872 20.567-11.163 24.142c-1.292 3.575-2.666 6.95-3.053 7.5-1.197 1.7-4.859 13.578-6.936 22.5-3.131 13.444-6.671 26.277-9.576 34.713-2.747 7.978-5.127 16.672-12.296 44.919-2.252 8.872-5.959 22.822-8.237 31-5.96 21.396-7.616 28.365-9.442 39.751-.892 5.564-2.716 16.253-4.053 23.753-1.481 8.314-2.432 17.486-2.436 23.5-.003 5.425-.424 12.421-.936 15.545-.512 3.125-.984 13.7-1.05 23.5-.136 20.422-2.763 61.554-4.178 65.423-.523 1.432-2.732 3.907-4.907 5.5-5.527 4.046-9.542 10.442-12.461 19.848-1.373 4.426-2.931 8.948-3.462 10.048-.53 1.1-1.376 3.8-1.879 6-2.252 9.853-4.476 17.412-6.619 22.5-2.232 5.298-6.112 17.389-12.358 38.5-1.627 5.5-4.125 12.6-5.551 15.779-1.426 3.178-2.593 6.4-2.593 7.16 0 3.816-14.664 33.029-20.841 41.519-3.567 4.903-3.807 8.378-.61 8.835 1.459.209 2.984-1.007 5.289-4.217 1.781-2.48 3.784-5.095 4.45-5.81 2.486-2.668 16.006-31.094 17.355-36.489.382-1.528 1.795-5.252 3.14-8.277 2.178-4.898 7.436-21.274 13.32-41.483 1.118-3.841 3.317-10.141 4.885-14 1.569-3.859 3.796-11.157 4.95-16.217 1.154-5.06 2.752-10.46 3.551-12 .799-1.54 2.421-6.252 3.604-10.47 2.344-8.359 6.74-14.83 10.074-14.83 1.934 0 1.995.436 1.429 10.25-.326 5.638-.864 24.759-1.197 42.491-.656 35.035-.336 38.411 5.234 55.259 1.364 4.125 3.1 10.427 3.858 14.004 2.914 13.754 8.772 27.36 19.594 45.516 4.269 7.161 8.05 14.169 8.402 15.572.443 1.765-.287 4.534-2.366 8.98-5.67 12.125-9.204 24.009-10.236 34.428-.545 5.5-1.379 13.825-1.853 18.5-.474 4.675-1.519 10.31-2.322 12.523-2.133 5.874-3.041 15.476-1.778 18.799.806 2.119 1.628 2.738 3.32 2.497 2.041-.29 2.301-1.01 2.826-7.819.318-4.125 1.312-10.425 2.21-14 1.694-6.743 3.425-18.712 4.7-32.5.971-10.51 6.805-27.423 10.522-30.508 1.616-1.342 1.999-1.2 4.089 1.514 1.267 1.647 4.953 6.369 8.189 10.494 3.237 4.125 9.411 12.9 13.721 19.5 4.31 6.6 11.275 16.5 15.477 22 4.203 5.5 9.513 12.7 11.801 16 2.287 3.3 6.234 8.677 8.77 11.949 2.536 3.272 5.702 7.997 7.036 10.5 1.334 2.503 2.983 5.441 3.666 6.528 4.039 6.435 12.092 18.597 14.583 22.023 1.599 2.2 7.744 11.425 13.656 20.5 21.412 32.871 48.598 63.604 62.051 70.148 7.423 3.61 22.291 7.239 36.184 8.831 11.589 1.328 14.739 2.426 13.722 4.785-2.774 6.432-12.466 38.657-13.455 44.736-3.678 22.599-8.138 41.199-13.667 57-1.925 5.5-5.277 15.4-7.449 22-2.172 6.6-4.609 13.418-5.417 15.151-.807 1.733-1.467 3.781-1.467 4.55 0 .77-.377 1.827-.837 2.349-.461.523-2.322 5-4.136 9.95-1.814 4.95-4.971 12.375-7.016 16.5-4.077 8.228-19.143 33.317-21.918 36.5-3.42 3.924-10.816 17.101-12.909 23-1.17 3.3-2.85 9.975-3.732 14.834-2.254 12.409-5.61 19.892-16.895 37.666-8.632 13.597-15.074 23.942-22.057 35.421-7.897 12.982-19.673 31.289-24.171 37.579-23.001 32.156-27.878 38.485-39.139 50.787-15.573 17.011-18.436 24.446-12.163 31.591l3.026 3.447-5.398 15.837c-2.97 8.711-7.509 21.688-10.087 28.838-4.697 13.022-6.943 19.954-8.587 26.501-1.37 5.457-7.045 19.074-9.792 23.499-3.142 5.062-9.425 12.322-21.634 25-11.972 12.432-14.584 17.482-22.49 43.5-3.26 10.725-6.903 22.418-8.097 25.984-6.079 18.166-7.568 27.68-9.034 57.723-1.278 26.193-1.678 31.302-3.051 39.043-.893 5.031-1.473 6.25-2.971 6.25-2.576 0-4.207-3.61-7.912-17.512-6.668-25.024-7.017-26.951-7.977-43.988-1.74-30.911-1.961-31.865-8.094-35.037-2.435-1.259-3.717-1.358-6.343-.491-4.056 1.338-6.325 3.803-10.612 11.528-7.172 12.923-21.594 32.69-33.927 46.5a2232.727 2232.727 0 00-14.543 16.5c-4.315 4.95-9.118 10.212-10.674 11.694-2.545 2.422-2.83 2.498-2.83.75 0-1.069.45-1.944 1-1.944s1-.745 1-1.656c0-4.441 16.268-32.784 25.302-44.084 8.049-10.066 16.455-22.456 18.738-27.617 1.841-4.161 1.891-4.872.573-8.026-1.533-3.671-4.471-6.078-8.674-7.11-1.857-.456-4.466.378-9.5 3.036a3872.445 3872.445 0 01-20.939 10.912c-18.569 9.612-33.009 18.336-43.121 26.052-4.556 3.477-11.343 7.754-15.082 9.505-3.738 1.751-7.578 3.589-8.533 4.086-.955.496-2.19.902-2.743.902-2.223 0-23.922 11.021-51.944 26.382-14.317 7.849-15.796 5.914-4.543-5.944 4.144-4.366 9.35-9.874 11.57-12.241 6.871-7.327 22.47-18.836 32.153-23.721 8.511-4.295 17.629-8.11 31.743-13.283 8.65-3.17 21.36-8.777 35.49-15.657 7.155-3.484 16.918-8.145 21.694-10.358 6.57-3.043 9.066-4.76 10.25-7.051 5.17-9.997-3.118-17.713-15.627-14.549-17.553 4.44-23.622 5.712-35.307 7.401-7.15 1.033-17.725 2.166-23.5 2.517-5.775.352-16.709 1.509-24.298 2.572-12.184 1.706-24.64 2.505-19.202 1.232 1.1-.258 2.45-1.029 3-1.715 1.103-1.374 15.701-7.522 31.079-13.088 9.277-3.358 13.051-5.208 30.921-15.155 3.85-2.144 9.461-4.952 12.468-6.241 6.059-2.597 17.342-7.763 26.532-12.147 10.325-4.926 22.102-17.829 32.359-35.454 6.262-10.762 4.817-8.359 16.837-28 11.537-18.851 13.836-22.816 15.947-27.5.867-1.925 3.721-8.225 6.342-14 2.62-5.775 5.098-11.625 5.505-13 .408-1.375 2.457-5.875 4.555-10 3.948-7.762 6.41-13.329 8.181-18.5.566-1.65 1.138-8.4 1.273-15 .631-30.919 3.124-63.672 5.525-72.591.625-2.32 1.723-7.636 2.439-11.813 2.985-17.405 6.563-34.122 9.009-42.096 1.434-4.675 3.888-12.55 5.452-17.5 1.564-4.95 3.122-10.209 3.463-11.688.558-2.418 2.342-6.62 8.837-20.812 1.132-2.475 3.355-7.622 4.938-11.437 1.584-3.816 4.841-10.341 7.238-14.5 7.604-13.192 8.684-15.21 17.434-32.563 7.825-15.518 9.204-17.61 15.815-24l7.242-7 3.23-12.5c3.054-11.817 3.272-13.866 3.988-37.5 1.475-48.666 2.34-57.131 9.244-90.5 2.209-10.68 7.301-27.572 9.558-31.713.536-.983 2.972-6.287 5.414-11.787 2.441-5.5 5.392-12.113 6.557-14.695 1.165-2.582 2.118-4.998 2.118-5.367 0-1.155 10.927-22.515 16.219-31.704 4.519-7.847 4.987-9.213 4.465-13.023-.741-5.407-.173-6.238 5.256-7.697 6.342-1.704 11.064-6.692 11.045-11.664-.018-4.37-.49-5.285-3.958-7.658-3.335-2.283-6.747-2.136-18.529.796-11.298 2.812-21.224 3.173-38.952 1.419-13.245-1.311-31.596-5.379-40.046-8.878-13.874-5.744-25.967-12.417-35.5-19.588a4092.85 4092.85 0 00-17.074-12.715c-32.71-24.242-50.074-48.73-54.407-76.726-.383-2.475-1.314-6.75-2.069-9.5-.755-2.75-2.071-9.275-2.926-14.5-.854-5.225-2.22-12.425-3.034-16-.815-3.575-2.171-13.7-3.014-22.5-.844-8.8-2.181-21.85-2.973-29-.792-7.15-1.454-15.665-1.471-18.922-.018-3.257-.693-9.557-1.501-14-5.681-31.242-7.511-92.294-3.435-114.578 2.052-11.214 5.091-22.385 8.842-32.5 1.02-2.75 3.969-11.75 6.554-20l6.11-19.5c7.475-23.834 10.978-36.448 15.413-55.5 4.858-20.872 11.543-34.478 31.071-63.237 2.703-3.98 4.914-7.499 4.914-7.82 0-.32 1.313-2.491 2.917-4.823 1.605-2.332 4.826-8.038 7.157-12.68 2.332-4.642 6.475-12.49 9.206-17.44 2.732-4.95 6.319-11.475 7.971-14.5 1.653-3.025 3.551-6.175 4.217-7 1.446-1.79 10.532-16.885 10.532-17.498 0-.591 7.239-10.587 14.932-20.616 7.102-9.26 60.828-63.905 62.818-63.893.697.004 1.247 1.224 1.243 2.757-.01 3.774-3.663 18.711-5.397 22.063-1.694 3.277-15.183 17.231-21.846 22.6-5.42 4.368-6.601 8.587-2.403 8.587 2.865 0 14.637-9.843 23.403-19.567 5.455-6.051 6.617-8.078 9.131-15.933 1.585-4.95 3.187-11.132 3.56-13.738 1.002-7.004 6.972-19.215 10.819-22.132 1.782-1.351 5.94-3.205 9.24-4.119 14.812-4.102 13.505-3.931 13.478-1.761m627.258 23.905c-5.832 2.874-16.418 15.689-29.61 35.845-1.8 2.75-8.64 12.763-15.199 22.25-14.31 20.697-21.142 31.034-32.464 49.116-8.477 13.539-20.757 31-35.961 51.134-11.5 15.228-16.969 27.302-16.985 37.5-.02 12.966 8.385 19.683 15.954 12.75 2.523-2.311 3.181-3.948 4.122-10.25 1.749-11.702 3.656-14.924 28.412-48 7.893-10.546 12.34-17.096 20.244-29.817 4.813-7.746 11.273-17.819 14.355-22.384A1213.998 1213.998 0 001436.569 860c2.673-4.125 8.731-12.9 13.46-19.5 4.73-6.6 10.797-15.375 13.483-19.5 6.136-9.423 12.516-17.942 18.678-24.938 2.665-3.026 5.056-6.854 5.389-8.629.819-4.366-1.7-8.931-5.698-10.325-4.09-1.425-4.727-1.385-8.645.547m-616.709 4.961c-2.7 2.7-1.221 3.782 6.651 4.869 12.399 1.713 20.745 9.08 30.053 26.528 7.929 14.862 8.068 15.434 12.276 50.422 1.545 12.848 2.76 15.553 5.94 13.228 1.798-1.315 1.803-1.884.153-18.26-.937-9.297-2.571-20.953-3.632-25.903-2.182-10.184-9.335-25.695-15.995-34.684-4.319-5.83-14.397-14.519-19.27-16.614-4.202-1.806-14.212-1.55-16.176.414M1565.453 788c-29.386.564-30.418.813-32.528 7.854-.985 3.29-.896 4.26.601 6.545 3.259 4.974 3.884 5.063 39.974 5.716 18.7.338 37.822 1.14 42.493 1.783 15.2 2.091 27.227 9.808 39.031 25.041 7.058 9.11 24.314 25.477 35.976 34.123 9.414 6.979 24.142 14.411 31.634 15.963 8.952 1.855 30.82 4.97 34.866 4.967 9.553-.007 16.5-4.223 16.5-10.012 0-7.257-3.881-9.591-18.188-10.937-20.099-1.892-29.596-3.848-39.105-8.054-11.122-4.92-36.912-27.168-46.357-39.989-5.783-7.851-16.144-17.207-24.385-22.021-10.245-5.983-19.458-8.812-32.381-9.943-17.161-1.502-20.308-1.57-48.131-1.036m-362.407 24.206c-5.774 2.858-33.441 29.238-33.85 32.275-.209 1.552.306 2.417 1.646 2.767 2.274.595 10.276-6.039 21.454-17.786 8.13-8.543 14.048-12.462 18.822-12.462 6.256 0 15.984 13.219 20.972 28.5 2.099 6.432 2.317 9.199 2.679 34.081.239 16.366-.019 29.318-.65 32.734-1.815 9.819-8.341 21.964-18.823 35.035-3.463 4.317-6.296 8.576-6.296 9.462 0 .887-1.199 2.569-2.664 3.737l-2.663 2.124 2.25 2.25c1.618 1.618 2.936 2.078 4.69 1.638 6.068-1.523 13.335-1.569 17.524-.11 5.399 1.881 7.305 1.927 8.728.212 2.359-2.843-5.722-7.663-12.848-7.663-7.783 0-8.67-1.599-3.883-7 7.394-8.344 16.676-24.255 19.296-33.078 2.323-7.82 2.286-62.388-.048-71.858-2.396-9.724-7.362-19.758-13.307-26.889-8.725-10.466-14.174-12.352-23.029-7.969m-62.709 59.976c-2.604 1.259-3.608 4.348-1.88 5.782.718.596 3.147.778 5.706.427 5.309-.728 13.129 2.206 17.148 6.432 3.648 3.837 7.582 12.191 8.647 18.364 1.277 7.399 2.91 29.214 3.662 48.908.59 15.454.475 17.128-1.671 24.357-1.686 5.681-2.026 8.202-1.267 9.405 1.504 2.385 2.462 2.053 5.018-1.739 3.447-5.116 4.288-9.497 4.294-22.368.008-15.06-1.843-50.749-2.969-57.25-1.215-7.022-4.604-15.646-8.342-21.229-5.664-8.46-21.21-14.541-28.346-11.089m-310.837 6.76c-4.755.821-9.023 2.868-20.75 9.948-7.174 4.331-8.75 5.723-8.75 7.728 0 1.345.641 2.691 1.424 2.991.783.301 5.702-1.972 10.933-5.05 13.92-8.193 17.267-9.512 24.203-9.537 7.308-.027 21.096 3.295 27.886 6.717 10.244 5.164 21.746 18.638 26.831 31.432 4.249 10.69 4.445 17.22.943 31.329-3.914 15.768-5.583 25.11-4.836 27.059.366.952 1.504 1.454 2.862 1.261 1.868-.265 2.483-1.347 3.593-6.32.736-3.3 2.648-11.251 4.25-17.669 3.87-15.512 3.96-25.755.317-36.021-2.886-8.135-5.303-12.168-13.202-22.03-8.01-10.002-18.361-16.87-29.204-19.379-3.025-.7-7.3-1.741-9.5-2.313-4.419-1.149-10.876-1.205-17-.146m697 37.323c-8.497 3.798-21.312 12.698-25.996 18.052-5.234 5.984-11.823 18.672-14.116 27.183-.889 3.3-2.22 8.25-2.957 11-.738 2.75-2.016 9.5-2.84 15-.825 5.5-2.218 13.15-3.097 17-.878 3.85-2.673 13.075-3.989 20.5-3.712 20.951-6.066 27.977-16.411 49-7.155 14.541-10.95 22.642-16.758 35.775-2.383 5.388-10.536 28.364-12.5 35.225-.551 1.925-2.723 8.675-4.827 15-4.647 13.974-6.43 20.205-8.586 30-.908 4.125-2.913 12.675-4.457 19-2.922 11.977-5.966 30.92-5.966 37.13 0 9.889 12.68 13.13 17.829 4.556 2.315-3.854 2.636-5.175 4.663-19.186.876-6.05 2.231-13.025 3.013-15.5.781-2.475 2.363-9.225 3.515-15 2.51-12.579 3.952-17.872 8.994-33 2.108-6.325 4.283-13.075 4.834-15 1.498-5.234 9.755-28.917 11.68-33.5 2.874-6.845 6.38-14.324 16.17-34.5 11.091-22.858 10.746-22.078 12.611-28.5 3.569-12.287 4.82-17.765 6.622-29 1.059-6.6 2.622-14.643 3.474-17.872.852-3.23 2.241-10.532 3.087-16.226 3.709-24.985 10.062-41.724 18.304-48.232 2.037-1.608 7.18-5.031 11.428-7.606 9.574-5.803 11.776-8.452 11.776-14.16 0-4.248-2.671-8.382-5.439-8.418-.583-.007-1.961-.226-3.061-.485-1.1-.259-4.25.534-7 1.764m-797.415 77.919c-3.254 1.249-7.07 3.781-9.56 6.344-5.608 5.77-7.238 11.449-10.468 36.472-1.793 13.893-9.464 34.247-16.73 44.388-2.015 2.811-7.745 8.937-12.734 13.612-12.708 11.908-22.164 22-24.8 26.469-.388.659-3.871 3.835-7.74 7.057-7.942 6.616-15.053 16.009-15.053 19.883 0 3.961 3.439 3.347 6.744-1.205 2.901-3.996 20.875-22.727 42.842-44.646 7.198-7.182 14.767-15.467 16.822-18.41 7.547-10.814 16.075-33.791 17.684-47.648 3.62-31.188 5.143-33.508 25.658-39.097.688-.187 1.25-1.479 1.25-2.872 0-2.319-.356-2.527-4.25-2.479-2.337.029-6.687.988-9.665 2.132m322.915-.625c-11.819 3.068-16.081 4.718-17.531 6.787-1.389 1.983-1.341 2.229.613 3.103 1.54.688 5.101.174 12.967-1.872 15.626-4.063 22.356-2.244 32.731 8.847 13.67 14.613 21.665 33.301 23.483 54.888 1.11 13.184 1.135 12.887-2.8 33.688-1.58 8.348-4.353 48.994-4.402 64.508-.017 5.504-.499 12.254-1.07 15-2.275 10.933-2.344 12.419-.607 13.086 2.467.947 4.432-1.26 6.201-6.964 1.146-3.694 1.829-12.128 2.442-30.13 1.043-30.63 2.282-45.676 4.937-59.943 5.934-31.895-.931-61.307-19.736-84.555-8.132-10.054-15.147-14.785-25.027-16.879-6.236-1.322-5.3-1.355-12.201.436m-91.257 63.031c-2.064 2.064-.323 4.587 6.007 8.705 13.018 8.471 16.885 12.158 20.378 19.428l3.257 6.777.582 24c.424 17.482.952 24.663 1.944 26.44l1.363 2.44 1.958-2.418c1.829-2.259 1.944-3.896 1.75-24.94-.243-26.331-.35-24.572 1.406-23.115 1.086.902 2.07.579 4.523-1.486 4.255-3.58 14.999-7.115 24.089-7.926 14.391-1.284 36.978 6.384 44.245 15.019 3.786 4.5 9.396 15.267 11.194 21.486 2.031 7.021 2.868 8.284 5.181 7.82 2.691-.54 2.42-7.965-.543-14.896-3.579-8.374-9.989-18.67-13.449-21.605-4.265-3.617-19.733-10.787-27.459-12.728-3.629-.912-10.486-1.591-16.068-1.591-12.234 0-25.134 3.705-30.49 8.756-3.987 3.761-4.433 3.466-7.607-5.016-1.686-4.507-3.471-6.905-8.325-11.187-11.975-10.562-21.677-16.221-23.936-13.963m-144.802 77.03c3.767 1.574 8.059 5.122 8.059 6.661 0 .513-.788.628-1.75.255-2.715-1.051-25.033-3.518-31.918-3.527-3.393-.005-6.88-.282-7.75-.616-2.773-1.064-1.705-3.16 2.168-4.255 5.101-1.444 26.639-.42 31.191 1.482m170.057 20.378c3.218 2.694 5.819 6.07 7.555 9.806a670.288 670.288 0 004.111 8.696c6.046 12.386 7.587 24.111 4.787 36.443-1.005 4.432-2.306 8.072-2.89 8.091-7.959.253-13.765 1.301-21.431 3.869-18.056 6.049-30.263 13.776-39.253 24.847-5.242 6.455-8.327 7.822-10.835 4.801-.661-.797-2.853-1.987-4.872-2.645-4.194-1.367-5.453-2.756-4.446-4.906.387-.825.945-12.075 1.24-25l.536-23.5 2.563-.298c1.517-.177 3.218-1.401 4.168-3 2.877-4.844 14.71-19.632 18.029-22.534 7.64-6.679 22.06-17.021 25.505-18.294 5.507-2.034 9.653-1.047 15.233 3.624m592.452 12.885c-6.729 3.057-15.156 14.967-27.677 39.117a1615.248 1615.248 0 01-10.027 19c-2.521 4.675-5.11 10.495-5.753 12.933-1.218 4.621-3.858 10.645-12.146 27.718-5.211 10.733-16.101 25.83-24.613 34.121-6.586 6.415-8.775 11.364-7.274 16.442 1.373 4.643 4.349 6.786 9.422 6.786 3.601 0 4.571-.66 11.399-7.75 7.209-7.486 16.434-18.424 20.966-24.86 4.061-5.767 18.007-34.815 21.311-44.39 1.804-5.225 5.134-12.65 7.401-16.5 2.267-3.85 6.532-11.725 9.476-17.5 5.67-11.12 11.783-21.019 16.871-27.318 4.632-5.736 5.699-9.816 3.678-14.074-1.051-2.216-2.754-3.855-4.714-4.538-3.849-1.342-3.499-1.376-8.32.813M1004 1225.392c13.609 3.267 26.192 12.536 27.557 20.298.368 2.096 1.321 6.735 2.117 10.31 1.775 7.974 3.009 38.717 1.61 40.116-.64.64-2.429-.23-5.153-2.507-2.296-1.918-6.582-4.864-9.524-6.548-4.889-2.797-6.133-3.061-14.43-3.061-9.678 0-17.919 1.346-22.468 3.669-2.982 1.523-9.734 7.351-21.503 18.563-4.211 4.012-7.87 6.727-8.658 6.425-.901-.346-1.603-3.183-2.066-8.34-1.216-13.562-2.573-18.277-9.557-33.205-2.159-4.614-3.925-9.3-3.925-10.413 0-3.189 5.623-11.134 12.167-17.193 9.924-9.188 33.114-19.341 44.333-19.41 2.2-.014 6.475.569 9.5 1.296m159.528 100.959c5.475 2.631 7.437 4.188 9.137 7.25 2.871 5.172 4.985 15.925 6.369 32.399 1.985 23.621 4.408 25.212 16.57 10.877 11.195-13.195 14.648-14.2 28.653-8.337 8.748 3.662 15.418 8.615 22.971 17.059 2.349 2.626 7.105 7.899 10.567 11.716 3.462 3.817 7.239 8.795 8.393 11.063 2.569 5.045 11.405 18.252 12.781 19.103 3.739 2.31 14.051 24.833 17.554 38.337 1.848 7.126 1.847 7.256-.074 9.145-3.558 3.498-23.361 15.008-24.844 14.439-.801-.307-1.759-2.436-2.13-4.73-1.21-7.49-13.624-44.01-17.225-50.672-5.572-10.31-9.793-16.315-13.256-18.86-4.315-3.172-15.179-4.507-30.418-3.739-13.804.696-17.83 2.166-21.494 7.849-1.329 2.063-3.155 3.75-4.057 3.75-.933 0-2.356-1.616-3.301-3.75-1.521-3.434-9.114-10.353-14.224-12.962-3.601-1.838-18.232-3.551-24.225-2.835-14.93 1.782-21.747 4.994-30.525 14.381-5.402 5.777-6.034 8.166-2.16 8.166 1.711 0 4.509-1.735 8.25-5.117 3.113-2.815 8.135-6.273 11.16-7.686 4.968-2.319 6.71-2.571 18-2.599 13.864-.035 16.531.741 23.735 6.907 4.595 3.933 8.265 13.418 8.265 21.361 0 3.43.537 5.31 1.857 6.505 1.742 1.576 1.994 1.57 4.044-.095 1.566-1.272 2.429-3.503 3.044-7.867 1.02-7.24 5.936-16.578 9.609-18.251 3.029-1.381 28.104-1.538 33.818-.212 2.13.494 5.332 2.313 7.116 4.042 4.815 4.668 12.552 21.313 18.83 40.512 6.069 18.56 8.337 28.754 7.31 32.847-.473 1.882-4.325 5.362-13.396 12.1a22614.387 22614.387 0 00-18.232 13.557c-5.345 3.984-22.058 14.902-33.67 21.996-7.81 4.771-24.461 15.29-38.33 24.214-6.325 4.069-13.525 8.24-16 9.269a712.263 712.263 0 00-8.695 3.694c-4.993 2.17-7.928 2.254-11.305.323-4.188-2.394-6.649-1.767-11.475 2.924-7.395 7.187-11.342 8.076-35.851 8.076h-20.826l-.227-33c-.199-29.04-.48-34.26-2.342-43.5-1.163-5.775-2.413-12.693-2.777-15.374-.973-7.168-5.349-19.612-8.306-23.626-5.848-7.935-10.536-10.873-22.237-13.936-7.164-1.875-10.576-2.182-21.161-1.9-12.319.328-12.711.408-16.459 3.371-5.739 4.538-10.627 15.259-15.256 33.465-4.6 18.09-5.639 21.159-6.436 19-1.376-3.725-3.546-12.944-4.119-17.5-.775-6.149-5.123-21.788-7.213-25.939-.848-1.684-3.607-6.117-6.132-9.851-4.374-6.469-4.531-6.943-3.325-10 .697-1.766 2.635-7.035 4.308-11.71 3.376-9.433 4.326-10.994 6.706-11.012 1.515-.012 6.128-5.896 6.128-7.817 0-.471 1.67-4.189 3.712-8.264 3.981-7.943 12.261-16.973 20.234-22.067 7.298-4.663 10.574-4.104 28.132 4.798 13.437 6.812 15.487 8.196 18.96 12.796 7.304 9.675 8.377 13.284 8.786 29.566.353 14.068.996 17 3.727 17 2.743 0 4.157-3.007 4.78-10.168.822-9.434 4.965-24.769 8.395-31.071 6.423-11.8 15.508-14.11 28.246-7.182 6.985 3.799 10.337 7.242 13.318 13.679 2.514 5.429 5.834 22.24 7.65 38.742 1.112 10.104 1.338 54.363.395 77.258-.42 10.178-.245 14.146.671 15.25 1.427 1.718 1.963 1.797 3.897.573 1.045-.661 1.461-3.781 1.631-12.234.322-15.942 1.235-18.305 16.558-42.847 7.791-12.48 12.668-15.41 21.609-12.986 13.525 3.666 22.099 12.61 25.387 26.486 4.909 20.716 9.226 30.144 12.541 27.393 1.872-1.554 1.759-2.657-1.196-11.612-1.412-4.28-3.664-11.955-5.003-17.056-4.403-16.761-12.092-25.635-26.587-30.683-5.113-1.781-15.052-2.014-18.159-.425-4.136 2.115-10.835 9.396-14.278 15.519-1.898 3.375-4.665 7.351-6.15 8.836l-2.7 2.699-.774-2.835c-.426-1.56-.717-10.711-.646-20.336.125-17.006-.881-29.191-3.744-45.36-.766-4.324-1.392-9.15-1.392-10.726 0-1.576-.814-4.204-1.808-5.839-1.964-3.23-1.863-5.052 1.227-22.075a1965.84 1965.84 0 003.157-18c4.569-26.907 9.78-39.48 20.395-49.215 9.126-8.369 11.977-9.687 21.057-9.741 6.538-.038 8.446.397 14.5 3.307m-242.005 14.545c10.52 5.539 14.338 8.538 17.623 13.844 3.116 5.035 7.832 25.463 8.529 36.948.796 13.103-.655 22-6.31 38.683-4.956 14.621-6.262 17.629-7.656 17.629-.524 0-4.611-3.542-9.081-7.872-9.529-9.228-11.034-10.128-16.937-10.128-6.227 0-11.973 2.272-19.079 7.543-6.431 4.77-10.692 10.075-18.056 22.476-4.799 8.082-9.778 13.58-11.394 12.581-.55-.34-2.58-3.426-4.512-6.859-1.932-3.433-5.681-8.956-8.332-12.275-2.65-3.319-6.364-8.269-8.253-11-1.89-2.731-5.49-7.52-8-10.641-5.099-6.339-8.335-10.96-17.384-24.825-3.41-5.225-8.918-13.1-12.24-17.5-5.433-7.196-7.077-11.5-4.393-11.5.495 0 1.644-1.463 2.553-3.25 3.711-7.303 11.627-18.542 14.612-20.75 5.608-4.146 18.096-9.779 24.421-11.015 3.374-.66 9.899-1.028 14.5-.819 12.57.573 16.346 3.687 19.942 16.448.787 2.794 1.002 10.657.67 24.5-.531 22.115-.711 23.115-8.688 48.304-8.872 28.014-8.984 28.629-5.483 29.973 1.77.679 3.749-2.348 5.815-8.891 5.98-18.94 11.661-37.611 12.476-41 2.432-10.115 3.342-21.849 2.909-37.5-.41-14.805-.73-17.219-3.116-23.496-1.462-3.847-2.659-7.11-2.659-7.25 0-.14.91-.254 2.021-.254 1.112 0 3.786-1.168 5.943-2.595 5.414-3.583 13.159-5.349 22.059-5.031 6.896.247 8.355.707 17.5 5.522m-740.371 49.952c-1.016 1.016-2.621 4.953-3.567 8.75-.946 3.796-2.193 8.702-2.772 10.902-2.712 10.314-3.795 26.996-3.804 58.576-.006 23.398-.429 35.566-1.499 43.189-.936 6.671-1.669 22.242-1.972 41.924-.613 39.718-3.27 85.387-5.437 93.435-1.055 3.918-2.858 17.225-5.132 37.876-1.731 15.719-.844 64.267 1.371 75 .908 4.4 2.535 13.175 3.616 19.5 4.519 26.444 8.318 43.521 13.458 60.5 2.997 9.9 6.22 20.925 7.162 24.5.942 3.575 2.522 9.425 3.511 13 .989 3.575 1.829 7.625 1.867 9 .038 1.375 1.198 7 2.577 12.5 4.708 18.781 5.469 27.232 5.468 60.743-.001 40.52-1.903 60-7.9 80.924-1.051 3.667-2.425 10.867-3.054 16-.629 5.133-1.661 12.033-2.292 15.333-.735 3.839-1.412 29.049-1.88 70-.402 35.2-1.195 73.675-1.763 85.5a11040.42 11040.42 0 00-1.964 43c-.921 21.302-.977 21.679-6.031 41-5.788 22.124-6.188 23.565-12.606 45.5-5.325 18.198-7.058 23.533-11.535 35.5-1.749 4.675-4.719 13.45-6.601 19.5-1.882 6.05-4.297 13.25-5.368 16-1.071 2.75-3.57 9.5-5.555 15-3.976 11.024-16.294 35.364-22.488 44.438-4.198 6.151-4.696 7.928-2.762 9.862 2.159 2.159 3.271 1.3 8.478-6.55 13.288-20.032 22.659-41.788 37.365-86.75 2.878-8.8 5.797-17.125 6.487-18.5.689-1.375 2.64-7.225 4.336-13 1.695-5.775 4.415-15.017 6.043-20.538 1.629-5.521 4.322-15.421 5.983-22a2163.066 2163.066 0 016.645-25.462c3.18-11.851 3.674-15.272 4.041-28 .23-7.975.909-25.75 1.508-39.5.6-13.75 1.423-54.475 1.83-90.5.5-44.304 1.111-66.794 1.89-69.5.633-2.2 1.621-8.95 2.195-15 .574-6.05 2.149-14.877 3.5-19.616 6.003-21.047 6.829-29.774 7.246-76.518.363-40.624.261-43.816-1.744-54.852-1.172-6.445-2.533-12.777-3.025-14.072s-1.582-6.312-2.42-11.148c-.839-4.837-2.642-12.619-4.006-17.294-10.345-35.45-12.849-44.227-14.12-49.5-1.938-8.038-6.283-29.984-8.018-40.5a624.604 624.604 0 00-3.101-17c-2.203-11.027-3.088-61.209-1.368-77.5 1.866-17.666 4.166-34.871 4.801-35.897.322-.522.968-6.834 1.434-14.026.466-7.192 1.322-20.052 1.902-28.577.58-8.525 1.418-31.7 1.861-51.5.577-25.73 1.269-38.567 2.428-45 1.286-7.139 1.626-16.133 1.645-43.5.024-35.441.49-42.014 4.068-57.466 2.691-11.62 3.223-12.534 7.296-12.534 6.975 0 8.228 4.628 9.608 35.5 1.445 32.304 3.459 43.758 9.931 56.459 2.122 4.164 5.07 12.415 6.552 18.335 2.684 10.717 2.693 10.879 2.148 37.984-.301 14.972-1.025 31.047-1.61 35.722-.584 4.675-1.31 19.3-1.614 32.5-.444 19.333-.225 26.334 1.127 36 3.029 21.664 3.54 29.557 4.463 69 1.25 53.416 2.605 65.367 9.297 82l3.218 8 .713 63.5c.393 34.925 1.212 98.825 1.821 142 2.098 148.703 2.044 151.41-3.544 179.5-4.686 23.56-7.059 31.48-13.481 45-8.522 17.941-9.877 27.343-10.664 74-.42 24.904-.245 31.019 1.028 36 .844 3.3 2.061 9.355 2.706 13.457 1.446 9.204 12.311 37.522 16.895 44.035.971 1.379 2.78 4.533 4.021 7.008 1.241 2.475 5.237 8.695 8.881 13.823a2584.036 2584.036 0 0112.128 17.236c3.027 4.352 9.552 12.525 14.5 18.162 4.948 5.638 10.73 12.439 12.849 15.115 3.666 4.63 11.815 12.678 21.647 21.379 2.475 2.191 7.067 6.468 10.205 9.506 6.176 5.978 9.071 7.357 10.877 5.181 1.69-2.037-.336-4.636-11.685-14.989-21.1-19.248-41.949-42.248-53.897-59.46a1985.25 1985.25 0 00-11.5-16.362c-14.28-20.044-23.805-41.556-29.264-66.091-2.795-12.562-3.157-16.106-3.523-34.5-.52-26.036 1.687-53.883 5.269-66.5.937-3.3 3.462-9.739 5.611-14.309 2.149-4.57 3.907-8.675 3.907-9.123 0-.448.865-2.783 1.923-5.191 1.776-4.042 2.879-8.395 8.075-31.877 4.383-19.805 5.132-32.024 4.569-74.5-.292-22-.988-74.2-1.547-116-1.721-128.736-1.72-125.447-.02-126.521 1.653-1.045 16.903-1.337 19.418-.372.87.334 1.582 1.517 1.582 2.629s1.625 3.821 3.612 6.019c3.235 3.581 4.944 6.772 11.438 21.358 3.524 7.915 6.133 20.61 6.45 31.387.373 12.692-1.107 16.963-8.487 24.5-15.239 15.563-23.007 46.224-14.325 56.542 2.109 2.505 3.204 2.955 7.151 2.942 3.153-.012 5.955-.804 8.661-2.45 2.2-1.338 6.112-3.576 8.694-4.972 6.237-3.374 11.564-8.563 17.513-17.062 6.492-9.274 8.409-14.381 9.032-24.051.636-9.889-.281-11.956-9.739-21.949-7.81-8.251-9.409-10.973-10.885-18.52-3.533-18.068-11.508-39.715-18.395-49.934-2.678-3.973-3.343-5.667-2.448-6.235 3.944-2.506 28.261.409 35.944 4.309 6.179 3.136 14.107 14.718 25.91 37.853 11.107 21.772 18.316 33.97 24.834 42.027 9.477 11.713 13.466 18.479 15.043 25.513.649 2.898 2.762 6.933 5.48 10.465 2.433 3.162 6.123 9.297 8.201 13.635 3.716 7.76 3.778 8.081 3.797 19.887.028 17.828-2.776 28.024-9.316 33.873-2.359 2.11-11.734 4.588-17.447 4.611-5.456.023-10.373-2.369-12.692-6.174-1.844-3.023-2.017-4.998-2.005-22.81.011-15.645.375-20.884 1.843-26.5 2.002-7.658 6.7-17.628 11.414-24.22 2.406-3.364 2.777-4.508 1.833-5.646-3.979-4.795-12.56 6.706-18.72 25.092-2.36 7.042-2.655 9.674-3.132 27.966-.453 17.369-.286 20.935 1.197 25.5 2.04 6.278 3.713 8.341 8.916 10.997 7.207 3.678 24.641 2.291 31.816-2.531 4.674-3.14 9.373-11.538 11.174-19.968 2-9.363 2.688-23.755 1.467-30.69-1.002-5.692-8.165-21.055-12.472-26.749-1.352-1.788-4.029-7.148-5.95-11.913-2.458-6.097-5.96-11.947-11.822-19.75-13.776-18.338-26.576-40.564-25.29-43.915.987-2.572 3.502-2.017 12.323 2.72 4.465 2.397 10.431 5.127 13.256 6.065 2.826.939 7.048 2.739 9.382 4 19.86 10.73 26.702 16.112 32.244 25.364l4 6.678v48l3.006 5.884c2.445 4.784 3.984 6.436 8.23 8.835 6.932 3.916 14.237 5.76 22.764 5.745 10.536-.018 14.482-1.242 18.235-5.658 3.131-3.683 3.236-4.102 3.25-12.959.029-17.468-4.532-33.081-15.013-51.395-5.523-9.651-12.775-16.785-26.713-26.275-10.122-6.893-26.055-12.204-38.953-12.984-8.357-.506-9.947-1.1-26.806-10.01-3.05-1.612-6.486-2.24-14.471-2.648l-10.471-.535-4.672-8.5c-5.786-10.529-15.73-22.37-21.076-25.097-7.705-3.931-21.426-5.705-45.308-5.858-12.577-.081-22.411-.554-22.962-1.105-.552-.552-1.206-14.312-1.53-32.202l-.565-31.238-2.754-6.5c-6.581-15.529-8.43-32.486-9.651-88.5-.456-20.9-1.122-40.025-1.482-42.5-3.4-23.413-3.699-28.311-3.263-53.546.246-14.275 1.013-31.354 1.705-37.954.691-6.6 1.302-23.25 1.357-37 .097-24.276.021-25.29-2.629-35-1.502-5.5-4.508-13.711-6.682-18.247-6.389-13.335-9.031-28.149-9.051-50.753-.006-6.6-.677-17.338-1.491-23.862-1.62-12.988-3.57-17.587-8.551-20.162-4.142-2.142-12.497-1.932-14.801.372m-22.629 46.722c-1.388 1.497-2.523 3.079-2.523 3.515 0 .436-1.877 2.958-4.171 5.604-12.512 14.43-23.479 33.684-25.926 45.515-1.699 8.218-5.89 22.92-7.638 26.796-2.213 4.909-9.457 15.19-19.562 27.765-12.181 15.157-23.635 30.875-26.77 36.735-3.962 7.405-10.126 28.017-10.703 35.791-.355 4.784.031 8.774 1.308 13.5 1.547 5.722 2.634 7.529 7.388 12.283 9.555 9.556 12.888 11.253 23.052 11.739 5.148.246 10.233-.058 12.283-.734 3.18-1.05 13.034-9.634 16.739-14.582.825-1.102 2.85-3.802 4.5-6 4.942-6.584 7.633-13.339 10.555-26.497.672-3.025 2.79-10.45 4.707-16.5 3.118-9.84 3.537-12.509 3.974-25.31.413-12.067.212-15.046-1.278-19-2.921-7.752-6.967-12.701-14.034-17.164-7.71-4.869-7.597-3.99-2.637-20.526 1.65-5.5 3.514-12.461 4.143-15.468 2.299-11.003 10.89-26.597 22.574-40.975 8.418-10.36 9.692-12.501 9.319-15.665-.444-3.764-2.306-4.053-5.3-.822m761.591 7.299c4.188 4.333 11.26 13.333 15.716 19.999 9.521 14.243 11.724 20.467 15.62 44.132 1.404 8.525 3.002 18.002 3.551 21.06.55 3.058.999 14.331.999 25.05 0 20.092.387 22.125 4.027 21.173 2.715-.71 3.033-3.652 2.785-25.783l-.225-20 2.605-2.603c1.741-1.739 2.995-4.56 3.779-8.5 3.206-16.11 8.427-34.612 11.614-41.157 2.934-6.028 4.237-7.619 7.674-9.372 3.654-1.864 5.322-2.052 14.191-1.6 6.524.332 13.032 1.398 18.55 3.038 7.526 2.237 9.016 3.09 13 7.443 5.402 5.903 8.296 13.527 10.532 27.751.865 5.5 2.221 14.05 3.013 19 1.019 6.364 1.443 17.715 1.448 38.75L1049 1593l-10.25-.008c-5.638-.004-12.95-.406-16.25-.893-6.703-.989-20.473-2.55-37-4.193-20.854-2.075-25.023-2.651-32-4.425-3.85-.978-8.575-2.583-10.5-3.566-12.513-6.39-35.73-32.892-55-62.781-5.775-8.957-13.213-19.964-16.53-24.46-9.004-12.205-9.044-12.377-4.074-17.188 2.281-2.208 5.557-6.512 7.279-9.565 8.982-15.915 18.256-25.507 27.543-28.487 7.097-2.278 9.456-1.297 17.896 7.435M282.47 1472.88c-6.617 1.483-13.592 3.317-15.5 4.076-4.99 1.986-16.709 8.903-22.053 13.016-2.521 1.941-7.128 5.103-10.238 7.028-4.144 2.565-5.657 4.101-5.666 5.75-.023 4.032 4.852 2.871 13.615-3.242 4.329-3.02 9.897-6.678 12.372-8.128 2.475-1.449 5.717-3.477 7.206-4.505 4.614-3.188 12.147-5.685 25.473-8.445 13.382-2.771 17.979-2.839 34.822-.514 14.325 1.978 47.364 12.21 60.999 18.892 19.025 9.323 27.496 18.686 39.746 43.928 4.474 9.22 10.154 20.139 12.621 24.264l5.832 9.75c1.527 2.55 3.523 2.892 5.186.889 1.294-1.56.205-4.423-5.381-14.139-1.897-3.3-7.474-14.1-12.393-24-11.51-23.166-17.425-30.989-29.77-39.37-10.895-7.397-37.342-18.239-50.341-20.637-1.925-.355-7.112-1.72-11.526-3.033-17.183-5.111-36.734-5.673-55.004-1.58m407.19 10.37c-.984 1.599-1.431 6.303-1.543 16.25-.2 17.726-.672 22.339-3.738 36.5-4.392 20.291-5.627 25.358-7.919 32.5-5.223 16.272-9.849 23.724-23.717 38.202-5.689 5.939-11.758 13.048-13.487 15.798-8.852 14.083-13.636 30.28-9.867 33.408 3.389 2.813 9.747.842 18.241-5.654 4.328-3.31 9.22-7.409 10.87-9.108 1.65-1.7 3.387-3.103 3.859-3.118 1.202-.039.287 4.764-3.235 16.972-1.666 5.775-3.544 15.349-4.175 21.276-1.011 9.511-.955 11.066.476 13.25 2.102 3.207 5.577 3.185 9.436-.062 5.479-4.611 16.136-20.752 23.084-34.964 7.533-15.408 12.28-21.742 14.536-19.391.735.765 2.227 4.316 3.316 7.891 2.435 7.992 7.339 21.462 9.28 25.491 1.86 3.86 5.88 5.856 9.228 4.583 4.137-1.573 9.861-16.192 20.192-51.574 2.013-6.893 16.399-35.578 33.101-66 5.714-10.408 11.49-25.297 12.123-31.25.54-5.072.475-5.25-1.921-5.25-2.041 0-2.717.752-3.817 4.25-3.451 10.965-10.815 28.124-14.095 32.845-1.817 2.615-7.637 13.647-21.963 41.631-4.287 8.374-8.716 18.274-9.844 22-11.044 36.499-13.819 44.27-15.808 44.273-1.989.002-3.84-3.799-7.792-15.999-6.471-19.981-6.346-19.701-9.422-20.975-2.301-.954-3.408-.896-5.717.298-5.003 2.587-11.322 11.335-16.943 23.453-6.219 13.411-5.243 11.712-12.399 21.584-3.025 4.174-5.95 7.453-6.5 7.287-3.152-.95-.799-17.113 4.579-31.46 2.127-5.673 7.117-16.55 11.09-24.172 6.529-12.526 7.111-14.106 6.049-16.437-.646-1.418-1.82-2.578-2.607-2.578-.788 0-7.871 7.461-15.741 16.581-13.541 15.692-23.82 25.316-28.69 26.862-1.812.575-2.18.301-2.179-1.626 0-3.449 3.671-12.464 7.828-19.227 2.019-3.284 7.975-10.498 13.235-16.031 19.806-20.83 23.782-28.948 32.108-65.559 4.578-20.128 5.691-28.94 5.748-45.5.057-16.099-.382-19.5-2.514-19.5-.748 0-1.983 1.013-2.746 2.25m-427.41 7.481c-.687.239-1.25 1.514-1.25 2.832 0 1.785 1.01 2.912 3.96 4.417 2.178 1.111 4.816 2.02 5.861 2.02 2.641 0 3.152 5.345 3.204 33.5.05 26.547 1.205 33.594 7.38 45.029 8.194 15.172 14.045 19.582 23.415 17.646 7.181-1.483 11.37-4.272 16.543-11.012 5.769-7.518 7.716-11.469 9.197-18.663.68-3.3 1.823-8.581 2.541-11.735 1.051-4.614 1.065-6.958.076-12-1.77-9.021-13.944-32.09-19.52-36.991-1.186-1.043-4.632-3.021-7.657-4.396-3.025-1.375-6.268-2.914-7.206-3.42-2.703-1.457-9.159-2.118-10.69-1.094-1.723 1.153-.772 3.965 1.623 4.798 8.716 3.034 18.503 7.993 21.012 10.647 1.659 1.755 5.847 8.706 9.307 15.446 7.398 14.412 8.228 19.136 5.472 31.126-2.685 11.68-4.184 15.294-9.066 21.863-7.227 9.727-16.048 12.085-21.918 5.861-4.645-4.926-11.186-18.156-12.411-25.105-.581-3.3-1.226-17.333-1.432-31.185-.32-21.482-.623-25.562-2.056-27.75-.925-1.411-2.334-2.565-3.132-2.565-.799 0-2.115-1.283-2.926-2.852-2.046-3.956-7.56-7.383-10.327-6.417m1054.582 5.519c1.709 3.438 4.583 7.856 6.387 9.82 13.941 15.169 32.007 37.909 39.271 49.43 3.069 4.869 8.368 18.353 12.377 31.5 1.09 3.575 3.87 12.575 6.178 20 6.456 20.768 6.746 21.865 8.43 31.903.868 5.172 2.466 12.794 3.551 16.939 1.673 6.386 1.967 10.745 1.93 28.596-.024 11.584-.497 23.087-1.052 25.562a722.576 722.576 0 00-2.333 11c-.728 3.575-2.017 8.975-2.864 12-3.568 12.739-8.936 30.617-10.334 34.415-.826 2.247-2.095 6.11-2.818 8.585-.724 2.475-2.077 6.525-3.008 9-5.329 14.172-5.542 18.403-1.416 28.188 2.783 6.603 15.931 28.476 23.931 39.812 14.568 20.644 18.961 29.026 24.915 47.536 2.293 7.13 4.994 15.439 6.001 18.464 1.008 3.025 3.262 10.225 5.009 16 1.747 5.775 3.804 12.3 4.57 14.5 1.816 5.213 5.985 20.518 8.864 32.539 1.256 5.246 2.796 11.096 3.421 13 3.631 11.061 7.18 32.799 8.155 49.961.548 9.625 1.439 24.999 1.981 34.164.944 15.956.896 16.868-1.136 21.46-1.972 4.459-2.082 5.962-1.557 21.336.715 20.962 4.284 37.803 13.569 64.04 13.129 37.098 16.74 48.981 18.08 59.5 1.575 12.369 2.932 34.75 3.638 60 .353 12.65 1.269 26.375 2.035 30.5 2.512 13.525 1.816 13.913-7.627 4.25-6.375-6.524-10.934-12.934-19.784-27.814-4.94-8.307-7.153-10.845-11.346-13.014-5.736-2.966-12.188.042-14.783 6.893-.623 1.644-1.067 10.93-1.067 22.316 0 12.775-.396 20.241-1.149 21.648l-1.149 2.147-1.01-2.463c-.555-1.355-1.297-14.388-1.649-28.963-.385-15.983-1.087-27.539-1.766-29.119-2.048-4.755-6.173-7.135-11.494-6.629-2.594.246-5.437 1.046-6.317 1.776-.88.731-4.298 5.267-7.594 10.08-7.317 10.683-10.796 14.108-22.372 22.029-4.95 3.387-11.25 8.03-14 10.318-2.75 2.288-7.025 5.522-9.5 7.186-2.475 1.665-7.425 4.99-11 7.39-3.575 2.4-6.819 4.833-7.208 5.408-.474.698-1.041.712-1.712.041-2.412-2.412 12.994-30.426 28.036-50.98 7.643-10.444 9.557-17.364 6.459-23.355-3.043-5.885-10.003-6.61-19.575-2.04-6.841 3.266-14.735 6.325-34.5 13.367-15.976 5.692-15.099 5.316-22.5 9.644-3.575 2.09-11.678 5.583-18.008 7.762-6.329 2.179-14.502 5.348-18.161 7.042-6.554 3.033-9.831 3.808-9.831 2.325 0-.707 7.434-6.943 23.178-19.443a3576.43 3576.43 0 0035.231-28.341c6.1-4.972 15.642-12.479 21.205-16.684 9.936-7.509 22.591-20.352 29.161-29.593 4.268-6.003 11.245-19.839 14.21-28.184 4.249-11.954 3.736-32.475-1.2-48-5.353-16.838-16.155-33.064-35.285-52.999-16.68-17.383-20.357-22.051-28.752-36.508-7.803-13.435-12.661-23.486-22.935-47.446-4.351-10.149-8.544-19.824-9.317-21.5-.773-1.676-2.348-5.522-3.501-8.547-1.911-5.013-5.146-12.927-14.511-35.5-5.498-13.252-6.387-16.396-8.907-31.5-3.551-21.291-5.301-48.203-3.669-56.416 1.93-9.708 1.173-11.51-8.04-19.132-16.295-13.482-31.469-35.951-45.886-67.952-3.384-7.511-4.804-10.345-19.035-38-35.373-68.741-37.874-75.397-38.896-103.5-.35-9.625-.47-18.028-.266-18.672.36-1.145 4.533-3.316 20.615-10.73 4.346-2.003 11.321-6.026 15.5-8.94 4.18-2.913 11.875-7.873 17.1-11.021 38.242-23.04 52.217-32.66 95.696-65.876 9.238-7.057 27.225-18.716 28.917-18.743.612-.01 2.51 2.795 4.219 6.232m-908.523.386c-.345.9-.172 2.357.384 3.24 1.567 2.483 10.774 7.588 22.143 12.277 8.675 3.578 11.672 5.449 18.636 11.637 9.808 8.714 13.998 15.383 13.212 21.027-.282 2.025-1.725 7.058-3.206 11.183-3.482 9.692-2.965 14.458 2.874 26.5 5.441 11.224 12.805 20.179 19.659 23.91 4.208 2.29 7.042 2.966 15.091 3.598 12.884 1.012 16.454.176 21.02-4.928 4.186-4.679 4.878-7.299 4.878-18.462 0-9.931-3.609-24.003-7.651-29.836-10.863-15.675-34.349-29.91-34.349-20.819 0 1.436 1.375 2.673 4.714 4.243 9.817 4.614 21.799 15.374 26.079 23.419 4.631 8.704 6.151 30.281 2.481 35.225-3.313 4.464-5.948 5.299-15.292 4.843-9.848-.48-14.547-2.44-20.043-8.358-5.588-6.019-8.283-10.237-11.878-18.593-3.907-9.079-3.834-13.589.378-23.598 1.409-3.346 2.561-7.722 2.561-9.724 0-5.77-5.413-14.687-13.427-22.12-10.153-9.416-12.154-10.774-21.073-14.292-4.4-1.736-11.467-5.148-15.703-7.582-8.336-4.789-10.517-5.319-11.488-2.79m-39.031 6.486c-1.404 1.404-.696 3.413 2.778 7.882 2.929 3.77 8.528 21.059 10.162 31.386.532 3.361 1.183 17.36 1.447 31.11l.48 25-4.526 8.179c-12.754 23.051-15.567 31.098-15.602 44.628-.03 11.961 3.219 19.564 11.06 25.881 4.963 3.998 9.158 4.457 16.288 1.782 7.422-2.784 16.596-11.56 18.409-17.61.674-2.251 1.226-9.057 1.226-15.124 0-10.352-.187-11.389-3.034-16.801-1.669-3.173-4.482-7.419-6.25-9.437-1.769-2.018-5.016-5.875-7.216-8.573l-4-4.904.343-22.511c.4-26.208-1.112-40.962-6.048-59.01-4.551-16.64-11.275-26.12-15.517-21.878m1322.97 62.127c-.234 35.622-.607 42.539-3.221 59.751-.543 3.575-1.003 22.925-1.022 43-.02 20.075-.366 37.018-.77 37.65-.765 1.197-2.524 1.671-5.452 1.468-4.604-.317-18.709-20.523-31.496-45.118-5.29-10.175-6.485-11.928-8.583-12.594-2.336-.741-4.708 1.265-4.689 3.966.008 1.171.664 3.928 1.456 6.128 2.523 7.004 1.56 25.674-2.322 45-.553 2.75-1.788 9.275-2.746 14.5-2.256 12.31-6.295 22.389-9.141 22.808-1.894.28-2.152-.33-2.749-6.5-.645-6.673-.96-8.587-4.091-24.808-.962-4.987-1.699-15.88-1.956-28.924-.227-11.507-.762-21.244-1.19-21.637-.427-.393-1.765-1.013-2.975-1.378-2.66-.803-2.327-1.162-15.87 17.118-10.051 13.566-16.233 20.321-18.597 20.321-1.218 0-.86-3.349 1.551-14.5 1.78-8.234 3.395-20.093 4.628-34 .488-5.5 1.36-12.424 1.937-15.386.578-2.963 1.049-15.113 1.047-27-.002-20.492-.372-26.286-3.148-49.368-.646-5.365-.864-10.064-.486-10.442.696-.696 6.214-.046 30.637 3.61 17.956 2.687 28.853 2.681 37.645-.022 9.029-2.775 35.828-17.612 37.916-20.99.306-.496 1.318-.902 2.248-.903 1.563 0 1.672 2.897 1.439 38.25m-1566.694-29.145c11.56 7.256 13.453 11.24 13.429 28.273-.013 9-.539 14.055-2.044 19.623-1.115 4.125-3.801 14.332-5.969 22.682-2.448 9.432-5.077 17.107-6.939 20.266-4.909 8.325-12.695 17.355-17.663 20.484-4.163 2.623-5.445 2.917-12.141 2.78-7.969-.162-9.2-.672-17.048-7.055-6.155-5.006-8.434-10.005-8.961-19.657-.379-6.936-.007-9.397 2.794-18.5 5.521-17.939 5.993-18.767 25.365-44.5 3.312-4.4 8.295-10.747 11.072-14.104 2.778-3.358 6.308-7.745 7.844-9.75 1.536-2.005 3.36-3.646 4.054-3.646.694 0 3.487 1.397 6.207 3.104M401.258 1631c3.114 5.283 3.24 5.914 3.191 16-.037 7.686-.486 11.318-1.673 13.552-2.491 4.685-10.108 11.168-14.761 12.562-3.695 1.107-4.593 1.03-7.737-.664-12.437-6.697-13.288-26.769-2.077-48.95 6.587-13.031 6.201-12.893 13.553-4.85 3.444 3.767 7.721 9.325 9.504 12.35m-249.512 159.132c-7.008 1.565-14.223 6.118-22.588 14.254-9.186 8.935-21.275 23.444-25.768 30.928a397.005 397.005 0 01-5.589 9c-2.765 4.288-3.305 5.273-13.265 24.186-3.186 6.05-7.034 13.25-8.551 16-1.517 2.75-5.707 11.975-9.31 20.5-9.667 22.872-10.649 28.853-10.707 65.233-.027 16.741.349 29.484.886 30.021.514.514 1.769.773 2.79.577 1.744-.334 1.89-2.169 2.417-30.343.625-33.374 1.51-39.956 7.384-54.919 4.363-11.112 5.943-13.542 8.394-12.901 4.499 1.177 32.292 28.265 37.277 36.332 1.601 2.591 6.07 14.956 7.552 20.896 1.016 4.071 3.675 6.161 5.507 4.329 1.796-1.796-.16-11.925-4.156-21.525-3.069-7.372-9.29-16.085-16.566-23.2-4.634-4.533-18.138-16.567-22.815-20.332-2.276-1.833-4.477-3.934-4.892-4.669-.448-.794.605-3.908 2.595-7.668 21.663-40.942 24.186-45.23 34.874-59.275 6.998-9.196 19.3-22.131 24.285-25.533 2.2-1.502 6.462-3.642 9.472-4.755 6.286-2.325 8.274-4.509 6.011-6.602-1.085-1.003-2.491-1.147-5.237-.534m253.898 142.348c10.691 3.322 24.583 12.441 33.538 22.015 4.407 4.71 12.796 19.534 16.186 28.6 2.905 7.769 4.769 18.407 4.977 28.404.136 6.528-.125 7.721-2.125 9.721-2.109 2.109-3.121 2.277-13.5 2.234-9.516-.04-11.945-.39-15.994-2.308-9.15-4.333-12.588-13.801-11.126-30.637.478-5.505.867-14.059.863-19.009-.006-8.449-.24-9.46-3.827-16.5-4.762-9.347-4.578-9.129-13.636-16.212-4.125-3.226-8.625-6.821-10-7.989l-2.5-2.123 4.5.637c2.475.349 8.165 1.775 12.644 3.167m-107.474 25.1c2.931 3.069 5.722 6.277 6.201 7.128.479.851.672 4.989.428 9.195-.359 6.21-1.062 8.81-3.739 13.832-4.984 9.353-12.803 17.363-22.32 22.867-12.251 7.086-14.737 6.247-14.744-4.974-.009-13.631 6.418-28.799 16.959-40.022 2.637-2.808 5.76-7.018 6.94-9.356 1.18-2.338 2.775-4.25 3.545-4.25s3.798 2.511 6.73 5.58m-186.6 19.672c-.811 1.239-3.859 7.202-6.773 13.25L99.5 2001.5l.001 27 .001 27 3.41 10.758c5.321 16.787 9.782 20.723 23.497 20.736 12.815.013 29.139-12.189 39.702-29.678l5.301-8.775.044-10.021c.067-15.242-.569-16.564-14.542-30.248-10.18-9.97-12.788-13.188-17.036-21.022-3.559-6.566-5.556-9.25-6.879-9.25-3.704 0-3.265 3.668 1.556 13.001 4.011 7.767 6.283 10.625 16.032 20.171 13.593 13.308 14.817 15.718 14.219 27.999-.365 7.489-.786 8.963-4.177 14.618-5.343 8.912-14.832 18.667-22.12 22.743-5.487 3.069-7.037 3.468-13.454 3.468-6.698 0-7.458-.22-9.936-2.873-3.421-3.661-7.639-16.837-9.165-28.627-.665-5.134-1.001-16.516-.782-26.5l.383-17.5 5.723-11.896c5.942-12.353 6.822-15.968 4.14-16.997-2.22-.852-2.208-.857-3.848 1.645" fill-rule="evenodd"/></svg>