<svg width="513" height="513" viewBox="0 0 513 513" fill="none" xmlns="http://www.w3.org/2000/svg">
<g clip-path="url(#clip0)">
<path d="M124.851 440.5L82.1842 397.833C78.0192 393.669 71.2672 393.669 67.1012 397.833L3.10118 461.833C-1.05182 466.011 -1.03182 472.765 3.14618 476.918C4.33218 478.097 5.77818 478.98 7.36818 479.497L71.3682 500.83C72.4222 501.177 73.5222 501.364 74.6322 501.385C77.4632 501.39 80.1802 500.27 82.1842 498.27L124.851 455.603C129.022 451.443 129.03 444.689 124.87 440.518C124.864 440.512 124.858 440.506 124.851 440.5Z" fill="black"/>
<path d="M274.184 419.166L103.518 248.5C99.358 244.329 92.604 244.321 88.433 248.481C86.422 250.487 85.294 253.212 85.299 256.052V262.452C85.195 304.225 70.979 344.738 44.958 377.417C41.581 381.664 41.929 387.769 45.769 391.604L131.102 476.937C134.703 480.542 140.351 481.096 144.585 478.26L159.518 468.255C189.709 448.091 225.208 437.347 261.513 437.386H266.633C272.524 437.397 277.308 432.629 277.319 426.738C277.323 423.897 276.195 421.172 274.184 419.166Z" fill="#808080"/>
<path d="M496.264 59.9342L462.771 26.4412C444.198 7.61616 414.595 5.35016 393.374 21.1292L89.5661 247.518C84.8391 251.033 83.8561 257.715 87.3711 262.442C87.6821 262.861 88.0241 263.256 88.3931 263.624L259.06 434.291C261.064 436.29 263.781 437.411 266.612 437.406H267.38C270.472 437.183 273.315 435.626 275.167 433.139L501.514 129.352C517.34 108.148 515.1 78.5182 496.264 59.9342Z" fill="black"/>
</g>
<defs>
<clipPath id="clip0">
<rect width="512.038" height="512.038" fill="white"/>
</clipPath>
</defs>
</svg>
