<?xml version="1.0" encoding="utf-8"?>
<!-- Generator: Adobe Illustrator 24.2.1, SVG Export Plug-In . SVG Version: 6.00 Build 0)  -->
<svg version="1.1" id="Layer_1" xmlns="http://www.w3.org/2000/svg" xmlns:xlink="http://www.w3.org/1999/xlink" x="0px" y="0px"
	 viewBox="0 0 32 14" style="enable-background:new 0 0 32 14;" xml:space="preserve">
<style type="text/css">
	.st0{fill-opacity:0.54;}
</style>
<path class="st0" d="M14.9,0.6c4.1,0,7.8,1.5,10.7,4l2.9-2.9c1-1,2.6-0.3,2.6,1.1v8.7c0,0.9-0.7,1.5-1.5,1.5h-8.6
	c-1.4,0-2.1-1.7-1.1-2.6l2.9-3c-2.1-1.8-4.9-2.9-7.9-2.9c-4.9,0-9.1,2.9-11.1,7c-0.4,0.9-1.4,1.3-2.3,1c-1.1-0.4-1.7-1.6-1.2-2.7
	C3,4.4,8.5,0.6,14.9,0.6z"/>
</svg>
