<svg width="512" height="512" viewBox="0 0 512 512" fill="none" xmlns="http://www.w3.org/2000/svg">
<g clip-path="url(#clip0)">
<path d="M507.328 215.175L272.661 55.1752C267.788 51.8642 261.154 53.1302 257.844 58.0032C256.645 59.7682 256.003 61.8522 256 63.9862V160.199C91.947 166.983 2.133 329.33 0 447.453V447.986C0 453.877 4.776 458.653 10.667 458.653C16.492 458.654 21.24 453.981 21.334 448.157V447.538C22.528 418.887 134.656 295.303 256 288.306V383.986C256.007 389.877 260.788 394.647 266.679 394.641C268.813 394.639 270.897 393.996 272.662 392.797L507.329 232.797C512.195 229.476 513.448 222.84 510.127 217.974C509.376 216.875 508.427 215.925 507.328 215.175Z" fill="black"/>
</g>
<defs>
<clipPath id="clip0">
<rect width="511.983" height="511.983" fill="white"/>
</clipPath>
</defs>
</svg>
