<svg width="512" height="512" viewBox="0 0 512 512" fill="none" xmlns="http://www.w3.org/2000/svg">
<g clip-path="url(#clip0)">
<path d="M255.983 160.199V63.9861C255.976 58.0951 251.195 53.3251 245.304 53.3311C243.17 53.3331 241.086 53.9761 239.321 55.1751L4.6538 215.175C-0.212202 218.496 -1.4652 225.132 1.8558 229.998C2.6058 231.097 3.5548 232.046 4.6538 232.796L239.321 392.796C244.194 396.107 250.828 394.841 254.138 389.968C255.337 388.203 255.979 386.119 255.982 383.985V288.305C377.305 295.302 489.454 418.886 490.649 447.537V448.156C490.742 453.98 495.491 458.653 501.316 458.652C507.207 458.652 511.983 453.876 511.983 447.985V447.452C509.85 329.33 420.037 166.983 255.983 160.199Z" fill="black"/>
</g>
<defs>
<clipPath id="clip0">
<rect width="511.983" height="511.983" fill="white"/>
</clipPath>
</defs>
</svg>
