<svg version="1.1" id="svg" xmlns="http://www.w3.org/2000/svg" x="0" y="0" viewBox="0 0 2352 1338" width="1338" xml:space="preserve"><style>.st0{fill:#fff}</style><g onclick="clickEvent(evt)"><path class="paintable" fill="#fff" d="M682 891c90.4-5.5 127.2-10.9 171-25.1 39.5-12.8 90.5-35.8 131-59.1 8-4.6 18.8-10.8 23.9-13.8 11.8-6.8 19.1-13.4 19.1-17.4 0-9.6-23.4-18.3-62-23-15.4-1.9-33.3-1.9-42.5.1-19 4-51 18.1-123.3 54.2-43.9 21.9-138.6 72-159.7 84.3l-5 2.9 7.5-.6c4.1-.3 22.1-1.4 40-2.5zm1124.6-359.3c1.1.4 1.4-.3 1.4-3.1 0-2-.3-3.6-.8-3.5-1.7.2-10.2 3-10.2 3.4 0 .2 1.8.9 4.1 1.5 2.2.6 4.7 1.4 5.5 1.7zm-60.7-269.4c3.6-.5 4.3-.1 9 4.2 2.8 2.6 7.4 7.8 10.3 11.6 2.9 3.7 5.3 6.7 5.4 6.6.1-.1-.1-2.8-.5-5.9l-.7-5.7-11.7-8.1c-6.4-4.4-11.9-8.1-12.1-8.1-.5 0-3.6 4.7-3.6 5.4 0 .3 1.8.3 3.9 0zm40 30.3c1.7 2.2 2.1 3.6 1.6 6.1-.6 3.2-.5 3.3 7.4 7.3 8.4 4.2 13 5 15 2.6.9-1.1.8-3.1-.5-9.2-1.3-5.9-1.6-10-1.1-17.6l.6-9.8h-3.5c-3 0-4.7 1.2-12.7 8.9l-9.2 8.9 2.4 2.8zm-327.5 590.6c-12.8-34.1-33.2-61-57.5-75.7-14.5-8.8-30.1-13.5-50.6-15.5-48.1-4.6-90.8 12.1-127.4 49.6-6.4 6.5-14.3 15.5-17.7 20-35.1 46.3-61.9 110.9-81.2 196.1-8.2 36-13.4 67.4-18.5 112.3-4.7 40.9-9.4 77.4-11.1 86.2l-1.7 8.7 2.6 10.6c4.6 18.5 11.6 30.2 20.6 34.2 3.1 1.4 12.6 1.7 69.1 2.4 71.8.9 90.2.3 115.4-3.7 77.9-12.2 106.7-33.3 138.1-101.1 13.3-28.7 22.2-55.5 26.7-79.9 2.9-15.7 4.3-91.5 2.9-151.5-1.6-65-2.5-73.3-9.7-92.7zm-42.1 317.3c-25.7 39.3-65.6 68-102.7 74-38 6.2-78.9-7.9-105.7-36.3-20.7-22-35.3-52.4-41.9-87-6.8-36-7.8-88.7-2.4-130.2 10.4-80.5 43.5-142.7 93.4-175.7 20.3-13.4 40.4-21.8 58.5-24.3 42-5.8 100.6 38.5 123.5 93.3 6.4 15.3 9.4 30.2 13.4 65.7 10.3 92-2.3 168.9-36.1 220.5zM1786.5 283c5.3-5.2 5.4-5.4 3.7-7.7-.9-1.3-1.9-2.3-2.2-2.2-3.2.5-4.1 1.7-6 7.5-1.2 3.6-1.9 6.8-1.5 7.1.3.4 3-1.7 6-4.7zm-861.1 849c9.2 0 39-4.9 52-8.6 17.1-4.8 24.7-10.6 36.9-27.9 3.9-5.5 14.3-20.1 23.2-32.5 15.9-22.1 55.4-78.3 56.9-80.7.4-.7.4-1.2-.1-1.2-.4 0-14.5 4.3-31.3 9.4-16.8 5.1-36.5 10.9-43.7 12.9-23.9 6.4-33.3 12.4-44.1 28-2.8 4-15.6 28.2-28.5 53.9-20.8 41.4-23.2 46.7-21.3 46.7zm855.9-598.6c-14.6 4.7-26.2 5.7-36.2 3.1-3.6-.9-9.4-3.1-13.1-4.9l-6.7-3.2-.1 10.1-.1 10.1 10.7 3.1c30.7 9 77.7 17.4 79.6 14.3.9-1.5 3-28.1 2.3-28.8-.4-.4-2.6-1-4.9-1.4-2.3-.4-7.7-2-12-3.5l-7.8-2.8-11.7 3.9zm-5.6-242.7c-1.9.4-4.7 5.1-4.7 7.7 0 2.4 4.6 6.5 7.4 6.5 3.5 0 7.3-6.2 6-9.8-1-2.6-5.7-5-8.7-4.4zm-48.8-127.8l3.4 2.6-.7-10.5c-1-16.2-2.6-32.8-3.9-40.5l-1.2-7-8.5-.6c-4.7-.3-10.1-.9-12.1-1.3-3.4-.7-3.7-.6-4.2 2.1-.3 1.6-.9 7.8-1.2 13.8-.7 11.7.7 20.4 4.5 29 1.8 4 2.1 4.2 6.9 4.8 5.3.6 11.5 3.4 17 7.6z"/><path class="paintable" fill="#fff" d="M1346.8 827.9c-9.5-2.7-27.8-3.5-36.3-1.5-9.1 2.1-19.9 6.2-31.7 12.1-59.7 29.6-96 90.9-108.7 183.5-3.9 28.9-4.6 39.1-4.5 71.5 0 27.8.3 33.8 2.2 46 9.4 59.9 30.1 95.6 68.7 118.3 27.1 15.9 60.9 19.5 90.5 9.6 47.2-15.7 89.7-62.8 108.9-120.9 11.1-33.6 15.4-62.9 15.4-106.5 0-40.9-5.7-93.7-12.4-114.7-14.3-45.1-53.2-86.2-92.1-97.4zm413.6-565.5c6.8 4.7 12.8 9.1 13.1 9.7.4.6.9 4.2 1.2 8 .3 3.8.8 6.7 1.2 6.4.4-.2 1.7-3.8 3-8 2.1-6.7 2.7-7.7 5.6-8.7 3-1.1 3.2-1.6 3.7-6.8.3-3.1.8-6.3 1.2-7.2.5-1.2-1.2-2.5-7.2-5.4-6.3-3.1-9.6-5.6-16.9-13.1l-9.1-9.3-1.3 5.2c-.7 2.8-2.6 8.3-4.2 12.1-1.6 3.8-2.9 7.3-2.9 7.7s5.8 4.7 12.6 9.4zM198.3 1102.9c-.7-2.2-8.1-6.1-18.3-9.4-4.7-1.5-25.1-9.9-45.5-18.6-20.3-8.7-37.6-15.8-38.3-15.8s-1.3.4-1.3.9c0 4.2-4.5 30.4-6.5 37.7-1.4 5-2.5 9.4-2.5 9.7s3.7 1.8 8.3 3.3c13.1 4.3 102 37.1 110 40.5 11.4 4.9 18 7.1 17.4 5.6-.3-.7-5.5-12.7-11.7-26.7-6.1-14.1-11.3-26.3-11.6-27.2zM1825.7 153c-.1 0-1.7.9-3.5 2-3.5 2.1-3.8 3.5-2.2 9.3 1.2 4.3 3.7 5 6.9 1.7 2.4-2.4 2.6-6 .5-10.1-.8-1.6-1.6-2.9-1.7-2.9zm-56.9 12.8c1.4-1.4 1.6-6.7.2-10.2-1.4-3.6-6-3.5-10.2.3-3 2.7-3.1 3-1.9 5.9 1.9 4.5 9 6.9 11.9 4zM1736.5 309c1.1 1.7 5.8 1.1 14.6-1.9 15.5-5.3 16.9-6 16.9-9 0-1.5.7-3.9 1.5-5.5 1.5-2.8 1.4-3-6.1-12.8-4.2-5.5-8.9-11-10.6-12.4-3.6-3.1-5.1-3.1-7.8-.3-2.6 2.8-3.8 7.2-4.5 17.3-.3 4.4-1.5 11.5-2.6 15.8-1.1 4.3-1.7 8.3-1.4 8.8zm-855.7 917.8c-.6.7-.8 1.5-.6 1.8 1.2 1.2 103.6-17.6 120.8-22.1 5.2-1.4 11.8-3.6 14.6-5 5.7-2.8 12.7-9.7 16.6-16.5 4.6-8 9.5-25.6 12.2-43.7.7-4.9 1.4-4.7-10.9-2.8-22.7 3.6-43.8 6.7-59.5 8.6-9.6 1.2-22.2 3-28 4.1-9.8 1.9-27.1 6.9-29.6 8.6-.6.4-8.6 15.4-17.8 33.3-9.3 17.8-17.3 33-17.8 33.7zM810 603c11.3 1.1 31.5 3.3 45 4.9 102.9 12.2 283 27.6 427 36.5 22.3 1.4 54.8 3.4 72.3 4.6 20.6 1.3 38.9 2 52 1.7 19.7-.3 20.4-.4 25.3-3 5.3-2.8 16.8-14.2 24.6-24.3 19.1-24.9 48.1-76.9 68.5-122.8 23-51.8 27.2-70.1 17.1-75.3-11.6-6-171.8-14.6-342.3-18.3-24.8-.5-55.1-1.2-67.5-1.5l-22.5-.5-8.5 3.6c-34.1 14.3-57.2 24.3-80.5 34.9-100.9 45.9-231 114.1-259.4 136-3.9 3-8.9 6.7-11.2 8.2l-4.1 2.7 3.3 1.4c11 4.6 30.6 8.2 60.9 11.2zm972.1 385c-3.8 23.4-6.8 42.6-6.6 42.8.2.2 23.6-5.7 52-13l51.7-13.3-.6-4c-2.6-17.4-2.7-22.3-1.1-46.3 2-29.8 1.4-37.1-5.4-63.2-5.7-22.2-23.4-87.9-32.9-122.5-3.8-13.7-7.3-25-7.8-25.2-.5-.1-5.6 1-11.4 2.5-5.8 1.5-11.7 3-13.1 3.4-3 .8-2.4-6.2-5.4 58.2-4 82.6-4.9 91.6-19.4 180.6zm498.4-304.6c-5.1-2.3-13-3.6-17.5-2.8-10.1 1.7-23.8 9.4-32.9 18.4-19.2 19-32.6 47.6-49 104.4-14.4 49.9-29.4 133.7-27.7 155 1.9 23.2 10.4 49.5 19.7 60.8 5.6 6.8 10 8.5 25.5 10.2 18.4 2 37.4 1.9 47.2-.1 10.6-2.2 17.3-5.6 24.6-12.5l6.1-5.9-7 3.2c-16.2 7.4-32 3.3-47.4-12.3-15.1-15.3-24.8-35.6-31.4-65.9-17.2-78.3 1.7-163 47.1-211.1 14.3-15.1 24.5-19.3 37.8-15.5 21.6 6.2 37 26 43.6 56 2.6 11.9 3.8 33.5 3.8 69.1 0 40.9-2.2 68-8 97-1.5 7.7-2.7 14.1-2.5 14.2.4.4 9-21.4 12.1-30.7 3.9-11.3 7.4-26 8.3-34.4 1.5-14.3-.8-54-4.9-83.6-9-64.5-25.2-103.3-47.5-113.5zm-412.4-188.5c12.2-7.8 18.3-15.4 19.5-24.1 1.3-9.2-3.9-24.7-9.5-28.7-7.8-5.5-13.6-3-21.7 9.4-2.9 4.4-6.4 9.1-7.7 10.4l-2.5 2.3 3.9 6.1c4.3 6.6 8.9 19.8 8.9 25.3 0 4.4 1.2 4.4 9.1-.7zm-26.5-28.8c-4.1.6-9.6 2.4-9.6 3.2 0 .5 1.1 2.4 2.5 4.2 4.1 5.4 9.5 17 11.2 24.2.9 3.7 1.7 6.9 1.8 7 .1.1 1.8-.4 3.8-1.3 3.5-1.5 3.7-1.7 3.7-6.3 0-8-4.6-20.7-10.3-28.4-1.1-1.4-2.6-2.6-3.1-2.6z"/><path class="paintable" fill="#fff" d="M2318 814.5c-1.1-35-1.9-42.1-6.1-55.3-8-25-20.8-43.3-33.5-47.6-12-4.1-21.1-.3-36 14.9-10.1 10.3-18.8 23.2-26.9 40-11.6 24.1-18.3 45.9-22.6 73.8-3.2 20.6-3.1 54.5 0 78.2 3.8 28.5 10.3 50.3 19.9 67 8.5 14.7 21.1 26.8 30.6 29.5 18.2 5.1 38-9.3 51.5-37.5 18.3-38 25.5-88.8 23.1-163zm-505.5-516c2 8.2 1.9 11.1-.5 13.5-3.1 3.1-7.1 2.4-17.3-2.8l-9.4-4.8-2.5 2.2c-2.5 2.2-2.5 2.2-1.2 9.1 3.3 17.3 7.6 30.8 20.5 64.4 14.4 37.5 18.8 52.4 21.9 74.2l1.7 11.8 8.2-2.8c9.8-3.3 11.9-5 18.9-15.9 6.7-10.3 9.9-12.5 17.2-11.9l5.4.4-.6-19.6c-.7-21.8-3.2-41.1-7.6-58.2-2.3-9-2.6-11.1-1.5-11.6 2.7-1 4.2 1.9 6.8 12.5 5.4 22.7 7.6 41.6 7.6 65.3V440l3.4 4.8c6.9 9.7 8.1 13 8.1 22.3 0 7.6-.3 9-2.9 13.4-7.5 12.8-24.3 23.9-52.3 34.6l-11.2 4.3-.7 4.4c-.4 2.4-.4 5.9 0 7.8l.6 3.4 7.7.7c15.6 1.3 41.8-1.9 68.2-8.5 22.1-5.5 26.5-9.3 29.1-24.4 1.5-9.1.6-38.6-1.5-47.5-.8-3.6-1.8-8.1-2.1-10-1.1-6-10.1-40.7-14.9-57.5-7.6-26.3-16.5-52.6-20.2-59.8-7.5-14.4-19.7-22.3-52.3-33.8-9.6-3.4-19.9-7.2-22.8-8.5l-5.2-2.3v4.7c-.1 2.3.6 7.1 1.4 10.4zm282.7 252.7c-9.5-3.6-29.2-4.2-40.2-1.2-4.1 1.1-7.6 2.2-7.8 2.4-.6.6 36.5 77.1 37.5 77.4 1.5.5 13.7-13.5 20.1-22.9 7.2-10.7 10.5-19.8 10.5-29.4.2-12.6-6.3-21.1-20.1-26.3z"/><path class="paintable" fill="#fff" d="M1906 530c-5.2 1.2-9.8 2.6-10.2 2.9-1 .9 3.6 60.1 4.7 60.1 1 0 25.1-11.3 39.7-18.6 33.6-16.8 53.9-30.9 57.7-40.1 1.1-2.7 1-3.6-.4-6.7-2.9-6.1-18.2-18.7-35-28.8-4.9-3-12.8-7.5-17.5-10l-8.5-4.6-1.2 12.7c-1.4 15.3-2.4 19.2-6.4 23.7-3.4 3.8-8.9 6-22.9 9.4zm-156.5 675.2l-8.5-.3c-7.3-.3-9.5-.8-15.5-3.8-3.8-1.9-7.3-3.6-7.6-3.8-.3-.2-1.1 2.3-1.8 5.5-.7 3.8-2.8 8.5-5.8 13.3-6.1 9.8-8.3 14.8-8.3 18.7 0 5.5 2.9 11 8 15.1 6.4 5.1 8.7 7.9 17.1 21.3 9.2 14.6 14 20.8 22.5 28.9 14.9 14.3 39.5 26.9 52.3 26.9 4.2 0 5.3-.4 7-2.6 2.6-3.3 2.6-7.4 0-16-4.3-14.1-10.2-24.2-31.2-53.6-14.5-20.3-23.9-35.9-26.4-43.7l-1.8-5.9zm-24.7-8.4c6.4 3.2 8.6 3.7 14.1 3.7 10 0 10.1-.1 10.1-9.5 0-7.2-.2-8-1.8-7.6-5.5 1.6-9.5 1.7-14.5.2-3-.9-8.2-3.4-11.6-5.6-7.1-4.6-6.9-4.9-5.1 7.4l1.1 7.5 7.7 3.9zm241.7-24.8c-1.3 2.1-8.8 4.9-13 4.9-2.2 0-8.2-.9-13.4-2-5.2-1.1-9.6-2-9.8-2-.9 0 1.1 11.6 2 12.2 2.7 1.8 16.5 4 21.7 3.5 6-.5 12.3-3.2 15.3-6.6 1.6-1.8 1.7-2.5.6-5.9-1.4-4.4-2.4-5.7-3.4-4.1zm-78.5-130.8c-.6-2.3-1.4-4.2-1.8-4.1-2.4.3-116.3 28.7-116.6 29-.6.8-4.6 29.3-4.1 29.7.4.4 127.6-31.6 128.3-32.4.2-.2-.8-4.3-2.2-9.2-1.3-4.7-2.9-10.6-3.6-13zm-170.4-115.7c-.8-6-5.3-41.8-10-79.5s-8.7-68.7-8.8-69c-.1-.3-9.9 1.8-21.7 4.7-81.5 19.9-147.1 36.2-147.3 36.5-.6 1.1.5 275.9 1.1 275.8.4 0 38.8-9.8 85.2-21.8l84.5-21.8.7-4.4c.4-2.4 1.2-10.1 1.8-16.9.9-9.1 2.9-19.4 7.5-37.5 8.9-35.6 9.8-43.7 7-66.1z"/><path class="paintable" fill="#fff" d="M1939.6 1190.5c-3.8-.8-7-1.4-7.2-1.2-.6.6-2.6 20.2-3.1 29.7-.3 6.8-.1 12.1.7 15 1.6 5.9 7.2 11.2 13.6 13.1 6.7 1.9 22 1.6 37.9-.9 12.8-2 19.7-2.6 69-5.7 28.3-1.8 29.5-2.1 35.9-9.8l4.1-4.9-3.9-3.4c-2.2-1.9-6.1-4-8.7-4.8-5.9-1.8-30-7.2-52.7-12-19.2-4-31.1-7.5-38.7-11.2-2.8-1.4-6.8-4.2-9-6.3l-4-3.8-3.5 2.4c-7.5 5.2-17.7 6.5-30.4 3.8zm-168.4-131c.9.9 113-27 113.5-28.2.3-.7-.8-6.4-2.3-12.8-2.1-9-3.1-11.5-4.3-11.4-3.4.2-102.6 26.3-103.2 27.1-.9 1.3-4.3 24.7-3.7 25.3zm59.8-319.6c0-.5-2-8.2-4.5-17.1-2.5-8.9-5.9-23-7.5-31.2-1.6-8.2-4-17-5.2-19.5-2.4-4.8-5.2-6.3-6.1-3.3-.3 1-1 15.5-1.6 32.3-.6 16.8-1.3 34-1.6 38.2-.4 5.3-.2 7.8.5 7.8 2.8-.1 26-6.5 26-7.2zm-11.3-212.4c-.1-3.6-.4-6.5-.7-6.4-.3 0-1.7.5-3.2 1.1-2.5.9-2.8 1.5-2.8 5.8 0 4.9.9 6 5 6 1.6 0 1.8-.8 1.7-6.5z"/><path d="M1764.8 173.1l-4.2-2 4.6-.1c6.8-.1 9.2-2.4 9.8-9.7l.5-5.9 5.6 5.2c3.1 2.9 5.9 5.2 6.2 5.2 3.6 0-7.6-12-13.6-14.5-5.2-2.2-13.5-2-17.4.4-3.9 2.4-6.4 5.8-6.4 8.9 0 6.2 7.8 13.9 16.8 16.7 4.2 1.4 2.6-2.1-1.9-4.2zm-7.9-11.4c-1.2-2.8-1.1-3.2 1.9-5.9 4.2-3.8 8.8-3.9 10.2-.3 1.3 3.5 1.2 8.8-.2 10.2-2.9 3-10 .6-11.9-4zm17.1-32c7.7 3.3 9.6 3.8 9.8 2.6.5-2.2-.3-2.7-10.8-7.1-9.5-4-15.8-5.4-19.5-4.5-5.8 1.5-11.9 9.7-11.3 15 .5 3.8 2.5 3.8 3.7 0 .6-1.9 2.7-4.9 4.7-6.8 5-4.9 10.6-4.7 23.4.8zm38 81.3c2.6 0 6.6-1 9.5-2.3 5.1-2.4 12.5-8.5 12.5-10.4 0-.6-3.4-3.6-7.6-6.7-9.6-7.2-12.8-11.7-18.5-25.8-3.7-9.1-5-11.3-6.8-11.6-1.3-.2-2.2.2-2.2 1 0 2 3.7 11.2 7.6 19 3.8 7.5 10.9 15.8 17.4 20.3 4.5 3.2 4.8 4.3 1.7 7.2-6 5.5-15.9 7.4-21.1 4-1.4-.9-3.8-1.7-5.2-1.7-2.4 0-2.5.2-1.3 1.7 2.4 2.6 9.2 5.3 14 5.3zm-373 703.3c-22.9-54.8-81.6-99.2-123.5-93.3-18 2.5-38.2 10.9-58.5 24.3-49.9 33-83 95.2-93.4 175.7-5.4 41.5-4.4 94.1 2.4 130.2 6.6 34.6 21.2 65.1 41.9 87 26.8 28.4 67.6 42.5 105.7 36.3 37.1-6 77-34.7 102.7-74 33.8-51.6 46.4-128.5 36.2-220.5-4-35.5-7.1-50.4-13.5-65.7zm-3.1 232.2c-19.2 58.1-61.7 105.2-108.9 120.9-29.6 9.9-63.4 6.3-90.5-9.6-38.6-22.7-59.3-58.3-68.7-118.3-1.9-12.2-2.2-18.2-2.2-46-.1-32.4.6-42.6 4.5-71.5 12.7-92.6 49-153.8 108.7-183.5 11.8-5.9 22.6-10 31.7-12.1 8.5-2 26.8-1.2 36.3 1.5 38.9 11.2 77.7 52.3 92.1 97.3 6.7 21 12.4 73.8 12.4 114.7 0 43.7-4.3 73-15.4 106.6zm341-924.8l5.1 2.8-.6 4.2c-.5 3.5-.3 4.2.9 4.2 1 0 1.8-1.3 2.2-3.6.5-2.8 1-3.4 2.3-2.9.9.4 3.4.9 5.5 1.2 3.1.4 4 1.1 4.8 3.4 1.3 3.9 4 3.9 3.2 0-.5-2.5-.2-2.9 2.4-3.5 1.6-.3 4.1-.9 5.5-1.2 2.1-.5 2.8-.1 4.1 2.5 1.6 3.1 4.3 4.4 3.2 1.5-2.1-5.4-1.9-6 2.2-7.2 5.7-1.7 6-1.6 7.2 2.9.6 2.4 1.6 3.9 2.3 3.6 1.3-.4 1.3-2 .3-6.2-.6-2.4-.4-2.5 3.1-2.6 3.5 0 3.6-.1 1.8-1.5-1.1-.8-2.9-1.5-4.1-1.5-1.3 0-2.6-1-3.3-2.6-1.4-3-3.6-2.2-2.8.9.5 1.9-.2 2.4-4.9 3.8l-5.5 1.6-.6-2.4c-.9-3.6-3.5-3.1-2.7.5.5 2.7.3 3-3.3 4-5.7 1.6-6.2 1.4-6.5-2.1-.5-4.6-2.8-4.9-2.8-.4 0 3.9-.7 4.2-7 2.9-3-.6-3.2-.9-2.9-4.5.2-2.3-.1-4-.8-4.3-1.6-.6-2.4.3-2.4 3 0 3.4-1.2 3.5-5.8.8l-4.2-2.5 1.7-3.5c1.2-2.6 1.4-3.8.5-4.6-.8-.8-1.6-.2-2.9 2.5l-1.7 3.6-2.1-2c-2.9-2.7-4.1-1.2-1.4 1.6 1.9 2.1 2 2.6.9 5.4-.9 2.2-1 3.4-.2 4.2.8.8 1.4.3 2.3-1.8.7-1.6 1.3-3 1.4-3.2.4.3 2.8 1.4 5.6 3zm40.4-82.4c5.8 2.9 14.4 3.2 18.4.7 4.2-2.6 6-6.4 4.3-8.5-1.8-2.2-2.8-1.9-4.5 1.3-.8 1.6-2.9 3.5-4.7 4.2-3.1 1.3-7.1.9-15.8-1.6-3.7-1.1-2 1.8 2.3 3.9zm-561.7 512.9c-1-1.6-3.2-1.4-27.6 2.4-42.3 6.5-85.7 15.4-146.4 30-175.3 42.1-314.4 88.4-408.6 136-35.8 18.1-55 30.4-47.4 30.4.9 0 9.2-4.4 18.3-9.7 51.2-29.9 110.8-55.4 195.1-83.3 93-30.8 183.2-55.8 278-76.8 52.1-11.6 108.6-22.3 129.7-24.7 6.7-.8 10.1-2.5 8.9-4.3zM1494.4 775c1.9-1.9-1.1-2.9-17.4-5.8-33.3-6-58.2-8.2-89-8-11.3.1-22.5.3-25 .5-63 4.7-111.9 24.1-147.5 58.5-6.9 6.7-12.5 12.7-12.5 13.5 0 3.3 4.2.8 12.5-7.7 19.1-19.3 40-32.9 66.3-43.3 51.5-20.3 120.9-23.6 196.2-9.6 9.9 1.8 15.8 2.5 16.4 1.9zm-549.9 358.4c13.7-1.8 32.7-5.6 41.9-8.4 12.4-3.8 21.2-11.3 33.4-28.2 28.2-39.3 46.9-65.6 64.2-90.1 18.9-26.9 20.2-28.9 18.4-30.2-2.2-1.7-2.7-1.7-7.8.1-13 4.4-56.7 17.5-72 21.6-33.9 9.1-41 13.5-53.7 33.4-2.5 3.8-15.2 28.4-28.2 54.5-22.3 44.5-23.6 47.5-21.9 48.8 1.9 1.3 4.2 1.2 25.7-1.5zm2.2-48.1c12.9-25.7 25.7-49.9 28.5-53.9 10.8-15.6 20.3-21.6 44.1-28 7.3-1.9 27-7.7 43.7-12.9 16.8-5.1 30.9-9.4 31.3-9.4.4 0 .5.5.1 1.2-1.5 2.4-41 58.6-56.9 80.7-8.9 12.4-19.3 27-23.2 32.5-12.2 17.3-19.8 23.1-36.9 27.9-13 3.7-42.8 8.6-52 8.6-1.9 0 .5-5.3 21.3-46.7zM1133 920.1c-17.2 4.3-69 15.5-103.5 22.4-131 26.1-274.7 45.7-402.5 54.9-48.6 3.5-80.2 4.7-137.5 5.2-93.9.9-146-1.8-236.5-12.2-48-5.5-71.3-9.2-94.4-15.1-5.4-1.4-10-2.3-10.3-2.1-1.2 1.2 43 11.2 69.1 15.7 103.8 17.7 259.4 22 416.5 11.5 149.5-10 344.5-39.9 502.8-77 9.4-2.2 11.1-2.9 10.1-4.1-1.4-1.7-4.5-1.5-13.8.8z"/><path d="M1175.7 869.1c-1-.8-3.4-.3-9.8 2.3-36.2 14.6-83.5 26.8-143.1 37-151.1 25.8-340.2 38.8-540.7 37.2-84.4-.7-111.6-1.7-157-6.2-120.7-12-201.4-44.9-226.8-92.4-4.1-7.7-8.2-19.4-8.2-23.5 0-1.3-.9-3.3-1.9-4.6l-1.9-2.4.9 5c3.7 19.8 12.2 34.7 29 51 38.4 37 114 62.3 214 71.4 45.6 4.2 88.9 5.9 171.9 6.7 157.3 1.5 301.5-7.2 458.5-27.7 91.5-12 149.6-24.9 203.3-45.2 12.7-4.8 14.6-6.2 11.8-8.6z"/><path d="M183.1 835.2c25.8 18.5 69.5 34.8 119.4 44.7 27.7 5.5 53.5 8.4 84.5 9.7 17.6.7 57.6-.3 56.5-1.4-.3-.3-17.6-.6-38.3-.7-47.3-.2-66.2-2-105.5-10.1-54.8-11.4-98.6-29.9-124.7-52.7-6.7-5.9-11-8.1-11-5.8 0 1.2 10.4 10 19.1 16.3zm1682.9-270c-1.4 0-1.9.2-1.2.5s1.8.3 2.5 0c.6-.3.1-.5-1.3-.5zm222.6-20.3c-6.8-1.3-19.8-1-27.6.6-9.2 1.9-19.6 5.8-19.2 7.4.4 1.7 37 78.1 38.8 80.8 2.2 3.4 4.7 2 15.4-9.3 16.6-17.4 24.1-30.6 24.9-44 .6-10.6-1.6-16.3-9.2-23.9-6.5-6.5-12.8-9.6-23.1-11.6zm16.3 62c-6.4 9.4-18.6 23.4-20.1 22.9-1-.3-38.1-76.9-37.5-77.4.2-.2 3.7-1.3 7.8-2.4 10.9-2.9 30.6-2.3 40.2 1.2 13.7 5.1 20.3 13.7 20.2 26.3-.1 9.5-3.3 18.7-10.6 29.4z"/><path d="M2332.4 576.4c-18.5-18.7-48-31.4-91.4-39.3-25.6-4.6-78-10.3-106.5-11.6-29-1.3-38.5-4.2-95-29-24.9-10.9-49.7-22.5-82.5-38.6l-26.7-13-3.3-13.7c-10.3-42.1-23.1-84.1-30.1-98.8-4.7-9.8-11.6-17.6-20.9-23.8-8.4-5.6-13.9-8.1-35-15.8-9.1-3.3-19.3-7.3-22.7-8.8l-6.2-2.8.1-5.4c.1-3-.2-5.9-.6-6.6-1.3-2.1-6.1-1.3-10.8 1.7-4 2.5-4.8 2.8-6.4 1.6-3.4-2.5-1.1-18.4 2.5-17 3.6 1.4 17.2 1.7 23.8.6 24.5-4.1 33.4-19.9 25.5-45.2-4.4-13.9-4.6-18.9-1.5-36.5 3.2-18.3 4.2-38.1 2.6-49.5-.7-4.5-1.4-8.8-1.7-9.5-.3-.8.8-1.7 2.9-2.4 9.2-3 14.5-17.6 9.8-26.9-1-2-6.2-7.9-11.6-13-11-10.5-13-14.1-13.9-25-.9-9.9-2.6-13.6-10.1-21.2-6.8-6.9-9-10.9-7.9-14.4.9-3.1 4.4-6.5 8.7-8.7 2.1-1.1 3.8-2.1 3.8-2.4 0-1-15.8-.3-21.6 1-14.4 3.1-24.4 12.1-24.4 22 0 3.6-2.5 9.2-4.7 10.3-1 .5-9 2.2-17.7 3.7s-20.2 3.8-25.5 5.1c-22.2 5.6-40.7 18.6-46.6 32.8-3.3 7.8-.8 17.6 6 23.5 3.2 2.8 3.3 3.1 2.3 7.3-.6 2.4-1.1 9.5-1.1 15.9-.1 12.1 1.6 20.8 5.4 28.2 1.9 3.8 1.9 3.8 0 4.6-1.9.7-1.9.9.8 7.3 6.1 14.4 14.3 23.5 27.8 30.8 6.9 3.7 8.6 5.3 14 12.4 3.4 4.5 7.3 10.1 8.8 12.4l2.7 4.2-1.7 6.8c-.9 3.8-3.9 11.5-6.7 17.3-4.5 9.3-6.1 11.5-14.7 20.1-10.2 10.1-18.9 16.4-38.6 27.5-17 9.6-25.5 15.7-33.2 23.9-8.1 8.5-11.3 13.8-14.8 24.3-3.1 9.3-4.3 25.4-2.5 34.8.6 3.3.9 6.1.7 6.3-.2.2-14.7-.3-32.2-1.2-130.9-6.5-314.3-10.3-373.7-7.7-36.5 1.6-53.3 4-81.1 11.7-11.1 3.1-39.6 12.6-46 15.4-1.1.5-16.2 6.9-33.5 14.3-90.6 38.7-177.2 80.7-255.6 124.2-31.9 17.7-49.7 28.5-62.1 37.7-15 11.2-15.6 11.4-37.6 9.9-43.7-2.8-108.2-2.5-186.7.9-46.3 2-69.8 6-95.8 16.1-12.2 4.8-85.9 41.3-121.7 60.3C192.4 730.9 63.2 810.9 38.9 836.7c-12.5 13.2-16.3 24.1-16.3 46.3 0 20.3 1.7 29.5 14 74.5 7.7 28.1 10.4 36.7 14.9 47.4 1.5 3.5 2.6 6.5 2.4 6.6-1.1 1-7.2 3.5-11.8 5-15.7 5-36.9 19.1-40 26.5-1.9 4.6-.8 11.1 3 16.5 5.3 7.7 29.5 31.3 43.8 42.7 33.4 26.6 81.8 55.3 115.8 68.6 17.2 6.7 20.6 7.7 36.3 11.1 18.4 4 23.5 6.1 34.3 14.2 16.6 12.6 31.1 19.8 63.8 31.6 63.7 23.1 138.1 40.2 272.8 62.7 101.9 17 163.6 23.3 217.4 22.3 39.1-.8 66.2-4 137.7-16.6 21.7-3.8 57.1-9.9 78.5-13.5 32-5.4 69.8-13 80.1-16.1 1.9-.6 2.2 0 3.3 5.7 4.1 21 11.5 35.4 20.4 40.1 4 2.1 5.3 2.2 55.6 2.7 92.2.9 106.3.5 138.6-4.5 48.3-7.4 80.1-20.9 102.5-43.4 26.3-26.5 54.4-88.2 62.9-138.2 3.7-21.5 4.3-40.2 4.4-117.8v-74.5l1.8 10.8c9.1 55.7 9.1 129.4-.1 203.2-1.1 8.8-2.3 17.4-2.6 19.1-.3 1.7-.2 3.4.4 3.7.5.3 52.1-12.4 114.5-28.4 62.4-15.9 114-29 114.6-29 .6 0 1.3 1.5 1.6 3.2 1.2 8.4 8.7 80.7 8.6 83.7-.1 3.4-2.9 9.4-10.3 21.4-7.5 12.1-6.2 18.2 6.3 31.1 5.9 6 11.9 13.8 18.2 23.5 10.8 16.7 16.9 23.7 27.3 31.5 26.2 19.7 48.8 26.4 59 17.4 4.2-3.7 5.2-8.1 3.5-15.5-2.1-9.3-9.2-21.9-31.8-55.9-25.4-38.3-26.4-40-29.1-48.1-3.6-10.8-2.9-20.8 6.8-89.7l2.6-18.9 65.3-16.7c41-10.5 65.5-16.3 65.7-15.6 4.5 13.4 25.4 87.1 28.9 102.1 2.7 11.3 3 23.4 1 41.3-2.7 24.3-.5 32 10.4 37.1 5 2.3 6.7 2.6 17.1 2.5 6.3 0 19.6-1 29.5-2.2s27.9-2.6 40-3.2c48.8-2.4 66.2-5.3 72-12.2 3.4-4 3.2-6.1-1-10.8-5.6-6.2-11.8-8.1-60.4-18.5-16.2-3.5-32.4-7.3-36-8.5-17.4-5.8-23.5-14.6-25.9-37.7-1.7-15.7-8.2-107.5-7.7-108.1.3-.3 41.5-11 91.6-23.8 50.1-12.8 91.7-23.5 92.4-23.8 1-.4 1.6-4 2.1-12.9.4-6.8 1-14.6 1.4-17.3l.6-5 1.8 8.3c4.9 22.4 14.1 41.5 25.4 52.4 2.1 2 5 4.2 6.5 4.7 5.8 2.2 36.8 3.5 52.8 2.2 17.4-1.4 22.9-3 31.7-9.5 11.4-8.4 20.1-21.3 36.1-53.6 16.6-33.4 25.6-58.2 29.5-80.9.9-5.2 2-9.9 2.6-10.6 1.6-2 7.1-66 10.6-125 2.1-34.7 3-110.5 1.6-130-1.9-24.7-6.1-36.2-17.8-48zm-516.1-291c2.9 1.3 13.1 5.1 22.8 8.5 32.6 11.5 44.8 19.4 52.3 33.8 3.7 7.2 12.6 33.4 20.2 59.8 4.8 16.8 13.9 51.5 14.9 57.5.3 1.9 1.3 6.4 2.1 10 2.1 8.9 3 38.5 1.5 47.5-2.5 15.1-7 18.9-29.1 24.4-26.4 6.6-52.6 9.9-68.2 8.5l-7.7-.7-.6-3.4c-.4-1.9-.3-5.4 0-7.8l.7-4.4 11.2-4.3c28-10.7 44.8-21.7 52.3-34.6 2.6-4.4 2.9-5.8 2.9-13.4 0-9.3-1.2-12.6-8.1-22.3l-3.4-4.8v-15.9c0-23.7-2.2-42.6-7.6-65.3-2.5-10.6-4.1-13.5-6.8-12.5-1.1.4-.9 2.6 1.5 11.6 4.4 17.1 6.9 36.4 7.6 58.2l.6 19.6-5.4-.4c-7.4-.5-10.5 1.7-17.2 11.9-7.1 10.9-9.2 12.7-18.9 15.9l-8.2 2.8-1.7-11.8c-3.1-21.8-7.5-36.6-21.9-74.2-12.9-33.5-17.2-47.1-20.5-64.4-1.3-6.9-1.3-6.9 1.2-9.1l2.5-2.2 9.4 4.8c10.2 5.2 14.3 5.9 17.3 2.8 2.3-2.4 2.5-5.3.5-13.5-.8-3.3-1.5-8.1-1.5-10.7v-4.7l5.3 2.8zm119 211.4l1.2-12.7 8.5 4.6c4.7 2.5 12.6 7.1 17.5 10 16.8 10.1 32.1 22.7 35 28.8 1.5 3.1 1.5 4 .4 6.7-3.8 9.2-24.1 23.3-57.7 40.1-14.6 7.3-38.7 18.6-39.7 18.6s-5.7-59.3-4.7-60.1c.4-.3 5-1.6 10.2-2.9 14-3.3 19.5-5.6 22.9-9.5 3.9-4.4 5-8.3 6.4-23.6zm-80.3.4c0 4.6-.2 4.9-3.7 6.3-2 .8-3.7 1.4-3.8 1.3-.1-.1-.9-3.3-1.8-7-1.7-7.2-7.1-18.8-11.2-24.2-1.4-1.8-2.5-3.7-2.5-4.2 0-.8 5.4-2.6 9.6-3.2.6-.1 2 1.1 3.1 2.6 5.7 7.7 10.3 20.4 10.3 28.4zm-8.8-33l2.5-2.3c1.4-1.3 4.9-6 7.7-10.4 8-12.4 13.9-14.9 21.7-9.4 5.6 4 10.7 19.5 9.5 28.7-1.2 8.8-7.3 16.3-19.5 24.1-7.9 5.1-9.1 5.1-9.1.6 0-5.5-4.6-18.7-8.9-25.3l-3.9-6zm-61.8-169c1.3 3.6-2.5 9.8-6 9.8-2.8 0-7.4-4.1-7.4-6.5 0-2.6 2.9-7.3 4.7-7.7 3-.7 7.7 1.7 8.7 4.4zm-2.4-14.6c1.9-5.8 2.9-6.9 6-7.5.3 0 1.3 1 2.2 2.2 1.7 2.3 1.6 2.4-3.7 7.7-3 2.9-5.7 5.1-6 4.7-.4-.3.3-3.5 1.5-7.1zm10.8.3c8-7.7 9.6-8.9 12.7-8.9h3.5l-.6 9.8c-.5 7.5-.2 11.6 1.1 17.6 1.3 6.1 1.5 8 .5 9.2-2 2.4-6.6 1.6-15-2.6-7.9-4-8-4.1-7.4-7.3.5-2.5.1-3.9-1.6-6.1l-2.3-2.9 9.1-8.8zm-89.9-130.4c-3.8-8.6-5.2-17.3-4.5-29 .3-6.1.9-12.3 1.2-13.8.6-2.7.8-2.8 4.2-2.1 2 .4 7.4 1 12.1 1.3l8.5.6 1.2 7c1.3 7.7 2.9 24.3 3.9 40.5l.7 10.5-3.4-2.6c-5.5-4.2-11.7-6.9-17.1-7.6-4.7-.6-5-.8-6.8-4.8zm46.7 61.9l-10.7-16.1-9.7-5.9c-5.3-3.3-11.6-7.8-13.9-10.1-4.5-4.5-10.3-13.8-10.3-16.7 0-2.5 4.4-3.9 10.3-3.1 4.3.6 6 1.5 10.9 6 8.1 7.4 8.8 7.2 8.8-2.5 0-10.5-1.7-32.4-3.5-45-.8-5.7-1.5-10.6-1.5-11.1 0-.4 2.9-1.3 6.4-2s14.7-4 24.8-7.6c16.6-5.8 28.1-8.9 36.4-9.9 2.6-.3 2.5-.4-.8-.5-6.2-.2-18 2.6-34.4 8.4-22.9 8-31 9.8-41.3 9.2-13-.7-21.2-4.4-26.1-11.6-3.3-4.9-3.4-14.7-.1-21.3 8.4-17.1 30.1-28 65.7-32.9 19.8-2.8 23.9-4.7 25-11.7 2.3-14.7 10-22.3 24.5-24.2 8.6-1.1 9.9-1 6.4.6-4.1 1.8-8.4 7-8.4 10.1 0 3.9 1.5 5.9 8.9 11.8 8.8 7 10.1 9.9 10.1 21.6 0 11.2 1 13.4 8.7 19.4 7.7 6 16 14.9 17.8 19.1 2.2 5.2 1.8 10.4-1.3 16-4.9 8.9-6.7 8.7-14.3-1-6.9-8.9-12.2-11.8-23-12.8-2.4-.2-3.5-.2-2.4.1 10.9 2.4 13.8 4.5 19.5 14.4 2.2 3.8 4.7 7.3 5.6 7.7.9.5 2.2 3.5 3 6.8 1.6 6.7 3 29.8 2 33.8l-.7 2.7-2.6-2c-1.8-1.4-4.1-2-7.4-2-5.6 0-9 1.1-14.3 4.8-3.8 2.6-3.9 2.7-3.3 8.1.9 9.1 6.7 12.6 13.6 8.5 5.3-3.2 7.4-9.7 5-15.9-1.2-3.3-.8-3.9 2.4-3.1 3.4.8 5 5.7 3.6 10.8-1.2 4.3-6.4 10.8-8.6 10.8-.8 0-1.2.4-.8 1 1.1 1.8 3.3 1.1 7.1-2.2 3.6-3.2 3.7-3.2 3-.8-.4 1.4-1.2 6.6-1.8 11.6-1.3 10-.8 13.8 3.6 30.3 1.4 5.1 2.5 11 2.5 13.1 0 12.1-7.7 22.3-19.5 26-8 2.5-22.2 2.8-28.7.7-2.4-.8-5.6-1.7-7.3-2.1-9.5-2.3-24.1-17-38.9-39.3zM1827 166c-3.2 3.2-5.7 2.6-6.9-1.7-1.6-5.8-1.3-7.1 2.2-9.3 1.8-1.1 3.4-2 3.5-2 .1 0 .9 1.3 1.8 2.9 2 4.1 1.8 7.7-.6 10.1zm-76.1 79.5c1.6-3.8 3.5-9.3 4.2-12.1l1.3-5.2 9.1 9.3c7.3 7.5 10.6 10 16.9 13.1 6 2.9 7.6 4.2 7.2 5.4-.3.9-.9 4.1-1.2 7.2-.5 5.2-.8 5.7-3.7 6.8-2.8 1-3.5 2-5.6 8.7-1.3 4.2-2.7 7.7-3 8-.4.2-.9-2.7-1.2-6.4-.3-3.8-.8-7.3-1.2-8-.4-.6-6.3-5-13.1-9.7-6.8-4.7-12.4-8.9-12.4-9.3s1.1-4 2.7-7.8zm-5.3 11.5c.2 0 5.7 3.6 12.1 8.1l11.7 8.1.7 5.7c.4 3.1.6 5.8.5 5.9-.1.1-2.5-2.9-5.4-6.6-2.9-3.7-7.5-9-10.3-11.6-4.7-4.4-5.4-4.7-9-4.2-2.2.3-3.9.3-3.9.1 0-.8 3.2-5.5 3.6-5.5zm-.6 10.2c2.6-2.8 4.1-2.8 7.8.3 1.6 1.4 6.4 7 10.6 12.4 7.5 9.8 7.6 10 6.1 12.8-.8 1.6-1.5 4-1.5 5.5 0 2.9-1.4 3.7-16.9 9-8.7 3-13.5 3.6-14.6 1.9-.3-.5.3-4.5 1.4-8.8 1.1-4.3 2.3-11.4 2.6-15.8.8-10.1 1.9-14.5 4.5-17.3zM750 587.6c2.2-1.5 7.3-5.2 11.2-8.2 28.3-21.9 158.4-90.1 259.4-136 23.3-10.6 46.4-20.6 80.5-34.9l8.5-3.6 22.5.5c12.4.3 42.8 1 67.5 1.5 170.4 3.8 330.7 12.4 342.3 18.3 10.1 5.2 5.9 23.6-17.1 75.3-20.4 45.9-49.4 97.9-68.5 122.8-7.8 10.1-19.3 21.6-24.6 24.3-4.9 2.6-5.6 2.7-25.3 3-13.1.2-31.4-.4-52-1.7-17.5-1.1-50-3.2-72.3-4.6-144-8.9-324.1-24.3-427-36.5-13.5-1.6-33.7-3.8-45-4.9-30.3-3-49.9-6.7-60.8-11.3l-3.3-1.4 4-2.6zm715.1 539.9c-4.5 24.4-13.4 51.2-26.7 79.9-31.3 67.8-60.2 88.9-138.1 101.1-25.2 3.9-43.6 4.5-115.4 3.7-56.5-.7-66-1-69.1-2.4-9-4-16-15.7-20.6-34.2l-2.6-10.6 1.7-8.7c1.7-8.9 6.5-45.4 11.1-86.2 5.1-44.9 10.3-76.3 18.5-112.3 19.4-85.1 46.2-149.7 81.2-196.1 3.4-4.5 11.4-13.5 17.7-20 36.5-37.5 79.2-54.2 127.4-49.6 20.5 1.9 36.1 6.7 50.6 15.5 24.3 14.7 44.7 41.6 57.5 75.7 7.2 19.4 8.1 27.7 9.6 92.8 1.5 59.9.1 135.7-2.8 151.4zm237.6-15c-.1.1-48.4 12.4-107.2 27.4-58.9 15-109.2 27.9-111.8 28.8-2.6.8-5 1.3-5.3 1s.2-5.2 1-10.9c1.8-12.4 5.1-49.1 6.7-75.6 1.3-21.9.7-83.6-1-100.3-7.7-74.9-23.8-122.2-52.8-155.5-15.1-17.3-34.8-29.2-58.1-35.1-26.8-6.8-54.5-5.3-84.3 4.6-19.7 6.5-39.9 17.6-55.9 30.6-10.1 8.2-28.5 27.7-37.4 39.5-30.9 41.2-55 98.4-74 174.8-12.2 49.3-20 97.7-29.1 180.5-2 18.1-4.2 34.5-5 36.3-.9 2.3-2.6 3.8-5.1 4.9-7.6 3.2-62.4 14.3-106.9 21.8-56.2 9.4-140 20.6-169.3 22.6-40.5 2.8-84.1.3-154.7-9-157.7-20.7-305.8-53.8-378.5-84.7-13.7-5.8-26.6-13.5-36.3-21.6-9.1-7.6-14.1-9.7-28.7-12.1-20.6-3.4-52.3-15.7-81.4-31.6-40.4-22.2-71.7-44.5-97.8-69.8-25.4-24.6-27.7-31.3-15.2-43.5 6.6-6.5 18.4-13.2 32.4-18.7 5.8-2.2 10.9-4.4 11.3-4.8.4-.4-2.6-10.8-6.7-23.2-7.2-21.6-17.9-61.8-21.2-80.4-.9-5-1.9-15.6-2.1-23.6-.4-12.6-.2-15.7 1.6-22.9 5.2-20.6 15-29.7 73.6-68.7 49.8-33.2 133.3-82.1 207.5-121.5 12.9-6.9 38.9-20.7 57.7-30.7 69.2-36.8 85.9-42.2 147.4-47.5 32.6-2.8 65.3-3.9 122.9-3.9 50-.1 59.4.2 71.9 1.8 8.6 1.1 17.7 1.6 22.5 1.4 7-.4 8.8-.1 13.5 1.9 10.6 4.7 29.9 8.6 56.2 11.3 5.8.6 21.1 2.4 34 4 112.9 14 305.8 30.4 481 41 18.4 1.1 39.1 2.4 46 3 22.7 1.7 50.2 2.3 58.4 1.2 11-1.4 18.7-5.5 27.8-14.5 10.3-10.2 16.4-19.2 34.4-50.6 39.2-68.4 66.4-131.3 66.4-153.2 0-13.9-7.1-18.2-33-19.9-8-.5-22.6-1.6-32.5-2.4-60.7-5-128-8.4-211-10.5-33.7-.9-130.1-2.9-148.5-3.1l-5.5-.1 7.5-3c10.7-4.2 30-10.6 38.9-12.9 21.3-5.4 38.9-6.7 111.6-8 96.1-1.7 197.5.8 325.2 8.1l39.2 2.2 4.2 11.8c2.3 6.5 4.4 11.8 4.7 11.8.3 0 .2-.8-.2-1.8-1.8-4.7-5.6-21.4-5-22.3.3-.6.2-1.6-.3-2.2-1.6-2.1-2.4-16.9-1.3-25.9 2.6-21.2 11.4-35.9 28.3-47.6 4.1-2.8 14.9-9.2 24.1-14.2 20.4-11 24-13.5 33.6-22.7 4.1-4 7.8-7.3 8.2-7.3.4 0 .3 1.4-.3 3.2-.5 1.8-1.2 7.5-1.5 12.7-.3 5.2-1.4 12.7-2.5 16.6-1.9 6.9-1.7 10.1.5 11.6 3.7 2.5 20-.8 30.7-6.3l4-2 2.9 2.3c2.3 1.8 3.1 3.6 4 8.8 2.9 16.5 7.7 31.6 21 66.5 15 39.2 21.4 62.2 22.2 79.5l.3 6.5-16 2.3c-8.8 1.2-22.7 4-31 6.1-8.3 2.1-16.4 4.1-18.1 4.4l-3.1.6-12.1-24.7c-17.5-35.8-25-54.1-31.3-76.3-2.8-10-4.5-13.7-5.7-12.5-.6.6 6 22.1 10.5 34.1 8.2 21.5 36.4 81.2 39.3 83 1.5.9 12.4-1 35-6.2 10.7-2.5 23.9-5.3 29.3-6.3l9.8-1.8 2.4 2.9c5.8 6.9 12.5 24 12.5 31.9 0 3.2-.4 3.7-3.2 4.6-1.8.6-13.2 4.5-25.3 8.8-12.1 4.3-27.7 9.7-34.6 12.1-15.6 5.5-24.9 6.5-35.4 3.8-7.7-1.9-18.5-6.3-18.5-7.5 0-.4-1.1-1-2.4-1.4-3.9-1-16.6-11.7-22.7-19.2-9-11.1-14.5-20.4-25.3-42.8-5.6-11.6-10.8-22.6-11.5-24.4-.7-1.8-1.5-3.1-1.7-2.9-.6.6 9.5 24.6 16.2 38.2 11.8 24.1 23.3 39 36.6 47.9l5.6 3.7.6 6.7c1 12.3-.7 22.4-8.3 48.7-7.7 26.7-16 62.3-16 68.5 0 1-.5 2.2-1 2.5-1.3.8-31.9 6.4-62.5 11.5-45.5 7.5-102.6 14.6-126.5 15.7-9.6.5-10.7.3-13.2-1.6-6-4.8-4.6-14.1 6.6-41.4 10-24.6 18.3-42.6 33.3-71.7 25.9-50.5 51.1-93.1 63.9-108.3 13.1-15.5 32.3-25.7 53-28.3 3.3-.4 6.6-.8 7.2-.9.7-.1 1.8-.8 2.5-1.5 1-1.1.3-1.2-3.8-.6-38 5-58.2 19.3-82.1 57.9-7.1 11.4-26.7 46.7-40.8 73.4-24.7 46.7-46.8 98.8-48.3 113.8-.9 8.9 4.2 12.5 17.7 12.5 3.6 0 9.2-.4 12.5-1 3.3-.5 14.6-1.9 25-3 36.8-3.9 96.2-12.9 139-20.9 8.8-1.6 16.1-2.8 16.3-2.6.2.2-.1 3-.7 6.2-4.1 23.2-3.8 53.1.8 87.4 1.7 12.4 3.1 23.3 3.1 24.2 0 1.1-1.3 2.1-3.7 2.7-14.9 4.1-164.4 40.3-164.8 39.8-.3-.3-1.2-5.2-2.1-10.9-3.6-24.5-11.2-53.1-21.9-82.9-9.2-25.4-9.9-27-12.8-27h-2.4l4.9 12.7c14.6 38 23.5 71.2 28.3 105.9l.6 4.1-4.2 1.1c-2.3.6-16.8 4.1-32.2 7.7-15.4 3.7-28.7 7.3-29.5 8.1-.8.8-1 1.4-.5 1.4s15.6-3.5 33.5-7.9l32.5-7.9.7 3.6c.4 2 .7 64.3.8 138.4 0 116.7.3 134.9 1.5 135.3.8.3 40.1-9.4 87.3-21.5 47.2-12.1 86.2-22.1 86.6-22.1.4 0 .7 5.5.7 12.2v12.2l-101.2 24.8c-55.7 13.7-101.7 25.2-102.2 25.8-.6.6-.4 1.5.6 2.5 1.4 1.4 11.4-.9 101.8-23.1 55.1-13.5 100.4-24.5 100.6-24.3-.1.9 2 29.6 1.6 29.8zm98.1-580.1c4.3 1.5 9.7 3.1 12 3.5 2.3.4 4.6 1 4.9 1.4.8.8-1.3 27.3-2.3 28.8-1.9 3.1-48.8-5.4-79.6-14.3l-10.7-3.1.1-10.1.1-10.1 6.7 3.2c3.7 1.7 9.6 3.9 13.1 4.9 10 2.6 21.6 1.6 36.2-3.1l11.7-3.8 7.8 2.7zm-3.8-3.9c0-.4 8.6-3.3 10.2-3.4.4 0 .8 1.6.8 3.5 0 2.7-.4 3.5-1.4 3.1-.8-.3-3.3-1-5.5-1.6-2.3-.7-4.1-1.4-4.1-1.6zm16-.5c0-4.3.3-4.9 2.8-5.8 1.5-.6 3-1 3.2-1.1.3 0 .6 2.8.7 6.4.1 5.7-.1 6.5-1.7 6.5-4.1 0-5-1.1-5-6zm-110 501c-.7 6.9-1.5 14.5-1.8 16.9l-.7 4.4-84.5 21.8c-46.5 12-84.8 21.8-85.2 21.8-.6 0-1.7-274.7-1.1-275.8.2-.3 65.8-16.6 147.3-36.5 11.8-2.9 21.6-5 21.7-4.7.1.3 4.1 31.4 8.8 69 4.7 37.7 9.2 73.4 10 79.5 2.8 22.4 1.9 30.5-7.1 66-4.5 18.2-6.6 28.5-7.4 37.6zm74.7 225.7c21 29.5 26.9 39.6 31.2 53.6 2.6 8.6 2.6 12.7 0 16-1.7 2.2-2.9 2.6-7 2.6-12.8 0-37.3-12.6-52.3-26.9-8.5-8.1-13.4-14.4-22.5-28.9-8.4-13.4-10.6-16.2-17.1-21.3-5.2-4.1-8.1-9.6-8-15.1 0-3.9 2.2-8.8 8.3-18.7 3-4.8 5-9.5 5.8-13.3.6-3.2 1.4-5.7 1.8-5.5.3.2 3.8 1.9 7.6 3.8 6 3 8.2 3.5 15.5 3.8l8.5.3 1.8 5.8c2.5 7.9 11.9 23.5 26.4 43.8zm-56.5-76.6c3.4 2.2 8.6 4.7 11.6 5.6 4.9 1.4 9 1.4 14.5-.2 1.6-.5 1.8.3 1.8 7.6 0 9.5-.1 9.5-10.1 9.5-5.6 0-7.7-.6-14.1-3.7l-7.6-3.7-1.1-7.5c-1.9-12.6-2.1-12.3 5-7.6zm172.6-114.6c-.8.7-127.9 32.8-128.3 32.4-.5-.5 3.5-29 4.1-29.7.3-.3 114.2-28.7 116.6-29 .4-.1 1.2 1.8 1.8 4.1.6 2.3 2.2 8.2 3.6 13.1 1.5 4.8 2.4 8.9 2.2 9.1zm-86.9-314.2c1.5-.4 7.4-1.9 13.1-3.4 5.8-1.5 10.9-2.6 11.4-2.5.5.1 4 11.4 7.8 25.2 9.5 34.6 27.2 100.2 32.9 122.5 6.8 26.2 7.4 33.4 5.4 63.2-1.6 24-1.5 28.9 1.1 46.3l.6 4-51.7 13.3c-28.5 7.3-51.9 13.1-52 13-.2-.2 2.8-19.4 6.6-42.8 14.5-89 15.5-98 19.4-180.5 3-64.5 2.4-57.5 5.4-58.3zm-2.5-10.1c.3-4.3 1-21.5 1.6-38.2.6-16.8 1.3-31.3 1.6-32.3.9-3 3.7-1.5 6.1 3.3 1.2 2.5 3.6 11.2 5.2 19.5 1.6 8.2 5 22.3 7.5 31.2 2.5 8.9 4.5 16.6 4.5 17.1 0 .8-23.2 7.1-26 7.1-.7.1-.9-2.3-.5-7.7zm73.7 267.9c1.3-.1 2.2 2.5 4.3 11.4 1.5 6.4 2.5 12.1 2.3 12.8-.5 1.3-112.6 29.2-113.5 28.2-.6-.6 2.8-24 3.7-25.3.6-.8 99.8-26.8 103.2-27.1zm95.4 177.1l4 3.8c2.2 2.1 6.2 5 9 6.3 7.6 3.7 19.5 7.2 38.7 11.2 22.7 4.8 46.8 10.2 52.7 12 2.6.8 6.5 2.9 8.7 4.8l3.9 3.4-4.1 4.9c-6.5 7.7-7.6 8-35.9 9.8-49.3 3.1-56.2 3.7-69 5.7-15.9 2.5-31.2 2.9-37.9.9-6.5-1.9-12-7.2-13.6-13.1-.8-2.9-1-8.2-.7-15 .5-9.6 2.5-29.2 3.1-29.7.1-.1 3.4.4 7.2 1.2 12.7 2.7 22.9 1.4 30.4-3.9l3.5-2.3zm-3.5-7.9c1.1 3.4 1 4.1-.6 5.9-3 3.3-9.3 6-15.3 6.6-5.2.5-19-1.8-21.7-3.5-1-.6-2.9-12.2-2-12.2.2 0 4.6.9 9.8 2 5.2 1.1 11.2 2 13.4 2 4.2 0 11.7-2.9 13-4.9.9-1.8 1.9-.5 3.4 4.1zm-6.5-54.8c.9 13.7 2 29 2.5 34l.9 9-2.8 2.6c-1.6 1.4-4.9 3.4-7.5 4.4-4.5 1.7-5.1 1.7-15 0-5.7-1-10.8-2.1-11.4-2.4-.6-.4-4-12.1-7.5-26.1-3.6-14-12.4-46.8-19.6-72.9-22.4-80.9-22.2-79.6-20.1-119.2 1-17.8 1-25.6.1-32.8-1.5-12.4-15.3-65.6-45.6-175-20.4-73.8-21.2-76.6-22.5-78.9-2.9-5.4-11.4.2-12.4 8-.5 4.3-2.1 42.4-5.1 122.4-3.4 92.4-5.7 112.6-24.6 218.2-14.4 80.7-20.2 120.4-22.8 155-.5 6.2-1.1 11.6-1.5 12-.4.4-3.5.8-6.9 1-5.6.3-6.8 0-11.8-3-3.1-1.8-7.9-4.6-10.7-6.3-6.1-3.6-5.4-.8-8.2-35.5-6.5-80.8-5.4-107.6 6.5-157 2.5-10.2 4.9-22.2 5.4-26.7 1.6-14.1-1.9-50.9-10.8-114.6-8.1-58-15.2-113.5-16-126.2-2-29.7 5.2-81.1 16.4-116.1l4.5-14.1 7.3 1.9c8.6 2.2 15.3 1.5 24.4-2.7 4.6-2.1 5.4-2.8 4.4-4-1-1.2-2.2-1-8.2 1.6-8.6 3.7-15 4.5-21.8 2.9-4.5-1.1-5.1-1.5-4.7-3.4.3-1.2 1.6-6.6 3.1-12.1 1.4-5.5 2.6-10.7 2.6-11.6 0-1.4 1.8-1.1 12.9 2.2 30 8.9 63.3 14.3 86.1 14.1 11.4-.1 32.1-1.9 37-3.1l3.5-.9-3.5.5c-1.9.3-11.8.8-21.9 1.1l-18.4.6.6-6.4c.3-3.5.9-10.3 1.3-15.2l.6-8.8 12.2.6c12.5.7 31.9-.7 45.1-3.1 10.7-2 10.3-2.1 10.9 2.7.3 2.3.7 7.2.8 10.7l.3 6.5-6.5 3.3c-3.6 1.8-5.4 3-4 2.7 1.4-.4 4.2-1.6 6.3-2.6 2.1-1.1 4-1.8 4.2-1.6.5.5 2.6 26 2.2 26.4-.7.7-8.6-3.8-12.5-7.1-4.4-3.7-6.2-4.3-6.2-2 0 2 8.9 8.9 14.5 11.1 5.2 2.1 5 1.5 6.6 17.4 2.2 22 9.5 60.1 32 166 7.7 36.1 13.5 67.7 17.1 91.5 1.9 12.9 2.2 18.7 2.1 41.3-.1 17.4.4 31.1 1.4 40.5.8 7.8 2.2 20.9 3 29.2 2 22.9 9.9 121.8 11.7 150zm331.5-144c-13.6 28.2-33.3 42.6-51.5 37.5-9.5-2.7-22.1-14.8-30.6-29.5-9.7-16.7-16.1-38.6-19.9-67-3.2-23.8-3.2-57.6 0-78.2 4.3-27.9 11-49.7 22.6-73.8 8.1-16.8 16.8-29.6 26.9-40 15-15.2 24.1-19 36-14.9 12.6 4.3 25.5 22.6 33.5 47.6 4.2 13.2 5 20.3 6.1 55.3 2.3 74.2-4.9 125-23.1 163zm37.8-96.9c-.9 8.4-4.4 23-8.3 34.4-3.2 9.3-11.8 31.1-12.1 30.7-.1-.1 1-6.6 2.5-14.2 5.8-28.9 8.1-56.1 8-97 0-35.6-1.2-57.2-3.8-69.1-6.5-29.9-21.9-49.7-43.6-56-13.2-3.8-23.5.4-37.8 15.5-45.5 48-64.4 132.7-47.1 211.1 6.7 30.3 16.4 50.6 31.4 65.9 15.4 15.6 31.2 19.7 47.4 12.3l7-3.2-6.1 5.9c-7.2 6.9-14 10.3-24.6 12.5-9.7 2-28.8 2.1-47.2.1-15.5-1.6-19.9-3.4-25.5-10.2-9.3-11.3-17.8-37.6-19.7-60.8-1.7-21.3 13.3-105.1 27.7-155 16.4-56.9 29.8-85.4 49-104.4 9.1-9.1 22.8-16.7 32.9-18.4 4.5-.8 12.4.5 17.5 2.8 22.3 10.1 38.5 49 47.4 113.6 4.2 29.5 6.5 69.2 5 83.5zm12.3-164.1c-1.7 43.8-6.2 112.9-7.4 114.2-.2.2-.7-4.6-1-10.6-1.7-28.7-8.4-64-16.6-87.6-5.6-16.2-14.1-32.2-21.1-39.9-10.2-11.2-17.9-14.8-31-14.8-20.3 0-39 13.3-56.8 40.1-22.8 34.4-37.6 78-49.5 145-7.6 43.1-14.7 94.1-16.1 116.1-1.3 20.4-1.1 19.8-6.1 21.9-6.9 3-34.1 10.5-56 15.4-35.8 8.1-50.5 11.7-85.5 20.6-22.7 5.8-34.7 8.5-35.1 7.8-.9-1.4-2.2-24.8-1.5-25.6.6-.6 9.9-2.9 110.8-27.7 34.7-8.5 51.8-13.1 51.8-14 0-.7-.6-1.7-1.2-2.3-.9-.7-24.6 4.7-81.8 18.8l-80.5 19.8-.6-4.6c-.3-2.6-.9-8.7-1.3-13.6l-.7-9 36.8-9.4c20.2-5.2 38.3-9.8 40.1-10.3l3.2-.9v-97.6l4.1-1.6c2.2-.9 7.5-2.1 11.7-2.7 8.8-1.2 102.4-18.9 103.1-19.5 2.1-1.9-9.1-.1-62.5 10.2l-61.6 11.9.2 46.5c.1 31.4-.2 47.4-.9 49.2-1.6 4-7.4 6.4-22.2 9.4-7.2 1.4-21.8 4.8-32.3 7.5-10.5 2.7-19.4 4.6-19.8 4.2-.3-.4-1.2-7-1.8-14.7-.7-7.7-2.1-21.2-3.2-29.9l-2-15.9 8.6-31.6c4.7-17.4 13.3-48.3 19-68.7 5.7-20.4 12.4-45.4 14.9-55.5 7-28.5 12.1-58.9 9.9-58.9-2.8 0-3.7 2.6-5.4 14.1-3.7 25.4-9.5 49.7-25 104.4-5.4 19.3-12.4 44.5-15.5 56-3.1 11.5-5.8 21.1-5.9 21.2-.1.1 0-6.2.2-14 .6-19.3-1.3-31.4-16.4-107.1-6.8-34-12.1-62.3-11.8-62.7.3-.5 1.1-.9 1.8-.9 3.4 0 137.9-35.7 199.7-53 21.7-6.1 56.8-15.8 78-21.6 42.4-11.6 61.1-17.4 77.1-24 13.8-5.6 29.7-13.6 28.1-14.2-.7-.2-5.9 1.8-11.5 4.5-19.9 9.7-34.3 14.5-87.3 29.2-15.4 4.3-44.9 12.5-65.5 18.3-70.2 19.8-220.6 59.4-221.5 58.5-.3-.3-4.3-19.4-8.9-42.4-7.9-39.3-12-63.6-12.7-74.6l-.3-4.8 13-5.9c32-14.4 46.4-22.1 65.9-34.8 20-13.1 26.2-19.9 24.8-27.3-1-5-12-14.2-32.2-26.6-10.7-6.6-23-14-27.3-16.3-4.4-2.4-8.2-5.2-8.6-6.4-.4-1.2-1.3-6.6-2-12.1-.6-5.5-1.4-11.2-1.7-12.7-.5-2.6.8-2.1 30.7 12.3 17.2 8.2 42.5 20.1 56.4 26.4 13.8 6.3 32.7 14.8 41.9 19 19.3 8.7 33.3 13.8 44.3 16.1 4.5.9 17.3 2 30.8 2.5 73.7 2.9 123.9 12.2 160.4 29.5 31.8 15.1 43 29.4 47.2 60 1.8 12.8 2.4 65.2 1.1 97.7z"/><path d="M1870.5 564c-1.3.5-1.4.9-.5.9.8 0 2.4-.4 3.5-.9 1.3-.5 1.4-.9.5-.9-.8 0-2.4.4-3.5.9zM626.3 898.5c.7-.2 16.5-1.3 35.2-2.5 84-5.1 108.3-7.4 141-13.6 44.5-8.5 91.9-26.1 152.5-56.7 39.3-19.8 52.8-27.7 67.2-39.4 16.3-13.2 11.7-21.2-17.6-30.8-24-7.8-50-10.9-71.6-8.4-25.5 3-67.5 20.4-130 54.1-10.7 5.8-35.3 18.7-54.5 28.8-66.1 34.5-120 63.4-122.7 65.8-1.9 1.6-1.5 3.4.5 2.7zm13.2-7.3c21.1-12.4 115.9-62.4 159.7-84.3 72.3-36.2 104.2-50.2 123.3-54.2 9.3-2 27.1-2 42.5-.1 38.5 4.7 62 13.4 62 23 0 4-7.3 10.6-19.1 17.4-5.2 3-16 9.2-23.9 13.8-40.5 23.3-91.5 46.3-131 59.1-43.8 14.2-80.6 19.6-171 25.1-17.9 1.1-35.9 2.3-40 2.6l-7.5.6 5-3zM891.6 1195c-14.2 27.3-19.6 38.5-18.8 39.3s9.7-.4 31.4-4.2c62.9-10.9 104.7-20 114.6-25 11.9-6 20-17.9 25.7-37.5 3-10.2 6.2-31.4 5.3-33.9-.8-2.2-.6-2.2-29.7 2.4-13.5 2.1-37.1 5.7-52.5 7.9-28.2 4.1-44.5 7.5-51.9 10.9-4.1 1.8-4.7 2.9-24.1 40.1zm54.4-43.8c5.8-1.1 18.4-3 28-4.1 15.7-1.9 36.8-4.9 59.5-8.6 12.3-2 11.6-2.1 10.9 2.8-2.6 18.1-7.5 35.8-12.2 43.7-4 6.8-10.9 13.7-16.6 16.5-2.8 1.4-9.4 3.6-14.6 5-17.2 4.5-119.6 23.3-120.8 22.1-.3-.3 0-1.1.6-1.8s8.6-15.9 17.8-33.8c9.2-17.9 17.2-32.8 17.8-33.3 2.5-1.6 19.8-6.7 29.6-8.5zM82.1 942.7c-1.3-1.7-2.1-2.2-2.1-1.4 0 .2.8 1 1.8 1.8 1.5 1.3 1.6 1.2.3-.4zm-16.4 80.5c-.4-.7-1.5-1.2-2.3-1.2-1.2 0-1.4.6-.9 2.6 1 4.1 13.4 30.7 15 32.3 2.4 2.4 3.1.3 1.4-4.2-2.1-5.2-12.1-27.8-13.2-29.5zm56.8-58.2c.5 0 .3-.4-.5-1s-2-1-2.5-1-.3.4.5 1 2 1 2.5 1zm-47.2-26.8c2.3 1.8-.1-.9-5.4-6.2-13.1-12.9-20.3-24.1-25.9-40-1.3-3.6-2.7-7.1-3.3-7.8-1.8-2.3-3-1.3-2.3 2 1.1 5.5 10.1 22.8 15.7 30.2 5.6 7.4 14.4 16.4 21.2 21.8zm125.4 163.3c-2.3-2.2-18-9.4-54.2-24.9-28.1-12-51.9-22.1-53.1-22.3-1.2-.2-2.3.2-2.6.9-1 2.8-10.1 52.8-9.7 53.3.7.7 144.8 53.6 146 53.6.5 0 .9-.6.9-1.3s-5.4-13.6-12-28.8c-9-20.4-12.9-28.3-15.3-30.5zm3.6 49.6c-8-3.4-96.9-36.2-110-40.5-4.5-1.5-8.3-3-8.3-3.3s1.1-4.6 2.5-9.7c2-7.3 6.5-33.5 6.5-37.7 0-.5.6-.9 1.3-.9s17.9 7.1 38.3 15.8c20.3 8.7 40.8 17.1 45.5 18.6 10.2 3.3 17.6 7.1 18.3 9.4.3.9 5.5 13.1 11.7 27.1 6.1 14 11.4 26.1 11.7 26.7.5 1.5-6.1-.6-17.5-5.5zm505.2 82.4c3.5-1.7 4-2.5 4.3-5.7.5-5.7-2.1-10.3-20.3-35.8-19.3-27.1-32-43.8-56-74-9.4-11.8-20.3-26-24.2-31.6-8.2-11.5-16.7-19.8-22.1-21.5-4.8-1.5-53.3-2-86.2-.9-13.5.5-50.6 1.3-82.5 1.9-83.4 1.5-154.8 4.3-171.7 6.6-11.7 1.6-31.3 5.9-33.7 7.4-1.7 1.1-.6 3.1 1.8 3.1 1 0 5.3-.9 9.7-2 4.3-1.1 13-2.7 19.2-3.5 12.1-1.6 77-4.8 130.8-6.5 41.5-1.3 211.3-3.3 212.6-2.5 3.2 2 71.4 89.2 93 119 24 33 28.2 40.3 24.8 42.7-3.9 2.7-95.4-3.7-161-11.2-34.2-3.9-90.6-11.4-109.8-14.6-61.5-10.1-99.7-25.8-123.6-50.6-16.6-17.3-23.6-33.8-26-61.1-.6-7.3-.8-7.8-2.8-7.5-2 .3-2.1.8-1.9 8.3.6 23 13 49.3 32.2 68.6 18.3 18.4 44.2 30.8 80.3 38.4 40.7 8.6 117.2 19.5 181.8 26 14 1.4 37.9 4 53 5.7 22.8 2.6 31.5 3.2 51 3.2 21.4.1 23.6-.1 27.3-1.9zM129 967.4c1.7.5 2 .4 1-.3-.8-.5-2.6-1.2-4-1.6-1.7-.5-2-.4-1 .3.8.5 2.6 1.3 4 1.6z"/><path d="M1125.1 965c-1 0-2.3.6-2.9 1.2-2.6 3.2-22.4 40-29.3 54.2-12.9 26.7-20.8 49-25.8 72.5-4 19-8 63-10.2 113.5-.6 13.7-1.3 25.2-1.5 25.4-.2.2-6.6 1-14.2 1.7s-32.3 3.8-55 6.8c-81 10.9-220.6 27.1-255.7 29.7-13.5 1-38.7.8-60.5-.4-2.9-.2-3.5.1-3.5 1.8s.9 2.1 7 2.8c17.8 2.1 77.5-1.6 149.8-9.4 78.4-8.4 234.9-28.8 237-30.9.4-.4 1.2-12.5 1.7-26.7 1.4-40.3 4.8-82.4 8.5-105.3 5.5-34.1 20.1-70.6 47.9-119.5 4.7-8.2 8.5-15.6 8.5-16.2.1-.6-.7-1.2-1.8-1.2zM146 972.8c.8 0-.1-.6-2-1.3s-4.2-1.3-5-1.3.1.6 2 1.3 4.2 1.3 5 1.3z"/><path class="paintable" fill="#fff" d="M2350.5 693.7c-.4 22.7-1.1 45.7-2 60.8-3.6 59.1-9 123.1-10.6 125-.5.6-1.7 5.4-2.6 10.6-3.9 22.6-12.9 47.5-29.5 80.9-16 32.3-24.8 45.2-36.1 53.6-8.8 6.4-14.3 8.1-31.7 9.5-16 1.3-47.1 0-52.8-2.2-1.5-.6-4.4-2.7-6.5-4.7-11.2-10.8-20.5-30-25.4-52.4l-1.8-8.3-.6 5c-.3 2.8-1 10.6-1.4 17.3-.5 8.9-1.1 12.5-2.1 12.9-.7.3-42.3 11-92.4 23.8-50.1 12.8-91.3 23.5-91.6 23.8-.5.5 6 92.4 7.7 108.1 2.5 23.1 8.5 31.8 25.9 37.7 3.6 1.2 19.8 5 36 8.5 48.6 10.4 54.8 12.3 60.4 18.5 4.2 4.7 4.4 6.8 1 10.8-5.8 6.9-23.1 9.8-72 12.2-12.1.6-30.1 2-40 3.2-9.9 1.2-23.2 2.1-29.5 2.2-10.3.1-12.1-.2-17.1-2.5-10.9-5-13.1-12.8-10.4-37.1 2-17.9 1.7-29.9-1-41.3-3.5-15-24.4-88.7-28.9-102.1-.2-.7-24.7 5.1-65.7 15.6l-65.3 16.7-2.6 18.9c-9.6 68.8-10.4 78.9-6.8 89.7 2.8 8.2 3.8 9.8 29.1 48.1 22.6 34.1 29.8 46.7 31.8 55.9 1.7 7.5.7 11.9-3.5 15.5-10.2 9-32.8 2.3-59-17.4-10.4-7.8-16.5-14.8-27.3-31.5-6.3-9.7-12.3-17.5-18.2-23.5-12.6-12.9-13.8-19-6.3-31.1 7.4-12 10.2-17.9 10.3-21.4 0-3.1-7.4-75.3-8.6-83.7-.3-1.8-1-3.2-1.6-3.2s-52.2 13-114.6 29c-62.4 15.9-113.9 28.7-114.5 28.4-.5-.3-.7-2-.4-3.7.3-1.7 1.5-10.3 2.6-19.1 9.2-73.9 9.2-147.5.1-203.2l-1.8-10.8v74.5c0 77.6-.7 96.3-4.4 117.8-8.5 50-36.5 111.7-62.9 138.2-22.4 22.5-54.1 36-102.5 43.4-32.3 5-46.5 5.4-138.6 4.5-50.4-.5-51.6-.6-55.6-2.7-8.9-4.7-16.3-19.1-20.4-40.1-1.1-5.7-1.4-6.3-3.3-5.7-10.3 3.1-48.1 10.7-80.1 16.1-21.5 3.6-56.8 9.7-78.5 13.5-71.5 12.6-98.6 15.9-137.7 16.6-53.8 1.1-115.5-5.3-217.4-22.3-134.7-22.5-209.1-39.6-272.8-62.7-32.7-11.9-47.2-19-63.8-31.6-10.7-8.1-15.9-10.3-34.3-14.2-15.8-3.4-19.2-4.4-36.3-11.1-34-13.3-82.5-41.9-115.8-68.6-14.3-11.4-38.6-35.1-43.8-42.7-3.7-5.4-4.9-11.8-3-16.5 3.1-7.4 24.3-21.5 40-26.5 4.6-1.5 10.7-4 11.8-5 .2-.1-.9-3.1-2.4-6.6-4.5-10.6-7.2-19.2-14.9-47.4-12.3-45-14-54.2-14-74.5 0-22.2 3.9-33.1 16.3-46.3 20.9-22.2 119.3-84.4 224.8-143H0V1338h2352V693.7h-1.5zm-2035-28.2c35.8-19 109.5-55.6 121.7-60.3 26-10.2 49.5-14.2 95.8-16.2 78.5-3.4 143-3.7 186.7-.9 22 1.4 22.6 1.3 37.6-9.9 12.3-9.2 30.1-20 62.1-37.7 78.4-43.4 165-85.5 255.6-124.2 17.3-7.4 32.4-13.8 33.5-14.3 6.4-2.8 34.9-12.4 46-15.4 27.7-7.7 44.6-10.1 81.1-11.7 59.4-2.6 242.9 1.1 373.7 7.7 17.5.9 32 1.4 32.2 1.2.2-.2-.1-3.1-.7-6.3-1.8-9.4-.6-25.5 2.5-34.8 3.5-10.5 6.7-15.7 14.8-24.3 7.8-8.2 16.2-14.2 33.2-23.9 19.7-11.1 28.5-17.4 38.6-27.5 8.6-8.6 10.2-10.8 14.7-20.1 2.8-5.7 5.8-13.5 6.7-17.3l1.7-6.8-2.7-4.2c-1.5-2.3-5.4-7.9-8.8-12.4-5.4-7.2-7.1-8.7-14-12.4-13.5-7.3-21.7-16.4-27.8-30.8-2.7-6.4-2.7-6.6-.8-7.3 2-.7 2-.8 0-4.6-3.8-7.5-5.5-16.1-5.4-28.2 0-6.3.5-13.5 1.1-15.9 1-4.2.9-4.4-2.3-7.3-6.7-5.9-9.2-15.7-6-23.5 5.9-14.2 24.4-27.2 46.6-32.8 5.3-1.3 16.8-3.6 25.5-5.1 8.7-1.5 16.7-3.1 17.7-3.7 2.2-1.2 4.7-6.7 4.7-10.3 0-9.9 10-18.9 24.4-22 5.8-1.3 21.6-2 21.6-1 0 .3-1.7 1.3-3.8 2.4-4.3 2.2-7.7 5.7-8.7 8.7-1.1 3.5 1.2 7.5 7.9 14.4 7.5 7.6 9.2 11.3 10.1 21.2.9 10.9 2.9 14.5 13.9 25 5.3 5.1 10.5 10.9 11.6 13 4.7 9.2-.6 23.8-9.8 26.9-2.1.7-3.2 1.6-2.9 2.4.3.7 1 5 1.7 9.5 1.7 11.4.6 31.2-2.6 49.5-3.1 17.6-2.9 22.6 1.5 36.5 8 25.2-.9 41-25.5 45.2-6.5 1.1-20.2.7-23.8-.6-3.6-1.4-5.9 14.5-2.5 17 1.6 1.2 2.4 1 6.4-1.6 4.8-3 9.6-3.8 10.8-1.7.4.7.7 3.6.6 6.6l-.1 5.4 6.2 2.8c3.4 1.5 13.6 5.5 22.7 8.8 21.1 7.7 26.6 10.2 35 15.8 9.3 6.2 16.3 14.1 20.9 23.8 7.1 14.8 19.9 56.8 30.1 98.8l3.3 13.7 26.7 13c32.8 16.1 57.6 27.7 82.5 38.6 56.5 24.8 66 27.7 95 29 28.5 1.3 80.9 7 106.5 11.6 43.4 7.8 72.9 20.5 91.4 39.3 11.7 11.9 15.9 23.3 17.8 48.1.8 11 .9 39.8.4 69.2h1.5V0H0v693.7h263.7c17.2-9.6 34.6-19 51.8-28.2z"/><path class="paintable" fill="#fff" d="M1966 1155.5c-.5-4.9-1.6-20.2-2.5-34-1.8-28.2-9.7-127.1-12-150-.8-8.2-2.2-21.4-3-29.2-1-9.4-1.5-23.1-1.4-40.5.1-22.6-.2-28.4-2.1-41.3-3.5-23.8-9.4-55.3-17.1-91.5-22.4-105.9-29.8-144-32-166-1.6-15.9-1.3-15.2-6.6-17.4-5.6-2.3-14.5-9.1-14.5-11.1 0-2.3 1.9-1.7 6.2 2 3.9 3.4 11.8 7.8 12.5 7.1.4-.4-1.7-25.9-2.2-26.4-.2-.2-2.1.5-4.2 1.6s-5 2.3-6.3 2.6c-.4.1-.6.1-.4-.1-2 .7-4 1.4-6 2-.1.1-.4.4-1.1.6-1.1.5-2.7.9-3.5.9-.3 0-.5 0-.6-.1-.7.2-1.5.4-2.2.5.4.1.4.2 0 .4-.6.2-1.5.3-2.2.1-.7.2-1.4.3-2.1.4l-3 .8c-4.9 1.3-25.6 3-37 3.1-22.8.2-56.1-5.2-86.1-14.1-11-3.3-12.9-3.6-12.9-2.2 0 .9-1.2 6.1-2.6 11.6-1.4 5.5-2.8 11-3.1 12.1-.4 1.9.2 2.3 4.7 3.4 6.8 1.6 13.2.8 21.8-2.9 6-2.5 7.2-2.8 8.2-1.6 1 1.2.2 1.9-4.4 4-9.2 4.2-15.9 4.9-24.4 2.7l-7.3-1.9-4.5 14.1c-11.2 35-18.5 86.3-16.4 116.1.9 12.8 7.9 68.2 16 126.2 8.9 63.6 12.4 100.4 10.8 114.6-.5 4.5-2.9 16.5-5.4 26.7-11.9 49.4-13 76.2-6.5 157 2.8 34.7 2.2 31.9 8.2 35.5 2.8 1.6 7.6 4.5 10.7 6.3 5 2.9 6.2 3.3 11.8 3 3.4-.2 6.5-.7 6.9-1 .4-.4 1.1-5.8 1.5-12 2.6-34.6 8.4-74.3 22.8-155 18.9-105.6 21.1-125.8 24.6-218.2 3-80 4.6-118.1 5.1-122.4 1-7.8 9.5-13.4 12.4-8 1.3 2.4 2 5.1 22.5 78.9 30.2 109.4 44.1 162.6 45.6 175 .9 7.2.8 15.1-.1 32.8-2.1 39.7-2.4 38.3 20.1 119.2 7.2 26.1 16.1 58.9 19.6 72.9 3.6 14 6.9 25.8 7.5 26.1.6.4 5.7 1.4 11.4 2.4 9.9 1.7 10.5 1.7 15 0 2.6-1 5.9-3 7.5-4.4l2.8-2.6-.5-8.8z"/><path class="paintable" fill="#fff" d="M1864.8 565.7c-.7-.3-.1-.5 1.2-.5.6 0 1 0 1.2.1.7-.2 1.4-.3 2.2-.5-.1-.1.3-.4 1.1-.7 1.1-.5 2.7-.9 3.5-.9.5 0 .6.1.6.2 2-.6 4.1-1.3 6-2 .3-.4 2-1.3 4.4-2.6l6.5-3.3-.3-6.5c-.1-3.6-.5-8.4-.8-10.7-.6-4.8-.2-4.7-10.9-2.7-13.2 2.4-32.6 3.8-45.1 3.1l-12.2-.6-.6 8.8c-.4 4.8-.9 11.6-1.3 15.2l-.6 6.4 18.4-.6c10.1-.4 20-.9 21.9-1.1l3.5-.5-.5.1c.6-.1 1.3-.3 2.1-.4-.1-.3-.3-.3-.3-.3zm-35.3-93.5l-2.4-2.9-9.8 1.8c-5.4 1-18.5 3.8-29.3 6.3-22.6 5.2-33.5 7.1-35 6.2-2.9-1.8-31.1-61.5-39.3-83-4.5-12-11.2-33.4-10.5-34.1 1.2-1.2 2.9 2.5 5.7 12.5 6.3 22.1 13.8 40.5 31.3 76.3l12.1 24.7 3.1-.6c1.7-.3 9.9-2.3 18.1-4.4 8.3-2.1 22.2-4.9 31-6.1l16-2.3-.3-6.5c-.8-17.3-7.3-40.3-22.2-79.5-13.3-34.9-18.1-50-21-66.5-.9-5.2-1.7-7-4-8.8l-2.9-2.3-4 2c-10.7 5.5-27 8.8-30.7 6.3-2.2-1.5-2.4-4.7-.5-11.6 1.1-3.9 2.2-11.4 2.5-16.6.3-5.2 1-11 1.5-12.7.5-1.8.6-3.2.3-3.2-.4 0-4.1 3.3-8.2 7.3-9.6 9.2-13.2 11.7-33.6 22.7-9.2 5-20.1 11.4-24.1 14.2-17 11.7-25.7 26.4-28.3 47.6-1.1 8.9-.4 23.8 1.3 25.9.5.7.7 1.7.3 2.2-.6.9 3.2 17.7 5 22.3.3.7.4 1.4.3 1.6 1.1 3 3 8 5.1 13.4 2.8-.3 3.2-.1 2.3.8-.4.4-1 .9-1.6 1.1 1.2 3.2 2.5 6.3 3.7 9.1.2-.2 1 1.1 1.7 2.9.7 1.8 5.9 12.8 11.5 24.4 10.8 22.5 16.3 31.7 25.3 42.8 6.1 7.5 18.7 18.2 22.7 19.2 1.3.3 2.4 1 2.4 1.4 0 1.2 10.8 5.6 18.5 7.5 10.5 2.6 19.8 1.6 35.4-3.8 6.9-2.4 22.5-7.9 34.6-12.1 12.1-4.3 23.5-8.2 25.2-8.8 2.9-.9 3.2-1.5 3.2-4.6.1-8.1-6.7-25.3-12.4-32.1z"/><path class="paintable" fill="#fff" d="M1656.8 426.6c-.7.1-4 .5-7.2.9-20.6 2.5-39.8 12.8-53 28.3-12.8 15.1-38 57.7-63.9 108.3-14.9 29.1-23.3 47.1-33.3 71.7-11.1 27.3-12.6 36.6-6.6 41.4 2.4 1.9 3.6 2.1 13.2 1.6 23.9-1.1 81-8.2 126.5-15.7 30.6-5 61.1-10.6 62.5-11.5.6-.4 1-1.5 1-2.5 0-6.2 8.3-41.8 16-68.5 7.6-26.3 9.3-36.4 8.3-48.7l-.6-6.7-5.6-3.7c-13.3-8.8-24.8-23.8-36.6-47.9-6.6-13.5-16.6-37.1-16.2-38.2-1.2-2.8-2.4-6-3.7-9.1-.2.1-.6.2-.8.3zm118.7-271.1l-.5 5.9c-.6 7.3-3 9.6-9.8 9.7l-4.6.1 4.2 2c2.4 1.1 4 2.6 4.3 3.6 13 2.4 16.1-8.2 16.8-11.7-1.2-1-2.9-2.5-4.8-4.2l-5.6-5.4zm54.8 18.5c2.3 0 7.5-6.5 8.6-10.8 1.4-5.1-.2-9.9-3.6-10.8-3.2-.8-3.6-.2-2.4 3.1 2.4 6.3.3 12.8-5 15.9-2.2 1.3-4.2 1.8-6 1.7 1.7.6 4.1 1.3 7.5 1.9-.2-.6.2-1 .9-1zm23.2-87.5c-1.8-4.3-10.1-13.2-17.8-19.1-7.7-6-8.7-8.2-8.7-19.4 0-11.7-1.3-14.5-10.1-21.6-7.4-5.9-8.9-7.9-8.9-11.8 0-3.1 4.3-8.3 8.4-10.1 3.6-1.6 2.3-1.7-6.4-.6-14.5 1.9-22.2 9.5-24.5 24.2-1.1 7-5.2 9-25 11.7-35.6 5-57.3 15.8-65.7 32.9-3.3 6.7-3.2 16.4.1 21.3 5 7.2 13.2 10.9 26.1 11.6 10.3.6 18.4-1.3 41.3-9.2 16.4-5.7 28.2-8.6 34.4-8.4 1 0 1.7.1 2.2.1 3.6-.2 8.4-.1 14.3.6-.2 0-.4-.1-.6-.1-1.1-.2 0-.3 2.4-.1 10.8.9 16.1 3.9 23 12.8 7.6 9.8 9.4 9.9 14.3 1 3-5.4 3.4-10.6 1.2-15.8z"/><path class="paintable" fill="#fff" d="M1798.9 88.3c.9.1.4.2-1.4.4-8.3 1-19.7 4.2-36.4 9.9-10.1 3.5-21.2 6.9-24.8 7.6-3.5.6-6.4 1.5-6.4 2 0 .4.7 5.4 1.5 11.1 1.8 12.6 3.5 34.5 3.5 45 0 9.6-.8 9.9-8.8 2.5-4.9-4.5-6.6-5.5-10.9-6-5.9-.8-10.3.5-10.3 3.1 0 2.8 5.8 12.1 10.3 16.7 2.3 2.3 8.5 6.8 13.9 10.1l9.7 5.9 10.7 16.1c14.8 22.3 29.4 36.9 38.9 39.1 1.6.4 4.9 1.3 7.3 2.1 6.5 2.1 20.7 1.8 28.7-.7 11.8-3.6 19.5-13.9 19.5-26 0-2-1.1-7.9-2.5-13.1-4.4-16.4-4.9-20.3-3.6-30.3.6-5 1.4-10.2 1.8-11.6.7-2.4.6-2.4-3 .8-3.8 3.3-6 4-7.1 2.2v-.1c-3.5-.6-5.9-1.2-7.5-1.9-4-.3-7-3.9-7.6-10.2-.6-5.4-.5-5.4 3.3-8.1 5.3-3.6 8.7-4.8 14.3-4.8 3.3 0 5.6.6 7.4 2l2.6 2 .7-2.7c1-4.1-.3-27.2-2-33.8-.8-3.2-2.2-6.3-3-6.8-.9-.5-3.4-4-5.6-7.7-5.6-9.6-8.5-11.8-18.9-14.2-5.9-.7-10.8-.8-14.3-.6zm-53 47.4c-1.3 3.9-3.3 3.9-3.7 0-.6-5.3 5.5-13.5 11.3-15 3.7-1 10 .5 19.5 4.5 10.6 4.4 11.3 4.9 10.8 7.1-.3 1.2-2.2.7-9.8-2.6-12.8-5.5-18.4-5.7-23.4-.8-2 1.9-4.1 5-4.7 6.8zm4.1 25.1c0-3 2.5-6.5 6.4-8.9 3.9-2.4 12.2-2.5 17.4-.4 5.9 2.5 17.2 14.5 13.6 14.5-.1 0-.7-.4-1.5-1-.7 3.5-3.9 14.1-16.8 11.7.3.9-.3 1.3-2.3.7-9-2.7-16.8-10.5-16.8-16.6zm80.7 60.2c-3.5 0-3.7.2-3.1 2.6 1 4.2 1 5.7-.3 6.2-.7.2-1.6-1.2-2.3-3.6-1.2-4.5-1.5-4.6-7.2-2.9-4.1 1.2-4.3 1.9-2.2 7.2 1.1 2.9-1.5 1.7-3.1-1.5-1.3-2.6-2-3-4.1-2.5-1.4.4-3.9.9-5.5 1.2-2.7.5-2.9.9-2.4 3.5.8 3.9-1.8 3.9-3.2 0-.8-2.3-1.7-3-4.8-3.4-2.1-.3-4.6-.8-5.5-1.2-1.3-.5-1.8.1-2.3 2.9-.4 2.3-1.2 3.6-2.2 3.6-1.3 0-1.5-.8-1-4.2l.6-4.2-5.1-2.8c-2.8-1.5-5.2-2.7-5.3-2.5-.1.2-.8 1.6-1.4 3.2-.9 2.1-1.6 2.6-2.3 1.8-.8-.8-.7-1.9.2-4.2 1.2-2.8 1.1-3.3-.9-5.4-2.7-2.9-1.5-4.3 1.4-1.6l2.1 2 1.7-3.6c1.3-2.7 2-3.4 2.9-2.5.8.8.7 2-.5 4.6l-1.7 3.5 4.2 2.5c4.6 2.7 5.8 2.6 5.8-.8 0-2.7.8-3.6 2.4-3 .7.3 1 2 .8 4.3-.3 3.6-.2 3.9 2.9 4.5 6.3 1.3 7 1 7-2.9 0-4.5 2.4-4.2 2.8.4.3 3.5.9 3.7 6.5 2.1 3.6-1 3.8-1.3 3.3-4-.7-3.6 1.8-4.2 2.7-.5l.6 2.4 5.5-1.6c4.8-1.4 5.4-1.9 4.9-3.8-.8-3.2 1.4-3.9 2.8-.9.7 1.6 2 2.6 3.3 2.6 1.2 0 3 .7 4.1 1.5 1.6.8 1.5.9-2.1 1zm-15.6-85.6c8.7 2.5 12.7 2.9 15.8 1.6 1.8-.7 3.8-2.6 4.7-4.2 1.7-3.2 2.6-3.5 4.5-1.3 1.8 2.1-.1 5.9-4.3 8.5-4 2.5-12.6 2.2-18.4-.7-4.4-2.1-6.1-5-2.3-3.9zm-7.2 30.4c5.7 14.1 8.9 18.6 18.5 25.8 4.2 3.1 7.6 6.2 7.6 6.7 0 1.9-7.4 8-12.5 10.4-2.9 1.4-6.9 2.3-9.5 2.3-4.8 0-11.6-2.6-13.9-5.3-1.2-1.5-1.1-1.7 1.3-1.7 1.5 0 3.8.8 5.2 1.7 5.2 3.4 15.1 1.5 21.1-4 3.1-2.9 2.8-4-1.7-7.2-6.6-4.6-13.7-12.8-17.4-20.3-3.9-7.8-7.6-17-7.6-19 0-.8.9-1.2 2.2-1 1.8.2 3.1 2.5 6.7 11.6zm488.9 392.7c-36.5-17.3-86.7-26.6-160.4-29.5-13.5-.5-26.3-1.6-30.8-2.5-11-2.3-25-7.3-44.3-16.1-9.2-4.2-28.1-12.7-41.9-19-13.8-6.3-39.2-18.1-56.4-26.4-29.9-14.3-31.2-14.9-30.7-12.3.3 1.5 1.1 7.2 1.7 12.7.6 5.5 1.5 11 2 12.1.5 1.2 4.2 4 8.6 6.4 4.3 2.4 16.6 9.7 27.3 16.3 20.2 12.5 31.2 21.6 32.2 26.6 1.4 7.4-4.7 14.2-24.8 27.3-19.4 12.8-33.9 20.4-65.9 34.8l-13 5.9.3 4.8c.7 11.1 4.8 35.3 12.7 74.6 4.6 23 8.7 42.1 8.9 42.4 1 1 151.4-38.7 221.5-58.5 20.6-5.8 50.1-14.1 65.5-18.3 52.9-14.7 67.3-19.5 87.3-29.2 5.4-2.6 10.4-4.6 11.4-4.6 7.1-3.5 18.2-9.1 28.2-14.7-6.9-13.5-18.8-23-39.4-32.8zm-176 21.8c-.8 13.4-8.2 26.6-24.9 44-10.8 11.3-13.2 12.7-15.4 9.3-1.8-2.7-38.4-79.1-38.8-80.8-.3-1.5 10-5.5 19.2-7.4 7.8-1.6 20.9-1.9 27.6-.6 10.3 1.9 16.6 5.1 22.9 11.5 7.8 7.7 10 13.4 9.4 24zm3.2 397.2c0 .9-17.1 5.5-51.8 14-100.9 24.8-110.2 27.1-110.8 27.7-.8.8.6 24.2 1.5 25.6.4.7 12.5-2 35.1-7.8 35-9 49.7-12.5 85.5-20.6 21.8-5 49-12.5 56-15.4 4.9-2.1 4.8-1.5 6.1-21.9.2-2.5.4-5.5.7-8.7l-22.4 6.2c0 .3.1.7.1.9z"/><path class="paintable" fill="#fff" d="M2156.9 844.4c-.6.6-94.3 18.3-103.1 19.5-4.2.6-9.5 1.8-11.8 2.7l-4.1 1.6v97.6l-3.2.9c-1.8.5-19.8 5.1-40.1 10.3l-36.8 9.4.7 9c.4 5 1 11.1 1.3 13.6l.6 4.6L2041 994c57.2-14.1 80.9-19.5 81.8-18.8.4.4.8.9 1 1.4l22.4-6.2c2.3-24.9 8.6-69.2 15.4-107.4 1.3-7.2 2.6-14.1 3.9-20.8l-8.7 1.5c.5.2.4.4.1.7zM1925.3 719c-.7 0-1.5.4-1.8.9-.3.5 5 28.7 11.8 62.7 15.1 75.7 17 87.7 16.4 107.1-.2 7.8-.3 14.1-.2 14 .1-.1 2.8-9.7 5.9-21.2 3.1-11.5 10.1-36.8 15.5-56 15.4-54.6 21.2-79 25-104.4 1.6-10.7 2.5-13.6 4.8-14.1.4-2.7.8-5.9 1.2-9.3-42 11.3-76.9 20.3-78.6 20.3z"/><path class="paintable" fill="#fff" d="M2344 618.5c-1.5-10.8-3.8-19.5-7.6-27-10 5.7-21.1 11.3-28.2 14.7h.1c1.6.5-14.3 8.6-28.1 14.2-16.1 6.5-34.7 12.3-77.1 24-21.2 5.8-56.3 15.5-78 21.6-30.7 8.6-79.4 21.7-121 32.8-.4 3.4-.8 6.6-1.2 9.3.2 0 .4-.1.6-.1 2.2 0-2.9 30.3-9.9 58.9-2.5 10.1-9.2 35.1-14.9 55.5-5.7 20.4-14.3 51.3-19 68.7l-8.6 31.6 2 15.9c1.1 8.7 2.5 22.2 3.2 29.9.7 7.7 1.5 14.3 1.8 14.7.3.4 9.2-1.5 19.8-4.2 10.5-2.7 25.1-6 32.3-7.5 14.8-2.9 20.6-5.4 22.2-9.4.7-1.8 1-17.8.9-49.2l-.2-46.5 61.6-11.9c45.2-8.7 60.1-11.4 62.4-10.8l8.7-1.5c11.2-55.5 25.3-93.5 45.6-124.2 17.7-26.8 36.5-40.1 56.8-40.1 13.2 0 20.8 3.6 31 14.8 7 7.6 15.5 23.6 21.1 39.9 8.2 23.6 14.9 58.9 16.6 87.6.4 6 .8 10.8 1 10.6 1.2-1.2 5.7-70.3 7.4-114.2 1.1-32.6.5-85-1.3-98.1zm-643.4 464.7c-.2-.2-45.5 10.7-100.6 24.3-90.4 22.2-100.4 24.5-101.8 23.1-.4-.4-.6-.7-.8-1.1l-15.1 3c-1.1 11.4-2.1 21.1-2.9 26.4-.8 5.7-1.3 10.6-1 10.9s2.7-.2 5.3-1 53-13.8 111.8-28.8 107.1-27.3 107.2-27.4c.4-.3-1.7-29-2.1-29.4z"/><path class="paintable" fill="#fff" d="M1497.5 1128.1c.5-.5 46.5-12.1 102.2-25.8l101.2-24.8v-12.2c0-6.7-.3-12.2-.7-12.2-.4 0-39.3 9.9-86.6 22.1-47.2 12.1-86.5 21.8-87.3 21.5-1.3-.5-1.5-18.6-1.5-135.3 0-74.1-.4-136.4-.8-138.4l-.7-3.6-32.5 7.9c-17.9 4.3-32.9 7.9-33.5 7.9-.5 0-.3-.6.5-1.4.8-.8 14.1-4.4 29.5-8.1 15.4-3.7 29.9-7.1 32.2-7.7l4.2-1.1-.6-4.1c-4.8-34.7-13.6-67.8-28.3-105.9l-4.9-12.7h2.4c2.9 0 3.6 1.6 12.8 27 10.8 29.8 18.3 58.4 21.9 82.9.8 5.7 1.8 10.6 2.1 10.9.4.4 149.8-35.7 164.8-39.8 2.5-.7 3.7-1.6 3.7-2.7 0-.9-1.4-11.8-3.1-24.2-4.6-34.3-4.9-64.1-.8-87.4.6-3.2.9-6 .7-6.2-.2-.2-7.5 1-16.3 2.6-42.8 8-102.2 17-139 20.9-10.5 1.1-21.7 2.5-25 3-3.3.5-8.9 1-12.5 1-13.5 0-18.6-3.6-17.7-12.5 1.5-15 23.6-67.1 48.3-113.8 14.1-26.7 33.7-62 40.8-73.4 23.9-38.6 44.1-52.8 82.1-57.9.5-.1 1-.1 1.4-.2-2.1-5.3-4-10.4-5.1-13.4 0 .1-.1.1-.1.1-.3 0-2.4-5.3-4.7-11.8l-4.2-11.8-39.2-2.2c-127.7-7.2-229.1-9.8-325.2-8.1-72.7 1.3-90.2 2.5-111.6 8-8.9 2.3-28.3 8.7-38.9 12.9l-7.5 3 5.5.1c18.4.2 114.8 2.2 148.5 3.1 83 2.1 150.3 5.5 211 10.5 9.9.8 24.5 1.9 32.5 2.4 25.9 1.7 33 6 33 19.9 0 21.9-27.3 84.8-66.4 153.2-18 31.4-24.1 40.4-34.4 50.6-9.1 9.1-16.8 13.1-27.8 14.5-8.1 1.1-35.6.5-58.4-1.2-6.9-.5-27.6-1.8-46-3-175.2-10.6-368.1-27-481-41-12.9-1.6-28.2-3.4-34-4-26.2-2.7-45.6-6.6-56.2-11.3-4.7-2.1-6.5-2.3-13.5-1.9-4.8.3-13.9-.3-22.5-1.4-12.5-1.6-21.9-1.8-71.9-1.8-57.6.1-90.4 1.1-122.9 3.9-61.5 5.3-78.1 10.7-147.4 47.5-18.8 10-44.8 23.8-57.7 30.7-74.2 39.5-157.7 88.4-207.5 121.5-58.6 39-68.4 48.2-73.6 68.7-1.8 7.2-2 10.3-1.6 22.9.3 8 1.2 18.6 2.1 23.6 3.4 18.6 14 58.8 21.2 80.4 4.1 12.3 7.1 22.7 6.7 23.2-.4.4-5.5 2.6-11.3 4.8-14 5.5-25.8 12.2-32.4 18.7-12.5 12.2-10.2 19 15.2 43.5 26.1 25.3 57.4 47.6 97.8 69.8 29 15.9 60.8 28.2 81.4 31.6 14.6 2.4 19.7 4.5 28.7 12.1 9.7 8.1 22.6 15.8 36.3 21.6 72.7 30.9 220.8 64 378.5 84.7 70.6 9.2 114.2 11.8 154.7 9 29.3-2 113.1-13.2 169.3-22.6 44.5-7.4 99.3-18.6 106.9-21.8 2.5-1.1 4.2-2.6 5.1-4.9.8-1.8 3-18.2 5-36.3 9.1-82.7 16.8-131.1 29.1-180.5 18.9-76.5 43.1-133.6 74-174.8 8.9-11.9 27.3-31.3 37.4-39.5 16-13 36.2-24.1 55.9-30.6 29.9-9.9 57.5-11.4 84.3-4.6 23.4 5.9 43 17.8 58.1 35.1 29.1 33.3 45.1 80.6 52.8 155.5 1.7 16.7 2.3 78.4 1 100.3-.9 15.2-2.4 33.8-3.8 49.2l15.1-3c.3-.6.4-1.1.7-1.4zM175 824.6c26.1 22.9 69.9 41.4 124.7 52.7 39.3 8.1 58.2 10 105.5 10.1 20.7.1 38 .4 38.3.7 1.1 1.1-38.9 2.1-56.5 1.4-31-1.2-56.8-4.2-84.5-9.7-49.9-9.9-93.5-26.3-119.4-44.7-8.7-6.2-19.1-15.1-19.1-16.3 0-2.3 4.3-.1 11 5.8zM54.1 916.4c-5.6-7.3-14.6-24.7-15.7-30.2-.7-3.3.5-4.3 2.3-2 .5.7 2 4.2 3.3 7.8 5.6 15.9 12.9 27.1 25.9 40 5.3 5.2 7.7 8 5.4 6.2-6.8-5.4-15.6-14.4-21.2-21.8zm23.4 140.5c-1.6-1.6-14-28.2-15-32.3-.5-1.9-.3-2.6.9-2.6.9 0 1.9.6 2.3 1.2 1.1 1.7 11.1 24.2 13.2 29.4 1.7 4.6 1 6.7-1.4 4.3zM80 941.4c0-.8.8-.3 2.1 1.4 1.2 1.6 1.2 1.6-.4.4-.9-.8-1.7-1.6-1.7-1.8zM227.1 1162c-1.1 0-145.3-52.9-146-53.6-.4-.4 8.7-50.5 9.7-53.3.3-.7 1.4-1.2 2.6-.9 1.2.2 25.1 10.3 53.1 22.3 36.2 15.5 51.9 22.8 54.2 24.9 2.4 2.3 6.3 10.1 15.3 30.5 6.6 15.1 12 28.1 12 28.8s-.4 1.3-.9 1.3zM119.5 963c.5 0 1.7.4 2.5 1 .8.5 1 1 .5 1-.6 0-1.7-.4-2.5-1-.8-.5-1-1-.5-1zm6.5 2.6c1.4.4 3.2 1.1 4 1.6 1 .6.7.7-1 .3-1.4-.4-3.2-1.1-4-1.6-1-.7-.7-.8 1-.3zm13 4.6c.8 0 3.1.6 5 1.3 1.9.7 2.8 1.3 2 1.3-.8 0-3.1-.6-5-1.3-1.9-.7-2.8-1.3-2-1.3zm492 262c-15.1-1.7-39-4.3-53-5.7-64.6-6.5-141-17.4-181.8-26-36.2-7.6-62-20-80.3-38.4-19.2-19.3-31.6-45.6-32.2-68.6-.2-7.5-.1-8 1.9-8.3 2-.3 2.2.2 2.8 7.5 2.3 27.4 9.3 43.9 26 61.1 23.9 24.8 62.1 40.4 123.6 50.6 19.3 3.2 75.6 10.7 109.8 14.6 65.6 7.6 157.1 13.9 161 11.2 3.4-2.4-.8-9.7-24.8-42.7-21.6-29.8-89.8-117-93-119-1.3-.8-171.1 1.2-212.6 2.5-53.8 1.7-118.7 4.9-130.8 6.5-6.2.8-14.8 2.4-19.2 3.5-4.3 1.1-8.7 2-9.7 2-2.4 0-3.5-2-1.8-3.1 2.4-1.5 21.9-5.8 33.7-7.4 16.9-2.3 88.3-5.1 171.7-6.6 31.9-.6 69-1.4 82.5-1.9 32.9-1.1 81.4-.6 86.2.9 5.4 1.7 13.9 10 22.1 21.5 3.9 5.5 14.8 19.8 24.2 31.6 24 30.2 36.7 46.9 56 74 18.2 25.5 20.8 30.1 20.3 35.8-.3 3.2-.9 4-4.3 5.7-3.7 1.8-5.9 2-27.5 1.9-19.3 0-28-.6-50.8-3.2zm487.4-249.7c-27.8 48.9-42.4 85.4-47.9 119.5-3.7 23-7.1 65.1-8.5 105.3-.5 14.2-1.3 26.2-1.7 26.7-2.1 2.1-158.6 22.5-237 30.9-72.3 7.8-131.9 11.5-149.8 9.4-6.1-.7-7-1.1-7-2.8 0-1.7.6-2 3.5-1.8 21.8 1.2 47 1.4 60.5.4 35.1-2.5 174.8-18.7 255.7-29.7 22.7-3.1 47.5-6.1 55-6.8 7.6-.7 14-1.5 14.2-1.7.2-.2.9-11.7 1.5-25.4 2.2-50.5 6.1-94.5 10.2-113.5 5-23.5 12.9-45.8 25.8-72.5 6.9-14.3 26.7-51 29.3-54.2.5-.7 1.8-1.2 2.9-1.2 1 0 1.9.6 1.9 1.2s-3.9 7.9-8.6 16.2zM967.5 1144c15.4-2.2 39-5.8 52.5-7.9 29.1-4.6 28.9-4.5 29.7-2.4 1 2.5-2.3 23.7-5.3 33.9-5.6 19.6-13.8 31.5-25.7 37.5-9.9 5-51.7 14.1-114.6 25-21.7 3.7-30.6 4.9-31.4 4.2-.8-.8 4.6-12 18.8-39.3 19.3-37.2 20-38.3 23.9-40 7.6-3.5 23.9-6.9 52.1-11zm-26.9-58.1c13.1-26.1 25.8-50.6 28.2-54.5 12.7-19.9 19.8-24.3 53.7-33.4 15.3-4.1 59-17.2 72-21.6 5.1-1.7 5.6-1.7 7.8-.1 1.7 1.3.5 3.3-18.4 30.2-17.2 24.5-35.9 50.8-64.2 90.1-12.2 16.9-21 24.4-33.4 28.2-9.2 2.8-28.1 6.6-41.9 8.4-21.5 2.7-23.8 2.9-25.8 1.4-1.7-1.1-.3-4.1 22-48.7zm196.2-162.4c-158.3 37.1-353.3 67-502.8 77-157.2 10.5-312.7 6.2-416.5-11.5-26.1-4.5-70.3-14.5-69.1-15.7.2-.2 4.8.7 10.3 2.1 23.1 5.8 46.4 9.5 94.4 15.1 90.5 10.4 142.6 13.1 236.5 12.2 57.3-.5 88.9-1.7 137.5-5.2 127.8-9.2 271.5-28.8 402.5-54.9 34.5-6.9 86.3-18.1 103.5-22.4 9.3-2.3 12.4-2.5 13.9-.7.9 1.1-.8 1.7-10.2 4zm27-45.7C1110.1 898 1052 911 960.5 922.9c-157 20.5-301.2 29.3-458.5 27.7-83-.8-126.3-2.5-171.9-6.7-100-9.2-175.6-34.4-214-71.4-16.9-16.3-25.4-31.2-29-51l-.9-5 1.9 2.4c1.1 1.3 1.9 3.4 1.9 4.6 0 4.1 4.1 15.8 8.2 23.5 25.4 47.6 106.1 80.5 226.8 92.4 45.4 4.5 72.6 5.6 157 6.2 200.6 1.5 389.6-11.5 540.7-37.2 59.6-10.2 106.9-22.4 143.1-37 6.4-2.6 8.8-3.2 9.8-2.3 2.9 2.4 1 3.8-11.8 8.7zm-538 18c2.7-2.4 56.6-31.3 122.7-65.8 19.2-10.1 43.8-23 54.5-28.8 62.5-33.6 104.5-51.1 130-54.1 21.6-2.5 47.6.5 71.6 8.4 29.3 9.6 33.8 17.6 17.6 30.8-14.4 11.7-27.9 19.6-67.2 39.4-60.5 30.6-108 48.2-152.5 56.7-32.7 6.2-57 8.6-141 13.6-18.7 1.1-34.5 2.2-35.2 2.5-2 .7-2.4-1.1-.5-2.7zM1117 681.1c-94.8 21-185 46-278 76.8-84.3 28-143.9 53.4-195.1 83.3-9.1 5.3-17.4 9.7-18.3 9.7-7.6 0 11.6-12.3 47.4-30.4 94.2-47.6 233.3-93.9 408.6-136.1 60.6-14.6 104.1-23.5 146.4-30 24.4-3.8 26.6-4 27.6-2.4 1.2 1.9-2.2 3.6-8.9 4.3-21.1 2.5-77.6 13.3-129.7 24.8zm164.8 101.5c-26.3 10.3-47.2 24-66.3 43.3-8.4 8.5-12.5 11-12.5 7.7 0-.8 5.6-6.8 12.5-13.5 35.5-34.3 84.5-53.7 147.5-58.5 2.5-.2 13.7-.4 25-.5 30.8-.3 55.7 2 89 8 16.4 2.9 19.3 3.9 17.4 5.8-.6.6-6.5-.1-16.5-1.9-75.2-14-144.6-10.6-196.1 9.6z"/></g></svg>