<svg version="1.1" id="svg" xmlns="http://www.w3.org/2000/svg" x="0" y="0" viewBox="0 0 612 792" width="792" xml:space="preserve"><style>.st0{fill:#fff}</style><g onclick="clickEvent(evt)"><path class="paintable" fill="#fff" d="M168.3 571.1c1.7-1.7 13.5-39.6 17.7-56.6 2.2-8.8 5.1-22.8 6.5-31 1.4-8.2 2.8-16.2 3.1-17.8 1-4.8-1.2-3-2.9 2.5-.9 2.9-4.2 9.8-7.2 15.2-3 5.5-8.9 16.9-13 25.3-8.2 16.6-12.2 21.9-21.7 28.4-8.7 5.9-11.3 11.1-9.6 18.9.5 2.4 1.1 6.9 1.3 9.9l.3 5.5 12.3.3c7.1.2 12.6 0 13.2-.6zm167.6 78.8c1.3-3 7-15.1 12.7-26.9 16.4-34.2 22.4-55.6 21.1-75.9-1.1-16.9-5.3-28.3-15.1-40.8-9.5-12.1-22.3-20.6-36.6-24.2-18-4.5-35-2.7-49.5 5.3-16.7 9.3-24.1 20.9-31.8 49.5-4.7 17.8-6 26.9-6 42 .1 32.9 14.4 81.3 28 94.1 7.6 7.2 10.1 7.4 20.6 1.9 9.8-5.2 18.2-7.1 30.6-6.9 15 .3 19.2-2.7 26-18.1zm124-126.4c-2.2-10.1-5.1-17.8-8.9-23.8-4.5-7.1-6.5-6.3-10.1 3.9-3.3 9.5-9 50.1-9 64v4.4h14.3c7.9 0 14.6-.2 14.9-.5.3-.3-.1-2.3-.9-4.6-1.2-3.5-1.2-5.3.2-13.7 2-11.6 1.9-19-.5-29.7zM105 568c-5.9-2.4-16.8-8.2-21.2-11.2-1.5-1-2.9-1.8-3.2-1.8-.3 0-.6 3.8-.6 8.5v8.5h16.2c8.9 0 15.8-.4 15.2-.8-.5-.5-3.4-1.9-6.4-3.2zm-15.3-43.8c5.9-5.9 9.8-11 15.7-20.9 7.6-12.7 15.2-23.2 26.7-36.7 6.5-7.6 13-18.6 17.1-28.9 5.7-14.2 10.1-20.6 18.2-26.4 2.9-2.1 5.6-4.1 6.2-4.6.5-.5-20.3-.8-46.2-.8H80v63c0 38.3.4 63 .9 63 .5.1 4.5-3.4 8.8-7.7zm105.1-242.8c9.7-13.4 25.2-20.5 41.4-18.9 15.1 1.5 33.2 7.2 43.8 13.8 9.4 5.9 22.3 7.6 33.5 4.3 8-2.3 16.7-6.8 38.7-20.1 36.2-21.8 56.4-30.1 100.9-41.5 3.2-.8 3.7-1.4 4.3-4.7.4-2.1 2.1-8 3.8-13.2 2.9-8.7 3.2-10.6 3.1-22.5 0-11.6-.3-13.7-2.7-19.7-5.5-14-13-22.7-24.1-27.9-13.8-6.4-30-6.2-37.2.5-3.8 3.6-4.2 5.5-2.4 13.2 1.4 6.1.2 9.6-4.3 12.4-3.8 2.4-10.4 2.3-31.3-.6-14.8-2.1-33.7-1.4-47.5 1.6-17 3.7-22.6 4.3-28 3-7.2-1.7-12.2-6.5-17.1-16.6-6-12.1-12.6-17.3-26.4-20.9-3.3-.8-8-1.5-10.5-1.5-19.2.4-37.3 16.5-41.7 37.1-2.6 12.4-.7 24.1 7 42 7 16.4 10.8 29.4 10.9 36.7 0 5.9-.5 7.4-7.5 21.5-6.9 13.8-9.6 20.8-9.7 24.5.2.8 1.5-.4 3-2.5zm213.4-118.1c4.6-14.9 7.8-22.1 11.3-25.6 1.6-1.6 3.9-2.8 5.3-2.8 6.9 0 17.5 8.8 22.8 19.1 2.4 4.6 2.8 6.6 2.8 13.4 0 11.8-.8 12.8-12.8 14.3-18.4 2.3-28.8.9-31.6-4-1.3-2.3-1.1-3.4 2.2-14.4zM208 140.8c1.2-1.5 3.6-3.2 5.4-3.7 4.9-1.4 15.4-1.2 23 .4 13.8 2.9 24.1 9.7 27.2 18.1 2 5.4 2.2 5.1-9.6 14.6-9.2 7.4-19.5 13.3-25 14.3-7.7 1.4-9.8-1.1-18-21.4-5.2-13-6-18.6-3-22.3zM240.8 367c1.7 6.3 3.7 16.6 4.6 22.8 1.6 12 2.2 13.6 6.9 19.5 10.8 13.5 32 18.7 51 12.5 19.4-6.3 33.9-19.7 43.3-40.2 6.2-13.4 5.5-25.7-1.7-33l-3.9-3.9-13.7.7c-11.3.5-17.6.2-35.6-1.9-33.7-3.9-45.4-2.9-51.9 4.3-2.7 2.8-2.5 6.1 1 19.2zm61.3 23.3c4.4-1.6 4.4-1.6 8.5.2 7 2.9 7.9 12.6 1.7 17.5-6.5 5.1-17.7.4-17.7-7.4 0-4.5 3-8.7 7.5-10.3zm-43.6-1.4c1.7-1 4.9-1.9 7.2-1.9 5.7 0 9.3 4.1 9.3 10.7 0 8.5-8.7 13.1-16.8 8.9-8.8-4.5-8.6-12.2.3-17.7z"/><path class="paintable" fill="#fff" d="M452.3 432.3c-4.8-7.3-23.4-27.3-25.1-27.2-.4 0-2.9 3.3-5.7 7.2-5.7 8.2-13.1 14.7-33.5 29.4-24.1 17.3-35.1 21.7-55 21.6-33.9-.1-79.8-9.7-103.5-21.5-16.7-8.4-21.5-13.7-26.5-29.9-2.4-7.6-3.5-9.9-4.8-9.8-3.8.1-19.5 6.1-24.5 9.3-9.9 6.5-14.1 11.9-21.1 27.2-7.4 16.3-13 25.5-21.6 34.9-7.6 8.4-14.8 18.6-23.6 33.5-5.7 9.7-8.6 13.2-18.1 22.5-12.2 11.8-13.2 13.9-9.5 18.6l1.9 2.3 3-2.5c4.5-3.8 9.1-5.5 10.6-3.9.9 1 .9 1.4 0 1.7-.6.2-3.3 1.8-5.9 3.6l-4.7 3.1 2.9 2.3c1.6 1.3 6.4 4.1 10.6 6.4 7 3.7 7.8 3.9 8.3 2.2 1.8-5.5 3-7.7 5.6-10.4 3.1-3.1 5.8-3.8 5.8-1.6 0 .7-.9 2.2-2.1 3.2-2.3 2.1-5.9 8.6-5.9 10.7 0 1.8 15.3 6.8 20.8 6.8 8.2 0 10-2.5 7.6-10.7-2-7-1.5-15.3 1.3-19.1 1.1-1.5 4.2-4.3 6.9-6.2 13.2-9.5 12.5-8.4 39.2-61.1 5.1-10 9.8-25.6 11.8-39.1.4-2.4 1.1-3.8 2-3.8 3.4 0 .8 29.7-5.1 60.5-4.3 22.4-8.6 38.3-17.1 64-6.2 18.7-6.6 20.7-7.1 31-.4 9.2 0 13.8 2.6 28.5 5.7 32.5 7.4 53.2 5 62.5-1.6 6.5-7.7 12.9-14.2 15-5.6 1.8-7.7 3.1-7.7 4.6 0 1.5 4.9 5.6 11.1 9.4l5.8 3.5 4.2-2.7c2.3-1.5 6.6-5.2 9.5-8.2 4.1-4.3 5.6-5.3 6.5-4.4 1.6 1.6-2.8 7.1-10.4 13.2l-5.5 4.4 10.8 5.3c5.9 2.9 11.1 5.3 11.4 5.3.5 0 4-7.1 8.5-17.8 1.2-2.9 2.7-5.2 3.2-5.2 2.4 0 1.7 3.9-2.5 13.3-2.5 5.7-4.6 10.7-4.6 11.3 0 1 20.8 10 21.3 9.3.2-.2 1.6-4.2 3.3-8.9 2-5.6 3.6-8.6 4.7-8.8 2.3-.5 2.1 1.4-1.2 10.8l-2.9 8.1 2.6 1.3c4.9 2.5 14.6 4.8 20.5 5 5.5.1 6-.1 8.6-3.2 1.5-1.8 3.5-5.6 4.4-8.4 2.4-7.5 3.2-23 1.6-32.9-.7-4.6-1.3-10-1.3-11.9.1-3.2-.4-3.8-4.3-5.9-11.1-5.9-21.7-28.1-29.3-61.6-6.9-30.2-6.7-51.1.5-79.8 6-23.9 12.8-37.6 23-46.6 18.2-16 47.8-20.5 71.4-10.9 20.3 8.3 35.3 24.3 42.7 45.3 2.7 7.6 2.8 8.9 2.8 25.5 0 16.1-.2 18.3-2.9 28-3.8 14-9.1 27.1-18.3 45.4-4.2 8.3-9.1 18.8-10.9 23.4-4 10-8.4 16.6-13 19.5-3.9 2.5-4 3-1.9 4.7.8.7 1.5 2.6 1.5 4.3 0 2.5-1.2 4.2-6.4 9.1-3.5 3.3-7.4 7.6-8.5 9.5-2.3 4-2.7 10.5-.9 14.6l1.2 2.7 9.1-.5c6.3-.4 11.4-1.4 16.5-3.2 10.4-3.8 11.9-4 11.9-2.2 0 3.5-16 8.6-27.9 9-3.9.1-7.1.4-7.1.7 0 .3 3.3 3.8 7.2 7.8 6.9 7 7.4 7.3 12 7.3 7.2 0 15.5-3.6 21.5-9.3 3.4-3.2 5.8-4.8 6.8-4.4 2.1.8.7 3.3-3.9 7.4-5.2 4.5-11.4 7.8-17.5 9.2l-5.4 1.3 2.4 2c4.2 3.4 17.2 9.4 23.2 10.8 5.6 1.2 5.8 1.2 8.3-1.1 3.4-3.2 8.7-10.4 11.4-15.7 2.3-4.3 5-5.7 5-2.4 0 2.4-6.3 12.8-10.1 16.7-3.7 3.9-3.7 4.5.3 4.4 10.7 0 25.5-6.5 33.4-14.6 9.1-9.3 10.6-16.1 12.4-53.8.6-12.6 1.2-23.2 1.4-23.5.3-.6 1.9-30.3 3.1-60.6 1.9-45.7 7.2-88.3 12.4-100 4.1-9.2 9.2-9.6 14.8-1.3 9.4 14 13.4 36.2 10.3 56.9-1.7 11.7-.2 16.1 7.6 22 7.1 5.3 8.2 4.5 6.5-4.8-1.3-7-1.1-8 1.2-7.1 1.7.6 3.1 7.3 2.8 13.4-.2 4 0 4.3 3.6 5.3 5.6 1.7 19.8 2.4 20.7 1.1.9-1.4-3.6-9.8-7.6-14.1-3.3-3.6-3.2-6.8 0-5.1 3 1.6 7.2 7.1 9.9 12.8 1.3 2.9 2.7 5.2 3 5.2 1.9 0 6.2-5.7 6.2-8.2 0-3.5-3.9-11.4-11.9-24-13.7-21.8-24.8-45.4-32.2-68.3-8.9-28.8-12.1-36.2-21.2-49.9z"/><path class="paintable" fill="#fff" d="M440.4 412.4c15.5 15.3 24.8 31.6 34.2 60.6 3.1 9.6 7.5 22 9.7 27.5 4.8 12.2 17.6 37.5 18.9 37.5.6 0 .8-25.3.7-65.8l-.3-65.8-34.8-.3-34.8-.3 6.4 6.6zM65 572V406H0v166h32.5zm372.9-332.7c-7.5 3.4-16 7.2-19 8.6-18.5 8.2-60 27.6-76.7 35.9-10.8 5.3-21.9 10.7-24.7 11.9-21.4 9.3-39.5 17.7-43.3 19.9-4.7 2.8-13.6 11.2-19 18.1l-3.3 4.2 7.3-.5c4.9-.4 14 .3 27.8 2.1 16.8 2.2 23.6 2.6 37.5 2.4 20-.4 22.2.3 26.5 8.7 2.2 4.3 2.5 6.2 2.5 15 0 9.5-.2 10.4-3.7 17.7-9.4 19.7-22.1 32.6-39 39.6-23.7 9.9-48.8 4.9-62-12.4-4.3-5.7-6-11.1-7.6-24.4-.6-5.2-2.5-14.2-4.2-20-1.8-6-2.9-12.1-2.7-14.2l.3-3.7H228c-15.9 0-30.6-10.1-37-25.6-1.3-3.1-2.6-5.6-3-5.6-.4 0-1.2 2.6-1.9 5.8-.7 3.2-3.1 10.6-5.3 16.5-6.4 17.2-5.2 22.5 8.2 38.1 7.2 8.3 14.2 21.5 17.1 32.2 2.8 10.1 5.1 14.6 10 19.3 9.4 9.1 38.7 20.5 65.5 25.5 17.2 3.2 44.8 5.8 55.5 5.3 17.7-.8 26.6-4.9 52.5-23.8 16.5-12.1 22.2-17 28.6-25 5.7-7.1 8-12.8 11.4-29.1 4.1-19.3 8.1-34.8 14.3-54.4l5.6-18 .2-27.5c.1-19.4.7-30.5 1.8-37.7.9-5.6 1.6-10.5 1.6-10.8-.1-.8-1.5-.3-15.2 5.9zm-77.4 53.1c5.4-1.7 17.8-1.7 24.4 0 6.2 1.6 6.6 1.9 5.8 4-.5 1.3-1 1.3-4.4-.1-2.6-1.1-6.7-1.7-13.3-1.7-8.7 0-10.1.2-16.4 3.2-6.5 3-8.6 3.3-8.6 1.2 0-1.2 7.1-4.9 12.5-6.6zm25.2 42.7c-7.3 7-20.3 9-29.3 4.4-6-3-9.3-7.6-10.1-14.2-1-8.6 3.7-15.2 12.4-17.2 6.4-1.5 25-1.3 28.1.3 7.8 4 7.2 18.8-1.1 26.7z"/><path class="paintable" fill="#fff" d="M0 0v234.2l4.8 1.5c3.3 1.1 11.2 1.7 26.2 2.2l21.5.7 18 6.1c21.6 7.3 55.3 20.8 72.5 29l12.5 6-14.5.6c-14.5.6-120.1 2.7-133.8 2.7H0v96h92.5c50.9 0 92.5-.3 92.5-.6s-1.6-2.3-3.5-4.5c-4.9-5.5-7.7-11.4-8.3-17.8-.4-4.8.1-7.1 3.7-16.5 5.4-14.2 8.6-27.8 10.1-42.3 1.7-17.5 3.6-24.5 9.8-36.3 3-5.8 6.2-11.9 7.1-13.5 3.2-6.2 2.8-13.1-1.7-26.4-2.3-6.7-5.7-15.6-7.5-19.9-12.7-28.9-9.5-53.1 9.3-70.6 6.1-5.7 16.1-10.6 23.4-11.6 13.6-1.9 30.2 3.5 38.9 12.7 1.5 1.5 4.5 6.4 6.6 10.8 4.4 8.8 6.9 11.6 12.4 13.9 5.1 2.1 9.3 2 23.8-1 16.8-3.5 40.5-4.3 57.7-2 15.7 2.1 23.2 2.1 26.2 0 2.2-1.5 2.2-2 1.6-10.8l-.7-9.2 3.2-3.7c7.3-8.4 28.1-9 44-1.5 2.5 1.2 7.4 5.1 11 8.7 10.4 10.5 16 24.1 16.4 40 .2 9.1-1 15.7-5.6 31.6-3.6 12.3-8.2 36.3-9.4 49.4l-.7 7.4 2.9-.6c14.5-3.1 14-3.1 53.9 2.2 20.9 2.8 39.9 5.1 42.2 5.1 2.3 0 6.5.5 9.4 1.1 3.9.8 6.2.8 9.1-.1 4.1-1.2 5.4-3.1 8-12 2-6.7 4.5-7.8 14.5-6.1 7.2 1.2 8.4 1.1 13.6-.6l5.7-1.9V0H0z"/><path class="paintable" fill="#fff" d="M503.4 282.7l-49.1.7-.6 11.6c-.7 12.3-2.1 19.2-8.1 38.6-3.4 10.9-9.5 34.1-11.1 42.2l-.7 3.2H612v-98.3l-29.8.7c-16.3.3-51.8.9-78.8 1.3zm-129.1 27.4c-18.8.2-25.3 4.3-24.1 15.3.9 8.2 6.9 12.7 16.9 12.8 9.6.1 18.1-5.3 20.7-13.1 1.9-5.7 1.4-9-1.8-12.2-2.7-2.8-3.2-2.9-11.7-2.8zm2.2 22c-5 2.3-9.7 2.4-14.1.3-9.7-4.6-9.9-15.5-.3-19 10.1-3.7 21.9 1.4 22.1 9.5.1 3.8-2.4 6.8-7.7 9.2zM519 406v79.1c0 57.1.3 80.2 1.2 83l1.2 3.9H612V406h-93z"/><path d="M437.6 181.8c12-1.5 12.9-2.4 12.8-14.3 0-6.9-.4-8.8-2.8-13.4-5.4-10.3-15.9-19.1-22.8-19.1-1.4 0-3.7 1.2-5.3 2.8-3.5 3.5-6.7 10.7-11.3 25.6-3.4 11-3.5 12-2.2 14.5 2.8 4.9 13.3 6.2 31.6 3.9zM229 184.5c5.6-1 15.8-6.9 25-14.3 11.8-9.5 11.6-9.2 9.6-14.6-3.2-8.3-13.5-15.2-27.2-18.1-7.6-1.6-18.2-1.8-23-.4-1.8.5-4.2 2.2-5.4 3.7-3 3.7-2.2 9.4 3 22.3 8.2 20.3 10.3 22.8 18 21.4zm-88 95.8l14.5-.6-12.5-6c-17.2-8.2-50.9-21.7-72.5-29l-18-6.1-21.5-.7c-15.1-.5-22.9-1.1-26.2-2.2L0 234.2V283h7.2c13.7.1 119.3-2.1 133.8-2.7zm117.2 126.3c8.1 4.2 16.8-.4 16.8-8.9 0-6.5-3.6-10.7-9.3-10.7-2.3 0-5.5.8-7.2 1.9-8.9 5.5-9.1 13.2-.3 17.7zm128.6-98.2c-3.1-1.6-21.8-1.8-28.1-.3-8.6 2-13.4 8.7-12.4 17.2.8 6.6 4 11.1 10.1 14.2 9 4.5 22 2.5 29.3-4.4 8.3-7.9 8.9-22.7 1.1-26.7zm1.1 16.7c-2.6 7.8-11.2 13.2-20.7 13.1-10-.1-16-4.6-16.9-12.8-1.2-11 5.3-15.1 24.1-15.3 8.5-.1 8.9 0 11.8 2.8 3.1 3.2 3.6 6.5 1.7 12.2z"/><path d="M592.7 254.9c-10-1.6-12.5-.5-14.5 6.1-2.6 8.9-3.9 10.8-8 12-2.9.9-5.2.9-9.1.1-2.9-.6-7.1-1.1-9.4-1.1-2.3 0-21.3-2.3-42.2-5.1-40-5.4-39.4-5.3-53.9-2.2l-2.9.6.7-7.4c1.2-13.1 5.8-37.1 9.4-49.4 4.7-15.8 5.8-22.5 5.6-31.6-.4-15.9-5.9-29.5-16.4-40-3.6-3.6-8.5-7.5-11-8.7-15.9-7.6-36.7-6.9-44 1.5l-3.2 3.7.7 9.2c.7 8.8.6 9.3-1.6 10.8-2.9 2.1-10.5 2.1-26.2 0-17.2-2.3-40.8-1.4-57.7 2-14.5 3-18.7 3.2-23.8 1-5.5-2.3-8-5.1-12.4-13.9-2.2-4.4-5.2-9.2-6.6-10.8-8.8-9.2-25.3-14.6-38.9-12.7-7.3 1-17.3 6-23.4 11.6-18.8 17.5-22 41.6-9.3 70.6 1.9 4.3 5.3 13.2 7.5 19.9 4.5 13.2 5 20.2 1.7 26.4-.9 1.6-4 7.7-7.1 13.5-6.2 11.8-8 18.8-9.8 36.3-1.4 14.6-4.7 28.2-10.1 42.3-3.6 9.4-4.1 11.7-3.7 16.5.6 6.4 3.3 12.4 8.3 17.8 1.9 2.1 3.5 4.1 3.5 4.5s-41.6.6-92.5.6H0v27h65v166H0v220h612V572h-90.6l-1.2-3.9c-.8-2.8-1.2-25.9-1.2-83V406h93v-27H433.8l.7-3.2c1.6-8.1 7.7-31.4 11.1-42.2 6-19.4 7.4-26.3 8.1-38.6l.6-11.6 49.1-.7c27-.4 62.5-1 78.9-1.3l29.8-.7v-28.4l-5.7 1.9c-5.3 1.8-6.5 1.9-13.7.7zm-391 4.5c7.1-14.1 7.6-15.6 7.5-21.5 0-7.3-3.9-20.3-10.9-36.7-7.7-17.9-9.6-29.6-7-42 4.4-20.6 22.4-36.8 41.7-37.1 2.5 0 7.2.6 10.5 1.5 13.8 3.6 20.4 8.8 26.4 20.9 5 10 9.9 14.9 17.1 16.6 5.3 1.3 11 .7 28-3 13.8-3 32.7-3.6 47.5-1.6 20.8 2.9 27.5 3 31.3.6 4.5-2.8 5.7-6.3 4.3-12.4-1.8-7.8-1.4-9.6 2.4-13.2 7.1-6.7 23.4-7 37.2-.5 11 5.2 18.6 13.9 24.1 27.9 2.4 6 2.6 8.1 2.7 19.7 0 11.9-.2 13.8-3.1 22.5-1.7 5.2-3.5 11.2-3.8 13.2-.6 3.3-1.1 3.9-4.3 4.7-44.6 11.4-64.7 19.7-100.9 41.5-22 13.3-30.7 17.8-38.7 20.1-11.2 3.3-24.1 1.6-33.5-4.3-10.5-6.6-28.6-12.3-43.8-13.8-16.2-1.6-31.6 5.5-41.4 18.9-1.6 2.2-2.8 3.3-2.8 2.5-.2-3.8 2.6-10.7 9.5-24.5zm89.9 84.1c18 2.1 24.3 2.4 35.6 1.9l13.7-.7 3.9 3.9c7.3 7.3 7.9 19.6 1.7 33-9.4 20.4-23.9 33.9-43.3 40.2-19 6.2-40.2 1-51-12.5-4.7-5.9-5.3-7.5-6.9-19.5-.8-6.2-2.9-16.4-4.6-22.8-3.5-13.1-3.7-16.4-1.2-19.2 6.7-7.2 18.4-8.2 52.1-4.3zM80 406h47.2c26 0 46.8.4 46.2.8-.5.5-3.3 2.5-6.2 4.6-8.1 5.8-12.5 12.2-18.2 26.4-4.1 10.3-10.6 21.3-17.1 28.9-11.5 13.5-19.1 24-26.7 36.7-5.9 9.9-9.8 15-15.7 20.9-4.3 4.3-8.3 7.8-8.8 7.8-.6 0-.9-24.7-.9-63V406zm16.2 166H80v-8.5c0-4.7.3-8.5.6-8.5s1.8.8 3.2 1.8c4.3 3 15.3 8.8 21.2 11.2 3 1.3 5.9 2.7 6.5 3.1.5.5-6.4.9-15.3.9zm46.6-.5l-.3-5.5c-.2-3-.8-7.5-1.3-9.9-1.8-7.9.9-13 9.6-18.9 9.5-6.4 13.5-11.7 21.7-28.4 4.1-8.4 10-19.8 13-25.3s6.3-12.4 7.2-15.2c1.8-5.5 3.9-7.3 2.9-2.5-.3 1.5-1.7 9.5-3.1 17.8-1.4 8.2-4.3 22.2-6.5 31-4.2 17-16 54.9-17.7 56.6-.6.6-6.1.9-13.2.7l-12.3-.4zM279.2 675c-10.5 5.5-13 5.3-20.6-1.9-13.6-12.9-27.9-61.2-28-94.1 0-15.1 1.3-24.2 6-42 7.6-28.6 15.1-40.2 31.8-49.5 14.5-8 31.5-9.9 49.5-5.3 14.3 3.6 27.2 12.1 36.6 24.2 9.8 12.5 14 23.9 15.1 40.8 1.3 20.3-4.7 41.8-21.1 75.9-5.7 11.8-11.4 23.9-12.7 26.9-6.8 15.4-11 18.3-26 18.1-12.3-.2-20.7 1.7-30.6 6.9zm181.2-108.1c.8 2.2 1.1 4.3.9 4.6-.3.3-7 .5-14.9.5H432v-4.4c0-13.9 5.7-54.5 9-64 3.5-10.2 5.6-11 10.1-3.9 3.8 6 6.7 13.7 8.9 23.8 2.3 10.7 2.5 18.1.6 29.7-1.4 8.4-1.4 10.2-.2 13.7zm57.6 7.9c0 2.5-4.3 8.2-6.2 8.2-.3 0-1.7-2.4-3-5.2-2.6-5.7-6.8-11.2-9.9-12.8-3.3-1.8-3.3 1.5 0 5.1 3.9 4.3 8.4 12.7 7.6 14.1-.8 1.4-15.1.6-20.7-1.1-3.6-1.1-3.7-1.3-3.6-5.3.2-6.1-1.2-12.8-2.8-13.4-2.3-.9-2.5.1-1.2 7.1 1.7 9.3.6 10.1-6.5 4.8-7.9-5.9-9.4-10.3-7.6-22 3.1-20.8-.9-42.9-10.3-56.9-5.6-8.4-10.7-7.9-14.8 1.3-5.2 11.7-10.5 54.3-12.4 100-1.2 30.3-2.8 60-3.1 60.6-.2.3-.8 10.9-1.4 23.5-1.8 37.7-3.3 44.5-12.4 53.8-7.9 8.1-22.6 14.5-33.4 14.6-4 0-4-.6-.3-4.4 3.8-3.9 10.1-14.4 10.1-16.7 0-3.2-2.7-1.9-5 2.4-2.7 5.3-8 12.5-11.4 15.7-2.5 2.3-2.8 2.4-8.3 1.1-6-1.3-19-7.4-23.2-10.8l-2.4-2 5.4-1.3c6.1-1.4 12.3-4.7 17.5-9.2 4.7-4.1 6-6.6 3.9-7.4-1-.4-3.4 1.1-6.8 4.4-6 5.7-14.3 9.3-21.5 9.3-4.6 0-5-.3-12-7.3-4-4-7.2-7.5-7.2-7.8 0-.3 3.2-.6 7.1-.7 11.9-.4 27.9-5.5 27.9-9 0-1.8-1.5-1.5-11.9 2.2-5.1 1.8-10.3 2.8-16.5 3.2l-9.1.5-1.2-2.7c-1.9-4.1-1.5-10.6.9-14.6 1.1-1.9 5-6.2 8.5-9.5 5.2-4.9 6.4-6.6 6.4-9.1 0-1.7-.7-3.7-1.5-4.3-2.1-1.8-1.9-2.2 1.9-4.7 4.6-3 9-9.6 13-19.5 1.8-4.5 6.7-15 10.9-23.4 9.2-18.3 14.4-31.4 18.3-45.4 2.7-9.7 2.9-11.9 2.9-28 0-16.6-.1-17.9-2.8-25.5-7.4-21-22.4-36.9-42.7-45.3-23.6-9.7-53.2-5.2-71.4 10.9-10.3 9-17 22.7-23 46.6-7.2 28.7-7.4 49.6-.5 79.8 7.6 33.4 18.2 55.7 29.3 61.6 3.9 2.1 4.4 2.7 4.3 5.9 0 2 .5 7.3 1.3 11.9 1.6 10 .8 25.5-1.6 32.9-.9 2.8-2.9 6.6-4.4 8.4-2.6 3.1-3.1 3.3-8.6 3.2-5.9-.1-15.6-2.5-20.5-5l-2.6-1.3 2.9-8.1c3.3-9.4 3.5-11.2 1.2-10.8-1.1.2-2.7 3.2-4.7 8.8-1.6 4.7-3.1 8.7-3.3 8.9-.5.7-21.3-8.4-21.3-9.3 0-.5 2-5.6 4.6-11.3 4.2-9.4 5-13.3 2.5-13.3-.5 0-1.9 2.4-3.2 5.2-4.6 10.6-8 17.8-8.5 17.8-.3 0-5.4-2.4-11.4-5.3l-10.8-5.3 5.5-4.4c7.6-6.1 11.9-11.6 10.4-13.2-.9-.9-2.4.1-6.5 4.4-2.9 3.1-7.2 6.8-9.5 8.2l-4.2 2.7-5.8-3.5c-6.2-3.8-11.1-7.9-11.1-9.4s2.2-2.8 7.7-4.6c6.5-2.1 12.5-8.5 14.2-15 2.3-9.3.7-30.1-5-62.5-2.6-14.7-3-19.3-2.6-28.5.4-10.3.9-12.3 7.1-31 8.5-25.7 12.7-41.6 17.1-64 6-30.8 8.5-60.5 5.1-60.5-.9 0-1.7 1.4-2 3.8-2 13.6-6.7 29.2-11.8 39.1-26.7 52.7-26 51.6-39.2 61.1-2.7 1.9-5.8 4.7-6.9 6.2-2.7 3.7-3.3 12.1-1.3 19.1 2.4 8.3.7 10.7-7.6 10.7-5.5 0-20.8-5-20.8-6.8 0-2.1 3.6-8.6 5.9-10.7 1.2-1 2.1-2.5 2.1-3.2 0-2.2-2.7-1.5-5.8 1.6-2.6 2.6-3.8 4.9-5.6 10.4-.5 1.6-1.3 1.4-8.3-2.2-4.3-2.2-9.1-5.1-10.6-6.4l-2.9-2.3 4.7-3.1c2.6-1.7 5.2-3.3 5.9-3.6.9-.3.9-.7 0-1.7-1.5-1.6-6.1.1-10.6 3.9l-3 2.5-1.9-2.3c-3.8-4.6-2.7-6.7 9.5-18.6 9.5-9.3 12.4-12.9 18.1-22.5 8.9-15 16.1-25.2 23.6-33.5 8.6-9.4 14.2-18.6 21.6-34.9 6.9-15.3 11.1-20.8 21.1-27.2 4.9-3.2 20.6-9.2 24.5-9.3 1.3 0 2.4 2.3 4.8 9.8 5 16.2 9.8 21.5 26.5 29.9 23.7 11.8 69.6 21.4 103.5 21.5 19.9.1 30.9-4.3 55-21.6 20.4-14.7 27.8-21.1 33.5-29.4 2.8-3.9 5.3-7.2 5.7-7.2 1.8-.1 20.3 19.9 25.1 27.2 9.1 13.8 12.3 21.1 21.6 50.2 7.4 23 18.5 46.5 32.2 68.3 7.6 12.3 11.5 20.2 11.5 23.7zm-49.3-168.6l34.8.3.3 65.8c.2 40.4-.1 65.8-.7 65.8-1.3 0-14-25.3-18.9-37.5-2.2-5.5-6.5-17.9-9.7-27.5-9.4-29-18.7-45.3-34.2-60.6l-6.5-6.4 34.9.1zM449.6 282l-.2 27.5-5.6 18c-6.1 19.6-10.2 35.1-14.3 54.4-3.4 16.2-5.7 22-11.4 29.1-6.4 7.9-12.1 12.9-28.6 25-25.9 18.9-34.8 22.9-52.5 23.8-10.7.5-38.3-2.1-55.5-5.3-26.8-5-56.1-16.4-65.5-25.5-4.9-4.8-7.2-9.2-10-19.3-2.9-10.7-9.9-24-17.1-32.2-13.4-15.5-14.6-20.9-8.2-38.1 2.2-5.9 4.6-13.4 5.3-16.5.7-3.2 1.6-5.8 1.9-5.8.4 0 1.7 2.5 3 5.6 6.4 15.5 21.1 25.6 37 25.6h6.6l-.3 3.7c-.2 2.1 1 8.2 2.7 14.2 1.7 5.8 3.6 14.8 4.2 20 1.6 13.3 3.2 18.7 7.6 24.4 13.2 17.3 38.3 22.3 62 12.4 16.9-7 29.7-20 39-39.6 3.5-7.3 3.7-8.2 3.7-17.7 0-8.8-.3-10.6-2.5-15-4.3-8.3-6.4-9-26.5-8.7-13.9.2-20.7-.2-37.5-2.4-13.8-1.8-22.9-2.5-27.8-2.1l-7.3.5 3.3-4.2c5.4-6.9 14.3-15.3 19-18.1 3.7-2.2 21.9-10.5 43.3-19.9 2.8-1.2 13.9-6.6 24.7-11.9 16.7-8.3 58.2-27.7 76.7-35.9 3-1.3 11.5-5.2 19-8.6 13.7-6.2 15.1-6.8 15.1-5.8 0 .3-.7 5.1-1.6 10.8-1 7.1-1.6 18.2-1.7 37.6z"/><path d="M362.1 313.4c-9.6 3.5-9.5 14.4.3 19 4.5 2.1 9.2 2 14.1-.3 5.3-2.4 7.8-5.4 7.7-9.2-.2-8.1-12-13.2-22.1-9.5zM312.3 408c6.2-4.9 5.3-14.6-1.7-17.5-4.1-1.7-4-1.7-8.5-.2-4.4 1.6-7.5 5.8-7.5 10.3 0 7.8 11.2 12.5 17.7 7.4zm44.3-110.2c6.2-2.9 7.7-3.2 16.4-3.2 6.5 0 10.7.6 13.3 1.7 3.4 1.5 3.9 1.5 4.4.1.8-2 .4-2.3-5.8-4-6.5-1.7-18.9-1.8-24.4 0-5.4 1.7-12.5 5.4-12.5 6.6 0 2.1 2.2 1.8 8.6-1.2z"/></g></svg>