<svg width="512" height="512" viewBox="0 0 512 512" fill="none" xmlns="http://www.w3.org/2000/svg">
<path d="M352 416.002H64V128.002H160V64.002H32C14.336 64.002 0 78.338 0 96.002V448.002C0 465.698 14.336 480.002 32 480.002H384C401.696 480.002 416 465.698 416 448.002V288.994H352V416.002Z" fill="black"/>
<path d="M505.6 131.202L377.6 35.2021C372.8 31.5541 366.272 30.9781 360.864 33.6981C355.424 36.4181 352 41.9541 352 48.0021V96.0021H304C206.944 96.0021 128 174.946 128 272.002C128 279.426 133.12 285.89 140.32 287.586C141.536 287.874 142.784 288.002 144 288.002C149.952 288.002 155.552 284.674 158.304 279.17L162.08 271.65C186.624 222.53 235.968 192.002 290.88 192.002H352V240.002C352 246.05 355.424 251.586 360.832 254.306C366.24 257.026 372.768 256.45 377.6 252.802L505.6 156.802C509.632 153.794 512 149.026 512 144.002C512 138.978 509.632 134.21 505.6 131.202Z" fill="#808080"/>
</svg>
