<svg width="513" height="513" viewBox="0 0 513 513" fill="none" xmlns="http://www.w3.org/2000/svg">
<g clip-path="url(#clip0)">
<path d="M338.133 370.142L286.72 421.769C276.715 431.789 263.12 437.396 248.96 437.342H199.04C184.88 437.396 171.285 431.789 161.28 421.769L97.28 357.769C76.587 336.848 76.587 303.17 97.28 282.249L173.867 205.876L338.133 370.142Z" fill="#808080"/>
<path d="M508.8 199.475L338.133 370.142L173.867 205.875L344.533 35.2079C348.455 31.0839 354.977 30.9199 359.1 34.8419C359.225 34.9609 359.347 35.0829 359.466 35.2079L508.8 184.542C512.927 188.46 513.103 194.976 509.185 199.103C509.062 199.232 508.936 199.358 508.8 199.475Z" fill="black"/>
<path d="M394.667 480.008H10.667C4.776 480.008 0 475.233 0 469.342C0 463.451 4.776 458.675 10.667 458.675H394.667C400.558 458.675 405.334 463.451 405.334 469.342C405.334 475.233 400.558 480.008 394.667 480.008Z" fill="black"/>
</g>
<defs>
<clipPath id="clip0">
<rect width="512.013" height="512.013" fill="white"/>
</clipPath>
</defs>
</svg>
